<?xml version="1.0" encoding="utf-8"?>
<!-- Generator: Adobe Illustrator 19.0.0, SVG Export Plug-In . SVG Version: 6.00 Build 0)  -->
<svg version="1.1" id="Layer_1" xmlns="http://www.w3.org/2000/svg" xmlns:xlink="http://www.w3.org/1999/xlink" x="0px" y="0px"
	 viewBox="0 0 36.5 88.5" style="enable-background:new 0 0 36.5 88.5;" xml:space="preserve">
<style type="text/css">
	.st0{opacity:0.4;}
	.st1{fill:#D19A3A;}
</style>
<path id="XMLID_1524_" class="st0" d="M14.2,44.4l19.1-35c1.4-2.6,0.4-5.8-2.1-7.2c-2.6-1.4-5.8-0.4-7.2,2.1L3.4,41.9c0,0,0,0,0,0
	c-0.1,0.2-0.2,0.4-0.2,0.6C3.1,42.6,3,42.7,3,42.9c0,0.1,0,0.2,0,0.2c-0.1,0.3-0.1,0.5-0.1,0.8c0,0.2,0,0.3,0,0.5c0,0.2,0,0.3,0,0.5
	c0,0.3,0.1,0.5,0.1,0.8c0,0.1,0,0.2,0,0.2c0,0.1,0.1,0.3,0.2,0.4c0.1,0.2,0.1,0.4,0.2,0.6c0,0,0,0,0,0l20.5,37.5
	c1.4,2.6,4.7,3.5,7.2,2.1c2.6-1.4,3.5-4.7,2.1-7.2L14.2,44.4z"/>
<path id="XMLID_1546_" class="st1" d="M9.8,44.3L29.9,8c0.4-0.8,0.1-1.7-0.6-2.2c-0.8-0.4-1.7-0.1-2.2,0.6l-20.5,37
	c-0.1,0.2-0.2,0.4-0.2,0.7c0,0,0,0.1,0,0.1c0,0,0,0.1,0,0.1c0,0.2,0.1,0.4,0.2,0.7l20.5,37c0.4,0.8,1.4,1.1,2.2,0.6
	c0.8-0.4,1.1-1.4,0.6-2.2L9.8,44.3z"/>
</svg>
