<?xml version="1.0" encoding="utf-8"?>
<!-- Generator: Adobe Illustrator 19.0.0, SVG Export Plug-In . SVG Version: 6.00 Build 0)  -->
<svg version="1.1" id="Layer_1" xmlns="http://www.w3.org/2000/svg" xmlns:xlink="http://www.w3.org/1999/xlink" x="0px" y="0px"
	 viewBox="-253 398.4 88.5 44.5" style="enable-background:new -253 398.4 88.5 44.5;" xml:space="preserve">
<style type="text/css">
	.st0{fill:#D09A3A;}
</style>
<path id="XMLID_417_" class="st0" d="M-227.6,416.1c0,0,5.8,2.3,18.2,2.3c12.4,0,18.2-2.3,18.2-2.3l-18.1-14.5L-227.6,416.1z"/>
<path id="XMLID_416_" class="st0" d="M-209.9,419.6c-2.4,0-4.5-0.1-6.3-0.2c0.3,4.5,3.3,8.1,7,8.1c3.6,0,6.6-3.5,7-8
	C-204.4,419.6-206.9,419.6-209.9,419.6z"/>
<path id="XMLID_401_" class="st0" d="M-177.5,422.6c0,0-0.9-0.6-2.6-1.5c-1.7-0.9-4.1-2.1-7-3.4c-1.5-0.6-3.1-1.3-4.8-1.9
	c-1.7-0.6-3.5-1.2-5.4-1.7c-3.8-1-7.9-1.6-11.9-1.5c-0.6,0-1.1,0-1.5,0.1c-0.5,0-1,0.1-1.5,0.1c-1,0.1-2,0.2-3,0.4
	c-2,0.3-4,0.8-5.9,1.3c-1.9,0.5-3.7,1.1-5.4,1.7s-3.3,1.2-4.8,1.9c-3,1.2-5.4,2.4-7.1,3.2c-1.7,0.8-2.7,1.3-2.7,1.3l-0.6-0.8
	c0,0,0.8-0.8,2.3-2c1.5-1.2,3.8-2.9,6.6-4.5c1.4-0.8,3-1.7,4.8-2.5c1.7-0.8,3.6-1.6,5.6-2.3c2-0.7,4.1-1.3,6.3-1.8
	c1.1-0.2,2.2-0.4,3.4-0.5c0.6-0.1,1.1-0.1,1.7-0.2c0.6,0,1.2-0.1,1.7-0.1c2.3-0.1,4.6,0.1,6.9,0.5c2.2,0.4,4.4,0.9,6.4,1.6
	c2,0.7,3.9,1.5,5.7,2.3c1.7,0.8,3.3,1.7,4.8,2.6c2.9,1.8,5,3.5,6.5,4.8s2.2,2.1,2.2,2.1L-177.5,422.6z"/>
<path id="XMLID_400_" class="st0" d="M-250,430.4c0,0,0,9.8,9.4,9.8c9.4,0,9.4-9.7,9.4-9.7L-250,430.4z"/>
<polygon id="XMLID_399_" class="st0" points="-231.5,431.1 -240.5,422.5 -249.5,431 -250,430.5 -240.5,421.4 -231,430.6 "/>
<path id="XMLID_398_" class="st0" d="M-187.2,430.7c0,0,0,9.9,9.5,9.9s9.5-9.8,9.5-9.8L-187.2,430.7z"/>
<polygon id="XMLID_397_" class="st0" points="-168.7,431.3 -177.7,422.7 -186.7,431.3 -187.2,430.7 -177.7,421.7 -168.2,430.8 "/>
<path id="XMLID_415_" class="st0" d="M-223.3,429.2c0,0,2.4,6.6,14,6.6c11.6,0,14.7-6.6,14.7-6.6l-8-2.7c0,0-2.3,2.9-6.6,2.9
	s-6.6-3-6.6-3L-223.3,429.2z"/>
</svg>
