<?xml version="1.0" encoding="utf-8"?>
<!-- Generator: Adobe Illustrator 19.0.0, SVG Export Plug-In . SVG Version: 6.00 Build 0)  -->
<svg version="1.1" id="Layer_1" xmlns="http://www.w3.org/2000/svg" xmlns:xlink="http://www.w3.org/1999/xlink" x="0px" y="0px"
	 viewBox="0 0 88.5 44.5" style="enable-background:new 0 0 88.5 44.5;" xml:space="preserve">
<style type="text/css">
	.st0{fill:#3B404F;}
</style>
<path id="XMLID_417_" class="st0" d="M25.4,17.7c0,0,5.8,2.3,18.2,2.3s18.2-2.3,18.2-2.3L43.7,3.2L25.4,17.7z"/>
<path id="XMLID_416_" class="st0" d="M43.1,21.2c-2.4,0-4.5-0.1-6.3-0.2c0.3,4.5,3.3,8.1,7,8.1c3.6,0,6.6-3.5,7-8
	C48.6,21.2,46.1,21.2,43.1,21.2z"/>
<path id="XMLID_401_" class="st0" d="M75.5,24.2c0,0-0.9-0.6-2.6-1.5c-1.7-0.9-4.1-2.1-7-3.4c-1.5-0.6-3.1-1.3-4.8-1.9
	c-1.7-0.6-3.5-1.2-5.4-1.7c-3.8-1-7.9-1.6-11.9-1.5c-0.6,0-1.1,0-1.5,0.1c-0.5,0-1,0.1-1.5,0.1c-1,0.1-2,0.2-3,0.4
	c-2,0.3-4,0.8-5.9,1.3c-1.9,0.5-3.7,1.1-5.4,1.7c-1.7,0.6-3.3,1.2-4.8,1.9c-3,1.2-5.4,2.4-7.1,3.2c-1.7,0.8-2.7,1.3-2.7,1.3
	l-0.6-0.8c0,0,0.8-0.8,2.3-2c1.5-1.2,3.8-2.9,6.6-4.5c1.4-0.8,3-1.7,4.8-2.5c1.7-0.8,3.6-1.6,5.6-2.3c2-0.7,4.1-1.3,6.3-1.8
	c1.1-0.2,2.2-0.4,3.4-0.5c0.6-0.1,1.1-0.1,1.7-0.2c0.6,0,1.2-0.1,1.7-0.1c2.3-0.1,4.6,0.1,6.9,0.5c2.2,0.4,4.4,0.9,6.4,1.6
	c2,0.7,3.9,1.5,5.7,2.3c1.7,0.8,3.3,1.7,4.8,2.6c2.9,1.8,5,3.5,6.5,4.8c1.5,1.3,2.2,2.1,2.2,2.1L75.5,24.2z"/>
<path id="XMLID_400_" class="st0" d="M3,32c0,0,0,9.8,9.4,9.8s9.4-9.7,9.4-9.7L3,32z"/>
<polygon id="XMLID_399_" class="st0" points="21.5,32.7 12.5,24.1 3.5,32.6 3,32.1 12.5,23 22,32.2 "/>
<path id="XMLID_398_" class="st0" d="M65.8,32.3c0,0,0,9.9,9.5,9.9s9.5-9.8,9.5-9.8L65.8,32.3z"/>
<polygon id="XMLID_397_" class="st0" points="84.3,32.9 75.3,24.3 66.3,32.9 65.8,32.3 75.3,23.3 84.8,32.4 "/>
<path id="XMLID_415_" class="st0" d="M29.7,30.8c0,0,2.4,6.6,14,6.6s14.7-6.6,14.7-6.6l-8-2.7c0,0-2.3,2.9-6.6,2.9S37.2,28,37.2,28
	L29.7,30.8z"/>
</svg>
