<?xml version="1.0" encoding="utf-8"?>
<!-- Generator: Adobe Illustrator 19.0.0, SVG Export Plug-In . SVG Version: 6.00 Build 0)  -->
<svg version="1.1" id="Layer_1" xmlns="http://www.w3.org/2000/svg" xmlns:xlink="http://www.w3.org/1999/xlink" x="0px" y="0px"
	 viewBox="-278 404.4 38.5 32.5" style="enable-background:new -278 404.4 38.5 32.5;" xml:space="preserve">
<style type="text/css">
	.st0{fill:#9D7A55;}
</style>
<g id="XMLID_439_">
	<path id="XMLID_476_" class="st0" d="M-256.6,419.7c-0.8,0-1.3,1-1.3,2.2c0,1.2,0.5,2.2,1.3,2.2c0.9,0,1.2-0.9,1.2-2.2
		C-255.3,420.7-255.7,419.7-256.6,419.7z"/>
	<path id="XMLID_477_" class="st0" d="M-261.6,417.9c0-1.2-0.3-2.2-1.2-2.2c-0.8,0-1.2,1-1.2,2.2c0,1.2,0.4,2.2,1.2,2.2
		C-262,420.1-261.6,419.2-261.6,417.9z"/>
	<path id="XMLID_480_" class="st0" d="M-247.5,419c0.6-1.3,0.2-2.9-1-3.8c-0.7-0.5-1.2-1.3-1.3-2.2c-0.2-1.5-1.3-2.6-2.8-2.8
		c-0.9-0.1-1.7-0.6-2.2-1.3l0,0c-0.9-1.2-2.5-1.6-3.8-1c-0.8,0.4-1.7,0.4-2.5,0c-1.3-0.6-2.9-0.2-3.8,1l0,0
		c-0.5,0.7-1.3,1.2-2.2,1.3c-1.5,0.2-2.7,1.3-2.8,2.8c-0.1,0.9-0.6,1.7-1.3,2.2c-1.2,0.9-1.6,2.5-1,3.8c0.4,0.8,0.4,1.7,0,2.5
		c-0.6,1.3-0.2,2.9,1,3.8c0.7,0.5,1.2,1.3,1.3,2.2c0.2,1.5,1.3,2.6,2.8,2.8c0.9,0.1,1.7,0.6,2.2,1.3c0.9,1.2,2.5,1.6,3.8,1
		c0.8-0.4,1.7-0.4,2.5,0c1.3,0.6,2.9,0.2,3.8-1c0.5-0.7,1.3-1.2,2.2-1.3c1.5-0.2,2.6-1.3,2.8-2.8c0.1-0.9,0.6-1.7,1.3-2.2
		c1.2-0.9,1.6-2.5,1-3.8C-247.9,420.7-247.9,419.8-247.5,419z M-265.2,418c0-1.9,1.1-3,2.3-3c1.4,0,2.2,1,2.2,2.9c0,2-1.1,3-2.3,3
		C-264.1,420.9-265.2,419.9-265.2,418z M-262.2,424.9c0,0-0.3,0.1-0.4-0.2c-0.1-0.2,0-0.5,0-0.5l5.3-9.3c0,0,0.1-0.2,0.4-0.2
		c0.3,0,0.5,0.2,0.5,0.2 M-256.6,424.9c-1.2,0-2.2-1-2.3-2.9c0-1.9,1.1-3,2.3-3c1.4,0,2.2,1,2.2,2.9
		C-254.3,423.9-255.4,424.9-256.6,424.9z"/>
</g>
</svg>
