<?xml version="1.0" encoding="utf-8"?>
<!-- Generator: Adobe Illustrator 19.0.0, SVG Export Plug-In . SVG Version: 6.00 Build 0)  -->
<svg version="1.1" id="Layer_1" xmlns="http://www.w3.org/2000/svg" xmlns:xlink="http://www.w3.org/1999/xlink" x="0px" y="0px"
	 viewBox="0 0 49.8 44.5" style="enable-background:new 0 0 49.8 44.5;" xml:space="preserve">
<style type="text/css">
	.st0{fill:#3B404F;}
</style>
<path id="XMLID_310_" class="st0" d="M8.3,17.8h32c0,0-0.8,5-3.8,8s-5,4.4-5,4.4v1.8H17.9v-2.2c0,0-4.2-1.7-6.9-4.8
	S8.3,17.8,8.3,17.8z"/>
<path id="XMLID_324_" class="st0" d="M23.8,14.4c0,0-2-2.7-1.7-5.4c0.4-2.7,4-3,4.9-4.1c0.9-1.1,0-2,0-2s2.8-0.6,2.7,2
	s-4.2,3.2-5.4,5.1C23.2,12,23.8,14.4,23.8,14.4z"/>
<path id="XMLID_325_" class="st0" d="M45.5,35.7H3.3c-0.8,0-1.4-0.6-1.4-1.4v0c0-0.8,0.6-1.4,1.4-1.4h42.2c0.8,0,1.4,0.6,1.4,1.4v0
	C46.9,35,46.3,35.7,45.5,35.7z"/>
<path id="XMLID_327_" class="st0" d="M1.1,41.8l2-6.3h42.5l2,6.3h-2.5c0,0-6.7-4.2-20.7-4.2S3.6,41.8,3.6,41.8H1.1z"/>
</svg>
