<?xml version="1.0" encoding="utf-8"?>
<!-- Generator: Adobe Illustrator 19.0.0, SVG Export Plug-In . SVG Version: 6.00 Build 0)  -->
<svg version="1.1" id="Layer_1" xmlns="http://www.w3.org/2000/svg" xmlns:xlink="http://www.w3.org/1999/xlink" x="0px" y="0px"
	 viewBox="-272 398.4 49.8 44.5" style="enable-background:new -272 398.4 49.8 44.5;" xml:space="preserve">
<style type="text/css">
	.st0{fill:#D09A3A;}
</style>
<path id="XMLID_310_" class="st0" d="M-263.7,416.2h32c0,0-0.8,5-3.8,8s-5,4.4-5,4.4v1.8h-13.6v-2.2c0,0-4.2-1.7-6.9-4.8
	C-263.7,420.3-263.7,416.2-263.7,416.2z"/>
<path id="XMLID_324_" class="st0" d="M-248.2,412.8c0,0-2-2.7-1.7-5.4c0.4-2.7,4-3,4.9-4.1s0-2,0-2s2.8-0.6,2.7,2
	c-0.1,2.6-4.2,3.2-5.4,5.1C-248.8,410.4-248.2,412.8-248.2,412.8z"/>
<path id="XMLID_325_" class="st0" d="M-226.5,434.1h-42.2c-0.8,0-1.4-0.6-1.4-1.4l0,0c0-0.8,0.6-1.4,1.4-1.4h42.2
	c0.8,0,1.4,0.6,1.4,1.4l0,0C-225.1,433.4-225.7,434.1-226.5,434.1z"/>
<path id="XMLID_327_" class="st0" d="M-270.9,440.2l2-6.3h42.5l2,6.3h-2.5c0,0-6.7-4.2-20.7-4.2s-20.8,4.2-20.8,4.2H-270.9z"/>
</svg>
