<?xml version="1.0" encoding="utf-8"?>
<!-- Generator: Adobe Illustrator 19.0.0, SVG Export Plug-In . SVG Version: 6.00 Build 0)  -->
<svg version="1.1" id="Layer_1" xmlns="http://www.w3.org/2000/svg" xmlns:xlink="http://www.w3.org/1999/xlink" x="0px" y="0px"
	 viewBox="0 0 29.7 111.5" style="enable-background:new 0 0 29.7 111.5;" xml:space="preserve">
<style type="text/css">
	.st0{fill:none;stroke:#000000;stroke-miterlimit:10;}
</style>
<path id="XMLID_430_" class="st0" d="M22.7,55.3c0,0-4.1-5.5-4.8-13.1c-0.5-5.6-0.5-6.4-0.5-6.4c0-1.9-1.4-3.4-3.2-3.4s-3,1.3-3,3.2
	c0,1.6,0.9,2.8,2.4,2.8c0.8,0,2.1-0.7,2.1-2.3"/>
<path id="XMLID_429_" class="st0" d="M22.6,34.7l1.4-13.2c0.2-1.8-1-3.5-2.8-3.7c-1.8-0.2-3.2,1-3.4,2.8c-0.2,1.6,0.6,2.9,2,3.1
	c0.8,0.1,2.2-0.4,2.4-2"/>
<path id="XMLID_428_" class="st0" d="M11.7,41.6c0,0,2.8,1.4,3.6,4.1c0.8,2.7,0,6.2,0,6.2c-0.2-0.1-2.8-1.8-4-4.7
	C10,44.2,11.7,41.6,11.7,41.6z"/>
<path id="XMLID_427_" class="st0" d="M15.2,51.9c0,0,0.9,1,3.1,2.1c2.1,1.1,4.4,1.3,4.4,1.3"/>
<path id="XMLID_426_" class="st0" d="M22.9,32.5c0,0-0.6-4.1-4.4-6.2s-7.2,0.1-7.2,0.1s2.3,2.2,4.6,2.7c2.3,0.4,4.6-1.2,4.6-1.2"/>
<path id="XMLID_425_" class="st0" d="M22.4,55.2c0,0-4.1,5.5-4.8,13.1c-0.5,5.6-0.5,6.4-0.5,6.4c0,1.9-1.4,3.4-3.2,3.4s-3-1.3-3-3.2
	c0-1.6,0.9-2.8,2.4-2.8c0.8,0,2.1,0.7,2.1,2.3"/>
<path id="XMLID_424_" class="st0" d="M22.7,76.5l1.5,13.2c0.2,1.8-1,3.5-2.8,3.7c-1.8,0.2-3.2-0.9-3.4-2.8c-0.2-1.6,0.6-2.9,2-3.1
	c0.8-0.1,2.2,0.4,2.4,2"/>
<path id="XMLID_423_" class="st0" d="M11.7,68.9c0,0,2.8-1.4,3.6-4.1c0.8-2.7,0-6.2,0-6.2c-0.2,0.1-2.8,1.8-4,4.7
	C10,66.3,11.7,68.9,11.7,68.9z"/>
<path id="XMLID_422_" class="st0" d="M15.2,58.6c0,0,0.9-1,3.1-2.1c2.1-1.1,4.4-1.3,4.4-1.3"/>
<path id="XMLID_421_" class="st0" d="M22.9,78.6c0,0-0.6,4.1-4.4,6.2c-3.7,2.2-7.2-0.1-7.2-0.1s2.2-2.2,4.6-2.7
	c2.3-0.5,4.6,1.2,4.6,1.2"/>
<path id="XMLID_420_" class="st0" d="M21.3,107c0,0-2-2.8-1-6.6c1.1-3.8,3.8-4.2,3.8-4.2s1.7,2.5,0.5,5.8
	C23.4,105.3,21.3,107,21.3,107z"/>
<path id="XMLID_419_" class="st0" d="M3.7,46.1c0,0,3.5-0.2,6,2.8s1.5,5.5,1.5,5.5s-3,0.1-5.1-2.7C3.9,48.8,3.7,46.1,3.7,46.1z"/>
<path id="XMLID_418_" class="st0" d="M11.4,56.1c0,0-3.5-0.2-6,2.8s-1.5,5.5-1.5,5.5s3,0.1,5.1-2.7C11.1,58.8,11.4,56.1,11.4,56.1z"
	/>
<path id="XMLID_417_" class="st0" d="M20.8,4.6c0,0-2,2.8-0.9,6.6c1.1,3.7,3.8,4.2,3.8,4.2s1.7-2.5,0.5-5.8
	C23,6.3,20.8,4.6,20.8,4.6z"/>
</svg>
