<?xml version="1.0" standalone="no"?>
<!DOCTYPE svg PUBLIC "-//W3C//DTD SVG 1.1//EN" "http://www.w3.org/Graphics/SVG/1.1/DTD/svg11.dtd" >
<svg xmlns="http://www.w3.org/2000/svg" xmlns:xlink="http://www.w3.org/1999/xlink" version="1.1">
<metadata>
Created by FontForge 20160407 at Sun Oct 30 14:14:45 2016
 By Jimmy Wärting
Copyright (c) 2016 by Jovanny Lemonad. All rights reserved.
</metadata>
<defs>
<font id="Bristol" horiz-adv-x="602" >
  <font-face
    font-family="Bristol"
    font-weight="400"
    font-stretch="normal"
    units-per-em="1000"
    panose-1="2 0 5 6 0 0 0 2 0 3"
    ascent="800"
    descent="-200"
    x-height="272"
    cap-height="669"
    bbox="-80 -727 5526 1101"
    underline-thickness="50"
    underline-position="-100"
    unicode-range="U+000D-F6D4"
  />
<missing-glyph horiz-adv-x="0"
 />
    <glyph glyph-name="foundryicon" unicode="Banksy" horiz-adv-x="5626"
d="M2091 206c-21 -5 -23 -20 -23 -34v-15c0 -75 -39 -139 -78 -197c-28 -41 -71 -61 -116 -61c-188 0 -247 261 -262 399c-6 53 -17 71 -50 71c-190 -8 -428 -139 -594 -225c-15 -8 -34 -9 -34 -34c0 -29 70 -46 101 -46c88 4 192 23 271 54c13 5 27 6 36 6
c42 0 96 -31 96 -84c0 -46 -21 -57 -54 -60c-183 -36 -369 -36 -552 -65c-194 -31 -384 -73 -569 -126c-29 -8 -54 -29 -89 -29c-40 0 -74 28 -74 85c0 28 22 51 70 64c146 39 293 76 437 116c19 5 42 5 42 23c0 24 -50 32 -73 37c-68 15 -136 30 -200 55
c-42 16 -73 43 -73 97c0 31 6 49 36 64c62 31 131 41 194 70c26 12 68 5 68 38s-45 32 -68 39c-75 21 -140 59 -208 87c-56 23 -79 53 -79 93c0 42 21 73 51 73c12 0 37 -5 50 -17c76 -70 176 -103 271 -143c98 -41 243 -119 243 -190c0 -72 -130 -86 -215 -106
c-13 0 -25 -3 -25 -19c0 -29 78 -48 110 -48c23 0 51 10 81 28c110 75 232 128 358 171c159 55 305 118 445 118c67 0 105 -37 118 -113c29 -62 14 -337 130 -337c16 0 123 93 123 146c-2 35 -149 11 -149 124c0 82 108 68 223 73c30 0 36 12 36 37c0 37 -8 68 -8 113
c0 37 9 76 62 76c51 0 80 -59 85 -118c4 -62 11 -82 58 -82c152 8 315 39 474 39c44 0 87 -5 132 -14c57 -11 123 -16 185 -16c20 0 40 0 58 2c132 5 407 194 568 247c8 1 14 3 22 3c49 0 105 -42 105 -95c0 -37 -25 -65 -63 -67c-171 -9 -318 -90 -458 -167
c-40 -22 -40 -54 -40 -98c0 -51 -23 -105 -23 -155c3 -31 23 -55 59 -81c158 -114 344 -182 502 -302c6 -6 17 -9 25 -9c11 0 17 6 17 18c0 36 -20 73 -20 114c0 89 50 108 86 189c44 101 89 201 132 301c10 23 19 55 56 55c17 0 22 18 22 36c0 49 33 86 57 126
c16 26 45 38 65 38c39 0 67 -43 67 -79c0 -45 -50 -95 -82 -131c-79 -89 -116 -199 -154 -306c-3 -8 -4 -15 -4 -22c1 -30 54 -55 91 -59c204 -26 445 -92 526 -294c15 -37 27 -76 65 -96c95 -51 197 -59 288 -98c92 -17 191 -28 284 -39c67 -8 99 -52 99 -115
c0 -37 -9 -66 -45 -66c-15 0 -45 4 -58 12c-98 61 -213 70 -321 99c-111 10 -221 72 -331 72c-66 0 -133 -34 -200 -34c-97 0 -189 38 -285 66c-8 2 -16 5 -23 5c-50 0 -35 -68 -83 -68c-11 0 -22 4 -34 11c-266 145 -482 306 -752 434c-12 4 -21 9 -29 9
c-17 0 -24 -12 -24 -39c4 -80 21 -166 21 -245c0 -54 -16 -97 -50 -97c-43 0 -94 54 -96 105c-4 109 -17 219 -20 327c0 25 -13 44 -36 55c-96 48 -206 99 -206 176c0 30 15 61 45 89c6 11 17 15 17 26c-2 19 -20 23 -33 23c-68 3 -136 7 -204 7c-128 0 -247 -21 -374 -41
c-59 -9 -59 -15 -59 -70c0 -148 -2 -299 -2 -448c0 -51 -14 -135 -69 -135s-89 56 -89 109c0 12 2 25 6 37c14 42 19 82 19 126c0 79 -6 155 -6 231c0 28 -3 77 -22 91zM3943 -127c-21 0 -27 -8 -27 -26c3 -76 70 -120 143 -124c104 -27 211 -36 315 -63
c59 0 125 -38 186 -38c18 0 32 12 32 31c0 99 -229 172 -297 189c-117 29 -234 0 -352 31zM3096 138c14 3 20 12 20 26c0 13 -14 18 -29 18c-11 0 -17 -10 -17 -22c0 -13 10 -23 26 -22zM5425 233c-17 73 -49 164 -74 238c0 5 -2 8 -2 11c0 21 22 42 42 42c9 0 22 -9 33 -18
c68 -75 102 -177 102 -278c0 -229 -163 -456 -399 -456c-185 0 -334 93 -460 217c-146 143 -213 318 -242 515c0 11 -3 14 -3 23c0 22 26 69 46 69c59 0 80 -77 86 -137c23 -138 69 -271 178 -371c94 -86 230 -189 361 -189c186 0 332 129 332 334z" />
    <glyph glyph-name=".notdef" horiz-adv-x="0"
 />
    <glyph glyph-name="B" unicode="B" horiz-adv-x="583"
d="M310 714c98 -4 219 -79 219 -182c0 -72 -60 -149 -110 -202c-12 -13 -18 -25 -18 -36c0 -45 162 -150 162 -205c0 -58 -148 -68 -224 -82c-37 -7 -76 -7 -116 -17c-9 -2 -17 -4 -25 -4c-11 0 -59 29 -59 56c0 44 83 65 119 65c13 0 27 -5 41 -5c28 0 61 17 61 36
c0 28 -68 72 -78 72c-29 0 -36 -75 -87 -75c-125 0 -83 237 -115 362c-9 36 -20 87 -20 111c0 82 160 102 250 106zM390 523v11c0 53 -39 70 -98 70c-47 0 -85 -17 -85 -41c30 -63 11 -210 54 -210c6 0 12 2 20 6c60 38 89 99 109 164z" />
    <glyph glyph-name="F" unicode="F" horiz-adv-x="651"
d="M369 330c15 5 31 6 48 6c42 0 89 -12 136 -18c29 -4 57 -10 57 -48c0 -36 -70 -54 -95 -54c-12 0 -25 2 -37 2c-49 0 -94 -16 -141 -17c-47 -5 -57 -32 -57 -76c0 -42 17 -76 17 -115c0 -42 -34 -91 -81 -91c-64 0 -73 116 -73 158c0 22 4 43 4 65c0 63 -45 78 -45 108
c0 35 38 71 38 128c0 31 -3 59 -37 76c-29 15 -43 32 -43 54c0 11 3 27 13 42c27 41 52 77 54 130c3 30 25 54 54 54c20 0 44 -12 64 -12c109 0 213 54 327 54c54 0 139 -34 139 -76c0 -47 -44 -63 -75 -63c-8 0 -16 0 -24 3c-31 11 -61 15 -90 15c-58 0 -237 -19 -237 -96
c0 -15 5 -43 5 -66c0 -42 -20 -96 -20 -121c0 -36 25 -42 99 -42z" />
    <glyph glyph-name="S" unicode="S" horiz-adv-x="427"
d="M372 140c-6 -105 -92 -208 -192 -208c-46 0 -82 25 -82 68c0 31 24 78 56 94c47 22 69 43 69 81c0 52 -57 125 -110 167c-51 46 -73 84 -73 122c0 98 150 280 322 322c9 5 15 11 30 11c52 0 95 -37 95 -63c0 -33 -33 -45 -57 -55c-65 -27 -120 -67 -179 -102
c-35 -21 -75 -63 -75 -104c0 -18 8 -37 28 -53c83 -68 169 -167 169 -265c0 -5 -1 -10 -1 -15z" />
    <glyph glyph-name="R" unicode="R" horiz-adv-x="603"
d="M207 322c-11 -81 -11 -70 -22 -152c-9 -66 -18 -186 -82 -186c-41 0 -53 26 -53 56c0 40 4 87 12 125c39 192 49 293 70 486c12 114 112 201 216 201c97 0 157 -66 157 -151c0 -101 -31 -213 -134 -263c-24 -12 -34 -24 -34 -44c0 -12 5 -26 14 -41
c54 -91 108 -186 218 -224c29 -12 74 -61 74 -76c0 -33 -24 -55 -54 -55c-20 0 -36 12 -54 17c-137 65 -229 173 -309 307c-3 -1 -5 -1 -8 -1s-7 0 -11 1zM384 684c0 44 -3 57 -22 57c-55 0 -144 -98 -144 -156c0 -34 17 -55 41 -55c8 0 17 3 27 8c58 32 94 78 98 146z" />
    <glyph glyph-name="P" unicode="P" horiz-adv-x="479"
d="M243 669c114 0 216 -89 216 -195c0 -81 -74 -148 -140 -173c-57 -22 -78 -51 -78 -104c0 -48 4 -101 4 -150c0 -29 -17 -45 -40 -45c-41 0 -104 45 -104 102c0 49 5 98 5 147c0 73 -26 152 -26 228c0 102 60 190 163 190z" />
    <glyph glyph-name="T" unicode="T" horiz-adv-x="572"
d="M192 296c3 65 10 131 10 193c0 37 -7 49 -36 49c-21 0 -52 -6 -78 -6c-41 0 -88 11 -88 56c0 54 101 69 154 69c114 0 223 -36 337 -36c11 0 22 0 34 1c21 -2 67 -29 67 -59c0 -49 -59 -50 -87 -50c-36 0 -75 3 -109 3c-36 0 -35 -7 -42 -55c-15 -98 -11 -194 -14 -291
c-3 -80 -11 -136 -69 -136c-55 0 -87 27 -87 75c0 63 7 126 9 187h-1z" />
    <glyph glyph-name="a" unicode="a" horiz-adv-x="531"
d="M126 -37c-60 4 -96 39 -96 86c0 13 3 28 9 43c34 81 91 145 182 165c26 6 51 10 74 32c20 19 43 29 62 29c31 0 60 -24 69 -70c6 -34 14 -63 45 -83c16 -11 30 -24 30 -43c0 -51 -57 -64 -92 -64c-25 0 -50 5 -72 22c-13 10 -24 14 -34 14c-16 0 -30 -11 -42 -32
c-27 -46 -85 -101 -122 -101c-4 0 -9 1 -13 2z" />
    <glyph glyph-name="e" unicode="e" horiz-adv-x="586"
d="M435 152c25 -44 121 4 121 -74c0 -81 -107 -94 -171 -94c-50 0 -97 15 -138 58c-25 26 -48 39 -76 39c-20 0 -45 -12 -68 -12c-45 0 -103 49 -103 95c0 44 37 81 76 81c8 0 17 -1 24 -1c45 0 66 27 91 66c33 66 120 107 195 107c88 0 115 -84 115 -148
c0 -23 -6 -46 -26 -68c-14 -15 -40 -20 -40 -49z" />
    <glyph glyph-name="h" unicode="h" horiz-adv-x="546"
d="M306 315c7 1 13 1 19 1c114 0 118 -144 200 -207c14 -13 21 -29 21 -46c0 -43 -42 -73 -81 -73c-100 0 -139 160 -165 160c-31 0 -110 -134 -173 -134c-54 0 -77 46 -77 80c0 10 2 21 4 32c17 80 33 159 53 239c21 85 45 170 53 259c6 64 32 96 71 96
c42 0 90 -68 90 -113c0 -69 -32 -161 -52 -234c-6 -21 -9 -34 -9 -43c0 -17 11 -17 46 -17z" />
    <glyph glyph-name="f" unicode="f" horiz-adv-x="392"
d="M441 583c0 -49 -26 -85 -74 -96c-48 -7 -52 -35 -52 -69c0 -43 -11 -88 -11 -115c0 -35 51 -71 51 -90c0 -13 -11 -22 -33 -32c-38 -17 -47 -46 -49 -81c-3 -62 -12 -126 -12 -191c0 -46 -28 -112 -73 -112c-31 0 -66 16 -66 47c0 6 1 13 3 20c19 59 13 124 21 184
c1 7 2 14 2 21c0 30 -14 44 -52 44c-33 2 -66 33 -66 57c0 11 12 33 31 39c113 37 113 134 121 227c7 81 12 163 20 244c6 61 33 94 79 94c92 0 161 -86 161 -171c0 -7 0 -13 -1 -20z" />
    <glyph glyph-name="i" unicode="i" horiz-adv-x="237"
d="M120 201c49 -5 87 -66 87 -117c0 -34 -31 -75 -70 -75c-47 0 -87 64 -87 127c0 52 31 65 70 65zM197 475c-5 -42 -34 -76 -67 -76c-43 0 -79 35 -79 71c0 39 32 74 72 74c37 0 74 -39 74 -69z" />
    <glyph glyph-name="n" unicode="n" horiz-adv-x="543"
d="M296 206c-107 -47 -82 -261 -186 -261c-61 0 -80 52 -80 107c0 68 44 137 109 153c77 18 103 117 180 117s121 -98 121 -153c0 -46 9 -88 65 -105c19 -6 38 -19 38 -40c0 -32 -33 -56 -63 -56c-123 0 -152 145 -184 238z" />
    <glyph glyph-name="g" unicode="g" horiz-adv-x="436"
d="M406 -92c-9 -112 -47 -208 -130 -279c-17 -14 -38 -21 -53 -21c-28 0 -60 24 -60 62c0 18 11 32 23 45c51 54 84 161 84 220c0 57 -16 172 -58 172c-20 0 -60 -30 -97 -30c-39 0 -85 34 -85 91c0 45 50 104 102 104c10 0 21 -3 31 -3c31 0 56 13 83 38c9 8 21 11 33 11
c37 0 81 -30 81 -69c0 -102 44 -192 44 -292c0 -18 -2 -35 2 -49z" />
    <glyph glyph-name="m" unicode="m" horiz-adv-x="873"
d="M30 219c6 63 21 103 78 111c26 2 44 22 65 35c27 22 43 32 60 32c16 0 33 -10 58 -30c31 -25 44 -68 89 -68c38 0 56 37 83 58c55 42 103 62 141 62c54 0 93 -40 133 -123c34 -71 106 -121 106 -181c0 -33 -29 -75 -64 -75c-71 0 -155 197 -195 197
c-26 0 -85 -73 -135 -127c-11 -12 -23 -18 -36 -18c-47 0 -181 127 -195 127c-43 0 -23 -142 -103 -142c-79 0 -78 105 -85 142z" />
    <glyph glyph-name="o" unicode="o" horiz-adv-x="361"
d="M201 272c61 0 110 -60 110 -122c-3 -70 -66 -130 -139 -130c-75 0 -122 46 -122 106c0 107 50 146 151 146z" />
    <glyph glyph-name="r" unicode="r" horiz-adv-x="459"
d="M434 461c29 -9 75 -15 75 -54c0 -24 -30 -34 -50 -49c-21 -16 -48 -13 -72 -15c-86 -7 -117 -31 -140 -109c-12 -41 -21 -81 -22 -124c-2 -40 -34 -75 -71 -75c-33 0 -80 34 -88 68c-5 19 -5 38 -5 57c0 14 1 29 1 43c0 25 -2 50 -10 76c-2 4 -2 8 -2 13
c0 47 94 91 157 130c28 17 57 32 92 32c16 0 32 -5 48 -5c29 0 58 7 87 12z" />
    <glyph glyph-name="l" unicode="l" horiz-adv-x="248"
d="M207 358c0 -78 -10 -155 -10 -233c0 -37 10 -74 10 -110s-38 -81 -70 -81c-30 0 -73 44 -78 86c-6 54 -9 108 -9 162c0 136 10 284 19 421c4 69 20 94 66 94c49 0 83 -38 83 -94c0 -73 -12 -144 -12 -214c0 -10 0 -21 1 -31z" />
    <glyph glyph-name="d" unicode="d" horiz-adv-x="654"
d="M388 317c14 -7 27 -10 39 -10c66 0 160 127 196 206c15 33 29 63 29 98c0 28 -16 60 -16 87c0 52 58 130 93 130c23 0 75 -33 75 -63c0 -3 -1 -7 -2 -11c-22 -89 -20 -183 -64 -270c-102 -202 -272 -366 -476 -452c-26 -11 -52 -23 -81 -23c-82 0 -131 45 -131 101
c0 22 7 46 23 70c50 74 119 119 210 130c35 1 72 3 105 7z" />
    <glyph glyph-name="k" unicode="k" horiz-adv-x="550"
d="M268 114c-38 -33 -70 -49 -100 -49c-31 0 -125 49 -125 104c0 9 4 19 12 28c20 21 25 43 25 65c0 54 -22 136 -43 196c-5 13 -7 26 -7 37c0 38 26 68 64 68c29 0 58 -18 80 -48c12 -21 13 -43 21 -63c12 -48 22 -141 62 -141c30 0 91 29 124 29c35 0 93 -26 93 -72
c0 -31 -71 -29 -71 -71c0 -39 28 -75 70 -80c18 -2 34 -1 46 -16c16 -20 31 -37 31 -60c0 -40 -37 -61 -67 -61c-94 0 -155 74 -215 134z" />
    <glyph glyph-name="s" unicode="s" horiz-adv-x="305"
d="M113 -90c-42 4 -67 26 -67 57c0 22 25 56 25 76c0 10 -3 20 -10 33c-14 27 -21 59 -21 90c0 82 47 161 122 196c13 6 26 10 40 10c37 0 63 -28 63 -59c0 -20 -12 -34 -33 -51c-42 -34 -62 -55 -62 -77c0 -21 16 -45 47 -89c18 -21 29 -45 29 -69
c0 -79 -86 -117 -133 -117z" />
    <glyph glyph-name="u" unicode="u" horiz-adv-x="409"
d="M50 229c11 59 9 148 76 148c38 0 79 -38 79 -87c-5 -28 -19 -58 -19 -89c0 -10 7 -22 20 -22c48 0 61 171 129 171c28 0 74 -30 74 -76c0 -5 -1 -10 -3 -14c-39 -103 -105 -249 -217 -249c-99 0 -139 90 -139 159c0 19 3 39 4 59h-4z" />
    <glyph glyph-name="t" unicode="t" horiz-adv-x="545"
d="M545 315c-32 -38 -72 -61 -116 -69c-34 -6 -50 -24 -50 -53c0 -16 4 -33 4 -48c0 -46 -19 -113 -68 -113c-34 0 -73 19 -73 64c0 23 4 45 4 69c0 45 -6 61 -36 61c-31 0 -70 -12 -104 -12c-44 0 -106 28 -106 78c0 145 227 23 227 139c0 55 -14 111 -14 165
c0 29 5 73 60 73c32 0 52 -27 69 -51c36 -50 41 -106 43 -163c2 -70 1 -70 68 -91c31 -10 62 -24 92 -49z" />
    <glyph glyph-name="y" unicode="y" horiz-adv-x="540"
d="M326 140c-41 -18 -50 -53 -73 -79c-28 -32 -53 -67 -102 -67c-74 0 -121 40 -121 111c0 73 13 150 21 225c5 42 36 71 72 71c42 0 76 -39 76 -86c0 -15 -2 -31 -3 -51c49 41 89 77 120 123c17 26 39 39 62 39c41 0 97 -56 100 -112c8 -57 12 -115 12 -171
c0 -110 -16 -218 -50 -324c-10 -39 -19 -78 -19 -120c0 -46 -44 -74 -90 -74c-34 0 -78 14 -78 53c0 12 3 24 6 35c20 81 41 165 59 247c8 36 14 74 14 115c0 21 -2 42 -6 65z" />
    <glyph glyph-name="c" unicode="c" horiz-adv-x="392"
d="M392 166c-50 -89 -111 -141 -215 -141c-73 0 -147 45 -147 135c0 91 85 170 179 190c6 1 11 2 17 2c33 0 65 -23 65 -43c0 -56 -125 -97 -125 -137c0 -20 18 -36 38 -36c3 0 7 1 10 2c35 10 70 17 105 30c12 4 24 9 38 9c10 0 22 -3 35 -11z" />
    <glyph glyph-name="p" unicode="p" horiz-adv-x="473"
d="M36 -239c3 118 40 233 40 351c0 38 -16 82 -16 118c0 78 69 135 182 135c102 0 201 -50 201 -167c0 -85 -70 -152 -167 -152c-20 0 -36 2 -48 2c-37 0 -41 -13 -46 -68c-13 -122 -22 -246 -40 -368c-9 -59 -30 -90 -60 -90c-32 0 -52 44 -52 96c0 48 5 95 6 143z" />
    <glyph glyph-name="period" unicode="." horiz-adv-x="272"
d="M50 83c5 51 49 100 87 100c32 0 85 -70 85 -103c-8 -42 -56 -80 -102 -80c-50 0 -70 35 -70 83z" />
    <glyph glyph-name="comma" unicode="," horiz-adv-x="227"
d="M197 30c-46 -100 -117 -157 -165 -242c-6 -9 -15 -16 -25 -16c-31 0 -37 28 -37 50c0 9 1 18 4 24c42 80 80 162 143 228c10 11 24 23 36 23c28 0 42 -40 44 -67z" />
    <glyph glyph-name="I" unicode="I" horiz-adv-x="329"
d="M94 249c3 81 14 193 27 280c11 52 47 139 102 139c36 0 66 -61 66 -104c0 -14 -4 -27 -11 -43c-40 -88 -59 -212 -59 -308c0 -35 5 -71 5 -106s-4 -99 -52 -99c-54 0 -92 76 -92 122c0 36 10 77 14 119z" />
    <glyph glyph-name="w" unicode="w" horiz-adv-x="867"
d="M52 217c-1 5 -1 11 -1 16c0 63 23 151 78 151c30 0 49 -22 65 -47c19 -24 4 -75 52 -75c25 0 52 24 77 37c31 16 53 24 74 24c62 0 153 -140 206 -140c34 0 97 56 115 119c10 33 32 50 56 50c42 0 63 -32 63 -61c0 -5 0 -10 -1 -15c-15 -91 -35 -173 -114 -229
c-35 -25 -65 -38 -98 -38c-65 0 -131 55 -187 111c-25 24 -39 37 -54 37c-28 0 -169 -142 -222 -142c-77 0 -111 107 -111 166c0 12 1 24 2 36z" />
    <glyph glyph-name="b" unicode="b" horiz-adv-x="340"
d="M262 515c0 -20 -9 -31 -15 -49c-20 -64 -51 -139 -51 -196c0 -51 22 -63 78 -110c24 -28 36 -51 36 -73c0 -36 -55 -104 -108 -104c-59 0 -90 70 -143 113c-13 10 -19 26 -19 42c0 9 1 18 5 26c74 154 35 457 135 457c42 -5 82 -60 82 -106z" />
    <glyph glyph-name="hyphen" unicode="-" horiz-adv-x="780"
d="M209 371c160 -11 313 -51 470 -73c15 -2 71 -39 71 -66c0 -39 -35 -56 -61 -56c-7 0 -13 0 -20 2c-65 14 -126 24 -194 26c-98 2 -193 28 -291 28c-26 0 -51 -5 -77 -5c-38 0 -77 43 -77 74c0 43 41 74 92 74c29 0 59 -2 87 -4z" />
    <glyph glyph-name="grave" unicode="`" horiz-adv-x="184"
d="M31 664c0 26 12 38 35 38c54 0 88 -64 88 -111c0 -35 -21 -52 -40 -52c-43 0 -84 59 -84 112c0 4 0 9 1 13z" />
    <glyph glyph-name="q" unicode="q" horiz-adv-x="430"
d="M375 32c-12 -137 -2 -441 -103 -441c-27 0 -50 22 -50 59c0 11 2 22 7 36c19 58 19 116 23 177s7 122 7 182c0 42 -11 62 -33 62c-30 0 -87 -48 -140 -48c-37 0 -56 18 -56 68c0 83 71 164 154 164c11 0 24 -1 29 -6c29 -45 80 -54 126 -73c36 -15 41 -62 41 -98
c0 -28 -3 -56 -5 -82z" />
    <glyph glyph-name="v" unicode="v" horiz-adv-x="443"
d="M402 142c1 -6 1 -10 1 -15c0 -61 -82 -91 -124 -127c-10 -9 -24 -10 -34 -11c-19 0 -37 8 -54 19c-82 53 -131 131 -165 220c-4 9 -6 17 -6 26c0 25 28 43 51 43c78 0 105 -129 144 -129c50 0 86 119 139 119c37 -9 48 -81 48 -93c0 -13 -2 -25 -2 -36c0 -6 1 -11 2 -16z
" />
    <glyph glyph-name="j" unicode="j" horiz-adv-x="210"
d="M20 -316c17 62 38 365 38 431c0 32 12 59 52 59c46 0 56 -55 56 -141c0 -138 -29 -354 -35 -428c-2 -27 -23 -38 -49 -38c-38 0 -62 25 -62 66c0 11 1 23 1 34c0 6 0 11 -1 17zM190 401c-4 -27 -67 -74 -95 -74c-26 0 -49 43 -49 81c0 34 20 59 51 59c40 0 93 -38 93 -66
z" />
    <glyph glyph-name="space" unicode=" " horiz-adv-x="300"
 />
    <glyph glyph-name="afii10078" unicode="&#x43c;" horiz-adv-x="728"
d="M31 92c26 49 7 126 93 153c70 22 51 154 124 154c90 0 89 -146 141 -146c47 0 107 131 165 131c23 0 43 -16 55 -49c33 -87 59 -176 85 -264c2 -8 4 -15 4 -22c0 -21 -19 -50 -53 -50c-67 0 -99 154 -127 154c-11 0 -22 -11 -41 -30c-33 -33 -62 -49 -88 -49
c-28 0 -57 18 -91 55c-31 33 -46 50 -59 50c-18 0 -33 -54 -64 -136c-12 -31 -26 -59 -62 -59c-44 0 -83 39 -83 84c0 6 1 13 1 24z" />
    <glyph glyph-name="afii10065" unicode="&#x430;" horiz-adv-x="495"
d="M31 164c0 2 -1 5 -1 7c0 83 129 147 210 176c5 2 11 2 17 2c34 0 79 -30 79 -62c0 -39 15 -56 42 -77c38 -31 87 -97 87 -125c0 -32 -28 -50 -51 -50c-59 0 -106 67 -157 67c-34 0 -80 -27 -120 -27c-44 0 -106 30 -106 89z" />
    <glyph glyph-name="afii10070" unicode="&#x435;" horiz-adv-x="461"
d="M291 -32c-138 0 -241 104 -241 196c0 79 108 231 240 231c74 0 124 -47 124 -108c0 -66 -62 -107 -116 -130c-16 -7 -35 -11 -35 -28c0 -28 41 -29 51 -29c23 0 43 14 60 14c28 0 57 -34 57 -60c0 -69 -100 -86 -140 -86z" />
    <glyph glyph-name="afii10068" unicode="&#x433;" horiz-adv-x="391"
d="M328 399c7 1 13 2 19 2c43 0 94 -61 94 -77c0 -10 -10 -15 -32 -28c-45 -27 -92 -22 -139 -26c-73 -7 -80 -21 -80 -104c0 -19 5 -40 5 -61c0 -31 -14 -65 -58 -65c-61 0 -87 90 -87 143c0 111 60 199 162 208c38 3 78 6 116 8z" />
    <glyph glyph-name="afii10083" unicode="&#x441;" horiz-adv-x="380"
d="M200 37c-136 5 -170 85 -170 157c0 97 99 186 183 186c50 0 93 -19 93 -74c0 -68 -103 -62 -103 -107c0 -24 20 -29 38 -29c9 0 19 1 29 1c11 0 33 -1 48 -6c22 -2 62 5 62 -40s-89 -91 -146 -91c-11 0 -23 1 -34 3z" />
    <glyph glyph-name="afii10080" unicode="&#x43e;" horiz-adv-x="316"
d="M31 126c3 75 82 173 144 173c51 0 111 -54 111 -104c0 -91 -114 -186 -166 -186c-66 0 -90 60 -90 98c0 6 0 13 1 19z" />
    <glyph glyph-name="afii10085" unicode="&#x443;" horiz-adv-x="629"
d="M420 140c-32 -10 -46 -30 -61 -44c-54 -49 -114 -76 -155 -76c-77 0 -154 129 -154 257c0 39 23 71 51 71c41 0 82 -47 82 -80c12 -68 11 -100 39 -100c17 0 144 43 202 112c17 21 37 31 56 31c51 0 71 -68 74 -151c4 -124 44 -248 44 -374c0 -14 1 -30 1 -46
c0 -46 -6 -91 -53 -91c-76 4 -70 71 -72 136c0 120 -22 236 -54 355z" />
    <glyph glyph-name="afii10082" unicode="&#x440;" horiz-adv-x="539"
d="M1 -292c13 92 26 190 49 286c21 99 46 196 60 298c12 92 100 151 193 151c120 0 206 -100 206 -186c0 -92 -93 -189 -220 -197c-86 -9 -81 -12 -104 -90c-25 -82 -24 -166 -50 -247c-22 -69 13 -201 -58 -201c-50 0 -77 71 -77 114c0 17 2 35 2 53c0 6 -1 13 -1 19z
M357 280c-8 10 -16 17 -28 17c-22 0 -59 -12 -59 -45c0 -13 10 -20 22 -20c25 0 59 17 65 48z" />
    <glyph glyph-name="afii10069" unicode="&#x434;" horiz-adv-x="433"
d="M403 -161c-4 -84 -26 -162 -70 -233c-12 -19 -25 -49 -53 -49c-40 0 -80 50 -80 92c0 35 10 69 30 98c36 54 49 112 49 171c0 51 -9 105 -24 157c-7 23 -26 27 -47 27c-11 0 -23 -1 -34 -2c-86 2 -144 50 -144 111c0 112 93 178 196 178c42 0 95 -41 100 -85
c8 -69 35 -131 53 -195c29 -90 19 -179 24 -270z" />
    <glyph glyph-name="afii10084" unicode="&#x442;" horiz-adv-x="491"
d="M1 306c6 62 22 77 83 86c131 7 204 9 247 9c65 0 58 -5 75 -6c1 0 2 1 3 1c35 0 82 -25 82 -62c0 -82 -169 -40 -169 -130c0 -20 10 -49 10 -77c0 -60 -11 -114 -47 -114c-64 0 -91 71 -91 127c0 15 1 27 1 37c0 29 -3 37 -29 37c-14 0 -37 -5 -67 -5
c-58 0 -99 34 -99 84c0 4 0 9 1 13z" />
    <glyph glyph-name="afii10081" unicode="&#x43f;" horiz-adv-x="555"
d="M129 311c7 -4 14 -5 21 -5c33 0 68 45 113 45c109 0 257 -181 262 -241c-1 -33 -14 -81 -60 -81c-55 0 -134 126 -189 126c-70 0 -44 -135 -117 -135c-77 0 -129 159 -129 221c0 43 34 71 84 71c5 0 10 -1 15 -1z" />
    <glyph glyph-name="x" unicode="x" horiz-adv-x="390"
d="M345 158c7 -13 10 -27 10 -40c0 -38 -27 -71 -67 -71c-26 0 -57 13 -90 48c-32 -33 -59 -70 -100 -70c-17 0 -78 15 -78 56c0 49 70 124 90 146l-54 68c-11 13 -16 26 -16 42c0 32 30 70 63 70c35 0 60 -22 106 -70l17 24c22 31 44 44 70 44c41 0 74 -29 74 -67
c0 -52 -53 -96 -77 -130c11 -11 34 -26 52 -50z" />
    <glyph glyph-name="z" unicode="z" horiz-adv-x="431"
d="M391 290c0 -80 -100 -110 -120 -160c0 -1 -1 -2 -1 -3c0 -20 131 10 131 -67c0 -32 -10 -64 -71 -64c-63 0 -168 7 -229 14c-42 4 -64 32 -64 62c0 17 8 35 24 48c75 61 130 119 130 131c0 10 -13 12 -32 12c-15 0 -33 -1 -51 -1c-49 0 -88 9 -88 69c0 58 47 61 158 61
c98 0 213 -13 213 -102z" />
    <glyph glyph-name="afii10087" unicode="&#x445;" horiz-adv-x="390"
d="M345 158c7 -13 10 -27 10 -40c0 -38 -27 -71 -67 -71c-26 0 -57 13 -90 48c-32 -33 -59 -70 -100 -70c-17 0 -78 15 -78 56c0 49 70 124 90 146l-54 68c-11 13 -16 26 -16 42c0 32 30 70 63 70c35 0 60 -22 106 -70l17 24c22 31 44 44 70 44c41 0 74 -29 74 -67
c0 -52 -53 -96 -77 -130c11 -11 34 -26 52 -50z" />
    <glyph glyph-name="afii10073" unicode="&#x437;" horiz-adv-x="278"
d="M65 240c16 11 37 22 37 35c0 10 -12 20 -47 32c-16 14 -25 30 -25 44c0 34 61 51 98 51c78 0 115 -50 115 -119c0 -39 -41 -64 -60 -73c15 -11 65 -50 65 -112c0 -67 -67 -118 -141 -118c-27 0 -50 8 -56 39c-3 18 -14 37 -14 55c0 46 76 40 76 63c0 19 -60 32 -60 76
c0 11 4 21 12 27z" />
    <glyph glyph-name="afii10074" unicode="&#x438;" horiz-adv-x="471"
d="M319 130c-34 -8 -41 -33 -49 -53c-19 -47 -66 -90 -113 -90c-49 0 -107 128 -107 198c0 27 6 83 46 83c16 0 30 -21 43 -27c27 -13 27 -58 61 -58c46 0 81 66 114 92c18 15 37 23 55 23c26 0 47 -18 55 -54c6 -74 6 -154 16 -206c1 -4 1 -7 1 -10c0 -25 -23 -51 -55 -51
c-65 0 -35 137 -67 153z" />
    <glyph glyph-name="afii10079" unicode="&#x43d;" horiz-adv-x="488"
d="M428 190c-1 -12 -2 -25 -2 -40c0 -19 2 -41 9 -64c2 -5 3 -10 3 -15c0 -22 -20 -39 -43 -39c-65 0 -103 71 -103 125c-6 1 -12 1 -19 1c-21 0 -47 -3 -71 -7c-2 -71 -14 -162 -65 -162c-50 0 -77 77 -77 152c0 6 0 11 1 16c-5 27 -11 68 -11 108c0 74 22 127 72 127
c62 0 74 -59 80 -118c14 3 27 4 39 4c16 0 31 -2 47 -8c2 17 7 32 9 59c0 35 18 62 57 62c63 0 77 -94 77 -117c0 -14 -1 -37 -3 -84z" />
    <glyph glyph-name="afii10075" unicode="&#x439;" horiz-adv-x="494"
d="M443 175c-8 -105 -20 -143 -66 -143c-13 0 -32 6 -53 6c-32 0 -54 -22 -74 -32c-39 -20 -68 -31 -94 -31c-65 0 -87 75 -124 212c-1 5 -2 11 -2 16c0 22 17 57 50 57c19 0 30 -20 43 -32c42 -41 37 -134 78 -134c67 0 105 202 177 202c43 0 66 -35 66 -86
c0 -10 -1 -28 -1 -35zM167 488c36 -14 42 -64 65 -64c41 0 38 68 75 68c24 0 51 -26 51 -53c0 -39 -85 -114 -135 -114c-39 0 -91 65 -91 127c0 22 15 36 35 36z" />
    <glyph glyph-name="afii10066" unicode="&#x431;" horiz-adv-x="361"
d="M310 273c4 -21 6 -42 6 -62c0 -91 -62 -227 -151 -227c-50 0 -115 54 -115 141c0 136 45 270 104 390c41 91 103 172 175 245c49 49 178 141 261 141c38 0 71 -26 71 -53c0 -9 -4 -21 -12 -31c-65 -78 -201 -58 -262 -157c-50 -47 -86 -106 -120 -171
c-8 -15 -12 -28 -12 -42c0 -56 54 -112 55 -174z" />
    <glyph glyph-name="afii10076" unicode="&#x43a;" horiz-adv-x="537"
d="M255 114c-38 -33 -70 -49 -100 -49c-31 0 -125 49 -125 104c0 9 4 19 12 28c19 20 26 45 26 71c0 50 -25 91 -25 122c0 38 26 68 64 68c29 0 58 -18 80 -48c17 -43 20 -98 58 -98c31 0 90 28 123 28c35 0 93 -26 93 -72c0 -31 -71 -29 -71 -71c0 -39 28 -75 70 -80
c18 -2 34 -1 46 -16c16 -20 31 -37 31 -60c0 -40 -37 -61 -67 -61c-94 0 -155 74 -215 134z" />
    <glyph glyph-name="afii10090" unicode="&#x448;" horiz-adv-x="698"
d="M309 313c9 35 32 58 65 58c39 0 67 -27 67 -62c4 -41 9 -69 9 -98c0 -24 -3 -49 -12 -83c-1 -2 -1 -4 -1 -6c0 -18 26 -18 40 -18c7 0 42 15 42 31c0 36 -4 71 -4 104c0 46 8 133 81 133c49 0 72 -55 72 -118c0 -43 -11 -83 -11 -113c0 -75 -26 -152 -77 -152
c-4 0 -7 0 -11 2c-174 9 -333 -1 -478 31c-21 16 -41 36 -41 58c0 4 0 9 2 13c8 26 10 58 10 92c0 19 -1 39 -1 57c0 60 14 135 73 135c50 0 82 -47 82 -93c0 -34 -11 -76 -11 -110s12 -63 59 -63c14 0 38 4 38 25c0 23 1 43 1 62v38c0 32 0 56 6 77z" />
    <glyph glyph-name="afii10091" unicode="&#x449;" horiz-adv-x="782"
d="M633 -38c3 11 4 20 4 27c0 52 -101 20 -101 99c0 23 11 52 13 67c-30 -44 -60 -163 -150 -163c-73 0 -110 40 -110 109c0 1 2 33 4 50c-21 -21 -61 -157 -144 -157c-72 0 -99 39 -99 106c0 75 12 154 21 230c5 42 36 71 72 71c44 0 66 -43 66 -93c0 -33 -2 -94 -3 -114
c23 26 60 77 90 123c23 35 36 82 86 82c60 0 68 -66 68 -130c0 -25 -1 -51 -1 -74c20 30 56 75 86 120c17 26 34 39 51 39c45 0 85 -73 85 -139c0 -17 -4 -35 -4 -49c0 -16 10 -17 47 -23c51 -15 68 -47 68 -85c0 -42 -22 -92 -44 -133c-8 -14 -27 -22 -47 -22
c-30 0 -58 17 -58 59z" />
    <glyph glyph-name="afii10067" unicode="&#x432;" horiz-adv-x="374"
d="M319 280c0 -4 1 -8 1 -12c0 -39 -31 -68 -31 -68c1 0 55 -20 55 -92c0 -77 -70 -109 -154 -109c-89 0 -150 41 -150 186c0 118 58 189 145 189c82 0 124 -34 134 -94zM185 114c14 0 24 9 24 21c0 9 -7 16 -23 16c-10 0 -18 -12 -18 -22c0 -8 5 -15 17 -15zM181 241
c7 0 24 -1 24 11c0 13 -13 14 -25 14c-9 0 -13 -5 -13 -10c0 -7 6 -15 14 -15z" />
    <glyph glyph-name="afii10072" unicode="&#x436;" horiz-adv-x="573"
d="M198 276c3 -5 7 -7 11 -7c6 0 12 5 12 11c0 30 18 53 51 53c27 0 52 -21 58 -52l3 -16c3 -9 13 -19 21 -19c10 0 18 10 23 17c23 27 55 52 85 52c21 0 58 -26 58 -61c0 -33 -53 -37 -53 -70c0 -21 15 -21 48 -47c19 -15 28 -32 28 -48c0 -37 -32 -63 -61 -63
c-37 0 -45 16 -103 73c-5 4 -12 10 -19 10c-34 0 9 -93 -54 -93c-69 0 -82 76 -93 76c-7 -1 -12 -9 -18 -15c-33 -33 -74 -69 -114 -69c-21 0 -51 11 -51 39c0 44 62 112 80 131l-48 61c-9 11 -15 22 -15 34c0 27 24 65 56 65s54 -21 95 -62z" />
    <glyph glyph-name="afii10077" unicode="&#x43b;" horiz-adv-x="496"
d="M98 246c41 43 97 115 137 115c20 0 40 -10 58 -21c88 -57 140 -140 176 -235c4 -10 7 -19 7 -28c0 -27 -30 -46 -56 -46c-82 0 -111 138 -152 138c-37 0 -85 -83 -149 -127c-15 -5 -28 -7 -39 -7c-43 0 -60 30 -60 62c0 43 35 98 78 149z" />
    <glyph glyph-name="afii10086" unicode="&#x444;" horiz-adv-x="417"
d="M274 -2l-6 -308c1 -5 1 -9 1 -14c0 -35 -29 -78 -60 -78c-30 0 -63 44 -68 86c-7 54 -9 130 -9 215c0 32 0 65 1 99c-61 21 -103 66 -103 127c0 91 33 151 114 175c4 88 9 167 13 223c4 66 10 94 53 94c54 0 76 -39 76 -101l-5 -212c62 -19 106 -79 106 -148
c0 -76 -47 -135 -113 -158zM151 105c2 20 5 35 5 50c0 12 -2 23 -9 36c-9 -14 -15 -27 -15 -40s6 -28 19 -46z" />
    <glyph glyph-name="afii10088" unicode="&#x446;" horiz-adv-x="474"
d="M124 20c-58 2 -74 32 -74 86c0 67 11 136 19 205c4 37 31 61 62 61c41 0 58 -40 58 -85c0 -30 -2 -78 -3 -94c27 42 96 155 127 155c42 0 73 -68 73 -136c0 -20 -4 -40 -4 -52c0 -11 6 -17 33 -21c44 -13 59 -40 59 -73c0 -46 -28 -135 -78 -135c-28 0 -51 15 -51 51
c3 12 5 21 5 29c0 23 -14 30 -33 35c-38 11 -47 42 -47 74c0 10 1 21 2 30c-28 -42 -64 -130 -148 -130z" />
    <glyph glyph-name="afii10096" unicode="&#x44e;" horiz-adv-x="549"
d="M399 362c61 0 120 -80 120 -142c-3 -70 -76 -150 -149 -150c-53 0 -97 37 -114 78c-20 0 -43 -4 -64 -7c-2 -62 -22 -132 -65 -132c-12 0 -25 7 -40 21c-22 58 -37 145 -37 222c0 60 2 122 53 122c68 0 83 -53 89 -110c15 2 28 4 41 4c8 0 16 -1 24 -2
c18 65 65 96 142 96z" />
    <glyph glyph-name="afii10094" unicode="&#x44c;" horiz-adv-x="375"
d="M63 90c-9 29 -13 50 -13 86c0 24 2 55 5 101c4 69 31 94 76 94c49 0 75 -41 73 -101l-1 -33c67 0 152 -20 152 -134c0 -64 -72 -99 -145 -99c-64 0 -128 27 -147 86zM225 131c-3 19 -12 24 -24 25v-39c3 -1 6 -1 9 -1c6 0 11 3 15 15z" />
    <glyph glyph-name="afii10092" unicode="&#x44a;" horiz-adv-x="389"
d="M239 131c-3 19 -12 24 -24 25v-39c3 -1 6 -1 9 -1c6 0 11 3 15 15zM91 267c-6 18 -91 -20 -91 71c0 30 20 59 69 59c88 0 170 -16 170 -106c-3 -23 -11 -41 -22 -54c67 0 152 -20 152 -133c0 -62 -74 -97 -149 -97c-84 0 -145 37 -145 120c0 55 18 94 18 124
c0 5 -1 11 -2 16z" />
    <glyph glyph-name="afii10093" unicode="&#x44b;" horiz-adv-x="481"
d="M354 381c41 -4 52 -85 68 -184c2 -22 9 -65 9 -103c0 -63 -27 -85 -60 -85c-21 0 -41 2 -54 45c-2 6 -3 10 -6 10s-7 -4 -15 -13c-27 -35 -69 -52 -109 -52c-79 0 -137 60 -137 177c0 24 2 55 5 101c4 69 31 94 76 94c49 0 75 -41 73 -101l-1 -33c26 0 49 -3 69 -13
c3 -1 7 -4 11 -4c3 0 5 2 5 8c0 27 -4 52 -4 72c0 67 24 81 70 81z" />
    <glyph glyph-name="afii10089" unicode="&#x447;" horiz-adv-x="414"
d="M37 310c9 29 37 51 72 51c41 0 67 -31 67 -78c0 -12 -2 -21 -2 -27c0 -17 8 -16 27 -16c9 0 21 9 22 25l1 34c1 35 18 62 57 62c33 0 60 -22 65 -58c14 -95 10 -138 16 -227c2 -5 2 -9 2 -14c0 -28 -32 -56 -64 -56c-50 0 -75 30 -79 80v9c0 15 -7 24 -16 24
c-8 0 -32 -20 -62 -20c-85 0 -113 69 -113 139c0 23 3 47 7 72z" />
    <glyph glyph-name="afii10095" unicode="&#x44d;" horiz-adv-x="343"
d="M63 100c36 9 65 12 85 20c-11 5 -37 13 -37 48c0 10 5 17 13 26l8 10c-8 2 -17 2 -26 2s-18 -1 -26 -1c-36 0 -60 25 -60 53c0 32 44 70 115 70c72 0 178 -64 178 -166c0 -91 -50 -159 -190 -159c-57 0 -88 12 -88 55c0 19 9 36 28 42z" />
    <glyph glyph-name="afii10097" unicode="&#x44f;" horiz-adv-x="389"
d="M326 285c9 -29 13 -45 13 -79c0 -22 -2 -52 -5 -98c-4 -69 -31 -94 -76 -94c-31 0 -52 15 -63 40c-29 -19 -60 -34 -98 -34c-30 0 -67 21 -67 61c0 35 48 75 48 91c0 18 -34 17 -34 80c0 76 77 118 148 118c58 0 116 -27 134 -85z" />
    <glyph glyph-name="E" unicode="E"
d="M99 465c-3 41 -5 83 -7 125c-49 6 -72 38 -72 70s26 69 78 69h31c10 5 20 8 31 8c10 0 21 -3 30 -8h228c42 -12 62 -41 62 -69c0 -30 -23 -60 -67 -70h-159c-20 -7 -21 -15 -21 -22c0 -45 6 -85 9 -128c0 -19 1 -27 14 -27c4 0 9 0 15 2c49 9 79 19 133 20
c42 -12 62 -41 62 -69c0 -30 -23 -60 -67 -70c-48 -1 -76 -1 -116 -3c-20 0 -29 -5 -29 -29c0 -34 5 -67 5 -105c0 -23 17 -27 36 -27c90 0 178 40 268 40c51 0 79 -34 79 -67c0 -30 -22 -61 -67 -71c-101 -7 -187 -42 -303 -42c-82 0 -154 30 -154 143
c0 108 -9 215 -19 330z" />
    <glyph glyph-name="G" unicode="G" horiz-adv-x="515"
d="M398 600c-2 -50 -33 -78 -67 -78c-31 0 -58 25 -70 53c-54 -18 -61 -90 -61 -138c0 -65 11 -294 70 -294c43 0 28 124 39 155c-34 12 -51 39 -51 65c0 45 63 70 124 70c100 0 113 -44 113 -70c0 -25 -16 -50 -47 -64c0 -17 1 -34 1 -51c0 -132 -44 -247 -180 -247
c-197 0 -209 328 -209 434c0 136 61 283 219 283c57 0 111 -33 119 -118z" />
    <glyph glyph-name="H" unicode="H" horiz-adv-x="646"
d="M411 626c10 44 40 67 70 67c28 0 57 -20 69 -62c0 -95 16 -190 16 -312c0 -81 -9 -163 -12 -245c-2 -52 -36 -78 -69 -78c-32 0 -64 24 -70 73c2 63 14 105 14 164c0 14 -6 15 -35 19c-51 3 -105 16 -156 16c-10 0 -14 -4 -14 -25c-3 -58 -3 -99 -5 -162
c-1 -52 -37 -78 -69 -78s-64 24 -70 73c3 201 16 341 19 542c10 44 40 67 70 67c28 0 57 -20 69 -62c-1 -78 -7 -129 -7 -204c0 -14 4 -10 35 -13c41 -4 84 -14 126 -14c9 0 18 4 25 34c-6 45 -7 80 -7 117c0 25 1 51 1 83z" />
    <glyph glyph-name="J" unicode="J" horiz-adv-x="451"
d="M234 620c-1 5 -1 10 -1 14c0 47 30 75 65 75c77 0 89 -101 89 -169c0 -61 -12 -124 -12 -187c0 -61 16 -123 16 -184c0 -116 -113 -168 -182 -168c-96 0 -179 106 -189 214c10 44 40 67 70 67c28 0 57 -20 69 -65c17 -64 39 -74 57 -74c28 0 36 25 36 58
c0 45 -15 104 -15 134c0 81 10 151 10 225c0 18 -2 34 -13 60z" />
    <glyph glyph-name="K" unicode="K" horiz-adv-x="568"
d="M86 624c10 44 40 67 70 67c28 0 57 -20 69 -62v-93c0 -46 0 -92 2 -138c38 67 87 154 98 218c10 45 41 67 71 67c36 0 67 -30 67 -85c-11 -68 -45 -134 -77 -197c36 -60 70 -227 143 -265c27 -19 39 -43 39 -66c0 -35 -28 -65 -75 -65c-83 0 -145 138 -191 259
c-13 -14 -30 -22 -48 -22c-4 0 -7 0 -11 1c6 -69 20 -116 20 -193c0 -34 -28 -63 -68 -63c-73 0 -80 65 -80 122c0 137 -35 278 -35 419c0 32 2 64 6 96z" />
    <glyph glyph-name="L" unicode="L" horiz-adv-x="495"
d="M89 636c10 44 40 67 70 67c28 0 57 -20 69 -62c0 -150 0 -261 -2 -401c0 -21 4 -66 67 -66c53 0 107 -1 160 -1c42 -12 62 -41 62 -69c0 -30 -23 -60 -67 -70c-25 0 -51 -1 -76 -1c-44 0 -88 1 -132 3c-83 3 -160 11 -160 88c0 12 2 26 6 41c0 174 3 297 3 471z" />
    <glyph glyph-name="M" unicode="M" horiz-adv-x="741"
d="M219 96c-2 -52 -36 -78 -69 -78c-32 0 -64 24 -70 73c5 182 27 233 27 415c0 23 -3 51 -3 73c0 31 14 91 74 91c9 0 19 -2 31 -6c40 -23 145 -167 173 -167c54 65 114 140 196 165c56 0 83 -18 83 -117c0 -156 -15 -339 -22 -481c-1 -52 -37 -78 -69 -78s-64 24 -70 73
c1 134 8 228 16 361l1 17c-33 -43 -68 -87 -121 -87c-58 0 -110 39 -153 80c-6 -156 -19 -178 -24 -334z" />
    <glyph glyph-name="N" unicode="N" horiz-adv-x="675"
d="M238 46c-15 -38 -43 -55 -70 -55c-34 0 -66 27 -66 71c0 36 12 77 12 116c0 124 -34 216 -34 347c0 59 18 155 94 155c63 0 92 -70 121 -118c65 -110 98 -208 154 -320c7 -15 13 -20 15 -20s3 3 3 8s-1 10 -1 15c-16 125 -42 238 -51 375c10 44 40 67 70 67
c28 0 57 -20 69 -62c12 -170 71 -342 71 -481c0 -90 -40 -152 -123 -152c-111 0 -181 240 -251 375c-5 9 -12 20 -15 20c-2 0 -4 -3 -4 -10c0 -4 1 -10 2 -18c8 -62 18 -113 18 -182c0 -44 -4 -88 -14 -131z" />
    <glyph glyph-name="O" unicode="O" horiz-adv-x="606"
d="M50 389c0 156 73 287 241 287c178 0 265 -201 265 -398c0 -125 -83 -283 -231 -283c-181 0 -275 238 -275 394zM319 141c63 0 99 65 99 136c0 80 -38 257 -132 257c-68 0 -98 -62 -98 -137c0 -56 34 -256 131 -256z" />
    <glyph glyph-name="Q" unicode="Q" horiz-adv-x="666"
d="M334 692c144 0 292 -233 292 -366c0 -56 -22 -135 -61 -196c34 -26 50 -40 50 -71c0 -35 -28 -65 -75 -65c-31 0 -61 24 -80 44c-12 -4 -55 -7 -68 -7c-91 0 -180 55 -252 118c-61 54 -90 146 -90 237c0 170 92 303 284 306zM486 331c0 48 -82 221 -156 221
c-111 0 -139 -65 -139 -175c0 -146 99 -177 148 -179c-3 8 -4 16 -4 24c0 36 27 65 65 65c16 0 35 -5 53 -18l18 -21c11 34 15 59 15 83z" />
    <glyph glyph-name="U" unicode="U" horiz-adv-x="638"
d="M144 689c53 0 84 -28 84 -65c0 -51 -18 -126 -18 -168c0 -16 -6 -310 131 -310c80 0 108 74 108 136c0 65 -20 127 -33 190c-10 49 -14 91 -18 140c10 44 40 67 70 67c28 0 57 -20 69 -62c9 -109 51 -213 51 -324c0 -165 -98 -285 -234 -285c-195 0 -284 198 -284 372
c0 70 2 119 4 182c2 60 0 107 70 127z" />
    <glyph glyph-name="V" unicode="V" horiz-adv-x="607"
d="M40 611c10 44 40 67 70 67c28 0 57 -20 69 -62c11 -123 56 -278 109 -404c11 -26 14 -39 18 -39s8 11 18 34c44 102 70 195 87 308c9 59 4 160 92 160c36 0 64 -27 64 -67c0 -176 -64 -367 -145 -522c-22 -42 -72 -83 -108 -83c-52 0 -91 18 -110 59
c-78 167 -147 354 -164 549z" />
    <glyph glyph-name="W" unicode="W" horiz-adv-x="858"
d="M41 606c-1 5 -1 10 -1 14c0 47 30 75 65 75c23 0 47 -12 66 -39c41 -107 91 -430 97 -430c11 0 46 234 59 326c7 51 7 138 87 138c104 0 152 -304 181 -438c5 -24 9 -36 11 -36c3 0 4 13 9 38c27 149 41 427 159 427c34 0 64 -27 64 -68c-1 -11 -1 -25 -7 -37
c-80 -169 -41 -363 -130 -534c-7 -13 -46 -44 -50 -48c-17 -13 -33 -19 -47 -19c-71 0 -108 171 -152 343c-8 29 -11 49 -14 49c-2 0 -6 -12 -10 -40c-17 -107 -46 -250 -103 -297c-22 -18 -49 -17 -75 -20c-91 13 -111 134 -127 211c-26 125 -37 265 -82 385z" />
    <glyph glyph-name="X" unicode="X" horiz-adv-x="579"
d="M394 588c18 31 43 45 67 45c37 0 66 -32 66 -85c-24 -75 -74 -150 -133 -223c54 -69 90 -132 142 -193h-1c16 -14 24 -33 24 -51c0 -34 -27 -67 -75 -67c-57 0 -110 109 -139 147l-42 56c-51 -55 -98 -109 -138 -157c-19 -23 -43 -33 -63 -33c-35 0 -65 28 -65 66
c0 15 4 31 14 48c53 65 109 128 163 191c-61 80 -121 160 -174 244c-7 15 -10 30 -10 43c0 40 30 67 64 67c21 0 48 -12 66 -39c47 -70 95 -138 146 -206c36 45 70 92 88 147z" />
    <glyph glyph-name="Y" unicode="Y" horiz-adv-x="459"
d="M203 86l-26 203c-17 121 -157 214 -157 312c0 38 27 65 63 65c64 0 112 -97 148 -159c24 57 60 109 96 159c19 17 40 24 58 24c36 0 64 -27 64 -67c0 -12 -3 -25 -8 -38c-71 -78 -124 -167 -124 -278c0 -80 22 -142 25 -216c-2 -52 -36 -78 -69 -78c-32 0 -64 24 -70 73z
" />
    <glyph glyph-name="Z" unicode="Z" horiz-adv-x="553"
d="M53 520c-49 6 -73 38 -73 70s26 67 78 69c8 -2 18 -2 31 -2c51 0 137 10 217 10c103 0 198 -17 198 -98c0 -116 -128 -236 -220 -380c-13 -20 -30 -39 -30 -49c0 -6 5 -10 18 -10c3 0 7 1 11 1c84 5 147 6 208 7c42 -12 62 -41 62 -69c0 -30 -23 -60 -67 -70
c-81 -2 -162 -9 -243 -9c-83 0 -187 -1 -187 75c0 87 179 303 259 422c11 17 22 27 22 33c0 4 -8 6 -29 6c-78 0 -179 -5 -255 -6z" />
    <glyph glyph-name="A" unicode="A" horiz-adv-x="580"
d="M256 188c-19 2 -35 9 -47 18c-5 -58 -10 -67 -10 -125c-2 -52 -36 -78 -69 -78c-32 0 -64 24 -70 73c0 166 30 324 58 453c20 94 42 174 160 174c16 0 30 -7 48 -20c121 -119 187 -394 217 -556l12 -28c3 -11 5 -21 5 -30c0 -42 -30 -69 -65 -69c-104 0 -78 188 -120 188
h-4h-115zM271 536c-13 -43 -40 -93 -40 -150c0 -37 4 -59 30 -59h80c9 0 11 4 11 9s-2 10 -3 15c-20 66 -43 115 -78 185z" />
    <glyph glyph-name="C" unicode="C" horiz-adv-x="490"
d="M295 697c55 0 175 -60 175 -127c0 -34 -27 -64 -67 -64c-47 0 -73 46 -110 46c-82 0 -95 -193 -95 -228c0 -65 27 -185 76 -185c59 0 -24 146 92 146c41 0 69 -31 69 -65c0 -83 -42 -229 -153 -229c-143 0 -222 147 -222 351c0 154 61 355 235 355z" />
    <glyph glyph-name="afii10019" unicode="&#x412;" horiz-adv-x="583"
d="M310 714c98 -4 219 -79 219 -182c0 -72 -60 -149 -110 -202c-12 -13 -18 -25 -18 -36c0 -45 162 -150 162 -205c0 -58 -148 -68 -224 -82c-37 -7 -76 -7 -116 -17c-9 -2 -17 -4 -25 -4c-11 0 -59 29 -59 56c0 44 83 65 119 65c13 0 27 -5 41 -5c28 0 61 17 61 36
c0 28 -68 72 -78 72c-29 0 -36 -75 -87 -75c-125 0 -83 237 -115 362c-9 36 -20 87 -20 111c0 82 160 102 250 106zM390 523v11c0 53 -39 70 -98 70c-47 0 -85 -17 -85 -41c30 -63 11 -210 54 -210c6 0 12 2 20 6c60 38 89 99 109 164z" />
    <glyph glyph-name="afii10035" unicode="&#x421;" horiz-adv-x="490"
d="M295 697c55 0 175 -60 175 -127c0 -34 -27 -64 -67 -64c-47 0 -73 46 -110 46c-82 0 -95 -193 -95 -228c0 -65 27 -185 76 -185c59 0 -24 146 92 146c41 0 69 -31 69 -65c0 -83 -42 -229 -153 -229c-143 0 -222 147 -222 351c0 154 61 355 235 355z" />
    <glyph glyph-name="afii10028" unicode="&#x41a;" horiz-adv-x="568"
d="M86 624c10 44 40 67 70 67c28 0 57 -20 69 -62v-93c0 -46 0 -92 2 -138c38 67 87 154 98 218c10 45 41 67 71 67c36 0 67 -30 67 -85c-11 -68 -45 -134 -77 -197c36 -60 70 -227 143 -265c27 -19 39 -43 39 -66c0 -35 -28 -65 -75 -65c-83 0 -145 138 -191 259
c-13 -14 -30 -22 -48 -22c-4 0 -7 0 -11 1c6 -69 20 -116 20 -193c0 -34 -28 -63 -68 -63c-73 0 -80 65 -80 122c0 137 -35 278 -35 419c0 32 2 64 6 96z" />
    <glyph glyph-name="afii10030" unicode="&#x41c;" horiz-adv-x="741"
d="M219 96c-2 -52 -36 -78 -69 -78c-32 0 -64 24 -70 73c5 182 27 233 27 415c0 23 -3 51 -3 73c0 31 14 91 74 91c9 0 19 -2 31 -6c40 -23 145 -167 173 -167c54 65 114 140 196 165c56 0 83 -18 83 -117c0 -156 -15 -339 -22 -481c-1 -52 -37 -78 -69 -78s-64 24 -70 73
c1 134 8 228 16 361l1 17c-33 -43 -68 -87 -121 -87c-58 0 -110 39 -153 80c-6 -156 -19 -178 -24 -334z" />
    <glyph glyph-name="afii10032" unicode="&#x41e;" horiz-adv-x="606"
d="M50 389c0 156 73 287 241 287c178 0 265 -201 265 -398c0 -125 -83 -283 -231 -283c-181 0 -275 238 -275 394zM319 141c63 0 99 65 99 136c0 80 -38 257 -132 257c-68 0 -98 -62 -98 -137c0 -56 34 -256 131 -256z" />
    <glyph glyph-name="afii10034" unicode="&#x420;" horiz-adv-x="478"
d="M86 439c3 17 9 36 9 58c0 15 -3 30 -12 48c-2 3 -3 6 -3 10c0 24 36 57 58 78c25 24 63 36 104 36c114 0 216 -89 216 -195c0 -81 -74 -148 -140 -173c-57 -22 -78 -51 -78 -104c0 -48 4 -101 4 -150c0 -29 -17 -45 -40 -45c-41 0 -104 45 -104 102c0 49 5 98 5 147
c0 52 -5 105 -20 157c-1 2 -2 3 -2 6c0 5 3 13 3 25zM160 500c31 -49 49 -72 67 -72c15 0 30 17 53 51c7 9 19 13 19 35c0 12 -14 18 -21 18c-4 0 -7 -2 -9 -4c-27 -28 -65 -25 -109 -28z" />
    <glyph glyph-name="afii10036" unicode="&#x422;" horiz-adv-x="572"
d="M192 296c3 65 10 131 10 193c0 37 -7 49 -36 49c-21 0 -52 -6 -78 -6c-41 0 -88 11 -88 56c0 54 101 69 154 69c114 0 223 -36 337 -36c11 0 22 0 34 1c21 -2 67 -29 67 -59c0 -49 -59 -50 -87 -50c-36 0 -75 3 -109 3c-36 0 -35 -7 -42 -55c-15 -98 -11 -194 -14 -291
c-3 -80 -11 -136 -69 -136c-55 0 -87 27 -87 75c0 63 7 126 9 187h-1z" />
    <glyph glyph-name="afii10039" unicode="&#x425;" horiz-adv-x="579"
d="M394 588c18 31 43 45 67 45c37 0 66 -32 66 -85c-24 -75 -74 -150 -133 -223c54 -69 90 -132 142 -193h-1c16 -14 24 -33 24 -51c0 -34 -27 -67 -75 -67c-57 0 -110 109 -139 147l-42 56c-51 -55 -98 -109 -138 -157c-19 -23 -43 -33 -63 -33c-35 0 -65 28 -65 66
c0 15 4 31 14 48c53 65 109 128 163 191c-61 80 -121 160 -174 244c-7 15 -10 30 -10 43c0 40 30 67 64 67c21 0 48 -12 66 -39c47 -70 95 -138 146 -206c36 45 70 92 88 147z" />
    <glyph glyph-name="afii10033" unicode="&#x41f;" horiz-adv-x="696"
d="M231 104c0 -11 10 -24 10 -37c0 -30 -22 -61 -67 -71c-2 0 -4 0 -6 -1c-36 5 -53 17 -70 50c-14 84 -28 142 -28 246c0 179 37 378 263 378c117 0 210 -79 254 -192c33 -84 39 -137 39 -229c0 -53 -2 -106 -2 -156c0 -52 -38 -78 -69 -78c-32 0 -64 24 -70 73
c0 33 3 82 3 137c0 99 -8 308 -158 308c-104 0 -121 -120 -121 -210c0 -88 12 -127 22 -218z" />
    <glyph glyph-name="afii10018" unicode="&#x411;" horiz-adv-x="506"
d="M226 500v-79c20 0 215 -185 242 -228c6 -10 8 -22 8 -34c0 -98 -194 -153 -326 -153c-32 0 -64 24 -70 74c1 185 10 330 11 515c7 37 14 81 82 84c25 -1 48 -12 72 -13c47 -3 95 -9 142 -9c42 -12 62 -41 62 -69c0 -30 -23 -60 -67 -70c-42 0 -84 12 -124 12
c-21 0 -32 -8 -32 -30zM219 156c0 -8 9 -10 22 -10c29 0 82 2 82 13c-1 12 -38 40 -91 93l-12 12c-1 -32 -1 -74 -1 -108z" />
    <glyph glyph-name="afii10020" unicode="&#x413;" horiz-adv-x="463"
d="M421 689c42 -12 62 -41 62 -69c0 -31 -23 -60 -67 -70c-12 0 -74 8 -112 8c-75 0 -86 -140 -86 -257c0 -88 7 -174 8 -223c-2 -52 -35 -78 -69 -78c-31 0 -64 24 -70 73c-1 57 -7 142 -7 230c0 218 42 395 218 395c43 0 88 -8 123 -9z" />
    <glyph glyph-name="afii10021" unicode="&#x414;" horiz-adv-x="608"
d="M147 -57c-2 -52 -35 -78 -68 -78c-31 0 -63 23 -70 71c-3 11 -29 75 -29 117c0 56 33 85 102 85c46 84 50 187 50 280c0 33 -1 63 -1 95c0 15 1 30 5 45c-12 12 -19 29 -19 46c0 26 24 75 78 75c59 0 157 -5 210 -30c110 -52 112 -351 112 -469c0 -14 0 -25 -1 -38
c4 0 9 1 13 1c53 0 79 -43 79 -104c0 -52 -19 -107 -22 -158c-15 -37 -42 -55 -69 -55c-32 0 -63 25 -69 73c2 34 14 70 14 103c-142 0 -179 -6 -285 -6c-13 0 -27 1 -40 1c4 -18 8 -35 10 -54zM344 490c-7 37 -7 39 -58 39c-12 0 -15 -2 -15 -23c0 -124 2 -242 -40 -371
l116 3c28 1 31 24 31 39c0 108 -23 227 -34 313z" />
    <glyph glyph-name="afii10025" unicode="&#x417;" horiz-adv-x="434"
d="M130 578c-18 -6 -36 -10 -52 -10c-33 0 -58 17 -58 65c0 52 81 79 131 79c87 0 197 -32 197 -178c0 -64 -27 -122 -54 -149c70 -35 110 -103 110 -168c0 -130 -77 -221 -222 -221c-50 0 -162 32 -162 98c0 45 27 62 69 62c32 0 82 -18 116 -18c36 0 60 18 60 68
c0 120 -113 97 -113 165c0 65 63 47 63 130c0 28 -16 79 -70 79c-5 0 -10 -1 -15 -2z" />
    <glyph glyph-name="afii10024" unicode="&#x416;" horiz-adv-x="788"
d="M624 377c33 -97 172 -203 184 -299c-3 -57 -30 -76 -60 -76c-25 0 -52 14 -66 28v-1c-49 72 -113 149 -152 222c-12 23 -27 36 -41 36c-10 0 -18 -9 -18 -29c0 -53 9 -106 11 -158c-2 -52 -36 -78 -69 -78c-32 0 -64 24 -70 73c-4 69 2 196 -45 196c-11 0 -22 -9 -28 -28
c-18 -57 -38 -114 -67 -168l-2 -14c-15 -37 -42 -55 -69 -55c-32 0 -63 25 -69 73c9 85 77 147 77 240c0 58 -72 202 -109 253c-8 15 -11 31 -11 44c0 38 27 65 63 65c81 0 112 -124 142 -190c36 -80 59 -110 73 -110c13 0 17 27 17 63c0 41 -4 73 -11 116c-2 6 -3 13 -3 19
c0 40 45 68 71 68c28 0 57 -20 69 -62c3 -77 16 -184 37 -184c7 0 26 13 35 47c17 42 44 221 127 221c33 0 67 -27 67 -78c0 -68 -68 -164 -83 -234z" />
    <glyph glyph-name="afii10017" unicode="&#x410;" horiz-adv-x="580"
d="M256 188c-19 2 -35 9 -47 18c-5 -58 -10 -67 -10 -125c-2 -52 -36 -78 -69 -78c-32 0 -64 24 -70 73c0 166 30 324 58 453c20 94 42 174 160 174c16 0 30 -7 48 -20c121 -119 187 -394 217 -556l12 -28c3 -11 5 -21 5 -30c0 -42 -30 -69 -65 -69c-104 0 -78 188 -120 188
h-4h-115zM271 536c-13 -43 -40 -93 -40 -150c0 -37 4 -59 30 -59h80c9 0 11 4 11 9s-2 10 -3 15c-20 66 -43 115 -78 185z" />
    <glyph glyph-name="afii10022" unicode="&#x415;"
d="M99 465c-3 41 -5 83 -7 125c-49 6 -72 38 -72 70s26 69 78 69h31c10 5 20 8 31 8c10 0 21 -3 30 -8h228c42 -12 62 -41 62 -69c0 -30 -23 -60 -67 -70h-159c-20 -7 -21 -15 -21 -22c0 -45 6 -85 9 -128c0 -19 1 -27 14 -27c4 0 9 0 15 2c49 9 79 19 133 20
c42 -12 62 -41 62 -69c0 -30 -23 -60 -67 -70c-48 -1 -76 -1 -116 -3c-20 0 -29 -5 -29 -29c0 -34 5 -67 5 -105c0 -23 17 -27 36 -27c90 0 178 40 268 40c51 0 79 -34 79 -67c0 -30 -22 -61 -67 -71c-101 -7 -187 -42 -303 -42c-82 0 -154 30 -154 143
c0 108 -9 215 -19 330z" />
    <glyph glyph-name="afii10031" unicode="&#x41d;" horiz-adv-x="646"
d="M411 626c10 44 40 67 70 67c28 0 57 -20 69 -62c0 -95 16 -190 16 -312c0 -81 -9 -163 -12 -245c-2 -52 -36 -78 -69 -78c-32 0 -64 24 -70 73c2 63 14 105 14 164c0 14 -6 15 -35 19c-51 3 -105 16 -156 16c-10 0 -14 -4 -14 -25c-3 -58 -3 -99 -5 -162
c-1 -52 -37 -78 -69 -78s-64 24 -70 73c3 201 16 341 19 542c10 44 40 67 70 67c28 0 57 -20 69 -62c-1 -78 -7 -129 -7 -204c0 -14 4 -10 35 -13c41 -4 84 -14 126 -14c9 0 18 4 25 34c-6 45 -7 80 -7 117c0 25 1 51 1 83z" />
    <glyph glyph-name="afii10026" unicode="&#x418;" horiz-adv-x="556"
d="M83 590c10 44 40 67 70 67c28 0 57 -20 69 -62v-185c0 -22 2 -30 7 -30c10 0 69 160 92 216c14 35 29 82 79 82c91 0 96 -215 96 -319c0 -92 -5 -174 -7 -267c-1 -52 -37 -78 -69 -78s-64 24 -70 73c1 81 5 113 5 201c0 31 -3 47 -9 47s-11 -14 -21 -40
c-23 -62 -75 -273 -175 -273c-27 0 -70 22 -70 67c0 8 1 17 3 26v475z" />
    <glyph glyph-name="afii10027" unicode="&#x419;" horiz-adv-x="634"
d="M80 622c10 44 40 67 70 67c28 0 57 -20 69 -62c0 -76 2 -288 9 -288c4 0 11 11 23 26c67 82 78 193 162 266c14 5 26 8 37 8c24 0 44 -12 62 -38c36 -92 50 -249 53 -359c2 -63 8 -105 9 -169c-2 -52 -36 -78 -69 -78c-32 0 -64 24 -70 73c-2 78 -9 288 -20 288
c-5 0 -13 -9 -21 -26c-48 -101 -113 -205 -177 -291c-16 -10 -32 -15 -46 -15c-82 0 -88 133 -88 202c0 34 1 67 1 100c-2 117 -4 179 -4 296zM238 876c39 -15 45 -70 70 -70c45 0 41 74 81 74c26 0 55 -28 55 -57c0 -42 -91 -123 -146 -123c-41 0 -98 70 -98 137
c0 23 16 39 38 39z" />
    <glyph glyph-name="afii10029" unicode="&#x41b;" horiz-adv-x="578"
d="M68 149c3 -1 6 -1 9 -1c54 0 81 92 81 190c0 84 -14 173 -19 210c-25 14 -37 36 -37 59c0 34 27 67 79 69c77 -2 153 -1 223 -35c63 -31 78 -108 82 -171c8 -135 20 -262 22 -398c-2 -52 -36 -78 -69 -78c-32 0 -64 24 -70 73c-2 114 -16 217 -21 331
c-1 31 1 115 -14 121c-18 8 -37 12 -56 14c4 -60 13 -145 13 -229c0 -151 -41 -300 -192 -300c-51 0 -99 9 -99 76c0 30 13 70 55 70c4 0 8 0 13 -1z" />
    <glyph glyph-name="afii10037" unicode="&#x423;" horiz-adv-x="456"
d="M288 623c10 45 41 67 71 67c37 0 67 -30 67 -85c-15 -175 -75 -386 -125 -512c-36 -91 -74 -115 -168 -115c-49 6 -73 39 -73 70c0 32 16 69 68 69c54 13 73 103 89 161l2 9c-65 80 -118 182 -177 269c-18 23 -42 47 -42 80c0 35 28 64 66 64c16 0 34 -5 52 -18
c20 -15 94 -127 147 -213c10 51 18 102 23 154z" />
    <glyph glyph-name="afii10038" unicode="&#x424;" horiz-adv-x="472"
d="M303 554c74 -35 109 -85 109 -163c0 -102 -46 -145 -110 -160c3 -62 8 -124 9 -186c-2 -52 -36 -78 -69 -78c-32 0 -64 24 -70 73c-1 68 -7 137 -10 206c-65 26 -102 90 -102 155c0 62 34 123 105 145c-1 30 -8 62 -8 92c0 48 33 76 67 76c63 0 76 -75 79 -160z" />
    <glyph glyph-name="afii10040" unicode="&#x426;" horiz-adv-x="643"
d="M363 621c10 44 39 67 70 67c28 0 57 -20 69 -62c2 -76 12 -132 15 -209c3 -93 1 -155 16 -248c87 -25 105 -106 110 -187c-2 -52 -35 -78 -69 -78c-31 0 -64 24 -70 73c-1 12 0 45 -9 58c-22 11 -45 12 -65 32c-45 -23 -94 -53 -154 -53c-184 0 -196 277 -196 433
c0 64 0 100 2 163c10 44 39 67 70 67c28 0 57 -20 69 -62c-1 -47 -2 -71 -2 -114c0 -92 6 -346 64 -346c21 0 64 24 101 41c-5 40 -6 82 -6 119c0 33 1 63 1 84c0 91 -14 131 -16 222z" />
    <glyph glyph-name="afii10041" unicode="&#x427;" horiz-adv-x="550"
d="M325 643c10 44 39 67 70 67c28 0 57 -20 69 -62c0 -85 -1 -150 -1 -236c4 -9 7 -18 7 -28s-3 -20 -8 -30v-261c-2 -52 -35 -78 -69 -78c-31 0 -64 24 -70 73v207c-33 -10 -65 -13 -91 -13c-123 0 -151 73 -159 201c-3 52 -11 83 -13 134c10 44 39 67 70 67
c28 0 57 -20 69 -62c2 -51 11 -82 14 -133c1 -14 6 -68 48 -68c38 0 32 9 63 18c1 75 1 129 1 204z" />
    <glyph glyph-name="afii10042" unicode="&#x428;" horiz-adv-x="704"
d="M485 622c10 44 39 67 70 67c28 0 57 -20 69 -62c-1 -195 -7 -331 -9 -527c-2 -52 -35 -78 -69 -78c-11 0 -21 3 -31 8c-119 0 -237 -2 -356 -2c-35 0 -72 19 -79 75c1 65 12 129 12 194c0 119 -7 177 -8 295c10 44 39 67 70 67c28 0 57 -20 69 -62c2 -105 8 -150 8 -255
c0 -51 -8 -98 -8 -147c0 -13 5 -28 36 -28c35 0 40 19 40 34c0 58 -13 114 -13 171c0 91 24 147 78 147c34 0 67 -28 67 -79c0 -25 -6 -49 -6 -74c0 -53 12 -108 12 -162c0 -8 -1 -15 -1 -20c0 -10 4 -15 22 -15c17 0 20 11 20 26c0 9 -1 19 -1 28c2 153 7 245 8 399z" />
    <glyph glyph-name="afii10043" unicode="&#x429;" horiz-adv-x="829"
d="M576 566c-7 15 -11 30 -11 43c0 39 30 67 65 67c90 0 108 -159 108 -300c0 -87 -7 -168 -7 -197c0 -61 34 -50 61 -82c29 -35 35 -75 37 -119c-2 -52 -35 -78 -69 -78c-31 0 -64 24 -70 73c0 10 -1 21 -4 31l-5 3c-77 3 -152 26 -229 26c-66 0 -152 -19 -228 -19
c-79 0 -135 19 -144 85c0 82 19 164 24 245c8 117 9 134 10 251c10 44 39 67 70 67c28 0 57 -20 69 -62c0 -170 -4 -240 -23 -413c-1 -3 -1 -5 -1 -7c0 -16 19 -20 33 -20c75 0 100 13 100 25c0 9 -3 22 -4 44c-5 147 -18 216 -21 375c10 44 39 67 70 67c28 0 57 -20 69 -62
c2 -161 18 -234 21 -385v-32c0 -35 4 -24 47 -29c22 -3 35 -6 43 -6c9 0 11 5 11 20c0 9 -1 23 -1 43c0 27 1 52 1 75c0 90 -5 161 -22 271z" />
    <glyph glyph-name="afii10049" unicode="&#x42f;" horiz-adv-x="506"
d="M82 573c25 106 135 119 235 119c79 0 109 -52 109 -168c0 -150 -15 -297 -21 -447c-2 -52 -35 -78 -69 -78c-31 0 -64 24 -70 73c2 58 5 117 8 175c-47 -60 -90 -124 -126 -191c-20 -23 -43 -33 -64 -33c-34 0 -64 27 -64 71c0 7 1 15 3 23c40 74 115 204 188 271
c-64 29 -132 88 -132 158c0 9 1 18 3 27z" />
    <glyph glyph-name="afii10046" unicode="&#x42c;" horiz-adv-x="466"
d="M112 619c10 44 39 67 70 67c28 0 57 -20 69 -62c-4 -116 -26 -201 -30 -316c4 0 8 1 12 1c123 -20 193 -132 193 -201c0 -73 -67 -117 -144 -117c-43 0 -90 14 -129 46c-66 54 -73 150 -73 228c0 131 27 225 32 354zM275 133c-11 17 -28 28 -47 34c8 -24 23 -32 47 -34z
" />
    <glyph glyph-name="afii10045" unicode="&#x42b;" horiz-adv-x="597"
d="M84 610c10 44 39 67 70 67c28 0 57 -20 69 -62c0 -85 -1 -120 -2 -205c53 -10 112 -26 146 -87c7 103 11 160 11 262c0 10 -2 36 -3 36c0 0 1 0 1 -1c0 39 26 67 63 67c59 0 78 -52 78 -98c0 -181 -16 -313 -20 -496c-1 -52 -36 -78 -69 -78c-31 0 -64 24 -70 73v1
c-32 -51 -94 -76 -153 -76c-53 0 -110 26 -125 91c0 185 4 321 4 506zM219 270v-115c21 6 36 33 36 62s-11 40 -36 53z" />
    <glyph glyph-name="afii10044" unicode="&#x42a;" horiz-adv-x="523"
d="M73 546c-49 6 -73 39 -73 70c0 45 35 69 105 69c44 0 90 -4 126 -34c56 -48 56 -197 57 -268c94 -14 195 -85 195 -197c0 -113 -92 -168 -195 -168c-60 0 -133 -2 -145 86c3 106 5 210 5 320c0 51 -3 74 -16 121c-20 1 -39 1 -59 1zM286 243l29 -77c20 5 27 13 27 23
c0 21 -35 48 -56 54z" />
    <glyph glyph-name="afii10047" unicode="&#x42d;" horiz-adv-x="457"
d="M202 228c-49 6 -73 39 -73 70c0 34 26 67 78 69h42c-6 53 -20 169 -45 169c-24 0 -25 -21 -25 -47c0 -64 -28 -95 -69 -95c-31 0 -64 24 -70 73c2 99 28 211 185 211c35 0 67 -10 85 -33c65 -83 75 -214 82 -314c2 -31 5 -67 5 -105c0 -113 -33 -252 -170 -252
c-54 0 -108 26 -137 72c-20 32 -23 64 -27 100c10 44 39 67 70 67c28 0 57 -20 69 -62c3 -27 11 -38 19 -38c24 0 31 60 34 115h-53z" />
    <glyph glyph-name="afii10048" unicode="&#x42e;" horiz-adv-x="629"
d="M109 618c10 44 39 67 70 67c28 0 57 -20 69 -62c-2 -61 -11 -145 -11 -202c0 -10 3 -24 22 -28c33 3 34 16 37 29c21 113 71 255 147 255c116 0 126 -116 126 -215v-62c0 -74 -32 -386 -141 -386c-114 0 -141 146 -146 224c-2 26 -14 36 -29 36c-16 0 -34 -13 -35 -32
c-8 -97 7 -227 -78 -227c-31 0 -64 24 -70 73c4 177 35 353 39 530z" />
    <glyph glyph-name="zero" unicode="0" horiz-adv-x="454"
d="M99 500c20 55 82 187 134 187c21 0 34 0 58 5c79 -36 113 -142 113 -234c0 -128 -42 -220 -85 -337c-20 -72 -53 -116 -110 -116c-122 0 -159 113 -159 237c0 87 22 181 49 258zM259 414c0 24 -1 47 -1 89c-44 -76 -68 -178 -68 -272c0 -18 0 -35 3 -52
c41 61 64 207 66 235z" />
    <glyph glyph-name="one" unicode="1" horiz-adv-x="390"
d="M125 4c-49 6 -73 39 -73 70c0 34 26 67 78 69c7 0 14 0 21 -1c-7 108 -25 196 -25 304c0 39 6 76 6 128c-55 6 -82 45 -82 79c0 36 27 64 69 64c129 0 154 -39 154 -129c0 -37 -5 -77 -8 -109c2 -122 21 -224 26 -347h17c42 -12 62 -41 62 -69c0 -31 -23 -60 -67 -70
c-60 1 -118 10 -178 11z" />
    <glyph glyph-name="two" unicode="2" horiz-adv-x="533"
d="M135 496c-44 4 -71 32 -71 66c0 61 119 134 192 134c169 0 223 -94 223 -206c0 -180 -299 -250 -303 -307c0 -28 132 -39 169 -39c6 39 35 60 65 60c58 0 83 -57 83 -99c0 -71 -46 -103 -149 -103c-164 0 -314 56 -314 172c0 167 306 210 306 310c0 58 -20 77 -47 77
c-51 0 -130 -65 -154 -65z" />
    <glyph glyph-name="three" unicode="3" horiz-adv-x="453"
d="M113 543c-48 6 -73 37 -73 69c0 33 27 71 88 71c95 0 151 -68 151 -163c0 -31 -5 -61 -18 -91c91 -28 172 -142 172 -236c0 -88 -77 -178 -230 -178c-31 0 -61 5 -85 16h1c-40 10 -59 39 -59 67c0 32 27 70 79 70c22 0 38 -13 61 -13c26 0 92 -1 92 50
c0 138 -234 64 -234 182c0 61 84 76 84 129c0 8 -2 25 -29 27z" />
    <glyph glyph-name="four" unicode="4" horiz-adv-x="541"
d="M349 659c19 16 39 23 57 23c36 0 65 -28 65 -65c0 -100 -24 -185 -24 -296c0 -66 3 -133 3 -203c0 -55 -23 -95 -76 -95c-64 0 -76 40 -76 89c0 32 5 64 5 97c0 13 -1 27 -3 40c-16 -1 -31 -2 -47 -2c-152 0 -183 99 -183 202c0 56 9 115 12 165c10 45 41 67 71 67
c34 0 67 -28 67 -79c0 -57 -13 -116 -13 -174c0 -39 39 -43 61 -43c15 0 30 2 45 4c3 49 6 99 8 148c2 39 -1 93 28 122z" />
    <glyph glyph-name="five" unicode="5" horiz-adv-x="466"
d="M217 276c-53 0 -107 -1 -107 57c0 95 -19 181 -19 276c0 87 85 90 139 90c24 0 96 -2 130 -3c42 -12 62 -41 62 -69c0 -31 -23 -60 -67 -70c-31 1 -63 2 -116 2c2 -19 2 -36 2 -52c0 -29 -2 -55 -3 -92c105 0 188 -106 188 -220c0 -127 -85 -192 -211 -192
c-96 0 -155 8 -155 75c0 34 26 67 78 69c8 0 59 -3 82 -5c61 5 64 46 64 60c0 45 -37 74 -67 74z" />
    <glyph glyph-name="six" unicode="6" horiz-adv-x="501"
d="M250 649c9 6 19 7 29 7c38 0 78 -21 78 -53c0 -4 -1 -8 -2 -12c-55 -141 -161 -195 -161 -357c0 -64 35 -99 96 -99c23 0 35 14 35 32c0 17 -11 38 -34 56c-42 21 -61 42 -61 74c0 34 27 66 70 66c89 0 161 -108 161 -195c0 -92 -72 -172 -172 -172
c-189 0 -239 108 -239 236c0 126 130 368 200 417z" />
    <glyph glyph-name="seven" unicode="7" horiz-adv-x="510"
d="M181 202c-49 6 -73 39 -73 70c0 32 26 69 78 69c17 0 33 -1 50 -1c9 51 19 82 33 132c1 4 2 9 2 13c0 35 -49 26 -86 28c-2 -52 -35 -78 -69 -78c-48 0 -68 36 -73 116c-7 13 -13 28 -13 43c0 55 56 73 75 73c35 0 76 -16 123 -16c26 0 51 1 78 1c54 0 143 -10 143 -85
c0 -76 -51 -127 -72 -233c13 -1 27 -1 41 -1c42 -12 62 -41 62 -69c0 -31 -23 -60 -67 -70c-20 0 -41 0 -61 1l-2 -11c-10 -46 -32 -91 -37 -139c-15 -38 -43 -55 -69 -55c-32 0 -63 25 -69 73c4 48 25 92 36 138c-10 1 -20 1 -30 1z" />
    <glyph glyph-name="eight" unicode="8" horiz-adv-x="535"
d="M282 65c-101 0 -232 42 -232 167c0 70 39 146 97 187c-28 32 -54 83 -54 145c0 77 67 104 116 104c83 0 166 -90 166 -172c0 -20 -5 -39 -15 -56c-1 -1 -1 -1 -1 -2c79 -43 156 -95 156 -190c0 -93 -116 -183 -233 -183zM267 190c32 0 101 11 101 56c0 24 -22 51 -57 69
c-8 -3 -16 -5 -24 -5c-11 0 -23 3 -33 10c-45 0 -61 -45 -61 -83c0 -17 25 -47 74 -47z" />
    <glyph glyph-name="nine" unicode="9" horiz-adv-x="466"
d="M249 667c93 0 167 -94 167 -190c0 -182 -44 -336 -197 -463c-17 -10 -33 -14 -48 -14c-38 0 -66 29 -66 64c0 50 122 100 146 224c-126 7 -211 58 -211 196c0 97 111 183 209 183z" />
    <glyph glyph-name="exclam" unicode="!" horiz-adv-x="295"
d="M40 63c5 51 49 100 87 100c32 0 85 -70 85 -103c-8 -42 -56 -80 -102 -80c-50 0 -70 35 -70 83zM76 331l31 269c11 52 37 89 92 89c36 0 56 -31 56 -74c0 -142 -35 -205 -45 -297c-4 -35 -14 -89 -62 -89c-54 0 -72 56 -72 102z" />
    <glyph glyph-name="question" unicode="?" horiz-adv-x="413"
d="M223 529c0 43 -213 13 -213 122c0 36 27 64 69 64c99 0 294 -50 294 -160c0 -92 -97 -93 -97 -160c0 -18 5 -51 18 -82c-2 -52 -35 -78 -69 -78c-30 0 -71 26 -71 81c-9 43 -12 63 -12 93c0 80 81 96 81 120zM134 63c5 51 49 100 87 100c32 0 85 -70 85 -103
c-8 -42 -56 -80 -102 -80s-70 32 -70 77v6z" />
    <glyph glyph-name="slash" unicode="/" horiz-adv-x="666"
d="M533 729c18 31 43 45 67 45c35 0 66 -30 66 -80c0 -34 -35 -70 -61 -91l-470 -555c-16 -36 -43 -52 -69 -52c-34 0 -66 27 -66 71c0 48 34 81 66 108z" />
    <glyph glyph-name="backslash" unicode="\" horiz-adv-x="666"
d="M133 729l467 -554c32 -27 66 -60 66 -108c0 -44 -32 -71 -66 -71c-26 0 -53 16 -69 52l-470 555c-26 21 -61 57 -61 91c0 50 31 80 66 80c24 0 49 -14 67 -45z" />
    <glyph glyph-name="underscore" unicode="_" horiz-adv-x="546"
d="M23 -310c-49 6 -73 39 -73 70c0 34 26 67 78 69c126 0 243 3 377 3c86 0 191 -9 191 -81c0 -34 -27 -67 -74 -67c-32 0 -66 7 -100 7c-50 0 -95 1 -142 1c-85 0 -171 -2 -257 -2z" />
    <glyph glyph-name="quotesingle" unicode="'" horiz-adv-x="221"
d="M40 661c10 44 39 67 70 67c28 0 57 -20 69 -62c0 -47 2 -94 2 -142c0 -52 -37 -78 -69 -78c-31 0 -64 24 -70 73c0 47 -2 95 -2 142z" />
    <glyph glyph-name="quotedbl" unicode="&#x22;" horiz-adv-x="399"
d="M215 662c10 44 39 67 70 67c36 0 71 -31 71 -96c0 -23 -2 -47 -2 -70c0 -9 5 -31 5 -39c0 -2 -1 -3 -2 -3c1 -5 1 -9 1 -13c0 -43 -31 -70 -65 -70c-41 0 -80 38 -80 116c0 28 3 55 3 82c0 9 0 18 -1 26zM42 661c10 44 39 67 70 67c28 0 57 -20 69 -62
c-1 -26 -2 -51 -2 -76s1 -51 7 -76c-2 -50 -33 -78 -67 -78c-26 0 -52 16 -69 50c-8 35 -10 69 -10 104c0 23 1 47 2 71z" />
    <glyph glyph-name="numbersign" unicode="#" horiz-adv-x="605"
d="M108 411c-49 6 -73 39 -73 70c0 32 26 69 78 69c15 0 31 -1 47 -1v124c10 44 39 67 70 67c28 0 57 -20 69 -62v-138c18 -1 36 -2 55 -4v82c10 44 39 67 70 67c28 0 57 -20 69 -62v-95c70 0 102 -31 102 -70c0 -31 -23 -60 -67 -70c-12 0 -25 0 -37 1
c0 -43 -1 -85 -1 -127c39 -13 59 -41 59 -69s-20 -56 -59 -67v-28c0 -52 -37 -78 -69 -78c-31 0 -64 24 -70 73v30c-17 0 -33 0 -49 1v-41c-2 -52 -35 -78 -69 -78c-31 0 -64 24 -70 73v54c-93 8 -143 27 -143 80c0 34 26 67 78 69c22 -1 43 -5 64 -9c-1 46 -1 92 -1 137z
M351 263c0 44 1 89 1 134l-52 4c0 -46 0 -92 1 -138h50z" />
    <glyph glyph-name="dollar" unicode="$" horiz-adv-x="382"
d="M245 742c0 -7 -1 -13 -2 -19c40 -7 85 -34 85 -84c0 -36 -27 -63 -65 -63c-13 0 -27 3 -42 10c-7 0 -16 -1 -26 -2c-3 -7 -3 -20 -4 -25c0 -84 161 -243 161 -399c0 -47 -16 -90 -59 -126l-3 -3l4 -11c0 -9 0 -18 -1 -27c0 -9 1 -28 2 -28v1l-1 1c1 -5 1 -10 1 -14
c0 -37 -29 -65 -65 -65c-17 0 -35 6 -52 21v-1c0 1 -1 2 -2 2h1c-24 31 -22 61 -22 100c-31 12 -47 36 -47 62s18 54 56 69l45 9c2 0 3 3 3 8c0 108 -162 248 -162 394c0 59 22 115 67 147c-12 15 -30 70 -34 102c10 44 40 67 70 67c49 0 66 -50 92 -126z" />
    <glyph glyph-name="percent" unicode="%" horiz-adv-x="535"
d="M276 712c19 16 40 24 58 24c35 0 64 -28 64 -67c0 -12 -3 -25 -8 -38c-62 -101 -74 -233 -106 -346c-20 -72 -70 -135 -80 -210c-15 -38 -43 -55 -69 -55c-32 0 -63 25 -69 73c8 85 62 152 85 232c36 130 54 271 125 387zM383 219c19 16 39 23 57 23c36 0 64 -27 64 -67
c0 -5 0 -10 -1 -15c8 -15 12 -30 12 -44c0 -52 -49 -94 -95 -94c-40 0 -80 40 -80 101c0 43 23 68 43 96zM118 770c71 0 98 -53 98 -102c0 -47 -26 -95 -72 -95c-70 0 -114 64 -114 113c0 41 27 78 88 84z" />
    <glyph glyph-name="ampersand" unicode="&#x26;" horiz-adv-x="471"
d="M375 164c24 -67 96 -89 96 -154c0 -36 -27 -63 -66 -63c-51 0 -92 56 -132 119l-5 -4c-18 -12 -67 -20 -108 -20c-71 0 -110 33 -110 110c0 24 4 48 11 71c18 63 22 79 58 158c-19 51 -35 101 -35 144c0 74 73 124 145 124c61 0 80 -45 80 -97s-18 -114 -37 -176
c10 -25 24 -57 39 -90c18 9 41 20 66 20c51 0 79 -33 79 -67c0 -30 -22 -61 -67 -71c-5 -1 -10 -2 -14 -4z" />
    <glyph glyph-name="parenleft" unicode="(" horiz-adv-x="468"
d="M338 580c55 0 85 -30 85 -67c0 -30 -22 -61 -67 -71c-109 -24 -156 -166 -156 -257c0 -131 100 -216 229 -291c27 -20 39 -44 39 -66c0 -35 -28 -65 -67 -65c-12 0 -29 3 -43 11c-150 84 -298 204 -298 412c0 146 74 300 196 373c19 11 73 19 82 21z" />
    <glyph glyph-name="parenright" unicode=")" horiz-adv-x="420"
d="M97 451c-35 17 -50 43 -50 69c0 34 27 66 70 66c183 0 243 -231 243 -383c0 -172 -44 -279 -152 -390c-28 -29 -111 -44 -137 -44c-44 0 -71 32 -71 66c0 25 17 56 55 70c121 42 166 130 166 301c0 117 -26 226 -124 245z" />
    <glyph glyph-name="asterisk" unicode="*" horiz-adv-x="367"
d="M68 474c-6 12 -8 23 -8 34c0 12 4 23 10 31c-20 10 -30 28 -30 46c0 25 21 51 60 53h28c-2 7 -3 13 -3 19c0 30 23 51 49 51s58 -18 61 -73c56 -7 92 -29 92 -67c0 -22 -14 -41 -40 -47c13 -11 20 -25 20 -40c0 -26 -21 -51 -58 -51c-30 0 -62 27 -87 44
c-14 -12 -29 -23 -49 -23c-16 0 -29 7 -43 22c-1 1 -1 1 -2 1z" />
    <glyph glyph-name="plus" unicode="+" horiz-adv-x="523"
d="M204 428c10 44 39 67 70 67c28 0 57 -20 69 -62c-1 -50 -3 -51 -6 -101c34 -1 59 -1 94 -1c42 -12 62 -41 62 -69c0 -31 -23 -60 -67 -70c-36 0 -62 0 -98 1c-6 -97 3 -166 -73 -166c-31 0 -64 24 -70 73c1 38 3 57 5 95c-29 1 -58 1 -87 1c-49 6 -73 39 -73 70
c0 32 26 69 78 69c30 0 60 0 90 -1c2 48 5 46 6 94z" />
    <glyph glyph-name="colon" unicode=":" horiz-adv-x="272"
d="M40 83c5 51 49 100 87 100c32 0 85 -70 85 -103c-8 -42 -56 -80 -102 -80c-50 0 -70 35 -70 83zM60 333c5 51 49 100 87 100c32 0 85 -70 85 -103c-8 -42 -56 -80 -102 -80c-50 0 -70 35 -70 83z" />
    <glyph glyph-name="semicolon" unicode=";" horiz-adv-x="272"
d="M60 333c5 51 49 100 87 100c32 0 85 -70 85 -103c-8 -42 -56 -80 -102 -80c-50 0 -70 35 -70 83zM187 30c-46 -100 -117 -157 -165 -242c-6 -9 -15 -16 -25 -16c-31 0 -37 28 -37 50c0 9 1 18 4 24c42 80 80 162 143 228c10 11 24 23 36 23c28 0 42 -40 44 -67z" />
    <glyph glyph-name="less" unicode="&#x3c;" horiz-adv-x="599"
d="M477 440c55 0 85 -30 85 -67c0 -30 -22 -61 -67 -71c-48 -19 -196 -100 -196 -106c0 -17 147 -63 209 -72c42 -12 61 -42 61 -70c0 -34 -27 -67 -74 -67c-5 0 -10 0 -15 1c-107 16 -212 64 -313 101c-50 18 -137 27 -137 101c0 71 376 241 447 250z" />
    <glyph glyph-name="greater" unicode="&#x3e;" horiz-adv-x="599"
d="M122 -13c-55 0 -85 30 -85 67c0 30 22 61 67 71c48 19 195 99 195 106c0 17 -146 63 -208 72c-42 12 -61 42 -61 70c0 34 27 67 74 67c5 0 10 0 15 -1c107 -16 212 -64 313 -101c50 -18 137 -27 137 -101c0 -71 -376 -241 -447 -250z" />
    <glyph glyph-name="equal" unicode="=" horiz-adv-x="537"
d="M103 305c-49 6 -73 39 -73 70c0 34 26 67 78 69c131 0 202 -1 332 -1c42 -12 62 -41 62 -69c0 -31 -23 -60 -67 -70c-131 0 -201 1 -332 1zM100 123c-34 17 -50 43 -50 69c0 34 28 65 78 67c38 -4 70 -5 101 -5c43 0 82 2 126 2c28 0 57 0 90 -3c42 -12 62 -41 62 -69
c0 -31 -23 -60 -67 -70c-32 2 -61 3 -87 3c-44 0 -83 -2 -123 -2s-81 2 -130 8z" />
    <glyph glyph-name="at" unicode="@" horiz-adv-x="778"
d="M257 226c0 51 43 138 97 138c17 0 34 -8 52 -28c11 29 39 39 68 39c78 0 51 -78 72 -127c8 -19 14 -28 22 -28c14 0 27 12 27 58c0 154 -114 186 -200 186c-140 0 -209 -110 -209 -270c0 -111 109 -189 206 -189c41 0 81 7 133 19c53 0 85 -28 85 -66
c0 -24 -14 -49 -45 -67c-63 -15 -121 -25 -180 -25c-180 0 -335 144 -335 329c0 204 114 409 353 409c168 0 325 -99 325 -296c0 -115 -40 -217 -168 -217c-34 0 -73 19 -91 38c-15 -14 -45 -32 -73 -32c-99 0 -139 65 -139 129z" />
    <glyph glyph-name="bracketleft" unicode="[" horiz-adv-x="440"
d="M328 598c42 -12 62 -41 62 -69c0 -31 -23 -60 -67 -70c-40 1 -50 9 -89 14v-4c4 -146 10 -273 10 -409c0 -50 -1 -101 -3 -155c49 5 70 24 120 24c51 0 79 -33 79 -67c0 -30 -22 -61 -67 -71c-54 -5 -89 -27 -149 -27c-32 0 -63 6 -89 25c-31 22 -38 83 -38 140
c0 111 1 204 1 300c0 77 -1 156 -4 246c-7 26 -14 52 -14 79c8 42 34 65 74 65c5 0 11 0 17 -1h2c54 0 93 -17 155 -20z" />
    <glyph glyph-name="bracketright" unicode="]" horiz-adv-x="440"
d="M112 -209c-42 12 -62 41 -62 69c0 31 23 60 67 70c40 -1 50 -9 89 -14v4c-4 146 -10 273 -10 409c0 50 1 101 3 155c-49 -5 -70 -24 -120 -24c-51 0 -79 33 -79 67c0 30 22 61 67 71c54 5 89 27 149 27c32 0 62 -6 89 -25c31 -22 38 -83 38 -140c0 -111 -2 -205 -2 -301
c0 -76 1 -155 5 -245c7 -26 14 -52 14 -79c-8 -42 -35 -65 -74 -65c-6 0 -11 0 -17 1h-2c-54 0 -93 17 -155 20z" />
    <glyph glyph-name="asciicircum" unicode="^" horiz-adv-x="402"
d="M167 491c-20 -34 -43 -96 -84 -96c-24 0 -48 20 -53 57c8 66 61 132 99 184c21 28 41 67 84 67c54 0 78 -85 101 -134c21 -43 48 -69 58 -120c-2 -39 -26 -61 -52 -61c-62 0 -91 148 -120 148c-10 0 -18 -19 -33 -45z" />
    <glyph glyph-name="braceleft" unicode="{" horiz-adv-x="432"
d="M255 615c44 0 141 -28 141 -86c0 -31 -23 -60 -67 -70c-13 0 -44 14 -66 14c-13 0 -23 -5 -23 -21c0 -67 48 -114 48 -192c0 -29 -16 -52 -27 -71c28 -38 45 -47 45 -116c0 -14 -4 -51 -4 -87c0 -35 4 -69 18 -75c38 -15 92 -21 92 -78c0 -34 -27 -67 -74 -67
c-123 0 -171 91 -171 209c0 13 3 36 3 59c0 40 -9 82 -56 82h-2c-47 6 -72 37 -72 69c0 26 18 54 56 69c16 1 47 1 47 31c0 45 -45 99 -45 179c0 79 77 151 157 151z" />
    <glyph glyph-name="braceright" unicode="}" horiz-adv-x="432"
d="M177 -234c-44 0 -141 28 -141 86c0 31 23 60 67 70c13 0 44 -14 66 -14c13 0 23 5 23 21c0 67 -48 114 -48 192c0 29 16 52 27 71c-28 38 -45 47 -45 116c0 14 4 51 4 87c0 35 -4 69 -18 75c-38 15 -92 21 -92 78c0 34 27 67 74 67c123 0 171 -91 171 -209
c0 -13 -3 -36 -3 -60c0 -39 9 -81 56 -81h2c47 -6 72 -37 72 -69c0 -26 -18 -54 -56 -69c-16 -1 -47 -1 -47 -31c0 -45 45 -99 45 -179c0 -79 -77 -151 -157 -151z" />
    <glyph glyph-name="bar" unicode="|" horiz-adv-x="398"
d="M120 691c10 44 39 67 70 67c28 0 57 -20 69 -62c3 -360 17 -721 19 -1082c-2 -52 -35 -78 -69 -78c-31 0 -64 24 -70 73c-3 361 -16 721 -19 1082z" />
    <glyph glyph-name="asciitilde" unicode="~" horiz-adv-x="444"
d="M174 268c-7 9 -11 13 -14 13c-9 0 7 -82 -68 -82c-45 0 -62 45 -62 77c0 79 64 126 126 126c65 0 121 -75 136 -75c5 0 7 7 7 20c0 45 32 68 58 68c23 0 47 -17 57 -51c0 -34 0 -64 -15 -95c-21 -43 -60 -69 -111 -69c-69 0 -89 42 -114 68z" />
    <glyph glyph-name="afii10053" unicode="&#x404;" horiz-adv-x="437"
d="M255 228h-53c3 -55 10 -115 34 -115c8 0 16 11 19 38c12 42 41 62 69 62c31 0 60 -23 70 -67c-4 -36 -7 -68 -27 -100c-29 -46 -83 -72 -137 -72c-137 0 -170 139 -170 252c0 38 3 74 5 105c7 100 17 231 82 314c18 23 50 33 85 33c157 0 183 -112 185 -211
c-6 -49 -39 -73 -70 -73c-41 0 -69 31 -69 95c0 26 -1 47 -25 47c-25 0 -39 -116 -45 -169h42c52 -2 78 -35 78 -69c0 -31 -24 -64 -73 -70z" />
    <glyph glyph-name="afii10101" unicode="&#x454;" horiz-adv-x="343"
d="M280 231c-36 -9 -65 -12 -85 -20c11 -6 37 -13 37 -48c0 -10 -6 -17 -13 -26l-8 -10c8 -2 17 -2 26 -2s18 1 26 1c36 0 60 -25 60 -53c0 -32 -44 -70 -115 -70c-72 0 -178 64 -178 166c0 91 50 159 190 159c57 0 88 -12 88 -55c0 -19 -9 -36 -28 -42z" />
    <glyph glyph-name="afii61352" unicode="&#x2116;" horiz-adv-x="918"
d="M238 46c-15 -38 -43 -55 -70 -55c-34 0 -66 27 -66 71c0 36 12 77 12 116c0 124 -34 216 -34 347c0 59 18 155 94 155c63 0 92 -70 121 -118c65 -110 98 -208 154 -320c7 -15 13 -20 15 -20s3 3 3 8s-1 10 -1 15c-16 125 -42 238 -51 375c10 44 40 67 70 67
c28 0 57 -20 69 -62c12 -170 71 -342 71 -481c0 -90 -40 -152 -123 -152c-111 0 -181 240 -251 375c-5 9 -12 20 -15 20c-2 0 -4 -3 -4 -10c0 -4 1 -10 2 -18c8 -62 18 -113 18 -182c0 -44 -4 -88 -14 -131zM671 295c-20 19 -28 41 -28 60c0 35 28 64 65 64c5 0 9 0 14 -1
c-1 0 -1 0 -1 1c-6 4 17 -6 33 -9c27 -5 55 -6 82 -8c42 -12 62 -41 62 -69c0 -31 -23 -60 -67 -70c-47 3 -122 -1 -160 32zM760 670c71 0 98 -53 98 -102c0 -47 -26 -95 -72 -95c-70 0 -114 64 -114 113c0 41 27 78 88 84z" />
    <glyph glyph-name="dagger" unicode="&#x2020;" horiz-adv-x="498"
d="M103 379c-49 6 -73 39 -73 70c0 34 26 67 78 69h56c-1 51 -2 102 -2 154c10 44 39 67 70 67c28 0 57 -20 69 -62c0 -52 1 -105 3 -157c34 1 68 1 102 1c42 -12 62 -41 62 -69c0 -31 -23 -60 -67 -70c-31 0 -62 0 -93 -1c3 -120 7 -240 8 -361c-2 -52 -35 -78 -69 -78
c-31 0 -64 24 -70 73c-1 121 -5 242 -9 364h-65z" />
    <glyph glyph-name="daggerdbl" unicode="&#x2021;" horiz-adv-x="475"
d="M113 174c-49 6 -73 39 -73 70c0 34 26 67 78 69h46l3 104c-21 -2 -40 -4 -51 -4c-48 6 -73 37 -73 69c0 26 17 54 55 69c22 1 47 4 71 6c1 44 2 87 2 131c10 44 39 67 70 67c28 0 57 -20 69 -62c0 -45 -1 -89 -2 -134c70 -10 114 -46 114 -90c0 -35 -28 -65 -67 -65
c-13 0 -28 4 -43 11l-9 3v-105h70c42 -12 62 -41 62 -69c0 -31 -23 -60 -67 -70h-68v-63c0 -75 -6 -142 -70 -142c-31 0 -64 24 -70 73c0 44 0 88 1 132h-48z" />
    <glyph glyph-name="Euro" unicode="&#x20ac;" horiz-adv-x="510"
d="M107 181c-49 6 -73 39 -73 70c0 34 26 67 78 69c1 23 2 48 4 74h-13c-49 6 -73 39 -73 70c0 32 26 69 78 69h32c28 100 82 186 183 208c4 1 10 1 16 1c33 0 81 -14 90 -16c42 -12 61 -42 61 -70c0 -34 -27 -67 -74 -67c-23 0 -43 11 -65 11c-30 0 -55 -50 -63 -67h6
c42 -12 62 -41 62 -69c0 -31 -23 -60 -67 -70h-38c-3 -22 -5 -44 -5 -65l59 3c42 -12 62 -41 62 -69c0 -38 -33 -71 -97 -71c21 -48 33 -51 93 -51c20 0 39 1 58 1c42 -12 62 -41 62 -69c0 -31 -23 -60 -67 -70c-18 -1 -36 -1 -55 -1c-129 0 -203 49 -237 179h-17z" />
    <glyph glyph-name="perthousand" unicode="&#x2030;" horiz-adv-x="691"
d="M276 712c19 16 40 24 58 24c35 0 64 -28 64 -67c0 -12 -3 -25 -8 -38c-62 -101 -74 -233 -106 -346c-20 -72 -70 -135 -80 -210c-15 -38 -43 -55 -69 -55c-32 0 -63 25 -69 73c8 85 62 152 85 232c36 130 54 271 125 387zM333 219c19 16 39 23 57 23c36 0 64 -27 64 -67
c0 -5 0 -10 -1 -15c8 -15 12 -30 12 -44c0 -52 -49 -94 -95 -94c-40 0 -80 40 -80 101c0 43 23 68 43 96zM118 770c71 0 98 -53 98 -102c0 -47 -26 -95 -72 -95c-70 0 -114 64 -114 113c0 41 27 78 88 84zM573 227c71 0 98 -53 98 -102c0 -47 -26 -95 -72 -95
c-70 0 -114 64 -114 113c0 41 27 78 88 84z" />
    <glyph glyph-name="quotesinglbase" unicode="&#x201a;" horiz-adv-x="276"
d="M50 75c0 69 39 83 95 83c39 0 81 -50 81 -99c0 -74 -27 -171 -94 -194c-2 -1 -4 -1 -6 -1c-14 0 -39 11 -39 36c0 24 41 51 41 74c0 5 -2 10 -7 14c-46 11 -71 41 -71 87z" />
    <glyph glyph-name="quotedblbase" unicode="&#x201e;" horiz-adv-x="476"
d="M50 75c0 69 39 83 95 83c39 0 81 -50 81 -99c0 -74 -27 -171 -94 -194c-2 -1 -4 -1 -6 -1c-14 0 -39 11 -39 36c0 24 41 51 41 74c0 5 -2 10 -7 14c-46 11 -71 41 -71 87zM250 75c0 69 39 83 95 83c39 0 81 -50 81 -99c0 -74 -27 -171 -94 -194c-2 -1 -4 -1 -6 -1
c-14 0 -39 11 -39 36c0 24 41 51 41 74c0 5 -2 10 -7 14c-46 11 -71 41 -71 87z" />
    <glyph glyph-name="ellipsis" unicode="&#x2026;" horiz-adv-x="729"
d="M282 95c0 48 20 83 70 83c46 0 94 -38 102 -80c-7 -62 -51 -98 -92 -98c-38 0 -74 30 -80 95zM679 83c0 -48 -20 -83 -70 -83c-65 0 -95 48 -95 95c0 45 27 88 78 88c38 0 82 -49 87 -100zM50 83c5 51 49 100 87 100c32 0 85 -70 85 -103c-8 -42 -56 -80 -102 -80
c-50 0 -70 35 -70 83z" />
    <glyph glyph-name="quotedblright" unicode="&#x201d;" horiz-adv-x="476"
d="M50 627c0 69 39 83 95 83c39 0 81 -50 81 -99c0 -74 -27 -171 -94 -194c-2 -1 -4 -1 -6 -1c-14 0 -39 11 -39 36c0 24 41 51 41 74c0 5 -2 10 -7 14c-46 11 -71 41 -71 87zM250 627c0 69 39 83 95 83c39 0 81 -50 81 -99c0 -74 -27 -171 -94 -194c-2 -1 -4 -1 -6 -1
c-14 0 -39 11 -39 36c0 24 41 51 41 74c0 5 -2 10 -7 14c-46 11 -71 41 -71 87z" />
    <glyph glyph-name="quotedblleft" unicode="&#x201c;" horiz-adv-x="476"
d="M426 499c0 -69 -39 -83 -95 -83c-39 0 -81 50 -81 99c0 74 27 171 94 194c2 1 4 1 6 1c14 0 39 -11 39 -36c0 -24 -41 -51 -41 -74c0 -5 2 -10 7 -14c46 -11 71 -41 71 -87zM226 499c0 -69 -39 -83 -95 -83c-39 0 -81 50 -81 99c0 74 27 171 94 194c2 1 4 1 6 1
c14 0 39 -11 39 -36c0 -24 -41 -51 -41 -74c0 -5 2 -10 7 -14c46 -11 71 -41 71 -87z" />
    <glyph glyph-name="quoteright" unicode="&#x2019;" horiz-adv-x="276"
d="M50 627c0 69 39 83 95 83c39 0 81 -50 81 -99c0 -74 -27 -171 -94 -194c-2 -1 -4 -1 -6 -1c-14 0 -39 11 -39 36c0 24 41 51 41 74c0 5 -2 10 -7 14c-46 11 -71 41 -71 87z" />
    <glyph glyph-name="quoteleft" unicode="&#x2018;" horiz-adv-x="276"
d="M226 499c0 -69 -39 -83 -95 -83c-39 0 -81 50 -81 99c0 74 27 171 94 194c2 1 4 1 6 1c14 0 39 -11 39 -36c0 -24 -41 -51 -41 -74c0 -5 2 -10 7 -14c46 -11 71 -41 71 -87z" />
    <glyph glyph-name="plusminus" unicode="&#xb1;" horiz-adv-x="559"
d="M141 58c-49 6 -73 39 -73 70c0 34 26 67 78 69h49c1 27 3 46 5 78c-29 1 -58 1 -87 1c-49 6 -73 39 -73 70c0 32 26 69 78 69c30 0 60 0 90 -1c2 48 5 46 6 94c10 44 39 67 70 67c28 0 57 -20 69 -62c-1 -50 -3 -51 -6 -101c34 -1 59 -1 94 -1c42 -12 62 -41 62 -69
c0 -31 -23 -60 -67 -70c-36 0 -62 0 -98 1c-2 -29 -2 -56 -4 -79c44 -1 88 -1 133 -1c42 -12 62 -41 62 -69c0 -31 -23 -60 -67 -70c-107 0 -214 4 -321 4z" />
    <glyph glyph-name="degree" unicode="&#xb0;" horiz-adv-x="365"
d="M156 712c20 0 36 -5 48 -14c9 4 21 8 35 8c63 -7 86 -47 86 -94c0 -88 -66 -151 -146 -151c-71 0 -139 58 -139 128c0 97 69 113 116 123zM212 600c-6 3 -12 8 -16 12c-20 -11 -44 -12 -44 -23c0 -8 12 -16 24 -16c16 0 32 10 36 27z" />
    <glyph glyph-name="acute" unicode="&#xb4;" horiz-adv-x="274"
d="M167 708c49 0 77 -25 77 -60c0 -26 -18 -56 -61 -70l-5 -4c-22 -19 -52 -39 -82 -39c-41 0 -66 30 -66 61c0 22 12 45 40 59h-1c0 3 79 48 98 53z" />
    <glyph glyph-name="hungarumlaut" unicode="&#x2dd;" horiz-adv-x="445"
d="M150 707c54 0 75 -19 75 -56c0 -51 -113 -145 -141 -145c-35 0 -54 18 -54 56c0 45 57 126 120 145zM340 707c54 0 75 -19 75 -56c0 -51 -113 -145 -141 -145c-35 0 -54 18 -54 56c0 45 57 126 120 145z" />
    <glyph glyph-name="afii57929" unicode="&#x2bc;" horiz-adv-x="210"
d="M30 634c0 59 33 71 81 71c33 0 69 -43 69 -84c0 -63 -23 -146 -80 -165c-2 -1 -4 -1 -5 -1c-12 0 -34 9 -34 31c0 20 35 43 35 63c0 4 -1 8 -6 11c-39 10 -60 35 -60 74z" />
    <glyph glyph-name="commaaccent" unicode="&#xf6c3;" horiz-adv-x="210"
d="M30 -206c0 59 33 71 81 71c33 0 69 -43 69 -84c0 -63 -23 -146 -80 -165c-2 -1 -4 -1 -5 -1c-12 0 -34 9 -34 31c0 20 35 43 35 63c0 4 -1 8 -6 11c-39 10 -60 35 -60 74z" />
    <glyph glyph-name="breve" unicode="&#x2d8;" horiz-adv-x="304"
d="M68 711c39 -15 45 -70 70 -70c45 0 41 74 81 74c26 0 55 -28 55 -57c0 -42 -91 -123 -146 -123c-41 0 -98 70 -98 137c0 23 16 39 38 39z" />
    <glyph glyph-name="caron" unicode="&#x2c7;" horiz-adv-x="321"
d="M137 524c-40 3 -107 86 -107 129c0 30 24 55 57 55c25 0 43 -36 66 -64c21 18 48 59 80 59c35 0 58 -26 58 -55c0 -21 -11 -43 -38 -59c-21 -22 -74 -65 -116 -65z" />
    <glyph glyph-name="circumflex" unicode="&#x2c6;" horiz-adv-x="321"
d="M184 708c40 -3 107 -86 107 -129c0 -30 -24 -55 -57 -55c-25 0 -43 36 -66 64c-21 -18 -48 -59 -80 -59c-35 0 -58 26 -58 55c0 21 11 43 38 59c21 22 74 65 116 65z" />
    <glyph glyph-name="dieresis" unicode="&#xa8;" horiz-adv-x="398"
d="M54 568c-15 17 -24 39 -24 61c0 34 28 71 74 71c57 0 74 -39 74 -79s-32 -75 -71 -75c-17 0 -35 6 -53 22zM344 678c15 -17 24 -39 24 -61c0 -34 -28 -71 -74 -71c-57 0 -74 39 -74 79s32 75 71 75c17 0 35 -6 53 -22z" />
    <glyph glyph-name="dotaccent" unicode="&#x2d9;" horiz-adv-x="208"
d="M154 678c15 -17 24 -39 24 -61c0 -34 -28 -71 -74 -71c-57 0 -74 39 -74 79s32 75 71 75c17 0 35 -6 53 -22z" />
    <glyph glyph-name="tilde" unicode="&#x2dc;" horiz-adv-x="387"
d="M357 632c0 -61 -40 -110 -103 -110c-47 0 -69 44 -86 44c-15 0 -46 -46 -70 -46c-32 0 -63 25 -68 73c6 53 41 119 102 119c47 0 69 -51 82 -51s36 50 65 50c41 0 78 -36 78 -79z" />
    <glyph glyph-name="ring" unicode="&#x2da;" horiz-adv-x="328"
d="M159 742c60 -20 139 -55 139 -134c0 -63 -71 -121 -134 -121c-81 0 -134 51 -134 110c0 39 21 102 58 131c20 16 48 14 71 14zM189 601c0 13 -20 37 -35 37c-11 0 -19 -14 -19 -27c0 -17 14 -29 30 -29c12 0 24 7 24 19z" />
    <glyph glyph-name="cyrbreve" unicode="&#xf6d4;" horiz-adv-x="286"
d="M65 488c36 -14 42 -64 65 -64c41 0 38 68 75 68c24 0 51 -26 51 -53c0 -39 -85 -114 -135 -114c-39 0 -91 65 -91 127c0 22 15 36 35 36z" />
    <glyph glyph-name="cyrBreve" unicode="&#xf6d1;" horiz-adv-x="304"
d="M68 876c39 -15 45 -70 70 -70c45 0 41 74 81 74c26 0 55 -28 55 -57c0 -42 -91 -123 -146 -123c-41 0 -98 70 -98 137c0 23 16 39 38 39z" />
    <glyph glyph-name="macron" unicode="&#xaf;" horiz-adv-x="397"
d="M93 582c-49 6 -63 29 -63 60c0 34 16 57 68 59c70 -2 148 0 217 -3c42 -12 52 -31 52 -59c0 -31 -13 -50 -57 -60c-69 3 -148 0 -217 3z" />
    <glyph glyph-name="minus" unicode="&#x2212;" horiz-adv-x="780"
d="M209 371c160 -11 313 -51 470 -73c15 -2 71 -39 71 -66c0 -39 -35 -56 -61 -56c-7 0 -13 0 -20 2c-65 14 -126 24 -194 26c-98 2 -193 28 -291 28c-26 0 -51 -5 -77 -5c-38 0 -77 43 -77 74c0 43 41 74 92 74c29 0 59 -2 87 -4z" />
    <glyph glyph-name="multiply" unicode="&#xd7;" horiz-adv-x="400"
d="M135 93c-8 -2 -16 -3 -24 -3c-44 0 -71 32 -71 66c0 27 17 55 55 70c19 21 25 30 35 45c-36 41 -83 75 -83 121c0 39 27 66 63 66c17 0 35 -6 54 -19l52 -55c15 11 36 16 51 16c41 0 69 -30 69 -65c0 -20 -9 -41 -30 -58c25 -33 54 -72 54 -106c0 -42 -28 -69 -64 -69
c-19 0 -41 8 -60 28l-16 27c-22 -29 -48 -52 -85 -64z" />
    <glyph glyph-name="divide" unicode="&#xf7;" horiz-adv-x="490"
d="M103 203c-49 6 -73 39 -73 70s26 67 78 69c97 2 194 7 290 8c42 -12 62 -41 62 -69c0 -31 -23 -60 -67 -70c-97 -1 -193 -7 -290 -8zM226 149c64 0 137 -6 137 -94c-16 -54 -51 -75 -89 -75c-53 0 -109 44 -114 101c7 30 27 68 66 68zM231 580c66 0 99 -53 99 -89
c0 -24 4 -90 -83 -90c-22 0 -44 12 -61 26l2 -2c-24 24 -33 40 -33 65c0 42 31 82 76 90z" />
    <glyph glyph-name="cedilla" unicode="&#xb8;" horiz-adv-x="288"
d="M130 -170l-40 -5c-44 0 -55 25 -55 53c0 36 9 60 32 122h72c-9 -20 -6 -49 -14 -76c75 0 133 -35 133 -113c0 -89 -74 -111 -164 -111c-50 7 -64 19 -64 50c0 11 8 41 50 50h47c15 3 21 11 21 18c0 9 -8 12 -18 12z" />
    <glyph glyph-name="ogonek" unicode="&#x2db;" horiz-adv-x="280"
d="M30 -169c0 66 53 121 98 169h86l-54 -86c-12 -18 -18 -33 -17 -44c0 -49 107 -34 107 -86c0 -31 -13 -50 -57 -60c-83 0 -163 10 -163 107z" />
    <glyph glyph-name="brokenbar" unicode="&#xa6;" horiz-adv-x="398"
d="M120 671c10 44 39 67 70 67c28 0 57 -20 69 -62c0 -148 4 -296 4 -445c-2 -52 -35 -78 -69 -78c-31 0 -64 24 -70 73c0 148 -4 297 -4 445zM139 -41c10 44 39 67 70 67c28 0 57 -20 69 -62v-390c-2 -52 -35 -78 -69 -78c-31 0 -64 24 -70 73v390z" />
    <glyph glyph-name="periodcentered" unicode="&#xb7;" horiz-adv-x="302"
d="M65 210c5 51 49 100 87 100c32 0 85 -70 85 -103c-8 -42 -56 -80 -102 -80c-50 0 -70 35 -70 83z" />
    <glyph glyph-name="guilsinglright" unicode="&#x203a;" horiz-adv-x="354"
d="M99 343c-8 15 -11 30 -11 43c0 39 27 66 63 66c66 0 86 -74 112 -124c17 -33 51 -76 51 -117c0 -63 -156 -176 -158 -176l3 3c-18 -16 -37 -23 -54 -23c-36 0 -65 28 -65 66c0 29 16 56 48 78l8 6c19 18 49 37 64 59c-1 0 -1 0 -1 1c-19 37 -39 73 -55 111
c-1 3 -3 5 -5 7z" />
    <glyph glyph-name="guilsinglleft" unicode="&#x2039;" horiz-adv-x="333"
d="M156 419l8 12c1 0 1 1 1 1c17 21 38 31 58 31c37 0 66 -31 66 -84c-15 -44 -43 -79 -70 -118l-21 -30c36 -47 81 -108 91 -126c3 -11 4 -21 4 -30c0 -42 -28 -69 -64 -69c-19 0 -41 8 -60 28c-35 67 -129 146 -129 196c0 52 87 137 112 179z" />
    <glyph glyph-name="guillemotleft" unicode="&#xab;" horiz-adv-x="491"
d="M40 198c0 56 47 124 74 178c13 36 41 53 68 53c34 0 67 -27 67 -78c0 -40 -47 -112 -65 -152c24 -30 48 -59 69 -93c13 -11 23 -34 23 -54c0 -35 -28 -65 -68 -65c-55 0 -71 44 -95 78c-33 45 -73 81 -73 133zM292 368c10 45 41 67 71 67c37 0 67 -30 67 -85
c-10 -50 -25 -94 -52 -140c27 -43 60 -83 73 -134c-2 -50 -33 -78 -67 -78c-31 0 -50 18 -79 69c-16 28 -71 88 -71 141c0 58 47 103 58 160z" />
    <glyph glyph-name="guillemotright" unicode="&#xbb;" horiz-adv-x="491"
d="M451 224c0 -56 -47 -124 -74 -178c-13 -36 -41 -53 -68 -53c-34 0 -67 27 -67 78c0 40 47 112 65 152c-24 30 -48 59 -69 93c-13 11 -23 34 -23 54c0 35 28 65 68 65c55 0 71 -44 95 -78c33 -46 73 -81 73 -133zM199 54c-10 -45 -41 -67 -71 -67c-37 0 -67 30 -67 85
c10 50 25 94 52 140c-27 43 -60 83 -73 134c2 50 33 78 67 78c31 0 50 -18 79 -69c16 -28 71 -88 71 -141c0 -58 -47 -103 -58 -160z" />
    <glyph glyph-name="uni00AD" unicode="&#xad;" horiz-adv-x="548"
d="M80 202c-34 17 -50 43 -50 69c0 34 28 65 78 67c24 -4 48 -5 72 -5c32 0 64 2 96 2c61 0 120 -5 180 -5c42 -12 62 -41 62 -69c0 -31 -23 -60 -67 -70c-62 0 -126 5 -188 5c-28 0 -55 -1 -82 -1c-33 0 -67 2 -101 7z" />
    <glyph glyph-name="logicalnot" unicode="&#xac;" horiz-adv-x="524"
d="M103 245c-49 6 -73 39 -73 70c0 34 26 67 78 69c65 -1 131 -7 196 -7c26 0 51 1 77 1c107 0 113 -56 113 -151c0 -79 -18 -118 -69 -118c-54 0 -66 42 -75 128h-31c-71 0 -144 7 -216 8z" />
    <glyph glyph-name="endash" unicode="&#x2013;" horiz-adv-x="622"
d="M104 191c-50 6 -74 38 -74 70c0 33 26 66 77 69c26 6 53 4 78 6c47 4 94 7 140 7c49 0 91 -16 142 -16c21 0 42 1 63 1c42 -12 62 -41 62 -69c0 -31 -23 -60 -67 -70c-24 0 -47 -1 -70 -1c-48 0 -90 15 -135 15c-72 0 -144 -9 -216 -12z" />
    <glyph glyph-name="emdash" unicode="&#x2014;" horiz-adv-x="1030"
d="M103 189c-49 6 -73 39 -73 70c0 34 26 67 78 69c277 0 554 2 830 2c42 -12 62 -41 62 -69c0 -31 -23 -60 -67 -70c-277 0 -553 -2 -830 -2z" />
    <glyph glyph-name="bullet" unicode="&#x2022;" horiz-adv-x="423"
d="M98 168c-14 18 -18 59 -18 84c0 64 49 127 128 127c63 0 121 -41 121 -95c0 -8 -1 -15 -3 -23c9 -12 17 -23 17 -39c0 -46 -34 -103 -84 -103c-11 0 -23 1 -33 2c-7 -1 -13 -2 -18 -2c-40 0 -85 18 -110 49z" />
    <glyph glyph-name="section" unicode="&#xa7;" horiz-adv-x="443"
d="M216 706c53 0 85 -28 85 -66c0 -69 -45 -69 -45 -106c0 -15 8 -38 32 -75c34 -55 95 -108 95 -174c0 -69 -34 -103 -99 -117c-20 2 -35 9 -47 18c45 -58 89 -113 89 -192c0 -57 -32 -117 -124 -118c-50 6 -74 39 -74 70c0 42 48 51 48 82c0 6 -2 13 -6 21
c-39 64 -110 113 -110 202c0 65 53 118 107 149l-33 46c-29 41 -42 86 -42 127c0 84 46 122 124 133zM235 287l-16 9h-3c-7 -16 -13 -31 -13 -49v-7l9 -18c-2 4 -2 9 -2 14c0 18 10 37 25 51z" />
    <glyph glyph-name="afii10193" unicode="&#x45f;" horiz-adv-x="419"
d="M40 229c11 59 9 148 76 148c38 0 79 -38 79 -87c-5 -28 -19 -58 -19 -89c0 -10 7 -22 20 -22c48 0 61 171 129 171c28 0 74 -30 74 -76c0 -5 -1 -10 -3 -14c-33 -86 -84 -202 -166 -238c-1 -8 -3 -15 -6 -23c-21 -46 -37 -91 -42 -142c-15 -38 -43 -55 -69 -55
c-32 0 -63 25 -69 73c4 59 24 115 47 168c-36 32 -51 84 -51 127c0 19 3 39 4 59h-4z" />
    <glyph glyph-name="afii10145" unicode="&#x40f;" horiz-adv-x="618"
d="M134 689c53 0 84 -28 84 -65c0 -51 -18 -126 -18 -168c0 -14 -6 -310 131 -310c80 0 108 74 108 136c0 65 -20 127 -33 190c-10 49 -14 91 -18 140c10 44 40 67 70 67c28 0 57 -20 69 -62c9 -109 51 -213 51 -324c0 -140 -70 -247 -174 -277c0 -35 -6 -70 -6 -107
c0 -21 15 -45 15 -63c0 -37 -29 -66 -64 -66c-66 0 -90 75 -90 133c0 32 1 27 6 101l-3 7c-138 46 -202 211 -202 359c0 70 2 119 4 182c2 60 0 107 70 127z" />
    <glyph glyph-name="afii10060" unicode="&#x40b;" horiz-adv-x="579"
d="M23 587c-49 6 -73 39 -73 70c0 34 26 67 78 69c117 -2 232 -16 348 -19c42 -12 62 -41 62 -69c0 -31 -23 -60 -67 -70c-35 1 -70 3 -105 5v-143c33 10 65 13 91 13c123 0 151 -73 159 -201c3 -52 11 -83 13 -134c-10 -44 -39 -67 -70 -67c-28 0 -57 20 -69 62
c-2 51 -11 82 -14 133c-1 14 -6 68 -48 68c-38 0 -32 -9 -63 -18c-1 -75 -1 -129 -1 -204c-10 -44 -39 -67 -70 -67c-28 0 -57 20 -69 62c0 85 1 150 1 236c-4 9 -7 18 -7 28s3 20 8 30v211c-35 2 -69 4 -104 5z" />
    <glyph glyph-name="afii10051" unicode="&#x402;" horiz-adv-x="567"
d="M341 66c15 25 35 134 35 170c0 14 -7 68 -48 68c-38 0 -32 -9 -63 -18c-1 -75 -1 -129 -1 -204c-10 -44 -39 -67 -70 -67c-28 0 -57 20 -69 62c0 85 1 150 1 236c-4 9 -7 18 -7 28s3 20 8 30v211c-35 2 -69 4 -104 5c-49 6 -73 39 -73 70c0 34 26 67 78 69
c117 -2 232 -16 348 -19c42 -12 62 -41 62 -69c0 -31 -23 -60 -67 -70c-35 1 -70 3 -105 5v-143c33 10 65 13 91 13c126 0 160 -83 160 -226c0 -104 -36 -222 -127 -280c-8 -2 -16 -3 -23 -3c-45 0 -72 32 -72 66c0 24 14 50 46 66z" />
    <glyph glyph-name="afii10099" unicode="&#x452;" horiz-adv-x="514"
d="M73 472c-49 6 -73 39 -73 70c0 32 26 69 78 69c24 0 48 -1 72 -1l2 16c8 64 30 96 71 96c42 0 90 -68 90 -113v-4c26 0 52 -1 79 -1c42 -12 62 -41 62 -69c0 -31 -23 -60 -67 -70c-34 0 -68 1 -102 2l-24 -92c-5 -19 -10 -31 -9 -40c0 -17 6 -20 31 -20h15c7 1 13 1 19 1
c69 0 131 -65 131 -174c0 -93 -41 -245 -137 -267c1 0 1 0 2 1c-12 -5 -24 -8 -35 -8c-38 0 -66 30 -66 65c0 20 10 43 33 63c30 20 36 26 50 67c4 11 15 41 15 63c0 14 -4 24 -18 24c-31 0 -110 -134 -173 -134c-54 0 -77 46 -77 80c0 10 2 21 4 32c24 114 49 227 79 343
c-18 1 -35 1 -52 1z" />
    <glyph glyph-name="afii10108" unicode="&#x45b;" horiz-adv-x="538"
d="M73 472c-49 6 -73 39 -73 70c0 32 26 69 78 69c24 0 48 -1 72 -1l2 16c8 64 30 96 71 96c42 0 90 -68 90 -113v-4c26 0 52 -1 79 -1c42 -12 62 -41 62 -69c0 -31 -23 -60 -67 -70c-34 0 -68 1 -102 2l-24 -92c-6 -21 -10 -34 -9 -43c0 -14 8 -17 31 -17h15c7 1 13 1 19 1
c114 0 118 -144 200 -207c14 -13 21 -29 21 -46c0 -43 -42 -73 -81 -73c-100 0 -139 160 -165 160c-31 0 -110 -134 -173 -134c-54 0 -77 46 -77 80c0 10 2 21 4 32c24 114 49 227 79 343c-18 1 -35 1 -52 1z" />
    <glyph glyph-name="afii10058" unicode="&#x409;" horiz-adv-x="685"
d="M58 149c3 -1 6 -1 9 -1c54 0 81 92 81 190c0 84 -14 173 -19 210c-25 14 -37 36 -37 59c0 34 27 67 79 69c9 0 18 -1 28 -1c24 0 51 1 79 1c44 0 91 -1 130 -8c7 3 15 4 23 4c28 0 57 -20 69 -62c-4 -116 -26 -201 -30 -316c4 0 8 1 12 1c123 -20 193 -132 193 -201
c0 -73 -67 -117 -144 -117c-43 0 -90 14 -129 46c-66 54 -73 150 -73 228c0 105 17 187 27 282h-16c-20 0 -42 -1 -57 -1c-7 0 -12 0 -15 1c4 -60 13 -145 13 -229c0 -151 -41 -300 -192 -300c-51 0 -99 9 -99 76c0 30 13 70 55 70c4 0 8 0 13 -1zM524 119
c-11 17 -28 28 -47 34c8 -24 23 -32 47 -34z" />
    <glyph glyph-name="afii10059" unicode="&#x40a;" horiz-adv-x="745"
d="M421 621c10 44 39 67 70 67c28 0 57 -20 69 -62c-4 -116 -26 -201 -30 -316c4 0 8 1 12 1c123 -20 193 -132 193 -201c0 -73 -67 -117 -144 -117c-101 0 -204 87 -204 192c0 9 0 18 2 27c-51 3 -102 16 -151 16c-10 0 -14 -4 -14 -25c-3 -58 -3 -59 -5 -122
c-1 -52 -37 -78 -69 -78s-64 24 -70 73c3 201 16 341 19 542c10 44 40 67 70 67c28 0 57 -20 69 -62c-1 -79 -7 -183 -7 -244c0 -14 4 -10 35 -13c41 -4 84 -15 125 -15c13 0 28 224 30 270zM584 135c-11 17 -28 28 -47 34c8 -24 23 -32 47 -34z" />
    <glyph glyph-name="afii10106" unicode="&#x459;" horiz-adv-x="565"
d="M253 90c-4 11 -5 27 -5 44c0 23 2 48 2 66c-36 -10 -92 -117 -151 -158c-15 -5 -28 -7 -39 -7c-43 0 -60 30 -60 62c0 43 35 98 78 149c73 104 138 125 243 125c49 0 75 -41 73 -101l-1 -33h10c65 0 142 -27 142 -134c0 -64 -72 -99 -145 -99c-64 0 -128 27 -147 86z
M415 131c-3 19 -12 24 -24 25v-39c3 -1 6 -1 9 -1c6 0 11 3 15 15z" />
    <glyph glyph-name="afii10107" unicode="&#x45a;"
d="M290 113c-5 16 -9 29 -11 44c-5 1 -10 1 -16 1c-21 0 -47 -3 -71 -7c-2 -71 -14 -162 -65 -162c-50 0 -77 77 -77 152c0 6 0 11 1 16c-5 27 -11 68 -11 108c0 74 22 127 72 127c62 0 74 -59 80 -118c14 3 27 4 39 4c13 0 33 -2 49 -6c0 90 27 122 78 122
c49 0 75 -41 73 -101l-1 -33h10c65 0 142 -27 142 -134c0 -64 -72 -99 -145 -99c-64 0 -128 27 -147 86zM452 154c-3 19 -12 24 -24 25v-39c3 -1 6 -1 9 -1c6 0 11 3 15 15z" />
    <glyph glyph-name="mu" unicode="&#xb5;" horiz-adv-x="492"
d="M77 229c11 59 9 148 76 148c38 0 79 -38 79 -87c-7 -30 -9 -59 -19 -92c1 -10 8 -19 20 -19c48 0 61 171 129 171c28 0 74 -30 74 -76c0 -30 -34 -87 -34 -113c0 -12 9 -19 35 -19c11 0 25 1 43 4c42 -12 62 -41 62 -69c0 -44 -36 -71 -110 -71c-45 0 -101 4 -132 36
c-25 -19 -53 -31 -84 -31c-17 0 -31 2 -44 6c-17 -88 -29 -179 -34 -268c-15 -38 -43 -55 -69 -55c-32 0 -63 25 -69 73c9 154 37 312 77 462z" />
    <glyph glyph-name="afii10050" unicode="&#x490;" horiz-adv-x="470"
d="M339 780c10 44 39 67 70 67c28 0 57 -20 69 -62c2 -43 11 -87 12 -131c-3 -39 -9 -91 -74 -104c-12 0 -74 8 -112 8c-75 0 -86 -140 -86 -257c0 -88 7 -174 8 -223c-2 -52 -35 -78 -69 -78c-31 0 -64 24 -70 73c-1 57 -7 142 -7 230c0 218 41 395 217 395
c17 0 33 -1 50 -3c-3 28 -8 56 -8 85z" />
    <glyph glyph-name="afii10098" unicode="&#x491;" horiz-adv-x="394"
d="M212 391l80 13l-9 36c0 36 28 65 65 65c70 0 88 -76 96 -134c-4 -13 -5 -22 -5 -29c0 -5 1 -8 1 -12c0 -11 -4 -18 -31 -34c-45 -27 -92 -22 -139 -26c-73 -7 -80 -20 -80 -104c0 -19 5 -40 5 -61c0 -31 -14 -65 -58 -65c-61 0 -87 90 -87 143c0 111 60 199 162 208z" />
    <glyph glyph-name="paragraph" unicode="&#xb6;" horiz-adv-x="684"
d="M229 695c121 0 142 -25 158 -118c34 -227 47 -411 47 -745c0 -36 -27 -66 -63 -66c-91 0 -90 304 -111 435c-137 12 -210 131 -210 253c0 94 57 241 179 241zM465 668c10 44 39 67 70 67c28 0 57 -20 69 -62c-1 -286 -5 -571 -7 -858c-2 -52 -35 -78 -69 -78
c-31 0 -64 24 -70 73c1 286 6 572 7 858z" />
    <glyph glyph-name="currency" unicode="&#xa4;" horiz-adv-x="472"
d="M93 179c-49 6 -73 39 -73 70c0 32 26 69 78 69h27c-1 17 -2 4 -2 21c-2 -1 -4 -1 -5 -1c-20 1 -36 0 -36 1h1h3c-42 9 -62 39 -62 68c0 33 27 67 79 69c5 0 7 -1 9 -1c4 0 5 1 14 1c6 134 70 217 153 217c128 0 173 -79 173 -148s-65 -158 -190 -167c0 -28 2 -26 2 -54
c86 -4 129 -32 129 -79c0 -34 -27 -67 -74 -67c-18 0 -36 5 -55 8c-1 -75 9 -188 -71 -188c-31 0 -64 24 -70 73c0 59 1 49 3 109c-8 -1 -26 -1 -33 -1zM284 581l-11 -88c16 23 22 45 22 61c0 14 -4 24 -11 27z" />
    <glyph glyph-name="uni20BD" unicode="&#x20bd;" horiz-adv-x="472"
d="M93 179c-49 6 -73 39 -73 70c0 32 26 69 78 69h27c-1 17 -2 4 -2 21c-2 -1 -4 -1 -5 -1c-20 1 -36 0 -36 1h1h3c-42 9 -62 39 -62 68c0 33 27 67 79 69c5 0 7 -1 9 -1c4 0 5 1 14 1c6 134 70 217 153 217c128 0 173 -79 173 -148s-65 -158 -190 -167c0 -28 2 -26 2 -54
c86 -4 129 -32 129 -79c0 -34 -27 -67 -74 -67c-18 0 -36 5 -55 8c-1 -75 9 -188 -71 -188c-31 0 -64 24 -70 73c0 59 1 49 3 109c-8 -1 -26 -1 -33 -1zM284 581l-11 -88c16 23 22 45 22 61c0 14 -4 24 -11 27z" />
    <glyph glyph-name="trademark" unicode="&#x2122;" horiz-adv-x="787"
d="M518 466c-2 -52 -35 -78 -69 -78c-31 0 -64 24 -70 73c0 29 1 49 1 77c0 32 -5 68 -5 92h1c0 3 -1 5 -1 7c0 38 37 72 82 72c31 0 78 -33 100 -55c28 21 81 54 105 54c32 0 56 -20 68 -59c5 -61 17 -116 17 -181c-3 -52 -36 -79 -69 -79c-73 0 -74 83 -78 143
c-13 -8 -25 -21 -38 -21c-14 0 -28 14 -43 22c0 -23 -1 -45 -1 -67zM93 564c-49 6 -73 39 -73 70c0 34 26 67 78 69c65 -1 128 -8 192 -10c42 -12 62 -41 62 -69c0 -31 -23 -60 -67 -70c-10 0 -30 0 -40 1l8 -80c-2 -52 -35 -78 -69 -78c-44 0 -70 35 -70 110
c0 12 10 44 11 56c-7 1 -25 1 -32 1z" />
    <glyph glyph-name="copyright" unicode="&#xa9;" horiz-adv-x="829"
d="M71 245c-7 26 -11 56 -11 88c0 162 102 357 266 362c17 2 37 4 55 4c124 0 265 -51 330 -161c40 -69 58 -155 58 -235c0 -167 -170 -299 -336 -299c-175 0 -306 55 -362 241zM435 133c80 0 205 59 205 169c0 186 -99 269 -289 269c-106 0 -164 -140 -164 -235
c0 -152 106 -203 248 -203zM404 481c39 0 102 -26 102 -74c0 -24 -15 -48 -43 -60c37 -12 53 -39 53 -63c0 -32 -25 -62 -68 -62c-73 0 -138 88 -138 159c0 56 45 100 94 100z" />
    <glyph glyph-name="registered" unicode="&#xae;" horiz-adv-x="829"
d="M71 245c-7 26 -11 56 -11 88c0 162 102 357 266 362c17 2 37 4 55 4c124 0 265 -51 330 -161c40 -69 58 -155 58 -235c0 -167 -170 -299 -336 -299c-175 0 -306 55 -362 241zM435 133c80 0 205 59 205 169c0 186 -99 269 -289 269c-106 0 -164 -140 -164 -235
c0 -152 106 -203 248 -203zM288 405c9 44 40 66 70 66c22 0 39 12 64 14c43 -5 92 -45 92 -86c0 -13 -6 -27 -18 -39c40 -10 60 -29 60 -58c0 -42 -28 -69 -64 -69c-18 0 -42 7 -60 28l-16 19c-11 -32 -29 -57 -55 -57c-71 0 -73 86 -73 182zM390 400c-2 -6 -3 -12 -3 -19
c0 -10 3 -21 9 -27c1 2 2 7 2 14c0 13 -3 30 -8 32z" />
    <glyph glyph-name="AE" unicode="&#xc6;" horiz-adv-x="790"
d="M124 653c10 45 41 67 71 67c42 0 53 9 163 17c10 0 21 -3 30 -8h228c42 -12 62 -41 62 -69c0 -30 -23 -60 -67 -70h-159c-22 -8 -21 -16 -21 -24l9 -126c0 -19 1 -27 14 -27c4 0 9 0 15 2c49 9 79 19 133 20c42 -12 62 -41 62 -69c0 -30 -23 -60 -67 -70
c-48 -1 -76 -1 -116 -3c-20 0 -29 -5 -29 -29c0 -34 5 -67 5 -105c0 -23 17 -27 36 -27c90 0 178 40 268 40c51 0 79 -34 79 -67c0 -30 -22 -61 -67 -71c-101 -7 -187 -42 -303 -42c-82 0 -154 30 -154 143c0 27 -1 53 -2 80c-47 -1 -94 -3 -141 -3
c-16 -69 -29 -138 -35 -208c-15 -38 -43 -55 -69 -55c-32 0 -63 25 -69 73c17 216 108 415 124 631zM258 598c-9 -84 -29 -165 -50 -247l98 3l-9 111c-3 41 -5 83 -7 125c-12 1 -23 4 -32 8z" />
    <glyph glyph-name="Eth" unicode="&#xd0;" horiz-adv-x="618"
d="M73 232c-49 6 -73 39 -73 70c0 32 26 69 78 69h32v38c0 60 5 119 38 174c3 6 5 11 5 16c0 29 -49 54 -49 87c0 19 29 40 53 40s61 -25 85 -46c151 -136 346 -273 346 -482c0 -142 -103 -170 -218 -200c-5 -2 -10 -2 -14 -2c-32 0 -61 39 -61 68c0 42 72 62 111 94
c37 30 55 62 55 99c0 120 -130 214 -222 261c2 -18 2 -35 2 -53c0 -32 -2 -63 -5 -94h36c42 -12 62 -41 62 -69c0 -31 -23 -60 -67 -70h-38c0 -54 20 -116 24 -159c0 -37 -19 -60 -45 -60c-74 0 -93 122 -97 219h-38z" />
    <glyph glyph-name="Lslash" unicode="&#x141;" horiz-adv-x="538"
d="M73 266c-48 6 -73 37 -73 69c0 26 17 54 55 69c27 3 52 11 76 22c0 66 1 133 1 210c10 44 40 67 70 67c28 0 57 -20 69 -62v-150c16 4 34 10 53 10c51 0 79 -33 79 -67c0 -30 -22 -61 -67 -71c-24 -3 -45 -10 -66 -20c0 -33 -1 -67 -1 -103c0 -21 4 -66 67 -66
c53 0 107 -1 160 -1c42 -12 62 -41 62 -69c0 -30 -23 -60 -67 -70c-25 0 -51 -1 -76 -1c-44 0 -88 1 -132 3c-83 3 -160 11 -160 88c0 12 2 26 6 41v110c-18 -4 -37 -7 -56 -9z" />
    <glyph glyph-name="ae" unicode="&#xe6;" horiz-adv-x="661"
d="M513 24h-22c-58 0 -110 21 -149 52c-33 19 -63 46 -95 46c-34 0 -80 -27 -120 -27c-49 0 -107 32 -107 96c0 83 129 147 210 176c5 2 11 2 17 2c21 0 47 -12 63 -29c44 59 113 111 190 111c74 0 124 -47 124 -108c0 -66 -62 -107 -116 -130c-16 -7 -35 -11 -35 -28
c0 -28 41 -29 51 -29c23 0 43 14 60 14c28 0 57 -34 57 -60c0 -60 -83 -86 -128 -86z" />
    <glyph glyph-name="dcroat" unicode="&#x111;" horiz-adv-x="654"
d="M513 425c-49 6 -73 39 -73 70c0 34 26 67 78 69c34 -2 67 -9 100 -16c8 20 14 40 14 63c0 28 -16 60 -16 87c0 52 58 130 93 130c23 0 75 -33 75 -63c0 -3 -1 -7 -2 -11c-19 -75 -20 -154 -47 -229h7c42 -12 62 -41 62 -69c0 -31 -23 -60 -67 -70c-24 1 -47 5 -70 9
c-103 -161 -252 -290 -425 -363c-26 -11 -52 -23 -81 -23c-82 0 -131 45 -131 101c0 22 7 46 23 70c50 74 119 119 210 130c35 1 72 3 105 7c14 -7 27 -10 39 -10c43 0 98 54 141 114c-11 2 -23 3 -35 4z" />
    <glyph glyph-name="eth" unicode="&#xf0;" horiz-adv-x="353"
d="M104 346c-48 6 -74 37 -74 69c0 21 12 44 36 59l2 2c5 6 11 12 17 17c-2 5 -3 11 -3 18v4c0 46 40 101 82 106c0 2 0 3 2 3c5 0 20 -21 39 -55c20 10 34 15 51 15c39 0 67 -29 67 -64c0 -18 -8 -39 -24 -58l-35 -21c28 -73 51 -156 51 -227c0 -27 -3 -52 -11 -74
c-23 -64 -103 -157 -162 -157c-53 0 -108 68 -108 104c0 22 12 45 36 73c64 54 105 23 105 99c0 42 -11 74 -25 103c-14 -9 -28 -12 -46 -16z" />
    <glyph glyph-name="lslash" unicode="&#x142;" horiz-adv-x="372"
d="M73 185c-48 6 -73 37 -73 69c0 26 17 54 55 69c23 3 44 11 65 21c1 87 9 175 15 259c4 69 18 94 66 94c49 0 83 -38 83 -94c0 -61 -9 -120 -12 -178l15 3c55 0 85 -30 85 -67c0 -30 -22 -61 -67 -71c-11 -2 -23 -7 -34 -12c-3 -51 -8 -102 -8 -153c0 -37 10 -74 10 -110
s-38 -81 -70 -81c-30 0 -73 44 -78 86c-6 54 -9 108 -9 162v11c-14 -3 -28 -6 -43 -8z" />
    <glyph glyph-name="Oslash" unicode="&#xd8;" horiz-adv-x="656"
d="M94 90c-8 -2 -16 -3 -23 -3c-44 0 -71 30 -71 64c0 21 10 44 33 64c22 9 44 21 64 34c-14 48 -21 97 -21 140c0 156 73 287 241 287c85 0 149 -46 193 -116l43 20c8 3 26 14 33 18l1 1c13 16 31 24 49 24c29 0 58 -20 70 -62c0 -78 -83 -101 -143 -131
c12 -48 19 -100 19 -152c0 -125 -83 -283 -231 -283c-85 0 -151 52 -197 124c-20 -11 -40 -21 -60 -29zM214 397c0 -13 2 -34 6 -58c58 45 115 92 173 138c-20 33 -47 57 -81 57c-68 0 -98 -62 -98 -137zM345 141c63 0 99 65 99 136c0 16 -2 38 -5 60
c-57 -46 -113 -97 -172 -142c20 -32 45 -54 78 -54z" />
    <glyph glyph-name="OE" unicode="&#x152;" horiz-adv-x="886"
d="M383 465c-3 40 -5 81 -7 122c-8 0 -15 1 -22 4c-104 -53 -174 -174 -174 -292c0 -85 43 -188 133 -188l7 -2c31 -9 50 -39 50 -69c0 -42 -29 -69 -63 -69c-11 0 -22 2 -33 8c0 -1 0 -1 1 -1c-143 37 -235 140 -235 293c0 155 65 326 200 418c29 20 80 43 123 43
c9 0 18 -1 26 -3h24c10 5 20 8 31 8c10 0 21 -3 30 -8h228c42 -12 62 -41 62 -69c0 -30 -23 -60 -67 -70h-159c-22 -8 -21 -16 -21 -24l9 -126c0 -19 1 -27 14 -27c4 0 9 0 15 2c49 9 79 19 133 20c42 -12 62 -41 62 -69c0 -30 -23 -60 -67 -70c-48 -1 -76 -1 -116 -3
c-20 0 -29 -5 -29 -29c0 -34 5 -67 5 -105c0 -23 17 -27 36 -27c90 0 178 40 268 40c51 0 79 -34 79 -67c0 -30 -22 -61 -67 -71c-101 -7 -187 -42 -303 -42c-82 0 -154 30 -154 143c0 108 -9 215 -19 330z" />
    <glyph glyph-name="Thorn" unicode="&#xde;" horiz-adv-x="399"
d="M80 657c10 44 39 67 70 67c28 0 57 -20 69 -62c0 -59 1 -118 2 -176c79 -13 138 -62 138 -142c0 -75 -49 -137 -133 -149c0 -37 1 -73 1 -110c0 -52 -37 -78 -69 -78c-31 0 -64 24 -70 73c-1 192 -7 385 -8 577z" />
    <glyph glyph-name="oslash" unicode="&#xf8;" horiz-adv-x="353"
d="M23 23c-48 6 -73 37 -73 69c0 26 17 54 55 69c20 3 39 9 58 16c25 62 83 122 132 122c19 0 40 -8 58 -20c20 9 48 21 71 21c51 0 79 -33 79 -67c0 -30 -22 -61 -67 -71c-14 -3 -27 -8 -39 -14c-28 -74 -114 -139 -157 -139c-28 0 -49 10 -63 26c-17 -5 -35 -9 -54 -12z
M100 140c27 24 48 32 57 65c-32 -8 -50 -20 -57 -65z" />
    <glyph glyph-name="oe" unicode="&#x153;" horiz-adv-x="727"
d="M576 152c25 -44 121 4 121 -74c0 -81 -107 -94 -171 -94c-50 0 -97 15 -138 58c-25 26 -48 39 -76 39c-6 0 -11 -1 -17 -2c-31 -24 -69 -39 -110 -39c-95 3 -155 57 -155 135c0 127 58 186 177 186h15c43 0 81 -24 106 -58c32 70 121 114 199 114c88 0 115 -84 115 -148
c0 -23 -6 -46 -26 -68c-14 -15 -40 -20 -40 -49z" />
    <glyph glyph-name="thorn" unicode="&#xfe;" horiz-adv-x="539"
d="M1 -292c13 92 26 190 49 286c15 66 130 639 151 686c10 45 41 67 71 67c34 0 67 -28 67 -79c0 -77 -32 -153 -52 -226c5 1 10 1 16 1c120 0 206 -100 206 -186c0 -92 -93 -189 -220 -197c-86 -9 -81 -12 -104 -90c-25 -82 -24 -166 -50 -247c-22 -69 13 -201 -58 -201
c-50 0 -77 71 -77 114c0 17 2 35 2 53c0 6 -1 13 -1 19zM357 280c-8 10 -16 17 -28 17c-22 0 -59 -12 -59 -45c0 -13 10 -20 22 -20c25 0 59 17 65 48z" />
    <glyph glyph-name="cent" unicode="&#xa2;" horiz-adv-x="380"
d="M231 455c12 -17 17 -34 17 -51c0 -9 -2 -19 -5 -27c36 -7 63 -28 63 -71c0 -68 -103 -62 -103 -107c0 -24 20 -29 38 -29c9 0 19 1 29 1c11 0 33 -1 48 -6c22 -2 62 5 62 -40c0 -41 -74 -82 -130 -90c1 -6 2 -13 2 -19c0 -38 -29 -69 -65 -69c-42 0 -73 40 -73 70
c0 12 3 24 9 34c-73 26 -93 87 -93 143c0 66 46 129 102 162c-15 14 -22 31 -22 48c0 35 30 69 70 69c16 0 33 -6 51 -18z" />
    <glyph glyph-name="florin" unicode="&#x192;" horiz-adv-x="394"
d="M94 -265l54 313c1 7 2 14 2 21c0 26 -12 44 -44 44h-8c-33 2 -66 33 -66 57c0 11 12 33 31 39c113 37 113 134 121 227c7 81 12 163 20 244c6 61 33 94 79 94c92 0 161 -86 161 -171c0 -7 0 -13 -1 -20v-7c0 -45 -30 -79 -74 -89c-48 -7 -52 -35 -52 -69
c0 -43 -11 -88 -11 -115c0 -35 51 -71 51 -90c0 -13 -11 -22 -33 -32c-38 -17 -47 -46 -49 -81c-8 -143 -9 -571 -219 -571c-49 0 -136 33 -136 98c0 34 27 66 70 66c27 0 46 -11 62 -11c15 0 27 11 42 53z" />
    <glyph glyph-name="germandbls" unicode="&#xdf;" horiz-adv-x="459"
d="M204 75c-1 -52 -36 -78 -69 -78c-31 0 -64 24 -70 73c-2 93 -15 282 -15 378c0 128 70 238 188 238c115 0 146 -117 146 -211c0 -67 -18 -86 -18 -152c10 -74 63 -116 63 -169c0 -37 -7 -110 -90 -144c-13 -5 -22 -9 -33 -9c-31 0 -52 24 -52 51c0 8 2 17 7 26
c14 24 19 47 19 69c0 71 -54 132 -54 196c0 56 21 64 21 119c0 76 -10 84 -21 84c-16 0 -35 -36 -35 -83c0 -97 11 -289 13 -388z" />
    <glyph glyph-name="Germandbls" horiz-adv-x="672"
d="M242 62c-2 -52 -35 -78 -69 -78c-31 0 -64 24 -70 73c-8 103 -33 216 -33 325c0 222 106 294 266 294c43 0 38 -2 99 -4c54 -13 71 -42 71 -76c0 -43 -27 -94 -36 -131c92 -16 162 -140 162 -268c0 -183 -153 -190 -263 -190c-49 6 -73 39 -73 70c0 34 26 67 78 69
c11 -2 22 -3 32 -3c59 0 86 38 86 83c0 35 -16 73 -45 101h-1c-21 -1 -40 -8 -60 -8c-50 0 -83 42 -83 83c0 33 13 28 42 135c-17 3 -33 5 -46 5c-70 0 -87 -45 -87 -136c0 -115 22 -229 30 -344z" />
    <glyph glyph-name="uni1E9E" unicode="&#x1e9e;" horiz-adv-x="672"
d="M242 62c-2 -52 -35 -78 -69 -78c-31 0 -64 24 -70 73c-8 103 -33 216 -33 325c0 222 106 294 266 294c43 0 38 -2 99 -4c54 -13 71 -42 71 -76c0 -43 -27 -94 -36 -131c92 -16 162 -140 162 -268c0 -183 -153 -190 -263 -190c-49 6 -73 39 -73 70c0 34 26 67 78 69
c11 -2 22 -3 32 -3c59 0 86 38 86 83c0 35 -16 73 -45 101h-1c-21 -1 -40 -8 -60 -8c-50 0 -83 42 -83 83c0 33 13 28 42 135c-17 3 -33 5 -46 5c-70 0 -87 -45 -87 -136c0 -115 22 -229 30 -344z" />
    <glyph glyph-name="yen" unicode="&#xa5;" horiz-adv-x="489"
d="M146 112c-49 6 -73 39 -73 70c0 34 26 67 78 69h40l-3 27h-57c-50 6 -74 38 -74 70s24 63 72 68c-45 65 -99 124 -99 185c0 38 27 65 63 65c64 0 112 -97 148 -159c24 57 60 109 96 159c19 17 40 24 58 24c36 0 64 -27 64 -67c0 -12 -3 -25 -8 -38
c-46 -51 -84 -106 -106 -168h46c42 -12 62 -41 62 -69c0 -31 -23 -60 -67 -70h-58c0 -11 1 -21 2 -31h65c42 -12 62 -41 62 -69c0 -31 -23 -60 -67 -70h-39c0 -6 0 -12 1 -17c-2 -52 -36 -78 -69 -78c-34 0 -62 24 -70 73l-4 25c-21 1 -42 1 -63 1z" />
    <glyph glyph-name="sterling" unicode="&#xa3;" horiz-adv-x="460"
d="M117 267c-46 5 -79 21 -79 79c0 34 28 65 78 67c-1 8 -1 16 -1 24c0 97 35 233 163 233c43 0 116 -23 116 -75c0 -34 -27 -66 -74 -66c-63 0 -71 -43 -71 -90c0 -15 1 -20 2 -36c28 2 46 3 74 4c42 -12 62 -41 62 -69c0 -31 -23 -60 -67 -70l-65 -4c3 -21 11 -82 11 -119
c37 -6 74 -4 112 -6c42 -12 62 -41 62 -69c0 -31 -23 -60 -67 -70c-41 6 -130 17 -200 17c-27 0 -51 -2 -69 -6c-50 6 -74 38 -74 70c0 34 32 55 67 59c0 0 13 0 27 5h2c0 25 -7 94 -9 122z" />
    <glyph glyph-name="uni20B4" unicode="&#x20b4;" horiz-adv-x="543"
d="M103 361c-49 6 -63 29 -63 60c0 34 16 57 68 59h185c3 7 5 16 5 25c0 34 -24 56 -65 56c-33 0 -37 -25 -75 -25c-55 0 -83 38 -83 70c0 71 121 95 160 95c98 0 205 -76 205 -199c0 -8 0 -15 -1 -22h12c42 -12 52 -31 52 -59c0 -31 -13 -50 -57 -60h-343zM97 341h343
c49 -6 63 -29 63 -60c0 -34 -16 -57 -68 -59h-185c-3 -7 -5 -16 -5 -25c0 -34 24 -56 65 -56c33 0 27 25 65 25c55 0 83 -38 83 -70c0 -70 -46 -95 -144 -95c-100 0 -211 72 -211 199c0 8 0 15 1 22h-12c-42 12 -52 31 -52 59c0 31 13 50 57 60z" />
    <glyph glyph-name="exclamdown" unicode="&#xa1;" horiz-adv-x="275"
d="M245 316c-5 -51 -49 -100 -87 -100c-32 0 -85 70 -85 103c8 42 56 80 102 80c50 0 70 -35 70 -83zM209 48l-31 -269c-11 -52 -37 -89 -92 -89c-36 0 -56 31 -56 74c0 142 35 205 45 297c4 35 14 89 62 89c54 0 72 -56 72 -102z" />
    <glyph glyph-name="questiondown" unicode="&#xbf;" horiz-adv-x="355"
d="M152 -142c0 -42 203 -21 203 -123c0 -38 -29 -67 -71 -67c-95 0 -284 56 -284 161c0 106 111 94 111 176c0 19 -3 45 -11 71c6 51 39 75 72 75c29 0 67 -24 67 -75v-8c3 -30 5 -48 5 -66c0 -9 0 -17 -1 -26c-7 -80 -89 -94 -91 -118zM280 320c-9 -50 -56 -97 -94 -97
c-31 0 -77 67 -77 103c0 43 67 80 106 80c43 0 65 -30 65 -70v-10v-6z" />
    <glyph glyph-name="ordfeminine" unicode="&#xaa;" horiz-adv-x="388"
d="M31 556c0 1 -1 3 -1 5c0 62 97 111 158 132c4 2 8 2 13 2c26 0 59 -23 59 -47c0 -55 98 -100 98 -152c0 -24 -21 -38 -39 -38c-44 0 -80 51 -118 51c-26 0 -60 -20 -90 -20c-34 0 -80 22 -80 67z" />
    <glyph glyph-name="ordmasculine" unicode="&#xba;" horiz-adv-x="328"
d="M159 700c60 -20 139 -55 139 -134c0 -63 -71 -121 -134 -121c-81 0 -134 51 -134 110c0 39 21 102 58 131c20 16 48 14 71 14zM189 559c0 13 -20 37 -35 37c-11 0 -19 -14 -19 -27c0 -17 14 -29 30 -29c12 0 24 7 24 19z" />
    <glyph glyph-name="onesuperior" unicode="&#xb9;" horiz-adv-x="303"
d="M70 447c-19 9 -27 27 -27 45c0 24 15 48 42 49c11 -2 22 -3 33 -4c-1 31 -5 31 -6 62c0 6 1 13 1 19h-4c-16 -1 -22 -2 -39 -3c-27 3 -40 23 -40 43c0 42 46 48 100 48c98 0 91 -140 92 -170h28c22 -6 33 -27 33 -47c0 -22 -12 -43 -36 -48c-49 1 -128 -1 -177 6z" />
    <glyph glyph-name="twosuperior" unicode="&#xb2;" horiz-adv-x="289"
d="M85 592c-36 5 -55 27 -55 51c0 29 21 65 99 65c67 0 114 -54 114 -116c0 -16 -3 -32 -11 -46l-2 -4c26 -10 39 -30 39 -49c0 -22 -17 -44 -50 -52c-20 0 -38 -1 -56 -1c-44 0 -126 14 -126 72c0 38 48 65 87 80c5 3 7 5 7 7c0 1 -2 1 -4 1c-9 0 -32 -6 -42 -8z" />
    <glyph glyph-name="threesuperior" unicode="&#xb3;" horiz-adv-x="279"
d="M105 516c-24 11 -48 20 -48 50c0 20 19 26 25 35c-28 7 -62 30 -62 51c0 29 28 58 83 58c54 0 91 -55 91 -102c40 -22 55 -64 55 -98c0 -60 -60 -80 -123 -80c-39 5 -58 30 -58 54c0 14 26 22 37 32z" />
    <glyph glyph-name="foursuperior" unicode="&#x2074;" horiz-adv-x="286"
d="M76 682c14 13 29 18 43 18c31 0 49 -24 49 -57c10 20 29 31 47 31c26 0 51 -21 51 -61c0 -11 -30 -148 -42 -163c-14 -18 -33 -25 -49 -25c-26 0 -49 21 -49 51c0 2 0 5 1 8c-39 0 -97 7 -97 58c0 23 10 41 17 65c3 29 12 53 29 75z" />
    <glyph glyph-name="fraction" unicode="&#x2044;" horiz-adv-x="392"
d="M240 712c19 16 40 24 58 24c35 0 64 -28 64 -67c0 -12 -3 -25 -8 -38c-62 -101 -74 -233 -106 -346c-20 -72 -70 -135 -80 -210c-15 -38 -43 -55 -69 -55c-32 0 -63 25 -69 73c8 85 62 152 85 232c36 130 54 271 125 387z" />
    <glyph glyph-name="onehalf" unicode="&#xbd;" horiz-adv-x="736"
d="M417 712c19 16 40 24 58 24c35 0 64 -28 64 -67c0 -12 -3 -25 -8 -38c-62 -101 -74 -233 -106 -346c-20 -72 -70 -135 -80 -210c-15 -38 -43 -55 -69 -55c-32 0 -63 25 -69 73c8 85 62 152 85 232c36 130 54 271 125 387zM70 447c-19 9 -27 27 -27 45c0 24 15 48 42 49
c11 -2 22 -3 33 -4c-1 31 -5 31 -6 62c0 6 1 13 1 19h-4c-16 -1 -22 -2 -39 -3c-27 3 -40 23 -40 43c0 42 46 48 100 48c98 0 91 -140 92 -170h28c22 -6 33 -27 33 -47c0 -22 -12 -43 -36 -48c-49 1 -128 -1 -177 6zM522 152c-36 5 -55 27 -55 51c0 29 21 65 99 65
c67 0 114 -54 114 -116c0 -16 -3 -32 -11 -46l-2 -4c26 -10 39 -30 39 -49c0 -22 -17 -44 -50 -52c-20 0 -38 -1 -56 -1c-44 0 -126 14 -126 72c0 38 48 65 87 80c5 3 7 5 7 7c0 1 -2 1 -4 1c-9 0 -32 -6 -42 -8z" />
    <glyph glyph-name="onequarter" unicode="&#xbc;" horiz-adv-x="740"
d="M417 712c19 16 40 24 58 24c35 0 64 -28 64 -67c0 -12 -3 -25 -8 -38c-62 -101 -74 -233 -106 -346c-20 -72 -70 -135 -80 -210c-15 -38 -43 -55 -69 -55c-32 0 -63 25 -69 73c8 85 62 152 85 232c36 130 54 271 125 387zM70 447c-19 9 -27 27 -27 45c0 24 15 48 42 49
c11 -2 22 -3 33 -4c-1 31 -5 31 -6 62c0 6 1 13 1 19h-4c-16 -1 -22 -2 -39 -3c-27 3 -40 23 -40 43c0 42 46 48 100 48c98 0 91 -140 92 -170h28c22 -6 33 -27 33 -47c0 -22 -12 -43 -36 -48c-49 1 -128 -1 -177 6zM510 266c14 13 29 18 43 18c31 0 49 -24 49 -57
c10 20 29 31 47 31c26 0 51 -21 51 -61c0 -11 -30 -148 -42 -163c-14 -18 -33 -25 -49 -25c-26 0 -49 21 -49 51c0 2 0 5 1 8c-39 0 -97 7 -97 58c0 23 10 41 17 65c3 29 12 53 29 75z" />
    <glyph glyph-name="threequarters" unicode="&#xbe;" horiz-adv-x="730"
d="M407 712c19 16 40 24 58 24c35 0 64 -28 64 -67c0 -12 -3 -25 -8 -38c-62 -101 -74 -233 -106 -346c-20 -72 -70 -135 -80 -210c-15 -38 -43 -55 -69 -55c-32 0 -63 25 -69 73c8 85 62 152 85 232c36 130 54 271 125 387zM500 266c14 13 29 18 43 18c31 0 49 -24 49 -57
c10 20 29 31 47 31c26 0 51 -21 51 -61c0 -11 -30 -148 -42 -163c-14 -18 -33 -25 -49 -25c-26 0 -49 21 -49 51c0 2 0 5 1 8c-39 0 -97 7 -97 58c0 23 10 41 17 65c3 29 12 53 29 75zM115 516c-24 11 -48 20 -48 50c0 20 19 26 25 35c-28 7 -62 30 -62 51c0 29 28 58 83 58
c54 0 91 -55 91 -102c40 -22 55 -64 55 -98c0 -60 -60 -80 -123 -80c-39 5 -58 30 -58 54c0 14 26 22 37 32z" />
    <glyph glyph-name="afii10052" unicode="&#x403;" horiz-adv-x="463"
d="M421 689c42 -12 62 -41 62 -69c0 -31 -23 -60 -67 -70c-12 0 -74 8 -112 8c-75 0 -86 -140 -86 -257c0 -88 7 -174 8 -223c-2 -52 -35 -78 -69 -78c-31 0 -64 24 -70 73c-1 57 -7 142 -7 230c0 218 42 395 218 395c43 0 88 -8 123 -9zM381 938c49 0 77 -25 77 -60
c0 -26 -18 -56 -61 -70l-5 -4c-22 -19 -52 -39 -82 -39c-41 0 -66 30 -66 61c0 22 12 45 40 59h-1c0 3 79 48 98 53z" />
    <glyph glyph-name="afii10100" unicode="&#x453;" horiz-adv-x="391"
d="M328 399c-38 -2 -78 -5 -116 -8c-102 -9 -162 -97 -162 -208c0 -53 26 -143 87 -143c44 0 58 34 58 65c0 21 -5 42 -5 61c0 83 7 97 80 104c47 4 94 -1 139 26c22 13 32 18 32 28c0 16 -51 77 -94 77c-6 0 -12 -1 -19 -2zM325 648c49 0 77 -25 77 -60
c0 -26 -18 -56 -61 -70l-5 -4c-22 -19 -52 -39 -82 -39c-41 0 -66 30 -66 61c0 22 12 45 40 59h-1c0 3 79 48 98 53z" />
    <glyph glyph-name="afii10061" unicode="&#x40c;" horiz-adv-x="568"
d="M86 624c10 44 40 67 70 67c28 0 57 -20 69 -62v-93c0 -46 0 -92 2 -138c38 67 87 154 98 218c10 45 41 67 71 67c36 0 67 -30 67 -85c-11 -68 -45 -134 -77 -197c36 -60 70 -227 143 -265c27 -19 39 -43 39 -66c0 -35 -28 -65 -75 -65c-83 0 -145 138 -191 259
c-13 -14 -30 -22 -48 -22c-4 0 -7 0 -11 1c6 -69 20 -116 20 -193c0 -34 -28 -63 -68 -63c-73 0 -80 65 -80 122c0 137 -35 278 -35 419c0 32 2 64 6 96zM354 918c49 0 77 -25 77 -60c0 -26 -18 -56 -61 -70l-5 -4c-22 -19 -52 -39 -82 -39c-41 0 -66 30 -66 61
c0 22 12 45 40 59h-1c0 3 79 48 98 53z" />
    <glyph glyph-name="afii10109" unicode="&#x45c;" horiz-adv-x="537"
d="M255 114c60 -60 121 -134 215 -134c30 0 67 21 67 61c0 23 -15 40 -31 60c-12 15 -28 14 -46 16c-42 5 -70 41 -70 80c0 42 71 40 71 71c0 46 -58 72 -93 72c-33 0 -92 -28 -123 -28c-38 0 -41 55 -58 98c-22 30 -51 48 -80 48c-38 0 -64 -30 -64 -68
c0 -31 25 -72 25 -122c0 -26 -7 -51 -26 -71c-8 -9 -12 -19 -12 -28c0 -55 94 -104 125 -104c30 0 62 16 100 49zM358 638c49 0 77 -25 77 -60c0 -26 -18 -56 -61 -70l-5 -4c-22 -19 -52 -39 -82 -39c-41 0 -66 30 -66 61c0 22 12 45 40 59h-1c0 3 79 48 98 53z" />
    <glyph glyph-name="afii10062" unicode="&#x40e;" horiz-adv-x="456"
d="M288 623c10 45 41 67 71 67c37 0 67 -30 67 -85c-15 -175 -75 -386 -125 -512c-36 -91 -74 -115 -168 -115c-49 6 -73 39 -73 70c0 32 16 69 68 69c54 13 73 103 89 161l2 9c-65 80 -118 182 -177 269c-18 23 -42 47 -42 80c0 35 28 64 66 64c16 0 34 -5 52 -18
c20 -15 94 -127 147 -213c10 51 18 102 23 154zM144 931c39 -15 45 -70 70 -70c45 0 41 74 81 74c26 0 55 -28 55 -57c0 -42 -91 -123 -146 -123c-41 0 -98 70 -98 137c0 23 16 39 38 39z" />
    <glyph glyph-name="afii10110" unicode="&#x45e;" horiz-adv-x="629"
d="M420 140c-32 -10 -46 -30 -61 -44c-54 -49 -114 -76 -155 -76c-77 0 -154 129 -154 257c0 39 23 71 51 71c41 0 82 -47 82 -80c12 -68 11 -100 39 -100c17 0 144 43 202 112c17 21 37 31 56 31c51 0 71 -68 74 -151c4 -124 44 -248 44 -374c0 -14 1 -30 1 -46
c0 -46 -6 -91 -53 -91c-76 4 -70 71 -72 136c0 120 -22 236 -54 355zM230 601c39 -15 45 -70 70 -70c45 0 41 74 81 74c26 0 55 -28 55 -57c0 -42 -91 -123 -146 -123c-41 0 -98 70 -98 137c0 23 16 39 38 39z" />
    <glyph glyph-name="afii10057" unicode="&#x408;" horiz-adv-x="451"
d="M234 620c-1 5 -1 10 -1 14c0 47 30 75 65 75c77 0 89 -101 89 -169c0 -61 -12 -124 -12 -187c0 -61 16 -123 16 -184c0 -116 -113 -168 -182 -168c-96 0 -179 106 -189 214c10 44 40 67 70 67c28 0 57 -20 69 -65c17 -64 39 -74 57 -74c28 0 36 25 36 58
c0 45 -15 104 -15 134c0 81 10 151 10 225c0 18 -2 34 -13 60z" />
    <glyph glyph-name="afii10055" unicode="&#x406;" horiz-adv-x="329"
d="M94 249c3 81 14 193 27 280c11 52 47 139 102 139c36 0 66 -61 66 -104c0 -14 -4 -27 -11 -43c-40 -88 -59 -212 -59 -308c0 -35 5 -71 5 -106s-4 -99 -52 -99c-54 0 -92 76 -92 122c0 36 10 77 14 119z" />
    <glyph glyph-name="afii10103" unicode="&#x456;" horiz-adv-x="237"
d="M120 201c49 -5 87 -66 87 -117c0 -34 -31 -75 -70 -75c-47 0 -87 64 -87 127c0 52 31 65 70 65zM197 475c-5 -42 -34 -76 -67 -76c-43 0 -79 35 -79 71c0 39 32 74 72 74c37 0 74 -39 74 -69z" />
    <glyph glyph-name="afii10023" unicode="&#x401;"
d="M99 465c-3 41 -5 83 -7 125c-49 6 -72 38 -72 70s26 69 78 69h31c10 5 20 8 31 8c10 0 21 -3 30 -8h228c42 -12 62 -41 62 -69c0 -30 -23 -60 -67 -70h-159c-20 -7 -21 -15 -21 -22c0 -45 6 -85 9 -128c0 -19 1 -27 14 -27c4 0 9 0 15 2c49 9 79 19 133 20
c42 -12 62 -41 62 -69c0 -30 -23 -60 -67 -70c-48 -1 -76 -1 -116 -3c-20 0 -29 -5 -29 -29c0 -34 5 -67 5 -105c0 -23 17 -27 36 -27c90 0 178 40 268 40c51 0 79 -34 79 -67c0 -30 -22 -61 -67 -71c-101 -7 -187 -42 -303 -42c-82 0 -154 30 -154 143
c0 108 -9 215 -19 330zM136 838c-15 17 -24 39 -24 61c0 34 28 71 74 71c57 0 74 -39 74 -79s-32 -75 -71 -75c-17 0 -35 6 -53 22zM426 948c15 -17 24 -39 24 -61c0 -34 -28 -71 -74 -71c-57 0 -74 39 -74 79s32 75 71 75c17 0 35 -6 53 -22z" />
    <glyph glyph-name="afii10102" unicode="&#x455;" horiz-adv-x="305"
d="M113 -90c-42 4 -67 26 -67 57c0 22 25 56 25 76c0 10 -3 20 -10 33c-14 27 -21 59 -21 90c0 82 47 161 122 196c13 6 26 10 40 10c37 0 63 -28 63 -59c0 -20 -12 -34 -33 -51c-42 -34 -62 -55 -62 -77c0 -21 16 -45 47 -89c18 -21 29 -45 29 -69
c0 -79 -86 -117 -133 -117z" />
    <glyph glyph-name="afii10054" unicode="&#x405;" horiz-adv-x="427"
d="M372 140c-6 -105 -92 -208 -192 -208c-46 0 -82 25 -82 68c0 31 24 78 56 94c47 22 69 43 69 81c0 52 -57 125 -110 167c-51 46 -73 84 -73 122c0 98 150 280 322 322c9 5 15 11 30 11c52 0 95 -37 95 -63c0 -33 -33 -45 -57 -55c-65 -27 -120 -67 -179 -102
c-35 -21 -75 -63 -75 -104c0 -18 8 -37 28 -53c83 -68 169 -167 169 -265c0 -5 -1 -10 -1 -15z" />
    <glyph glyph-name="afii10105" unicode="&#x458;" horiz-adv-x="210"
d="M20 -316c17 62 38 365 38 431c0 32 12 59 52 59c46 0 56 -55 56 -141c0 -138 -29 -354 -35 -428c-2 -27 -23 -38 -49 -38c-38 0 -62 25 -62 66c0 11 1 23 1 34c0 6 0 11 -1 17zM190 401c-4 -27 -67 -74 -95 -74c-26 0 -49 43 -49 81c0 34 20 59 51 59c40 0 93 -38 93 -66
z" />
    <glyph glyph-name="afii10071" unicode="&#x451;" horiz-adv-x="461"
d="M291 -32c40 0 140 17 140 86c0 26 -29 60 -57 60c-17 0 -37 -14 -60 -14c-10 0 -51 1 -51 29c0 17 19 21 35 28c54 23 116 64 116 130c0 61 -50 108 -124 108c-132 0 -240 -152 -240 -231c0 -92 103 -196 241 -196zM135 488c-15 17 -24 39 -24 61c0 34 28 71 74 71
c57 0 74 -39 74 -79s-32 -75 -71 -75c-17 0 -35 6 -53 22zM425 598c15 -17 24 -39 24 -61c0 -34 -28 -71 -74 -71c-57 0 -74 39 -74 79s32 75 71 75c17 0 35 -6 53 -22z" />
    <glyph glyph-name="afii10056" unicode="&#x407;" horiz-adv-x="318"
d="M88 249c-4 -42 -14 -83 -14 -119c0 -46 38 -122 92 -122c48 0 52 64 52 99s-5 71 -5 106c0 96 19 220 59 308c7 16 11 29 11 43c0 43 -30 104 -66 104c-55 0 -91 -87 -102 -139c-13 -87 -24 -199 -27 -280zM84 758c-15 17 -24 39 -24 61c0 34 28 71 74 71
c57 0 74 -39 74 -79s-32 -75 -71 -75c-17 0 -35 6 -53 22zM374 868c15 -17 24 -39 24 -61c0 -34 -28 -71 -74 -71c-57 0 -74 39 -74 79s32 75 71 75c17 0 35 -6 53 -22z" />
    <glyph glyph-name="afii10104" unicode="&#x457;" horiz-adv-x="238"
d="M120 201c-39 0 -70 -13 -70 -65c0 -63 40 -127 87 -127c39 0 70 41 70 75c0 51 -38 112 -87 117zM-26 408c-15 17 -24 39 -24 61c0 34 28 71 74 71c57 0 74 -39 74 -79s-32 -75 -71 -75c-17 0 -35 6 -53 22zM264 518c15 -17 24 -39 24 -61c0 -34 -28 -71 -74 -71
c-57 0 -74 39 -74 79s32 75 71 75c17 0 35 -6 53 -22z" />
    <glyph glyph-name="Agrave" unicode="&#xc0;" horiz-adv-x="580"
d="M256 188c-19 2 -35 9 -47 18c-5 -58 -10 -67 -10 -125c-2 -52 -36 -78 -69 -78c-32 0 -64 24 -70 73c0 166 30 324 58 453c20 94 42 174 160 174c16 0 30 -7 48 -20c121 -119 187 -394 217 -556l12 -28c3 -11 5 -21 5 -30c0 -42 -30 -69 -65 -69c-104 0 -78 188 -120 188
h-4h-115zM271 536c-13 -43 -40 -93 -40 -150c0 -37 4 -59 30 -59h80c9 0 11 4 11 9s-2 10 -3 15c-20 66 -43 115 -78 185zM179 914c0 26 12 38 35 38c54 0 88 -64 88 -111c0 -35 -21 -52 -40 -52c-43 0 -84 59 -84 112c0 4 0 9 1 13z" />
    <glyph glyph-name="Aacute" unicode="&#xc1;" horiz-adv-x="580"
d="M256 188c-19 2 -35 9 -47 18c-5 -58 -10 -67 -10 -125c-2 -52 -36 -78 -69 -78c-32 0 -64 24 -70 73c0 166 30 324 58 453c20 94 42 174 160 174c16 0 30 -7 48 -20c121 -119 187 -394 217 -556l12 -28c3 -11 5 -21 5 -30c0 -42 -30 -69 -65 -69c-104 0 -78 188 -120 188
h-4h-115zM271 536c-13 -43 -40 -93 -40 -150c0 -37 4 -59 30 -59h80c9 0 11 4 11 9s-2 10 -3 15c-20 66 -43 115 -78 185zM350 958c49 0 77 -25 77 -60c0 -26 -18 -56 -61 -70l-5 -4c-22 -19 -52 -39 -82 -39c-41 0 -66 30 -66 61c0 22 12 45 40 59h-1c0 3 79 48 98 53z" />
    <glyph glyph-name="Abreve" unicode="&#x102;" horiz-adv-x="580"
d="M256 188c-19 2 -35 9 -47 18c-5 -58 -10 -67 -10 -125c-2 -52 -36 -78 -69 -78c-32 0 -64 24 -70 73c0 166 30 324 58 453c20 94 42 174 160 174c16 0 30 -7 48 -20c121 -119 187 -394 217 -556l12 -28c3 -11 5 -21 5 -30c0 -42 -30 -69 -65 -69c-104 0 -78 188 -120 188
h-4h-115zM271 536c-13 -43 -40 -93 -40 -150c0 -37 4 -59 30 -59h80c9 0 11 4 11 9s-2 10 -3 15c-20 66 -43 115 -78 185zM206 951c39 -15 45 -70 70 -70c45 0 41 74 81 74c26 0 55 -28 55 -57c0 -42 -91 -123 -146 -123c-41 0 -98 70 -98 137c0 23 16 39 38 39z" />
    <glyph glyph-name="Acircumflex" unicode="&#xc2;" horiz-adv-x="580"
d="M256 188c-19 2 -35 9 -47 18c-5 -58 -10 -67 -10 -125c-2 -52 -36 -78 -69 -78c-32 0 -64 24 -70 73c0 166 30 324 58 453c20 94 42 174 160 174c16 0 30 -7 48 -20c121 -119 187 -394 217 -556l12 -28c3 -11 5 -21 5 -30c0 -42 -30 -69 -65 -69c-104 0 -78 188 -120 188
h-4h-115zM271 536c-13 -43 -40 -93 -40 -150c0 -37 4 -59 30 -59h80c9 0 11 4 11 9s-2 10 -3 15c-20 66 -43 115 -78 185zM293 948c40 -3 107 -86 107 -129c0 -30 -24 -55 -57 -55c-25 0 -43 36 -66 64c-21 -18 -48 -59 -80 -59c-35 0 -58 26 -58 55c0 21 11 43 38 59
c21 22 74 65 116 65z" />
    <glyph glyph-name="Adieresis" unicode="&#xc4;" horiz-adv-x="580"
d="M256 188c-19 2 -35 9 -47 18c-5 -58 -10 -67 -10 -125c-2 -52 -36 -78 -69 -78c-32 0 -64 24 -70 73c0 166 30 324 58 453c20 94 42 174 160 174c16 0 30 -7 48 -20c121 -119 187 -394 217 -556l12 -28c3 -11 5 -21 5 -30c0 -42 -30 -69 -65 -69c-104 0 -78 188 -120 188
h-4h-115zM271 536c-13 -43 -40 -93 -40 -150c0 -37 4 -59 30 -59h80c9 0 11 4 11 9s-2 10 -3 15c-20 66 -43 115 -78 185zM125 778c-15 17 -24 39 -24 61c0 34 28 71 74 71c57 0 74 -39 74 -79s-32 -75 -71 -75c-17 0 -35 6 -53 22zM415 888c15 -17 24 -39 24 -61
c0 -34 -28 -71 -74 -71c-57 0 -74 39 -74 79s32 75 71 75c17 0 35 -6 53 -22z" />
    <glyph glyph-name="Amacron" unicode="&#x100;" horiz-adv-x="580"
d="M256 188c-19 2 -35 9 -47 18c-5 -58 -10 -67 -10 -125c-2 -52 -36 -78 -69 -78c-32 0 -64 24 -70 73c0 166 30 324 58 453c20 94 42 174 160 174c16 0 30 -7 48 -20c121 -119 187 -394 217 -556l12 -28c3 -11 5 -21 5 -30c0 -42 -30 -69 -65 -69c-104 0 -78 188 -120 188
h-4h-115zM271 536c-13 -43 -40 -93 -40 -150c0 -37 4 -59 30 -59h80c9 0 11 4 11 9s-2 10 -3 15c-20 66 -43 115 -78 185zM174 782c-49 6 -63 29 -63 60c0 34 16 57 68 59c70 -2 148 0 217 -3c42 -12 52 -31 52 -59c0 -31 -13 -50 -57 -60c-69 3 -148 0 -217 3z" />
    <glyph glyph-name="Aogonek" unicode="&#x104;" horiz-adv-x="580"
d="M370 -129c0 57 38 105 78 147c-50 48 -39 170 -73 170h-119c-19 2 -35 9 -47 18c-5 -58 -10 -67 -10 -125c-2 -52 -36 -78 -69 -78c-32 0 -64 24 -70 73c0 166 30 324 58 453c20 94 42 174 160 174c16 0 30 -7 48 -20c121 -119 187 -394 217 -556l12 -28
c3 -11 5 -21 5 -30c0 -21 -8 -39 -20 -51l-40 -64c-12 -18 -18 -33 -17 -44c0 -49 107 -34 107 -86c0 -31 -13 -50 -57 -60c-83 0 -163 10 -163 107zM271 536c-13 -43 -40 -93 -40 -150c0 -37 4 -59 30 -59h80c9 0 11 4 11 9s-2 10 -3 15c-20 66 -43 115 -78 185z" />
    <glyph glyph-name="Aring" unicode="&#xc5;" horiz-adv-x="580"
d="M256 188c-19 2 -35 9 -47 18c-5 -58 -10 -67 -10 -125c-2 -52 -36 -78 -69 -78c-32 0 -64 24 -70 73c0 166 30 324 58 453c20 94 42 174 160 174c16 0 30 -7 48 -20c121 -119 187 -394 217 -556l12 -28c3 -11 5 -21 5 -30c0 -42 -30 -69 -65 -69c-104 0 -78 188 -120 188
h-4h-115zM271 536c-13 -43 -40 -93 -40 -150c0 -37 4 -59 30 -59h80c9 0 11 4 11 9s-2 10 -3 15c-20 66 -43 115 -78 185zM265 992c60 -20 139 -55 139 -134c0 -63 -71 -121 -134 -121c-81 0 -134 51 -134 110c0 39 21 102 58 131c20 16 48 14 71 14zM295 851
c0 13 -20 37 -35 37c-11 0 -19 -14 -19 -27c0 -17 14 -29 30 -29c12 0 24 7 24 19z" />
    <glyph glyph-name="Atilde" unicode="&#xc3;" horiz-adv-x="580"
d="M256 188c-19 2 -35 9 -47 18c-5 -58 -10 -67 -10 -125c-2 -52 -36 -78 -69 -78c-32 0 -64 24 -70 73c0 166 30 324 58 453c20 94 42 174 160 174c16 0 30 -7 48 -20c121 -119 187 -394 217 -556l12 -28c3 -11 5 -21 5 -30c0 -42 -30 -69 -65 -69c-104 0 -78 188 -120 188
h-4h-115zM271 536c-13 -43 -40 -93 -40 -150c0 -37 4 -59 30 -59h80c9 0 11 4 11 9s-2 10 -3 15c-20 66 -43 115 -78 185zM433 862c0 -61 -40 -110 -103 -110c-47 0 -69 44 -86 44c-15 0 -46 -46 -70 -46c-32 0 -63 25 -68 73c6 53 41 119 102 119c47 0 69 -51 82 -51
s36 50 65 50c41 0 78 -36 78 -79z" />
    <glyph glyph-name="Cacute" unicode="&#x106;" horiz-adv-x="490"
d="M295 697c55 0 175 -60 175 -127c0 -34 -27 -64 -67 -64c-47 0 -73 46 -110 46c-82 0 -95 -193 -95 -228c0 -65 27 -185 76 -185c59 0 -24 146 92 146c41 0 69 -31 69 -65c0 -83 -42 -229 -153 -229c-143 0 -222 147 -222 351c0 154 61 355 235 355zM365 928
c49 0 77 -25 77 -60c0 -26 -18 -56 -61 -70l-5 -4c-22 -19 -52 -39 -82 -39c-41 0 -66 30 -66 61c0 22 12 45 40 59h-1c0 3 79 48 98 53z" />
    <glyph glyph-name="Ccaron" unicode="&#x10c;" horiz-adv-x="490"
d="M295 697c55 0 175 -60 175 -127c0 -34 -27 -64 -67 -64c-47 0 -73 46 -110 46c-82 0 -95 -193 -95 -228c0 -65 27 -185 76 -185c59 0 -24 146 92 146c41 0 69 -31 69 -65c0 -83 -42 -229 -153 -229c-143 0 -222 147 -222 351c0 154 61 355 235 355zM291 744
c-40 3 -107 86 -107 129c0 30 24 55 57 55c25 0 43 -36 66 -64c21 18 48 59 80 59c35 0 58 -26 58 -55c0 -21 -11 -43 -38 -59c-21 -22 -74 -65 -116 -65z" />
    <glyph glyph-name="Ccedilla" unicode="&#xc7;" horiz-adv-x="490"
d="M281 -130l-40 -5c-44 0 -55 25 -55 53c0 29 6 50 20 89c-95 43 -146 170 -146 335c0 154 61 355 235 355c55 0 175 -60 175 -127c0 -34 -27 -64 -67 -64c-47 0 -73 46 -110 46c-82 0 -95 -193 -95 -228c0 -65 27 -185 76 -185c59 0 -24 146 92 146c41 0 69 -31 69 -65
c0 -83 -42 -229 -153 -229h-1c-1 -9 -3 -18 -5 -27c75 0 133 -35 133 -113c0 -89 -74 -111 -164 -111c-50 7 -64 19 -64 50c0 11 8 41 50 50h47c15 3 21 11 21 18c0 9 -8 12 -18 12z" />
    <glyph glyph-name="Ccircumflex" unicode="&#x108;" horiz-adv-x="490"
d="M295 697c55 0 175 -60 175 -127c0 -34 -27 -64 -67 -64c-47 0 -73 46 -110 46c-82 0 -95 -193 -95 -228c0 -65 27 -185 76 -185c59 0 -24 146 92 146c41 0 69 -31 69 -65c0 -83 -42 -229 -153 -229c-143 0 -222 147 -222 351c0 154 61 355 235 355zM318 928
c40 -3 107 -86 107 -129c0 -30 -24 -55 -57 -55c-25 0 -43 36 -66 64c-21 -18 -48 -59 -80 -59c-35 0 -58 26 -58 55c0 21 11 43 38 59c21 22 74 65 116 65z" />
    <glyph glyph-name="Dcaron" unicode="&#x10e;" horiz-adv-x="604"
d="M215 518c92 -47 222 -141 222 -261c0 -37 -18 -69 -55 -99c-39 -32 -111 -52 -111 -94c0 -29 29 -68 61 -68c4 0 9 0 14 2c115 30 218 58 218 200c0 209 -195 346 -346 482c-24 21 -61 46 -85 46s-53 -21 -53 -40c0 -33 49 -58 49 -87c0 -5 -2 -10 -5 -16
c-33 -55 -38 -114 -38 -174c0 -45 -28 -396 98 -396c26 0 45 23 45 60c-2 12 -3 28 -8 46c-13 40 -16 81 -16 122c0 73 12 147 12 224c0 18 0 35 -2 53zM318 724c-40 3 -107 86 -107 129c0 30 24 55 57 55c25 0 43 -36 66 -64c21 18 48 59 80 59c35 0 58 -26 58 -55
c0 -21 -11 -43 -38 -59c-21 -22 -74 -65 -116 -65z" />
    <glyph glyph-name="Egrave" unicode="&#xc8;"
d="M99 465c-3 41 -5 83 -7 125c-49 6 -72 38 -72 70s26 69 78 69h31c10 5 20 8 31 8c10 0 21 -3 30 -8h228c42 -12 62 -41 62 -69c0 -30 -23 -60 -67 -70h-159c-20 -7 -21 -15 -21 -22c0 -45 6 -85 9 -128c0 -19 1 -27 14 -27c4 0 9 0 15 2c49 9 79 19 133 20
c42 -12 62 -41 62 -69c0 -30 -23 -60 -67 -70c-48 -1 -76 -1 -116 -3c-20 0 -29 -5 -29 -29c0 -34 5 -67 5 -105c0 -23 17 -27 36 -27c90 0 178 40 268 40c51 0 79 -34 79 -67c0 -30 -22 -61 -67 -71c-101 -7 -187 -42 -303 -42c-82 0 -154 30 -154 143
c0 108 -9 215 -19 330zM180 924c0 26 12 38 35 38c54 0 88 -64 88 -111c0 -35 -21 -52 -40 -52c-43 0 -84 59 -84 112c0 4 0 9 1 13z" />
    <glyph glyph-name="Eacute" unicode="&#xc9;"
d="M99 465c-3 41 -5 83 -7 125c-49 6 -72 38 -72 70s26 69 78 69h31c10 5 20 8 31 8c10 0 21 -3 30 -8h228c42 -12 62 -41 62 -69c0 -30 -23 -60 -67 -70h-159c-20 -7 -21 -15 -21 -22c0 -45 6 -85 9 -128c0 -19 1 -27 14 -27c4 0 9 0 15 2c49 9 79 19 133 20
c42 -12 62 -41 62 -69c0 -30 -23 -60 -67 -70c-48 -1 -76 -1 -116 -3c-20 0 -29 -5 -29 -29c0 -34 5 -67 5 -105c0 -23 17 -27 36 -27c90 0 178 40 268 40c51 0 79 -34 79 -67c0 -30 -22 -61 -67 -71c-101 -7 -187 -42 -303 -42c-82 0 -154 30 -154 143
c0 108 -9 215 -19 330zM331 968c49 0 77 -25 77 -60c0 -26 -18 -56 -61 -70l-5 -4c-22 -19 -52 -39 -82 -39c-41 0 -66 30 -66 61c0 22 12 45 40 59h-1c0 3 79 48 98 53z" />
    <glyph glyph-name="Ecaron" unicode="&#x11a;"
d="M99 465c-3 41 -5 83 -7 125c-49 6 -72 38 -72 70s26 69 78 69h31c10 5 20 8 31 8c10 0 21 -3 30 -8h228c42 -12 62 -41 62 -69c0 -30 -23 -60 -67 -70h-159c-20 -7 -21 -15 -21 -22c0 -45 6 -85 9 -128c0 -19 1 -27 14 -27c4 0 9 0 15 2c49 9 79 19 133 20
c42 -12 62 -41 62 -69c0 -30 -23 -60 -67 -70c-48 -1 -76 -1 -116 -3c-20 0 -29 -5 -29 -29c0 -34 5 -67 5 -105c0 -23 17 -27 36 -27c90 0 178 40 268 40c51 0 79 -34 79 -67c0 -30 -22 -61 -67 -71c-101 -7 -187 -42 -303 -42c-82 0 -154 30 -154 143
c0 108 -9 215 -19 330zM267 784c-40 3 -107 86 -107 129c0 30 24 55 57 55c25 0 43 -36 66 -64c21 18 48 59 80 59c35 0 58 -26 58 -55c0 -21 -11 -43 -38 -59c-21 -22 -74 -65 -116 -65z" />
    <glyph glyph-name="Ecircumflex" unicode="&#xca;"
d="M99 465c-3 41 -5 83 -7 125c-49 6 -72 38 -72 70s26 69 78 69h31c10 5 20 8 31 8c10 0 21 -3 30 -8h228c42 -12 62 -41 62 -69c0 -30 -23 -60 -67 -70h-159c-20 -7 -21 -15 -21 -22c0 -45 6 -85 9 -128c0 -19 1 -27 14 -27c4 0 9 0 15 2c49 9 79 19 133 20
c42 -12 62 -41 62 -69c0 -30 -23 -60 -67 -70c-48 -1 -76 -1 -116 -3c-20 0 -29 -5 -29 -29c0 -34 5 -67 5 -105c0 -23 17 -27 36 -27c90 0 178 40 268 40c51 0 79 -34 79 -67c0 -30 -22 -61 -67 -71c-101 -7 -187 -42 -303 -42c-82 0 -154 30 -154 143
c0 108 -9 215 -19 330zM314 968c40 -3 107 -86 107 -129c0 -30 -24 -55 -57 -55c-25 0 -43 36 -66 64c-21 -18 -48 -59 -80 -59c-35 0 -58 26 -58 55c0 21 11 43 38 59c21 22 74 65 116 65z" />
    <glyph glyph-name="Edieresis" unicode="&#xcb;"
d="M99 465c-3 41 -5 83 -7 125c-49 6 -72 38 -72 70s26 69 78 69h31c10 5 20 8 31 8c10 0 21 -3 30 -8h228c42 -12 62 -41 62 -69c0 -30 -23 -60 -67 -70h-159c-20 -7 -21 -15 -21 -22c0 -45 6 -85 9 -128c0 -19 1 -27 14 -27c4 0 9 0 15 2c49 9 79 19 133 20
c42 -12 62 -41 62 -69c0 -30 -23 -60 -67 -70c-48 -1 -76 -1 -116 -3c-20 0 -29 -5 -29 -29c0 -34 5 -67 5 -105c0 -23 17 -27 36 -27c90 0 178 40 268 40c51 0 79 -34 79 -67c0 -30 -22 -61 -67 -71c-101 -7 -187 -42 -303 -42c-82 0 -154 30 -154 143
c0 108 -9 215 -19 330zM136 828c-15 17 -24 39 -24 61c0 34 28 71 74 71c57 0 74 -39 74 -79s-32 -75 -71 -75c-17 0 -35 6 -53 22zM426 938c15 -17 24 -39 24 -61c0 -34 -28 -71 -74 -71c-57 0 -74 39 -74 79s32 75 71 75c17 0 35 -6 53 -22z" />
    <glyph glyph-name="Edotaccent" unicode="&#x116;"
d="M99 465c-3 41 -5 83 -7 125c-49 6 -72 38 -72 70s26 69 78 69h31c10 5 20 8 31 8c10 0 21 -3 30 -8h228c42 -12 62 -41 62 -69c0 -30 -23 -60 -67 -70h-159c-20 -7 -21 -15 -21 -22c0 -45 6 -85 9 -128c0 -19 1 -27 14 -27c4 0 9 0 15 2c49 9 79 19 133 20
c42 -12 62 -41 62 -69c0 -30 -23 -60 -67 -70c-48 -1 -76 -1 -116 -3c-20 0 -29 -5 -29 -29c0 -34 5 -67 5 -105c0 -23 17 -27 36 -27c90 0 178 40 268 40c51 0 79 -34 79 -67c0 -30 -22 -61 -67 -71c-101 -7 -187 -42 -303 -42c-82 0 -154 30 -154 143
c0 108 -9 215 -19 330zM331 938c15 -17 24 -39 24 -61c0 -34 -28 -71 -74 -71c-57 0 -74 39 -74 79s32 75 71 75c17 0 35 -6 53 -22z" />
    <glyph glyph-name="Emacron" unicode="&#x112;"
d="M99 465c-3 41 -5 83 -7 125c-49 6 -72 38 -72 70s26 69 78 69h31c10 5 20 8 31 8c10 0 21 -3 30 -8h228c42 -12 62 -41 62 -69c0 -30 -23 -60 -67 -70h-159c-20 -7 -21 -15 -21 -22c0 -45 6 -85 9 -128c0 -19 1 -27 14 -27c4 0 9 0 15 2c49 9 79 19 133 20
c42 -12 62 -41 62 -69c0 -30 -23 -60 -67 -70c-48 -1 -76 -1 -116 -3c-20 0 -29 -5 -29 -29c0 -34 5 -67 5 -105c0 -23 17 -27 36 -27c90 0 178 40 268 40c51 0 79 -34 79 -67c0 -30 -22 -61 -67 -71c-101 -7 -187 -42 -303 -42c-82 0 -154 30 -154 143
c0 108 -9 215 -19 330zM195 812c-49 6 -63 29 -63 60c0 34 16 57 68 59c70 -2 148 0 217 -3c42 -12 52 -31 52 -59c0 -31 -13 -50 -57 -60c-69 3 -148 0 -217 3z" />
    <glyph glyph-name="Eogonek" unicode="&#x118;"
d="M302 -119c0 43 42 82 70 117c-25 -4 -72 -6 -100 -6c-82 0 -154 30 -154 143c0 108 -9 215 -19 330c-3 41 -5 83 -7 125c-49 6 -72 38 -72 70s26 69 78 69h31c10 5 20 8 31 8c10 0 21 -3 30 -8h228c42 -12 62 -41 62 -69c0 -30 -23 -60 -67 -70h-159
c-20 -7 -21 -15 -21 -22c0 -45 6 -85 9 -128c0 -19 1 -27 14 -27c4 0 9 0 15 2c49 9 79 19 133 20c42 -12 62 -41 62 -69c0 -30 -23 -60 -67 -70c-48 -1 -76 -1 -116 -3c-20 0 -29 -5 -29 -29c0 -34 5 -67 5 -105c0 -23 17 -27 36 -27c90 0 178 40 268 40
c51 0 79 -34 79 -67c0 -30 -22 -61 -67 -71c-38 -3 -74 -10 -110 -17l-33 -53c-12 -18 -18 -33 -17 -44c0 -49 107 -34 107 -86c0 -31 -13 -50 -57 -60c-83 0 -163 10 -163 107z" />
    <glyph glyph-name="Gbreve" unicode="&#x11e;" horiz-adv-x="515"
d="M398 600c-2 -50 -33 -78 -67 -78c-31 0 -58 25 -70 53c-54 -18 -61 -90 -61 -138c0 -65 11 -294 70 -294c43 0 28 124 39 155c-34 12 -51 39 -51 65c0 45 63 70 124 70c100 0 113 -44 113 -70c0 -25 -16 -50 -47 -64c0 -17 1 -34 1 -51c0 -132 -44 -247 -180 -247
c-197 0 -209 328 -209 434c0 136 61 283 219 283c57 0 111 -33 119 -118zM173 951c39 -15 45 -70 70 -70c45 0 41 74 81 74c26 0 55 -28 55 -57c0 -42 -91 -123 -146 -123c-41 0 -98 70 -98 137c0 23 16 39 38 39z" />
    <glyph glyph-name="Gcommaaccent" unicode="&#x122;" horiz-adv-x="515"
d="M398 600c-2 -50 -33 -78 -67 -78c-31 0 -58 25 -70 53c-54 -18 -61 -90 -61 -138c0 -65 11 -294 70 -294c43 0 28 124 39 155c-34 12 -51 39 -51 65c0 45 63 70 124 70c100 0 113 -44 113 -70c0 -25 -16 -50 -47 -64c0 -17 1 -34 1 -51c0 -132 -44 -247 -180 -247
c-197 0 -209 328 -209 434c0 136 61 283 219 283c57 0 111 -33 119 -118zM202 -126c0 59 33 71 81 71c33 0 69 -43 69 -84c0 -63 -23 -146 -80 -165c-2 -1 -4 -1 -5 -1c-12 0 -34 9 -34 31c0 20 35 43 35 63c0 4 -1 8 -6 11c-39 10 -60 35 -60 74z" />
    <glyph glyph-name="Kcommaaccent" unicode="&#x136;" horiz-adv-x="568"
d="M86 624c10 44 40 67 70 67c28 0 57 -20 69 -62v-93c0 -46 0 -92 2 -138c38 67 87 154 98 218c10 45 41 67 71 67c36 0 67 -30 67 -85c-11 -68 -45 -134 -77 -197c36 -60 70 -227 143 -265c27 -19 39 -43 39 -66c0 -35 -28 -65 -75 -65c-83 0 -145 138 -191 259
c-13 -14 -30 -22 -48 -22c-4 0 -7 0 -11 1c6 -69 20 -116 20 -193c0 -34 -28 -63 -68 -63c-73 0 -80 65 -80 122c0 137 -35 278 -35 419c0 32 2 64 6 96zM269 -106c0 59 33 71 81 71c33 0 69 -43 69 -84c0 -63 -23 -146 -80 -165c-2 -1 -4 -1 -5 -1c-12 0 -34 9 -34 31
c0 20 35 43 35 63c0 4 -1 8 -6 11c-39 10 -60 35 -60 74z" />
    <glyph glyph-name="Lacute" unicode="&#x139;" horiz-adv-x="495"
d="M89 636c10 44 40 67 70 67c28 0 57 -20 69 -62c0 -150 0 -261 -2 -401c0 -21 4 -66 67 -66c53 0 107 -1 160 -1c42 -12 62 -41 62 -69c0 -30 -23 -60 -67 -70c-25 0 -51 -1 -76 -1c-44 0 -88 1 -132 3c-83 3 -160 11 -160 88c0 12 2 26 6 41c0 174 3 297 3 471zM257 938
c49 0 77 -25 77 -60c0 -26 -18 -56 -61 -70l-5 -4c-22 -19 -52 -39 -82 -39c-41 0 -66 30 -66 61c0 22 12 45 40 59h-1c0 3 79 48 98 53z" />
    <glyph glyph-name="Lcaron" unicode="&#x13d;" horiz-adv-x="495"
d="M89 636c10 44 40 67 70 67c28 0 57 -20 69 -62c0 -150 0 -261 -2 -401c0 -21 4 -66 67 -66c53 0 107 -1 160 -1c42 -12 62 -41 62 -69c0 -30 -23 -60 -67 -70c-25 0 -51 -1 -76 -1c-44 0 -88 1 -132 3c-83 3 -160 11 -160 88c0 12 2 26 6 41c0 174 3 297 3 471zM282 614
c0 59 33 71 81 71c33 0 69 -43 69 -84c0 -63 -23 -146 -80 -165c-2 -1 -4 -1 -5 -1c-12 0 -34 9 -34 31c0 20 35 43 35 63c0 4 -1 8 -6 11c-39 10 -60 35 -60 74z" />
    <glyph glyph-name="Lcommaaccent" unicode="&#x13b;" horiz-adv-x="495"
d="M89 636c10 44 40 67 70 67c28 0 57 -20 69 -62c0 -150 0 -261 -2 -401c0 -21 4 -66 67 -66c53 0 107 -1 160 -1c42 -12 62 -41 62 -69c0 -30 -23 -60 -67 -70c-25 0 -51 -1 -76 -1c-44 0 -88 1 -132 3c-83 3 -160 11 -160 88c0 12 2 26 6 41c0 174 3 297 3 471zM212 -106
c0 59 33 71 81 71c33 0 69 -43 69 -84c0 -63 -23 -146 -80 -165c-2 -1 -4 -1 -5 -1c-12 0 -34 9 -34 31c0 20 35 43 35 63c0 4 -1 8 -6 11c-39 10 -60 35 -60 74z" />
    <glyph glyph-name="agrave" unicode="&#xe0;" horiz-adv-x="531"
d="M126 -37c-60 4 -96 39 -96 86c0 13 3 28 9 43c34 81 91 145 182 165c26 6 51 10 74 32c20 19 43 29 62 29c31 0 60 -24 69 -70c6 -34 14 -63 45 -83c16 -11 30 -24 30 -43c0 -51 -57 -64 -92 -64c-25 0 -50 5 -72 22c-13 10 -24 14 -34 14c-16 0 -30 -11 -42 -32
c-27 -46 -85 -101 -122 -101c-4 0 -9 1 -13 2zM164 524c0 26 12 38 35 38c54 0 88 -64 88 -111c0 -35 -21 -52 -40 -52c-43 0 -84 59 -84 112c0 4 0 9 1 13z" />
    <glyph glyph-name="aacute" unicode="&#xe1;" horiz-adv-x="531"
d="M126 -37c4 -1 9 -2 13 -2c37 0 95 55 122 101c12 21 26 32 42 32c10 0 21 -4 34 -14c22 -17 47 -22 72 -22c35 0 92 13 92 64c0 19 -14 32 -30 43c-31 20 -39 49 -45 83c-9 46 -38 70 -69 70c-19 0 -42 -10 -62 -29c-23 -22 -48 -26 -74 -32c-91 -20 -148 -84 -182 -165
c-6 -15 -9 -30 -9 -43c0 -47 36 -82 96 -86zM335 558c49 0 77 -25 77 -60c0 -26 -18 -56 -61 -70l-5 -4c-22 -19 -52 -39 -82 -39c-41 0 -66 30 -66 61c0 22 12 45 40 59h-1c0 3 79 48 98 53z" />
    <glyph glyph-name="abreve" unicode="&#x103;" horiz-adv-x="531"
d="M126 -37c-60 4 -96 39 -96 86c0 13 3 28 9 43c34 81 91 145 182 165c26 6 51 10 74 32c20 19 43 29 62 29c31 0 60 -24 69 -70c6 -34 14 -63 45 -83c16 -11 30 -24 30 -43c0 -51 -57 -64 -92 -64c-25 0 -50 5 -72 22c-13 10 -24 14 -34 14c-16 0 -30 -11 -42 -32
c-27 -46 -85 -101 -122 -101c-4 0 -9 1 -13 2zM181 571c39 -15 45 -70 70 -70c45 0 41 74 81 74c26 0 55 -28 55 -57c0 -42 -91 -123 -146 -123c-41 0 -98 70 -98 137c0 23 16 39 38 39z" />
    <glyph glyph-name="acircumflex" unicode="&#xe2;" horiz-adv-x="531"
d="M126 -37c4 -1 9 -2 13 -2c37 0 95 55 122 101c12 21 26 32 42 32c10 0 21 -4 34 -14c22 -17 47 -22 72 -22c35 0 92 13 92 64c0 19 -14 32 -30 43c-31 20 -39 49 -45 83c-9 46 -38 70 -69 70c-19 0 -42 -10 -62 -29c-23 -22 -48 -26 -74 -32c-91 -20 -148 -84 -182 -165
c-6 -15 -9 -30 -9 -43c0 -47 36 -82 96 -86zM299 578c40 -3 107 -86 107 -129c0 -30 -24 -55 -57 -55c-25 0 -43 36 -66 64c-21 -18 -48 -59 -80 -59c-35 0 -58 26 -58 55c0 21 11 43 38 59c21 22 74 65 116 65z" />
    <glyph glyph-name="adieresis" unicode="&#xe4;" horiz-adv-x="531"
d="M126 -37c4 -1 9 -2 13 -2c37 0 95 55 122 101c12 21 26 32 42 32c10 0 21 -4 34 -14c22 -17 47 -22 72 -22c35 0 92 13 92 64c0 19 -14 32 -30 43c-31 20 -39 49 -45 83c-9 46 -38 70 -69 70c-19 0 -42 -10 -62 -29c-23 -22 -48 -26 -74 -32c-91 -20 -148 -84 -182 -165
c-6 -15 -9 -30 -9 -43c0 -47 36 -82 96 -86zM120 418c-15 17 -24 39 -24 61c0 34 28 71 74 71c57 0 74 -39 74 -79s-32 -75 -71 -75c-17 0 -35 6 -53 22zM410 528c15 -17 24 -39 24 -61c0 -34 -28 -71 -74 -71c-57 0 -74 39 -74 79s32 75 71 75c17 0 35 -6 53 -22z" />
    <glyph glyph-name="amacron" unicode="&#x101;" horiz-adv-x="531"
d="M126 -37c4 -1 9 -2 13 -2c37 0 95 55 122 101c12 21 26 32 42 32c10 0 21 -4 34 -14c22 -17 47 -22 72 -22c35 0 92 13 92 64c0 19 -14 32 -30 43c-31 20 -39 49 -45 83c-9 46 -38 70 -69 70c-19 0 -42 -10 -62 -29c-23 -22 -48 -26 -74 -32c-91 -20 -148 -84 -182 -165
c-6 -15 -9 -30 -9 -43c0 -47 36 -82 96 -86zM170 412c-49 6 -63 29 -63 60c0 34 16 57 68 59c70 -2 148 0 217 -3c42 -12 52 -31 52 -59c0 -31 -13 -50 -57 -60c-69 3 -148 0 -217 3z" />
    <glyph glyph-name="aogonek" unicode="&#x105;" horiz-adv-x="536"
d="M316 -76c0 52 32 96 67 136c-16 3 -32 9 -46 20c-13 10 -24 14 -34 14c-16 0 -30 -11 -42 -32c-27 -46 -85 -101 -122 -101c-4 0 -9 1 -13 2c-60 4 -96 39 -96 86c0 13 3 28 9 43c34 81 91 145 182 165c26 6 51 10 74 32c20 19 43 29 62 29c31 0 60 -24 69 -70
c8 -47 75 -89 75 -126c0 -12 -3 -21 -55 -115c-12 -18 -18 -33 -17 -44c0 -49 107 -34 107 -86c0 -31 -13 -50 -57 -60c-83 0 -163 10 -163 107z" />
    <glyph glyph-name="aring" unicode="&#xe5;" horiz-adv-x="531"
d="M126 -37c4 -1 9 -2 13 -2c37 0 95 55 122 101c12 21 26 32 42 32c10 0 21 -4 34 -14c22 -17 47 -22 72 -22c35 0 92 13 92 64c0 19 -14 32 -30 43c-31 20 -39 49 -45 83c-9 46 -38 70 -69 70c-19 0 -42 -10 -62 -29c-23 -22 -48 -26 -74 -32c-91 -20 -148 -84 -182 -165
c-6 -15 -9 -30 -9 -43c0 -47 36 -82 96 -86zM260 622c60 -20 139 -55 139 -134c0 -63 -71 -121 -134 -121c-81 0 -134 51 -134 110c0 39 21 102 58 131c20 16 48 14 71 14zM290 481c0 13 -20 37 -35 37c-11 0 -19 -14 -19 -27c0 -17 14 -29 30 -29c12 0 24 7 24 19z" />
    <glyph glyph-name="atilde" unicode="&#xe3;" horiz-adv-x="531"
d="M126 -37c4 -1 9 -2 13 -2c37 0 95 55 122 101c12 21 26 32 42 32c10 0 21 -4 34 -14c22 -17 47 -22 72 -22c35 0 92 13 92 64c0 19 -14 32 -30 43c-31 20 -39 49 -45 83c-9 46 -38 70 -69 70c-19 0 -42 -10 -62 -29c-23 -22 -48 -26 -74 -32c-91 -20 -148 -84 -182 -165
c-6 -15 -9 -30 -9 -43c0 -47 36 -82 96 -86zM439 502c0 -61 -40 -110 -103 -110c-47 0 -69 44 -86 44c-15 0 -46 -46 -70 -46c-32 0 -63 25 -68 73c6 53 41 119 102 119c47 0 69 -51 82 -51s36 50 65 50c41 0 78 -36 78 -79z" />
    <glyph glyph-name="cacute" unicode="&#x107;" horiz-adv-x="392"
d="M392 166c-13 8 -25 11 -35 11c-14 0 -26 -5 -38 -9c-35 -13 -70 -20 -105 -30c-3 -1 -7 -2 -10 -2c-20 0 -38 16 -38 36c0 40 125 81 125 137c0 20 -32 43 -65 43c-6 0 -11 -1 -17 -2c-94 -20 -179 -99 -179 -190c0 -90 74 -135 147 -135c104 0 165 52 215 141zM266 588
c49 0 77 -25 77 -60c0 -26 -18 -56 -61 -70l-5 -4c-22 -19 -52 -39 -82 -39c-41 0 -66 30 -66 61c0 22 12 45 40 59h-1c0 3 79 48 98 53z" />
    <glyph glyph-name="ccaron" unicode="&#x10d;" horiz-adv-x="392"
d="M392 166c-13 8 -25 11 -35 11c-14 0 -26 -5 -38 -9c-35 -13 -70 -20 -105 -30c-3 -1 -7 -2 -10 -2c-20 0 -38 16 -38 36c0 40 125 81 125 137c0 20 -32 43 -65 43c-6 0 -11 -1 -17 -2c-94 -20 -179 -99 -179 -190c0 -90 74 -135 147 -135c104 0 165 52 215 141zM192 414
c-40 3 -107 86 -107 129c0 30 24 55 57 55c25 0 43 -36 66 -64c21 18 48 59 80 59c35 0 58 -26 58 -55c0 -21 -11 -43 -38 -59c-21 -22 -74 -65 -116 -65z" />
    <glyph glyph-name="ccedilla" unicode="&#xe7;" horiz-adv-x="392"
d="M212 -120l-40 -5c-44 0 -55 25 -55 53c0 32 7 54 24 100c-60 13 -111 57 -111 132c0 91 85 170 179 190c6 1 11 2 17 2c33 0 65 -23 65 -43c0 -56 -125 -97 -125 -137c0 -20 18 -36 38 -36c3 0 7 1 10 2c35 10 70 17 105 30c12 4 24 9 38 9c10 0 22 -3 35 -11
c-44 -78 -96 -127 -177 -139c-3 -16 -3 -35 -8 -53c75 0 133 -35 133 -113c0 -89 -74 -111 -164 -111c-50 7 -64 19 -64 50c0 11 8 41 50 50h47c15 3 21 11 21 18c0 9 -8 12 -18 12z" />
    <glyph glyph-name="ccircumflex" unicode="&#x109;" horiz-adv-x="392"
d="M392 166c-13 8 -25 11 -35 11c-14 0 -26 -5 -38 -9c-35 -13 -70 -20 -105 -30c-3 -1 -7 -2 -10 -2c-20 0 -38 16 -38 36c0 40 125 81 125 137c0 20 -32 43 -65 43c-6 0 -11 -1 -17 -2c-94 -20 -179 -99 -179 -190c0 -90 74 -135 147 -135c104 0 165 52 215 141zM219 598
c40 -3 107 -86 107 -129c0 -30 -24 -55 -57 -55c-25 0 -43 36 -66 64c-21 -18 -48 -59 -80 -59c-35 0 -58 26 -58 55c0 21 11 43 38 59c21 22 74 65 116 65z" />
    <glyph glyph-name="dcaron" unicode="&#x10f;" horiz-adv-x="792"
d="M368 317c14 -7 27 -10 39 -10c66 0 160 127 196 206c15 33 29 63 29 98c0 28 -16 60 -16 87c0 52 58 130 93 130c23 0 75 -33 75 -63c0 -3 -1 -7 -2 -11c-22 -89 -20 -183 -64 -270c-102 -202 -272 -366 -476 -452c-26 -11 -52 -23 -81 -23c-82 0 -131 45 -131 101
c0 22 7 46 23 70c50 74 119 119 210 130c35 1 72 3 105 7zM792 634c0 59 33 71 81 71c33 0 69 -43 69 -84c0 -63 -23 -146 -80 -165c-2 -1 -4 -1 -5 -1c-12 0 -34 9 -34 31c0 20 35 43 35 63c0 4 -1 8 -6 11c-39 10 -60 35 -60 74z" />
    <glyph glyph-name="egrave" unicode="&#xe8;" horiz-adv-x="586"
d="M435 152c25 -44 121 4 121 -74c0 -81 -107 -94 -171 -94c-50 0 -97 15 -138 58c-25 26 -48 39 -76 39c-20 0 -45 -12 -68 -12c-45 0 -103 49 -103 95c0 44 37 81 76 81c8 0 17 -1 24 -1c45 0 66 27 91 66c33 66 120 107 195 107c88 0 115 -84 115 -148
c0 -23 -6 -46 -26 -68c-14 -15 -40 -20 -40 -49zM282 624c0 26 12 38 35 38c54 0 88 -64 88 -111c0 -35 -21 -52 -40 -52c-43 0 -84 59 -84 112c0 4 0 9 1 13z" />
    <glyph glyph-name="eacute" unicode="&#xe9;" horiz-adv-x="586"
d="M435 152c0 29 26 34 40 49c20 22 26 45 26 68c0 64 -27 148 -115 148c-75 0 -162 -41 -195 -107c-25 -39 -46 -66 -91 -66c-7 0 -16 1 -24 1c-39 0 -76 -37 -76 -81c0 -46 58 -95 103 -95c23 0 48 12 68 12c28 0 51 -13 76 -39c41 -43 88 -58 138 -58c64 0 171 13 171 94
c0 78 -96 30 -121 74zM473 668c49 0 77 -25 77 -60c0 -26 -18 -56 -61 -70l-5 -4c-22 -19 -52 -39 -82 -39c-41 0 -66 30 -66 61c0 22 12 45 40 59h-1c0 3 79 48 98 53z" />
    <glyph glyph-name="ecaron" unicode="&#x11b;" horiz-adv-x="586"
d="M435 152c0 29 26 34 40 49c20 22 26 45 26 68c0 64 -27 148 -115 148c-75 0 -162 -41 -195 -107c-25 -39 -46 -66 -91 -66c-7 0 -16 1 -24 1c-39 0 -76 -37 -76 -81c0 -46 58 -95 103 -95c23 0 48 12 68 12c28 0 51 -13 76 -39c41 -43 88 -58 138 -58c64 0 171 13 171 94
c0 78 -96 30 -121 74zM369 474c-40 3 -107 86 -107 129c0 30 24 55 57 55c25 0 43 -36 66 -64c21 18 48 59 80 59c35 0 58 -26 58 -55c0 -21 -11 -43 -38 -59c-21 -22 -74 -65 -116 -65z" />
    <glyph glyph-name="ecircumflex" unicode="&#xea;" horiz-adv-x="586"
d="M435 152c0 29 26 34 40 49c20 22 26 45 26 68c0 64 -27 148 -115 148c-75 0 -162 -41 -195 -107c-25 -39 -46 -66 -91 -66c-7 0 -16 1 -24 1c-39 0 -76 -37 -76 -81c0 -46 58 -95 103 -95c23 0 48 12 68 12c28 0 51 -13 76 -39c41 -43 88 -58 138 -58c64 0 171 13 171 94
c0 78 -96 30 -121 74zM396 658c40 -3 107 -86 107 -129c0 -30 -24 -55 -57 -55c-25 0 -43 36 -66 64c-21 -18 -48 -59 -80 -59c-35 0 -58 26 -58 55c0 21 11 43 38 59c21 22 74 65 116 65z" />
    <glyph glyph-name="edieresis" unicode="&#xeb;" horiz-adv-x="586"
d="M435 152c0 29 26 34 40 49c20 22 26 45 26 68c0 64 -27 148 -115 148c-75 0 -162 -41 -195 -107c-25 -39 -46 -66 -91 -66c-7 0 -16 1 -24 1c-39 0 -76 -37 -76 -81c0 -46 58 -95 103 -95c23 0 48 12 68 12c28 0 51 -13 76 -39c41 -43 88 -58 138 -58c64 0 171 13 171 94
c0 78 -96 30 -121 74zM218 508c-15 17 -24 39 -24 61c0 34 28 71 74 71c57 0 74 -39 74 -79s-32 -75 -71 -75c-17 0 -35 6 -53 22zM508 618c15 -17 24 -39 24 -61c0 -34 -28 -71 -74 -71c-57 0 -74 39 -74 79s32 75 71 75c17 0 35 -6 53 -22z" />
    <glyph glyph-name="edotaccent" unicode="&#x117;" horiz-adv-x="586"
d="M435 152c0 29 26 34 40 49c20 22 26 45 26 68c0 64 -27 148 -115 148c-75 0 -162 -41 -195 -107c-25 -39 -46 -66 -91 -66c-7 0 -16 1 -24 1c-39 0 -76 -37 -76 -81c0 -46 58 -95 103 -95c23 0 48 12 68 12c28 0 51 -13 76 -39c41 -43 88 -58 138 -58c64 0 171 13 171 94
c0 78 -96 30 -121 74zM423 628c15 -17 24 -39 24 -61c0 -34 -28 -71 -74 -71c-57 0 -74 39 -74 79s32 75 71 75c17 0 35 -6 53 -22z" />
    <glyph glyph-name="emacron" unicode="&#x113;" horiz-adv-x="586"
d="M435 152c0 29 26 34 40 49c20 22 26 45 26 68c0 64 -27 148 -115 148c-75 0 -162 -41 -195 -107c-25 -39 -46 -66 -91 -66c-7 0 -16 1 -24 1c-39 0 -76 -37 -76 -81c0 -46 58 -95 103 -95c23 0 48 12 68 12c28 0 51 -13 76 -39c41 -43 88 -58 138 -58c64 0 171 13 171 94
c0 78 -96 30 -121 74zM267 502c-49 6 -63 29 -63 60c0 34 16 57 68 59c70 -2 148 0 217 -3c42 -12 52 -31 52 -59c0 -31 -13 -50 -57 -60c-69 3 -148 0 -217 3z" />
    <glyph glyph-name="eogonek" unicode="&#x119;" horiz-adv-x="586"
d="M326 -159c0 55 36 102 74 143h-15c-50 0 -97 15 -138 58c-25 26 -48 39 -76 39c-20 0 -45 -12 -68 -12c-45 0 -103 49 -103 95c0 44 37 81 76 81c8 0 17 -1 24 -1c45 0 66 27 91 66c33 66 120 107 195 107c88 0 115 -84 115 -148c0 -23 -6 -46 -26 -68
c-14 -15 -40 -20 -40 -49c25 -44 121 4 121 -74c0 -35 -20 -58 -100 -154c-12 -18 -18 -33 -17 -44c0 -49 107 -34 107 -86c0 -31 -13 -50 -57 -60c-83 0 -163 10 -163 107z" />
    <glyph glyph-name="gbreve" unicode="&#x11f;" horiz-adv-x="436"
d="M406 -92c-9 -112 -47 -208 -130 -279c-17 -14 -38 -21 -53 -21c-28 0 -60 24 -60 62c0 18 11 32 23 45c51 54 84 161 84 220c0 57 -16 172 -58 172c-20 0 -60 -30 -97 -30c-39 0 -85 34 -85 91c0 45 50 104 102 104c10 0 21 -3 31 -3c31 0 56 13 83 38c9 8 21 11 33 11
c37 0 81 -30 81 -69c0 -102 44 -192 44 -292c0 -18 -2 -35 2 -49zM144 571c39 -15 45 -70 70 -70c45 0 41 74 81 74c26 0 55 -28 55 -57c0 -42 -91 -123 -146 -123c-41 0 -98 70 -98 137c0 23 16 39 38 39z" />
    <glyph glyph-name="gcommaaccent" unicode="&#x123;" horiz-adv-x="436"
d="M256 462c0 -59 -33 -71 -81 -71c-33 0 -69 43 -69 84c0 63 23 146 80 165c2 1 4 1 5 1c12 0 34 -9 34 -31c0 -20 -35 -43 -35 -63c0 -4 1 -8 6 -11c39 -10 60 -35 60 -74zM406 -92c-4 14 -2 31 -2 49c0 100 -44 190 -44 292c0 39 -44 69 -81 69c-12 0 -24 -3 -33 -11
c-27 -25 -52 -38 -83 -38c-10 0 -21 3 -31 3c-52 0 -102 -59 -102 -104c0 -57 46 -91 85 -91c37 0 77 30 97 30c42 0 58 -115 58 -172c0 -59 -33 -166 -84 -220c-12 -13 -23 -27 -23 -45c0 -38 32 -62 60 -62c15 0 36 7 53 21c83 71 121 167 130 279z" />
    <glyph glyph-name="kcommaaccent" unicode="&#x137;" horiz-adv-x="550"
d="M268 114c-38 -33 -70 -49 -100 -49c-31 0 -125 49 -125 104c0 9 4 19 12 28c20 21 25 43 25 65c0 54 -22 136 -43 196c-5 13 -7 26 -7 37c0 38 26 68 64 68c29 0 58 -18 80 -48c12 -21 13 -43 21 -63c12 -48 22 -141 62 -141c30 0 91 29 124 29c35 0 93 -26 93 -72
c0 -31 -71 -29 -71 -71c0 -39 28 -75 70 -80c18 -2 34 -1 46 -16c16 -20 31 -37 31 -60c0 -40 -37 -61 -67 -61c-94 0 -155 74 -215 134zM200 -106c0 59 33 71 81 71c33 0 69 -43 69 -84c0 -63 -23 -146 -80 -165c-2 -1 -4 -1 -5 -1c-12 0 -34 9 -34 31c0 20 35 43 35 63
c0 4 -1 8 -6 11c-39 10 -60 35 -60 74z" />
    <glyph glyph-name="lacute" unicode="&#x13a;" horiz-adv-x="254"
d="M207 358c-1 10 -1 21 -1 31c0 70 12 141 12 214c0 56 -34 94 -83 94c-46 0 -62 -25 -66 -94c-9 -137 -19 -285 -19 -421c0 -54 3 -108 9 -162c5 -42 48 -86 78 -86c32 0 70 45 70 81s-10 73 -10 110c0 78 10 155 10 233zM227 953c49 0 77 -25 77 -60
c0 -26 -18 -56 -61 -70l-5 -4c-22 -19 -52 -39 -82 -39c-41 0 -66 30 -66 61c0 22 12 45 40 59h-1c0 3 79 48 98 53z" />
    <glyph glyph-name="lcaron" unicode="&#x13e;" horiz-adv-x="307"
d="M207 358c0 -78 -10 -155 -10 -233c0 -37 10 -74 10 -110s-38 -81 -70 -81c-30 0 -73 44 -78 86c-6 54 -9 108 -9 162c0 136 10 284 19 421c4 69 20 94 66 94c49 0 83 -38 83 -94c0 -73 -12 -144 -12 -214c0 -10 0 -21 1 -31zM257 615c0 59 33 71 81 71
c33 0 69 -43 69 -84c0 -63 -23 -146 -80 -165c-2 -1 -4 -1 -5 -1c-12 0 -34 9 -34 31c0 20 35 43 35 63c0 4 -1 8 -6 11c-39 10 -60 35 -60 74z" />
    <glyph glyph-name="lcommaaccent" unicode="&#x13c;" horiz-adv-x="248"
d="M207 358c0 -78 -10 -155 -10 -233c0 -37 10 -74 10 -110s-38 -81 -70 -81c-30 0 -73 44 -78 86c-6 54 -9 108 -9 162c0 136 10 284 19 421c4 69 20 94 66 94c49 0 83 -38 83 -94c0 -73 -12 -144 -12 -214c0 -10 0 -21 1 -31zM59 -196c0 59 33 71 81 71
c33 0 69 -43 69 -84c0 -63 -23 -146 -80 -165c-2 -1 -4 -1 -5 -1c-12 0 -34 9 -34 31c0 20 35 43 35 63c0 4 -1 8 -6 11c-39 10 -60 35 -60 74z" />
    <glyph glyph-name="Igrave" unicode="&#xcc;" horiz-adv-x="329"
d="M94 249c3 81 14 193 27 280c11 52 47 139 102 139c36 0 66 -61 66 -104c0 -14 -4 -27 -11 -43c-40 -88 -59 -212 -59 -308c0 -35 5 -71 5 -106s-4 -99 -52 -99c-54 0 -92 76 -92 122c0 36 10 77 14 119zM161 874c0 26 12 38 35 38c54 0 88 -64 88 -111
c0 -35 -21 -52 -40 -52c-43 0 -84 59 -84 112c0 4 0 9 1 13z" />
    <glyph glyph-name="Iacute" unicode="&#xcd;" horiz-adv-x="333"
d="M94 249c-4 -42 -14 -83 -14 -119c0 -46 38 -122 92 -122c48 0 52 64 52 99s-5 71 -5 106c0 96 19 220 59 308c7 16 11 29 11 43c0 43 -30 104 -66 104c-55 0 -91 -87 -102 -139c-13 -87 -24 -199 -27 -280zM336 894c49 0 77 -25 77 -60c0 -26 -18 -56 -61 -70l-5 -4
c-22 -19 -52 -39 -82 -39c-41 0 -66 30 -66 61c0 22 12 45 40 59h-1c0 3 79 48 98 53z" />
    <glyph glyph-name="Icircumflex" unicode="&#xce;" horiz-adv-x="316"
d="M94 249c-4 -42 -14 -83 -14 -119c0 -46 38 -122 92 -122c48 0 52 64 52 99s-5 71 -5 106c0 96 19 220 59 308c7 16 11 29 11 43c0 43 -30 104 -66 104c-55 0 -91 -87 -102 -139c-13 -87 -24 -199 -27 -280zM259 912c40 -3 107 -86 107 -129c0 -30 -24 -55 -57 -55
c-25 0 -43 36 -66 64c-21 -18 -48 -59 -80 -59c-35 0 -58 26 -58 55c0 21 11 43 38 59c21 22 74 65 116 65z" />
    <glyph glyph-name="Idieresis" unicode="&#xcf;" horiz-adv-x="328"
d="M95 249c-4 -42 -14 -83 -14 -119c0 -46 38 -122 92 -122c48 0 52 64 52 99s-5 71 -5 106c0 96 19 220 59 308c7 16 11 29 11 43c0 43 -30 104 -66 104c-55 0 -91 -87 -102 -139c-13 -87 -24 -199 -27 -280zM104 748c-15 17 -24 39 -24 61c0 34 28 71 74 71
c57 0 74 -39 74 -79s-32 -75 -71 -75c-17 0 -35 6 -53 22zM394 858c15 -17 24 -39 24 -61c0 -34 -28 -71 -74 -71c-57 0 -74 39 -74 79s32 75 71 75c17 0 35 -6 53 -22z" />
    <glyph glyph-name="Idotaccent" unicode="&#x130;" horiz-adv-x="333"
d="M94 249c-4 -42 -14 -83 -14 -119c0 -46 38 -122 92 -122c48 0 52 64 52 99s-5 71 -5 106c0 96 19 220 59 308c7 16 11 29 11 43c0 43 -30 104 -66 104c-55 0 -91 -87 -102 -139c-13 -87 -24 -199 -27 -280zM319 862c15 -17 24 -39 24 -61c0 -34 -28 -71 -74 -71
c-57 0 -74 39 -74 79s32 75 71 75c17 0 35 -6 53 -22z" />
    <glyph glyph-name="Imacron" unicode="&#x12a;" horiz-adv-x="327"
d="M94 249c-4 -42 -14 -83 -14 -119c0 -46 38 -122 92 -122c48 0 52 64 52 99s-5 71 -5 106c0 96 19 220 59 308c7 16 11 29 11 43c0 43 -30 104 -66 104c-55 0 -91 -87 -102 -139c-13 -87 -24 -199 -27 -280zM133 741c-49 6 -63 29 -63 60c0 34 16 57 68 59
c70 -2 148 0 217 -3c42 -12 52 -31 52 -59c0 -31 -13 -50 -57 -60c-69 3 -148 0 -217 3z" />
    <glyph glyph-name="Iogonek" unicode="&#x12e;" horiz-adv-x="328"
d="M30 -126c0 62 46 114 89 159c-25 27 -40 68 -40 97c0 36 10 77 14 119c3 81 14 193 27 280c11 52 47 139 102 139c36 0 66 -61 66 -104c0 -14 -4 -27 -11 -43c-40 -88 -59 -212 -59 -308c0 -35 5 -71 5 -106c0 -27 -3 -71 -63 -150c-12 -18 -18 -33 -17 -44
c0 -49 107 -34 107 -86c0 -31 -13 -50 -57 -60c-83 0 -163 10 -163 107z" />
    <glyph glyph-name="Nacute" unicode="&#x143;" horiz-adv-x="675"
d="M238 46c-15 -38 -43 -55 -70 -55c-34 0 -66 27 -66 71c0 36 12 77 12 116c0 124 -34 216 -34 347c0 59 18 155 94 155c63 0 92 -70 121 -118c65 -110 98 -208 154 -320c7 -15 13 -20 15 -20s3 3 3 8s-1 10 -1 15c-16 125 -42 238 -51 375c10 44 40 67 70 67
c28 0 57 -20 69 -62c12 -170 71 -342 71 -481c0 -90 -40 -152 -123 -152c-111 0 -181 240 -251 375c-5 9 -12 20 -15 20c-2 0 -4 -3 -4 -10c0 -4 1 -10 2 -18c8 -62 18 -113 18 -182c0 -44 -4 -88 -14 -131zM426 910c49 0 77 -25 77 -60c0 -26 -18 -56 -61 -70l-5 -4
c-22 -19 -52 -39 -82 -39c-41 0 -66 30 -66 61c0 22 12 45 40 59h-1c0 3 79 48 98 53z" />
    <glyph glyph-name="Ncaron" unicode="&#x147;" horiz-adv-x="675"
d="M238 46c-15 -38 -43 -55 -70 -55c-34 0 -66 27 -66 71c0 36 12 77 12 116c0 124 -34 216 -34 347c0 59 18 155 94 155c63 0 92 -70 121 -118c65 -110 98 -208 154 -320c7 -15 13 -20 15 -20s3 3 3 8s-1 10 -1 15c-16 125 -42 238 -51 375c10 44 40 67 70 67
c28 0 57 -20 69 -62c12 -170 71 -342 71 -481c0 -90 -40 -152 -123 -152c-111 0 -181 240 -251 375c-5 9 -12 20 -15 20c-2 0 -4 -3 -4 -10c0 -4 1 -10 2 -18c8 -62 18 -113 18 -182c0 -44 -4 -88 -14 -131zM324 734c-40 3 -107 86 -107 129c0 30 24 55 57 55
c25 0 43 -36 66 -64c21 18 48 59 80 59c35 0 58 -26 58 -55c0 -21 -11 -43 -38 -59c-21 -22 -74 -65 -116 -65z" />
    <glyph glyph-name="Ncommaaccent" unicode="&#x145;" horiz-adv-x="675"
d="M238 46c-15 -38 -43 -55 -70 -55c-34 0 -66 27 -66 71c0 36 12 77 12 116c0 124 -34 216 -34 347c0 59 18 155 94 155c63 0 92 -70 121 -118c65 -110 98 -208 154 -320c7 -15 13 -20 15 -20s3 3 3 8s-1 10 -1 15c-16 125 -42 238 -51 375c10 44 40 67 70 67
c28 0 57 -20 69 -62c12 -170 71 -342 71 -481c0 -90 -40 -152 -123 -152c-111 0 -181 240 -251 375c-5 9 -12 20 -15 20c-2 0 -4 -3 -4 -10c0 -4 1 -10 2 -18c8 -62 18 -113 18 -182c0 -44 -4 -88 -14 -131zM312 -116c0 59 33 71 81 71c33 0 69 -43 69 -84
c0 -63 -23 -146 -80 -165c-2 -1 -4 -1 -5 -1c-12 0 -34 9 -34 31c0 20 35 43 35 63c0 4 -1 8 -6 11c-39 10 -60 35 -60 74z" />
    <glyph glyph-name="Ntilde" unicode="&#xd1;" horiz-adv-x="675"
d="M238 46c-15 -38 -43 -55 -70 -55c-34 0 -66 27 -66 71c0 36 12 77 12 116c0 124 -34 216 -34 347c0 59 18 155 94 155c63 0 92 -70 121 -118c65 -110 98 -208 154 -320c7 -15 13 -20 15 -20s3 3 3 8s-1 10 -1 15c-16 125 -42 238 -51 375c10 44 40 67 70 67
c28 0 57 -20 69 -62c12 -170 71 -342 71 -481c0 -90 -40 -152 -123 -152c-111 0 -181 240 -251 375c-5 9 -12 20 -15 20c-2 0 -4 -3 -4 -10c0 -4 1 -10 2 -18c8 -62 18 -113 18 -182c0 -44 -4 -88 -14 -131zM491 832c0 -61 -40 -110 -103 -110c-47 0 -69 44 -86 44
c-15 0 -46 -46 -70 -46c-32 0 -63 25 -68 73c6 53 41 119 102 119c47 0 69 -51 82 -51s36 50 65 50c41 0 78 -36 78 -79z" />
    <glyph glyph-name="Ograve" unicode="&#xd2;" horiz-adv-x="606"
d="M50 389c0 156 73 287 241 287c178 0 265 -201 265 -398c0 -125 -83 -283 -231 -283c-181 0 -275 238 -275 394zM319 141c63 0 99 65 99 136c0 80 -38 257 -132 257c-68 0 -98 -62 -98 -137c0 -56 34 -256 131 -256zM192 854c0 26 12 38 35 38c54 0 88 -64 88 -111
c0 -35 -21 -52 -40 -52c-43 0 -84 59 -84 112c0 4 0 9 1 13z" />
    <glyph glyph-name="Oacute" unicode="&#xd3;" horiz-adv-x="606"
d="M50 389c0 156 73 287 241 287c178 0 265 -201 265 -398c0 -125 -83 -283 -231 -283c-181 0 -275 238 -275 394zM319 141c63 0 99 65 99 136c0 80 -38 257 -132 257c-68 0 -98 -62 -98 -137c0 -56 34 -256 131 -256zM353 898c49 0 77 -25 77 -60c0 -26 -18 -56 -61 -70
l-5 -4c-22 -19 -52 -39 -82 -39c-41 0 -66 30 -66 61c0 22 12 45 40 59h-1c0 3 79 48 98 53z" />
    <glyph glyph-name="Ocircumflex" unicode="&#xd4;" horiz-adv-x="606"
d="M50 389c0 156 73 287 241 287c178 0 265 -201 265 -398c0 -125 -83 -283 -231 -283c-181 0 -275 238 -275 394zM319 141c63 0 99 65 99 136c0 80 -38 257 -132 257c-68 0 -98 -62 -98 -137c0 -56 34 -256 131 -256zM316 908c40 -3 107 -86 107 -129
c0 -30 -24 -55 -57 -55c-25 0 -43 36 -66 64c-21 -18 -48 -59 -80 -59c-35 0 -58 26 -58 55c0 21 11 43 38 59c21 22 74 65 116 65z" />
    <glyph glyph-name="Odieresis" unicode="&#xd6;" horiz-adv-x="606"
d="M50 389c0 156 73 287 241 287c178 0 265 -201 265 -398c0 -125 -83 -283 -231 -283c-181 0 -275 238 -275 394zM319 141c63 0 99 65 99 136c0 80 -38 257 -132 257c-68 0 -98 -62 -98 -137c0 -56 34 -256 131 -256zM137 749c-15 17 -24 39 -24 61c0 34 28 71 74 71
c57 0 74 -39 74 -79s-32 -75 -71 -75c-17 0 -35 6 -53 22zM427 859c15 -17 24 -39 24 -61c0 -34 -28 -71 -74 -71c-57 0 -74 39 -74 79s32 75 71 75c17 0 35 -6 53 -22z" />
    <glyph glyph-name="Ohungarumlaut" unicode="&#x150;" horiz-adv-x="606"
d="M50 389c0 156 73 287 241 287c178 0 265 -201 265 -398c0 -125 -83 -283 -231 -283c-181 0 -275 238 -275 394zM319 141c63 0 99 65 99 136c0 80 -38 257 -132 257c-68 0 -98 -62 -98 -137c0 -56 34 -256 131 -256zM256 924c54 0 75 -19 75 -56
c0 -51 -113 -145 -141 -145c-35 0 -54 18 -54 56c0 45 57 126 120 145zM446 924c54 0 75 -19 75 -56c0 -51 -113 -145 -141 -145c-35 0 -54 18 -54 56c0 45 57 126 120 145z" />
    <glyph glyph-name="Omacron" unicode="&#x14c;" horiz-adv-x="606"
d="M50 389c0 156 73 287 241 287c178 0 265 -201 265 -398c0 -125 -83 -283 -231 -283c-181 0 -275 238 -275 394zM319 141c63 0 99 65 99 136c0 80 -38 257 -132 257c-68 0 -98 -62 -98 -137c0 -56 34 -256 131 -256zM177 750c-49 6 -63 29 -63 60c0 34 16 57 68 59
c70 -2 148 0 217 -3c42 -12 52 -31 52 -59c0 -31 -13 -50 -57 -60c-69 3 -148 0 -217 3z" />
    <glyph glyph-name="Otilde" unicode="&#xd5;" horiz-adv-x="606"
d="M50 389c0 156 73 287 241 287c178 0 265 -201 265 -398c0 -125 -83 -283 -231 -283c-181 0 -275 238 -275 394zM319 141c63 0 99 65 99 136c0 80 -38 257 -132 257c-68 0 -98 -62 -98 -137c0 -56 34 -256 131 -256zM442 847c0 -61 -40 -110 -103 -110
c-47 0 -69 44 -86 44c-15 0 -46 -46 -70 -46c-32 0 -63 25 -68 73c6 53 41 119 102 119c47 0 69 -51 82 -51s36 50 65 50c41 0 78 -36 78 -79z" />
    <glyph glyph-name="Racute" unicode="&#x154;" horiz-adv-x="603"
d="M207 322c4 -1 8 -1 11 -1s5 0 8 1c80 -134 172 -242 309 -307c18 -5 34 -17 54 -17c30 0 54 22 54 55c0 15 -45 64 -74 76c-110 38 -164 133 -218 224c-9 15 -14 29 -14 41c0 20 10 32 34 44c103 50 134 162 134 263c0 85 -60 151 -157 151c-104 0 -204 -87 -216 -201
c-21 -193 -31 -294 -70 -486c-8 -38 -12 -85 -12 -125c0 -30 12 -56 53 -56c64 0 73 120 82 186c11 82 11 71 22 152zM384 684c-4 -68 -40 -114 -98 -146c-10 -5 -19 -8 -27 -8c-24 0 -41 21 -41 55c0 58 89 156 144 156c19 0 22 -13 22 -57zM461 1088c49 0 77 -25 77 -60
c0 -26 -18 -56 -61 -70l-5 -4c-22 -19 -52 -39 -82 -39c-41 0 -66 30 -66 61c0 22 12 45 40 59h-1c0 3 79 48 98 53z" />
    <glyph glyph-name="Rcaron" unicode="&#x158;" horiz-adv-x="603"
d="M207 322c4 -1 8 -1 11 -1s5 0 8 1c80 -134 172 -242 309 -307c18 -5 34 -17 54 -17c30 0 54 22 54 55c0 15 -45 64 -74 76c-110 38 -164 133 -218 224c-9 15 -14 29 -14 41c0 20 10 32 34 44c103 50 134 162 134 263c0 85 -60 151 -157 151c-104 0 -204 -87 -216 -201
c-21 -193 -31 -294 -70 -486c-8 -38 -12 -85 -12 -125c0 -30 12 -56 53 -56c64 0 73 120 82 186c11 82 11 71 22 152zM384 684c-4 -68 -40 -114 -98 -146c-10 -5 -19 -8 -27 -8c-24 0 -41 21 -41 55c0 58 89 156 144 156c19 0 22 -13 22 -57zM348 917
c-40 3 -107 86 -107 129c0 30 24 55 57 55c25 0 43 -36 66 -64c21 18 48 59 80 59c35 0 58 -26 58 -55c0 -21 -11 -43 -38 -59c-21 -22 -74 -65 -116 -65z" />
    <glyph glyph-name="Rcommaaccent" unicode="&#x156;" horiz-adv-x="603"
d="M207 322c-11 -81 -11 -70 -22 -152c-9 -66 -18 -186 -82 -186c-41 0 -53 26 -53 56c0 40 4 87 12 125c39 192 49 293 70 486c12 114 112 201 216 201c97 0 157 -66 157 -151c0 -101 -31 -213 -134 -263c-24 -12 -34 -24 -34 -44c0 -12 5 -26 14 -41
c54 -91 108 -186 218 -224c29 -12 74 -61 74 -76c0 -33 -24 -55 -54 -55c-20 0 -36 12 -54 17c-137 65 -229 173 -309 307c-3 -1 -5 -1 -8 -1s-7 0 -11 1zM384 684c0 44 -3 57 -22 57c-55 0 -144 -98 -144 -156c0 -34 17 -55 41 -55c8 0 17 3 27 8c58 32 94 78 98 146z
M242 -95c0 59 33 71 81 71c33 0 69 -43 69 -84c0 -63 -23 -146 -80 -165c-2 -1 -4 -1 -5 -1c-12 0 -34 9 -34 31c0 20 35 43 35 63c0 4 -1 8 -6 11c-39 10 -60 35 -60 74z" />
    <glyph glyph-name="Sacute" unicode="&#x15a;" horiz-adv-x="427"
d="M372 140c0 5 1 10 1 15c0 98 -86 197 -169 265c-20 16 -28 35 -28 53c0 41 40 83 75 104c59 35 114 75 179 102c24 10 57 22 57 55c0 26 -43 63 -95 63c-15 0 -21 -6 -30 -11c-172 -42 -322 -224 -322 -322c0 -38 22 -76 73 -122c53 -42 110 -115 110 -167
c0 -38 -22 -59 -69 -81c-32 -16 -56 -63 -56 -94c0 -43 36 -68 82 -68c100 0 186 103 192 208zM408 1022c49 0 77 -25 77 -60c0 -26 -18 -56 -61 -70l-5 -4c-22 -19 -52 -39 -82 -39c-41 0 -66 30 -66 61c0 22 12 45 40 59h-1c0 3 79 48 98 53z" />
    <glyph glyph-name="Scaron" unicode="&#x160;" horiz-adv-x="427"
d="M372 140c0 5 1 10 1 15c0 98 -86 197 -169 265c-20 16 -28 35 -28 53c0 41 40 83 75 104c59 35 114 75 179 102c24 10 57 22 57 55c0 26 -43 63 -95 63c-15 0 -21 -6 -30 -11c-172 -42 -322 -224 -322 -322c0 -38 22 -76 73 -122c53 -42 110 -115 110 -167
c0 -38 -22 -59 -69 -81c-32 -16 -56 -63 -56 -94c0 -43 36 -68 82 -68c100 0 186 103 192 208zM280 824c-40 3 -107 86 -107 129c0 30 24 55 57 55c25 0 43 -36 66 -64c21 18 48 59 80 59c35 0 58 -26 58 -55c0 -21 -11 -43 -38 -59c-21 -22 -74 -65 -116 -65z" />
    <glyph glyph-name="Scedilla" unicode="&#x15e;" horiz-adv-x="427"
d="M219 -190l-40 -5c-44 0 -55 25 -55 53c0 27 5 47 17 81c-26 10 -43 32 -43 61c0 31 24 78 56 94c47 22 69 43 69 81c0 52 -57 125 -110 167c-51 46 -73 84 -73 122c0 98 150 280 322 322c9 5 15 11 30 11c52 0 95 -37 95 -63c0 -33 -33 -45 -57 -55
c-65 -27 -120 -67 -179 -102c-35 -21 -75 -63 -75 -104c0 -18 8 -37 28 -53c83 -68 169 -167 169 -265c0 -5 -1 -10 -1 -15c-5 -91 -70 -180 -152 -202c-1 -11 -3 -23 -6 -34c75 0 133 -35 133 -113c0 -89 -74 -111 -164 -111c-50 7 -64 19 -64 50c0 11 8 41 50 50h47
c15 3 21 11 21 18c0 9 -8 12 -18 12z" />
    <glyph glyph-name="Scommaaccent" unicode="&#x218;" horiz-adv-x="427"
d="M372 140c-6 -105 -92 -208 -192 -208c-46 0 -82 25 -82 68c0 31 24 78 56 94c47 22 69 43 69 81c0 52 -57 125 -110 167c-51 46 -73 84 -73 122c0 98 150 280 322 322c9 5 15 11 30 11c52 0 95 -37 95 -63c0 -33 -33 -45 -57 -55c-65 -27 -120 -67 -179 -102
c-35 -21 -75 -63 -75 -104c0 -18 8 -37 28 -53c83 -68 169 -167 169 -265c0 -5 -1 -10 -1 -15zM112 -185c0 59 33 71 81 71c33 0 69 -43 69 -84c0 -63 -23 -146 -80 -165c-2 -1 -4 -1 -5 -1c-12 0 -34 9 -34 31c0 20 35 43 35 63c0 4 -1 8 -6 11c-39 10 -60 35 -60 74z" />
    <glyph glyph-name="Tcaron" unicode="&#x164;" horiz-adv-x="572"
d="M192 296h1c-2 -61 -9 -124 -9 -187c0 -48 32 -75 87 -75c58 0 66 56 69 136c3 97 -1 193 14 291c7 48 6 55 42 55c34 0 73 -3 109 -3c28 0 87 1 87 50c0 30 -46 57 -67 59c-12 -1 -23 -1 -34 -1c-114 0 -223 36 -337 36c-53 0 -154 -15 -154 -69c0 -45 47 -56 88 -56
c26 0 57 6 78 6c29 0 36 -12 36 -49c0 -62 -7 -128 -10 -193zM299 708c-40 3 -107 86 -107 129c0 30 24 55 57 55c25 0 43 -36 66 -64c21 18 48 59 80 59c35 0 58 -26 58 -55c0 -21 -11 -43 -38 -59c-21 -22 -74 -65 -116 -65z" />
    <glyph glyph-name="Tcommaaccent" unicode="&#x162;" horiz-adv-x="572"
d="M192 296c3 65 10 131 10 193c0 37 -7 49 -36 49c-21 0 -52 -6 -78 -6c-41 0 -88 11 -88 56c0 54 101 69 154 69c114 0 223 -36 337 -36c11 0 22 0 34 1c21 -2 67 -29 67 -59c0 -49 -59 -50 -87 -50c-36 0 -75 3 -109 3c-36 0 -35 -7 -42 -55c-15 -98 -11 -194 -14 -291
c-3 -80 -11 -136 -69 -136c-55 0 -87 27 -87 75c0 63 7 126 9 187h-1zM180 -99c0 59 33 71 81 71c33 0 69 -43 69 -84c0 -63 -23 -146 -80 -165c-2 -1 -4 -1 -5 -1c-12 0 -34 9 -34 31c0 20 35 43 35 63c0 4 -1 8 -6 11c-39 10 -60 35 -60 74z" />
    <glyph glyph-name="Yacute" unicode="&#xdd;" horiz-adv-x="459"
d="M203 86l-26 203c-17 121 -157 214 -157 312c0 38 27 65 63 65c64 0 112 -97 148 -159c24 57 60 109 96 159c19 17 40 24 58 24c36 0 64 -27 64 -67c0 -12 -3 -25 -8 -38c-71 -78 -124 -167 -124 -278c0 -80 22 -142 25 -216c-2 -52 -36 -78 -69 -78c-32 0 -64 24 -70 73z
M309 898c49 0 77 -25 77 -60c0 -26 -18 -56 -61 -70l-5 -4c-22 -19 -52 -39 -82 -39c-41 0 -66 30 -66 61c0 22 12 45 40 59h-1c0 3 79 48 98 53z" />
    <glyph glyph-name="dotlessi" unicode="&#x131;" horiz-adv-x="237"
d="M120 201c49 -5 87 -66 87 -117c0 -34 -31 -75 -70 -75c-47 0 -87 64 -87 127c0 52 31 65 70 65z" />
    <glyph glyph-name="Ydieresis" unicode="&#x178;" horiz-adv-x="459"
d="M203 86l-26 203c-17 121 -157 214 -157 312c0 38 27 65 63 65c64 0 112 -97 148 -159c24 57 60 109 96 159c19 17 40 24 58 24c36 0 64 -27 64 -67c0 -12 -3 -25 -8 -38c-71 -78 -124 -167 -124 -278c0 -80 22 -142 25 -216c-2 -52 -36 -78 -69 -78c-32 0 -64 24 -70 73z
M84 758c-15 17 -24 39 -24 61c0 34 28 71 74 71c57 0 74 -39 74 -79s-32 -75 -71 -75c-17 0 -35 6 -53 22zM374 868c15 -17 24 -39 24 -61c0 -34 -28 -71 -74 -71c-57 0 -74 39 -74 79s32 75 71 75c17 0 35 -6 53 -22z" />
    <glyph glyph-name="igrave" unicode="&#xec;" horiz-adv-x="238"
d="M121 201c49 -5 87 -66 87 -117c0 -34 -31 -75 -70 -75c-47 0 -87 64 -87 127c0 52 31 65 70 65zM41 519c0 26 12 38 35 38c54 0 88 -64 88 -111c0 -35 -21 -52 -40 -52c-43 0 -84 59 -84 112c0 4 0 9 1 13z" />
    <glyph glyph-name="iacute" unicode="&#xed;" horiz-adv-x="243"
d="M120 201c-39 0 -70 -13 -70 -65c0 -63 40 -127 87 -127c39 0 70 41 70 75c0 51 -38 112 -87 117zM196 556c49 0 77 -25 77 -60c0 -26 -18 -56 -61 -70l-5 -4c-22 -19 -52 -39 -82 -39c-41 0 -66 30 -66 61c0 22 12 45 40 59h-1c0 3 79 48 98 53z" />
    <glyph glyph-name="icircumflex" unicode="&#xee;" horiz-adv-x="241"
d="M122 201c-39 0 -70 -13 -70 -65c0 -63 40 -127 87 -127c39 0 70 41 70 75c0 51 -38 112 -87 117zM144 578c40 -3 107 -86 107 -129c0 -30 -24 -55 -57 -55c-25 0 -43 36 -66 64c-21 -18 -48 -59 -80 -59c-35 0 -58 26 -58 55c0 21 11 43 38 59c21 22 74 65 116 65z" />
    <glyph glyph-name="idieresis" unicode="&#xef;" horiz-adv-x="238"
d="M120 201c-39 0 -70 -13 -70 -65c0 -63 40 -127 87 -127c39 0 70 41 70 75c0 51 -38 112 -87 117zM-26 398c-15 17 -24 39 -24 61c0 34 28 71 74 71c57 0 74 -39 74 -79s-32 -75 -71 -75c-17 0 -35 6 -53 22zM264 508c15 -17 24 -39 24 -61c0 -34 -28 -71 -74 -71
c-57 0 -74 39 -74 79s32 75 71 75c17 0 35 -6 53 -22z" />
    <glyph glyph-name="imacron" unicode="&#x12b;" horiz-adv-x="237"
d="M120 201c-39 0 -70 -13 -70 -65c0 -63 40 -127 87 -127c39 0 70 41 70 75c0 51 -38 112 -87 117zM13 402c-49 6 -63 29 -63 60c0 34 16 57 68 59c70 -2 148 0 217 -3c42 -12 52 -31 52 -59c0 -31 -13 -50 -57 -60c-69 3 -148 0 -217 3z" />
    <glyph glyph-name="iogonek" unicode="&#x12f;" horiz-adv-x="240"
d="M10 -127c0 60 43 110 84 154c-26 24 -43 67 -43 109c0 52 31 65 70 65c49 -5 87 -66 87 -117c0 -14 -5 -29 -68 -128c-12 -18 -18 -33 -17 -44c0 -49 107 -34 107 -86c0 -31 -13 -50 -57 -60c-83 0 -163 10 -163 107zM198 475c-5 -42 -34 -76 -67 -76
c-43 0 -79 35 -79 71c0 39 32 74 72 74c37 0 74 -39 74 -69z" />
    <glyph glyph-name="nacute" unicode="&#x144;" horiz-adv-x="543"
d="M296 206c32 -93 61 -238 184 -238c30 0 63 24 63 56c0 21 -19 34 -38 40c-56 17 -65 59 -65 105c0 55 -44 153 -121 153s-103 -99 -180 -117c-65 -16 -109 -85 -109 -153c0 -55 19 -107 80 -107c104 0 79 214 186 261zM324 567c49 0 77 -25 77 -60c0 -26 -18 -56 -61 -70
l-5 -4c-22 -19 -52 -39 -82 -39c-41 0 -66 30 -66 61c0 22 12 45 40 59h-1c0 3 79 48 98 53z" />
    <glyph glyph-name="ncaron" unicode="&#x148;" horiz-adv-x="543"
d="M296 206c32 -93 61 -238 184 -238c30 0 63 24 63 56c0 21 -19 34 -38 40c-56 17 -65 59 -65 105c0 55 -44 153 -121 153s-103 -99 -180 -117c-65 -16 -109 -85 -109 -153c0 -55 19 -107 80 -107c104 0 79 214 186 261zM244 404c-40 3 -107 86 -107 129c0 30 24 55 57 55
c25 0 43 -36 66 -64c21 18 48 59 80 59c35 0 58 -26 58 -55c0 -21 -11 -43 -38 -59c-21 -22 -74 -65 -116 -65z" />
    <glyph glyph-name="ncommaaccent" unicode="&#x146;" horiz-adv-x="543"
d="M296 206c-107 -47 -82 -261 -186 -261c-61 0 -80 52 -80 107c0 68 44 137 109 153c77 18 103 117 180 117s121 -98 121 -153c0 -46 9 -88 65 -105c19 -6 38 -19 38 -40c0 -32 -33 -56 -63 -56c-123 0 -152 145 -184 238zM206 -156c0 59 33 71 81 71c33 0 69 -43 69 -84
c0 -63 -23 -146 -80 -165c-2 -1 -4 -1 -5 -1c-12 0 -34 9 -34 31c0 20 35 43 35 63c0 4 -1 8 -6 11c-39 10 -60 35 -60 74z" />
    <glyph glyph-name="ntilde" unicode="&#xf1;" horiz-adv-x="543"
d="M296 206c32 -93 61 -238 184 -238c30 0 63 24 63 56c0 21 -19 34 -38 40c-56 17 -65 59 -65 105c0 55 -44 153 -121 153s-103 -99 -180 -117c-65 -16 -109 -85 -109 -153c0 -55 19 -107 80 -107c104 0 79 214 186 261zM438 524c0 -61 -40 -110 -103 -110
c-47 0 -69 44 -86 44c-15 0 -46 -46 -70 -46c-32 0 -63 25 -68 73c6 53 41 119 102 119c47 0 69 -51 82 -51s36 50 65 50c41 0 78 -36 78 -79z" />
    <glyph glyph-name="ograve" unicode="&#xf2;" horiz-adv-x="361"
d="M201 272c61 0 110 -60 110 -122c-3 -70 -66 -130 -139 -130c-75 0 -122 46 -122 106c0 107 50 146 151 146zM112 526c0 26 12 38 35 38c54 0 88 -64 88 -111c0 -35 -21 -52 -40 -52c-43 0 -84 59 -84 112c0 4 0 9 1 13z" />
    <glyph glyph-name="oacute" unicode="&#xf3;" horiz-adv-x="362"
d="M201 272c-101 0 -151 -39 -151 -146c0 -60 47 -106 122 -106c73 0 136 60 139 130c0 62 -49 122 -110 122zM285 569c49 0 77 -25 77 -60c0 -26 -18 -56 -61 -70l-5 -4c-22 -19 -52 -39 -82 -39c-41 0 -66 30 -66 61c0 22 12 45 40 59h-1c0 3 79 48 98 53z" />
    <glyph glyph-name="ocircumflex" unicode="&#xf4;" horiz-adv-x="362"
d="M201 272c-101 0 -151 -39 -151 -146c0 -60 47 -106 122 -106c73 0 136 60 139 130c0 62 -49 122 -110 122zM215 566c40 -3 107 -86 107 -129c0 -30 -24 -55 -57 -55c-25 0 -43 36 -66 64c-21 -18 -48 -59 -80 -59c-35 0 -58 26 -58 55c0 21 11 43 38 59
c21 22 74 65 116 65z" />
    <glyph glyph-name="odieresis" unicode="&#xf6;" horiz-adv-x="363"
d="M201 272c-101 0 -151 -39 -151 -146c0 -60 47 -106 122 -106c73 0 136 60 139 130c0 62 -49 122 -110 122zM59 423c-15 17 -24 39 -24 61c0 34 28 71 74 71c57 0 74 -39 74 -79s-32 -75 -71 -75c-17 0 -35 6 -53 22zM349 533c15 -17 24 -39 24 -61c0 -34 -28 -71 -74 -71
c-57 0 -74 39 -74 79s32 75 71 75c17 0 35 -6 53 -22z" />
    <glyph glyph-name="ohungarumlaut" unicode="&#x151;" horiz-adv-x="365"
d="M201 272c-101 0 -151 -39 -151 -146c0 -60 47 -106 122 -106c73 0 136 60 139 130c0 62 -49 122 -110 122zM160 589c54 0 75 -19 75 -56c0 -51 -113 -145 -141 -145c-35 0 -54 18 -54 56c0 45 57 126 120 145zM350 589c54 0 75 -19 75 -56c0 -51 -113 -145 -141 -145
c-35 0 -54 18 -54 56c0 45 57 126 120 145z" />
    <glyph glyph-name="omacron" unicode="&#x14d;" horiz-adv-x="362"
d="M202 272c-101 0 -151 -39 -151 -146c0 -60 47 -106 122 -106c73 0 136 60 139 130c0 62 -49 122 -110 122zM98 398c-49 6 -63 29 -63 60c0 34 16 57 68 59c70 -2 148 0 217 -3c42 -12 52 -31 52 -59c0 -31 -13 -50 -57 -60c-69 3 -148 0 -217 3z" />
    <glyph glyph-name="otilde" unicode="&#xf5;" horiz-adv-x="357"
d="M200 272c-101 0 -151 -39 -151 -146c0 -60 47 -106 122 -106c73 0 136 60 139 130c0 62 -49 122 -110 122zM367 501c0 -61 -40 -110 -103 -110c-47 0 -69 44 -86 44c-15 0 -46 -46 -70 -46c-32 0 -63 25 -68 73c6 53 41 119 102 119c47 0 69 -51 82 -51s36 50 65 50
c41 0 78 -36 78 -79z" />
    <glyph glyph-name="racute" unicode="&#x155;" horiz-adv-x="459"
d="M434 461c-29 -5 -58 -12 -87 -12c-16 0 -32 5 -48 5c-35 0 -64 -15 -92 -32c-63 -39 -157 -83 -157 -130c0 -5 0 -9 2 -13c8 -26 10 -51 10 -76c0 -14 -1 -29 -1 -43c0 -19 0 -38 5 -57c8 -34 55 -68 88 -68c37 0 69 35 71 75c1 43 10 83 22 124c23 78 54 102 140 109
c24 2 51 -1 72 15c20 15 50 25 50 49c0 39 -46 45 -75 54zM339 708c49 0 77 -25 77 -60c0 -26 -18 -56 -61 -70l-5 -4c-22 -19 -52 -39 -82 -39c-41 0 -66 30 -66 61c0 22 12 45 40 59h-1c0 3 79 48 98 53z" />
    <glyph glyph-name="rcaron" unicode="&#x159;" horiz-adv-x="459"
d="M434 461c-29 -5 -58 -12 -87 -12c-16 0 -32 5 -48 5c-35 0 -64 -15 -92 -32c-63 -39 -157 -83 -157 -130c0 -5 0 -9 2 -13c8 -26 10 -51 10 -76c0 -14 -1 -29 -1 -43c0 -19 0 -38 5 -57c8 -34 55 -68 88 -68c37 0 69 35 71 75c1 43 10 83 22 124c23 78 54 102 140 109
c24 2 51 -1 72 15c20 15 50 25 50 49c0 39 -46 45 -75 54zM286 514c-40 3 -107 86 -107 129c0 30 24 55 57 55c25 0 43 -36 66 -64c21 18 48 59 80 59c35 0 58 -26 58 -55c0 -21 -11 -43 -38 -59c-21 -22 -74 -65 -116 -65z" />
    <glyph glyph-name="rcommaaccent" unicode="&#x157;" horiz-adv-x="458"
d="M433 461c29 -9 75 -15 75 -54c0 -24 -30 -34 -50 -49c-21 -16 -48 -13 -72 -15c-86 -7 -117 -31 -140 -109c-12 -41 -21 -81 -22 -124c-2 -40 -34 -75 -71 -75c-33 0 -80 34 -88 68c-5 19 -5 38 -5 57c0 14 1 29 1 43c0 25 -2 50 -10 76c-2 4 -2 8 -2 13
c0 47 94 91 157 130c28 17 57 32 92 32c16 0 32 -5 48 -5c29 0 58 7 87 12zM45 -128c0 59 33 71 81 71c33 0 69 -43 69 -84c0 -63 -23 -146 -80 -165c-2 -1 -4 -1 -5 -1c-12 0 -34 9 -34 31c0 20 35 43 35 63c0 4 -1 8 -6 11c-39 10 -60 35 -60 74z" />
    <glyph glyph-name="sacute" unicode="&#x15b;" horiz-adv-x="301"
d="M113 -90c47 0 133 38 133 117c0 24 -11 48 -29 69c-31 44 -47 68 -47 89c0 22 20 43 62 77c21 17 33 31 33 51c0 31 -26 59 -63 59c-14 0 -27 -4 -40 -10c-75 -35 -122 -114 -122 -196c0 -31 7 -63 21 -90c7 -13 10 -23 10 -33c0 -20 -25 -54 -25 -76
c0 -31 25 -53 67 -57zM264 629c49 0 77 -25 77 -60c0 -26 -18 -56 -61 -70l-5 -4c-22 -19 -52 -39 -82 -39c-41 0 -66 30 -66 61c0 22 12 45 40 59h-1c0 3 79 48 98 53z" />
    <glyph glyph-name="scaron" unicode="&#x161;" horiz-adv-x="304"
d="M113 -90c47 0 133 38 133 117c0 24 -11 48 -29 69c-31 44 -47 68 -47 89c0 22 20 43 62 77c21 17 33 31 33 51c0 31 -26 59 -63 59c-14 0 -27 -4 -40 -10c-75 -35 -122 -114 -122 -196c0 -31 7 -63 21 -90c7 -13 10 -23 10 -33c0 -20 -25 -54 -25 -76
c0 -31 25 -53 67 -57zM190 447c-40 3 -107 86 -107 129c0 30 24 55 57 55c25 0 43 -36 66 -64c21 18 48 59 80 59c35 0 58 -26 58 -55c0 -21 -11 -43 -38 -59c-21 -22 -74 -65 -116 -65z" />
    <glyph glyph-name="scedilla" unicode="&#x15f;" horiz-adv-x="306"
d="M158 -215l-40 -5c-44 0 -55 25 -55 53s5 49 18 85c-23 9 -35 27 -35 49s25 56 25 76c0 10 -3 20 -10 33c-14 27 -21 59 -21 90c0 82 47 161 122 196c13 6 26 10 40 10c37 0 63 -28 63 -59c0 -20 -12 -34 -33 -51c-42 -34 -62 -55 -62 -77c0 -21 16 -45 47 -89
c18 -21 29 -45 29 -69c0 -56 -44 -92 -87 -108c-1 -13 -2 -26 -6 -40c75 0 133 -35 133 -113c0 -89 -74 -111 -164 -111c-50 7 -64 19 -64 50c0 11 8 41 50 50h47c15 3 21 11 21 18c0 9 -8 12 -18 12z" />
    <glyph glyph-name="scommaaccent" unicode="&#x219;" horiz-adv-x="305"
d="M113 -90c-42 4 -67 26 -67 57c0 22 25 56 25 76c0 10 -3 20 -10 33c-14 27 -21 59 -21 90c0 82 47 161 122 196c13 6 26 10 40 10c37 0 63 -28 63 -59c0 -20 -12 -34 -33 -51c-42 -34 -62 -55 -62 -77c0 -21 16 -45 47 -89c18 -21 29 -45 29 -69
c0 -79 -86 -117 -133 -117zM47 -206c0 59 33 71 81 71c33 0 69 -43 69 -84c0 -63 -23 -146 -80 -165c-2 -1 -4 -1 -5 -1c-12 0 -34 9 -34 31c0 20 35 43 35 63c0 4 -1 8 -6 11c-39 10 -60 35 -60 74z" />
    <glyph glyph-name="tcaron" unicode="&#x165;" horiz-adv-x="537"
d="M545 315c-30 25 -61 39 -92 49c-67 21 -66 21 -68 91c-2 57 -7 113 -43 163c-17 24 -37 51 -69 51c-55 0 -60 -44 -60 -73c0 -54 14 -110 14 -165c0 -116 -227 6 -227 -139c0 -50 62 -78 106 -78c34 0 73 12 104 12c30 0 36 -16 36 -61c0 -24 -4 -46 -4 -69
c0 -45 39 -64 73 -64c49 0 68 67 68 113c0 15 -4 32 -4 48c0 29 16 47 50 53c44 8 84 31 116 69zM487 615c0 59 33 71 81 71c33 0 69 -43 69 -84c0 -63 -23 -146 -80 -165c-2 -1 -4 -1 -5 -1c-12 0 -34 9 -34 31c0 20 35 43 35 63c0 4 -1 8 -6 11c-39 10 -60 35 -60 74z" />
    <glyph glyph-name="tcommaaccent" unicode="&#x163;" horiz-adv-x="545"
d="M545 315c-32 -38 -72 -61 -116 -69c-34 -6 -50 -24 -50 -53c0 -16 4 -33 4 -48c0 -46 -19 -113 -68 -113c-34 0 -73 19 -73 64c0 23 4 45 4 69c0 45 -6 61 -36 61c-31 0 -70 -12 -104 -12c-44 0 -106 28 -106 78c0 145 227 23 227 139c0 55 -14 111 -14 165
c0 29 5 73 60 73c32 0 52 -27 69 -51c36 -50 41 -106 43 -163c2 -70 1 -70 68 -91c31 -10 62 -24 92 -49zM231 -116c0 59 33 71 81 71c33 0 69 -43 69 -84c0 -63 -23 -146 -80 -165c-2 -1 -4 -1 -5 -1c-12 0 -34 9 -34 31c0 20 35 43 35 63c0 4 -1 8 -6 11
c-39 10 -60 35 -60 74z" />
    <glyph glyph-name="yacute" unicode="&#xfd;" horiz-adv-x="540"
d="M326 140c4 -23 6 -44 6 -65c0 -41 -6 -79 -14 -115c-18 -82 -39 -166 -59 -247c-3 -11 -6 -23 -6 -35c0 -39 44 -53 78 -53c46 0 90 28 90 74c0 42 9 81 19 120c34 106 50 214 50 324c0 56 -4 114 -12 171c-3 56 -59 112 -100 112c-23 0 -45 -13 -62 -39
c-31 -46 -71 -82 -120 -123c1 20 3 36 3 51c0 47 -34 86 -76 86c-36 0 -67 -29 -72 -71c-8 -75 -21 -152 -21 -225c0 -71 47 -111 121 -111c49 0 74 35 102 67c23 26 32 61 73 79zM360 670c49 0 77 -25 77 -60c0 -26 -18 -56 -61 -70l-5 -4c-22 -19 -52 -39 -82 -39
c-41 0 -66 30 -66 61c0 22 12 45 40 59h-1c0 3 79 48 98 53z" />
    <glyph glyph-name="ydieresis" unicode="&#xff;" horiz-adv-x="540"
d="M326 140c4 -23 6 -44 6 -65c0 -41 -6 -79 -14 -115c-18 -82 -39 -166 -59 -247c-3 -11 -6 -23 -6 -35c0 -39 44 -53 78 -53c46 0 90 28 90 74c0 42 9 81 19 120c34 106 50 214 50 324c0 56 -4 114 -12 171c-3 56 -59 112 -100 112c-23 0 -45 -13 -62 -39
c-31 -46 -71 -82 -120 -123c1 20 3 36 3 51c0 47 -34 86 -76 86c-36 0 -67 -29 -72 -71c-8 -75 -21 -152 -21 -225c0 -71 47 -111 121 -111c49 0 74 35 102 67c23 26 32 61 73 79zM148 531c-15 17 -24 39 -24 61c0 34 28 71 74 71c57 0 74 -39 74 -79s-32 -75 -71 -75
c-17 0 -35 6 -53 22zM438 641c15 -17 24 -39 24 -61c0 -34 -28 -71 -74 -71c-57 0 -74 39 -74 79s32 75 71 75c17 0 35 -6 53 -22z" />
    <glyph glyph-name="Ugrave" unicode="&#xd9;" horiz-adv-x="638"
d="M144 689c53 0 84 -28 84 -65c0 -51 -18 -126 -18 -168c0 -16 -6 -310 131 -310c80 0 108 74 108 136c0 65 -20 127 -33 190c-10 49 -14 91 -18 140c10 44 40 67 70 67c28 0 57 -20 69 -62c9 -109 51 -213 51 -324c0 -165 -98 -285 -234 -285c-195 0 -284 198 -284 372
c0 70 2 119 4 182c2 60 0 107 70 127zM253 876c0 26 12 38 35 38c54 0 88 -64 88 -111c0 -35 -21 -52 -40 -52c-43 0 -84 59 -84 112c0 4 0 9 1 13z" />
    <glyph glyph-name="Uacute" unicode="&#xda;" horiz-adv-x="638"
d="M144 689c53 0 84 -28 84 -65c0 -51 -18 -126 -18 -168c0 -16 -6 -310 131 -310c80 0 108 74 108 136c0 65 -20 127 -33 190c-10 49 -14 91 -18 140c10 44 40 67 70 67c28 0 57 -20 69 -62c9 -109 51 -213 51 -324c0 -165 -98 -285 -234 -285c-195 0 -284 198 -284 372
c0 70 2 119 4 182c2 60 0 107 70 127zM409 927c49 0 77 -25 77 -60c0 -26 -18 -56 -61 -70l-5 -4c-22 -19 -52 -39 -82 -39c-41 0 -66 30 -66 61c0 22 12 45 40 59h-1c0 3 79 48 98 53z" />
    <glyph glyph-name="Ucircumflex" unicode="&#xdb;" horiz-adv-x="638"
d="M144 689c53 0 84 -28 84 -65c0 -51 -18 -126 -18 -168c0 -16 -6 -310 131 -310c80 0 108 74 108 136c0 65 -20 127 -33 190c-10 49 -14 91 -18 140c10 44 40 67 70 67c28 0 57 -20 69 -62c9 -109 51 -213 51 -324c0 -165 -98 -285 -234 -285c-195 0 -284 198 -284 372
c0 70 2 119 4 182c2 60 0 107 70 127zM352 918c40 -3 107 -86 107 -129c0 -30 -24 -55 -57 -55c-25 0 -43 36 -66 64c-21 -18 -48 -59 -80 -59c-35 0 -58 26 -58 55c0 21 11 43 38 59c21 22 74 65 116 65z" />
    <glyph glyph-name="Udieresis" unicode="&#xdc;" horiz-adv-x="638"
d="M144 689c53 0 84 -28 84 -65c0 -51 -18 -126 -18 -168c0 -16 -6 -310 131 -310c80 0 108 74 108 136c0 65 -20 127 -33 190c-10 49 -14 91 -18 140c10 44 40 67 70 67c28 0 57 -20 69 -62c9 -109 51 -213 51 -324c0 -165 -98 -285 -234 -285c-195 0 -284 198 -284 372
c0 70 2 119 4 182c2 60 0 107 70 127zM179 771c-15 17 -24 39 -24 61c0 34 28 71 74 71c57 0 74 -39 74 -79s-32 -75 -71 -75c-17 0 -35 6 -53 22zM469 881c15 -17 24 -39 24 -61c0 -34 -28 -71 -74 -71c-57 0 -74 39 -74 79s32 75 71 75c17 0 35 -6 53 -22z" />
    <glyph glyph-name="Uhungarumlaut" unicode="&#x170;" horiz-adv-x="638"
d="M144 689c53 0 84 -28 84 -65c0 -51 -18 -126 -18 -168c0 -16 -6 -310 131 -310c80 0 108 74 108 136c0 65 -20 127 -33 190c-10 49 -14 91 -18 140c10 44 40 67 70 67c28 0 57 -20 69 -62c9 -109 51 -213 51 -324c0 -165 -98 -285 -234 -285c-195 0 -284 198 -284 372
c0 70 2 119 4 182c2 60 0 107 70 127zM291 948c54 0 75 -19 75 -56c0 -51 -113 -145 -141 -145c-35 0 -54 18 -54 56c0 45 57 126 120 145zM481 948c54 0 75 -19 75 -56c0 -51 -113 -145 -141 -145c-35 0 -54 18 -54 56c0 45 57 126 120 145z" />
    <glyph glyph-name="Umacron" unicode="&#x16a;" horiz-adv-x="638"
d="M144 689c53 0 84 -28 84 -65c0 -51 -18 -126 -18 -168c0 -16 -6 -310 131 -310c80 0 108 74 108 136c0 65 -20 127 -33 190c-10 49 -14 91 -18 140c10 44 40 67 70 67c28 0 57 -20 69 -62c9 -109 51 -213 51 -324c0 -165 -98 -285 -234 -285c-195 0 -284 198 -284 372
c0 70 2 119 4 182c2 60 0 107 70 127zM222 773c-49 6 -63 29 -63 60c0 34 16 57 68 59c70 -2 148 0 217 -3c42 -12 52 -31 52 -59c0 -31 -13 -50 -57 -60c-69 3 -148 0 -217 3z" />
    <glyph glyph-name="Uogonek" unicode="&#x172;" horiz-adv-x="638"
d="M255 -121c0 50 29 93 63 131c-170 23 -248 207 -248 370c0 70 2 119 4 182c2 60 0 107 70 127c53 0 84 -28 84 -65c0 -51 -18 -126 -18 -168c0 -16 -6 -310 131 -310c80 0 108 74 108 136c0 65 -20 127 -33 190c-10 49 -14 91 -18 140c10 44 40 67 70 67
c28 0 57 -20 69 -62c9 -109 51 -213 51 -324c0 -137 -67 -243 -168 -275l-35 -56c-12 -18 -18 -33 -17 -44c0 -49 107 -34 107 -86c0 -31 -13 -50 -57 -60c-83 0 -163 10 -163 107z" />
    <glyph glyph-name="Uring" unicode="&#x16e;" horiz-adv-x="638"
d="M144 689c53 0 84 -28 84 -65c0 -51 -18 -126 -18 -168c0 -16 -6 -310 131 -310c80 0 108 74 108 136c0 65 -20 127 -33 190c-10 49 -14 91 -18 140c10 44 40 67 70 67c28 0 57 -20 69 -62c9 -109 51 -213 51 -324c0 -165 -98 -285 -234 -285c-195 0 -284 198 -284 372
c0 70 2 119 4 182c2 60 0 107 70 127zM326 979c60 -20 139 -55 139 -134c0 -63 -71 -121 -134 -121c-81 0 -134 51 -134 110c0 39 21 102 58 131c20 16 48 14 71 14zM356 838c0 13 -20 37 -35 37c-11 0 -19 -14 -19 -27c0 -17 14 -29 30 -29c12 0 24 7 24 19z" />
    <glyph glyph-name="Zacute" unicode="&#x179;" horiz-adv-x="553"
d="M53 520c-49 6 -73 38 -73 70s26 67 78 69c8 -2 18 -2 31 -2c51 0 137 10 217 10c103 0 198 -17 198 -98c0 -116 -128 -236 -220 -380c-13 -20 -30 -39 -30 -49c0 -6 5 -10 18 -10c3 0 7 1 11 1c84 5 147 6 208 7c42 -12 62 -41 62 -69c0 -30 -23 -60 -67 -70
c-81 -2 -162 -9 -243 -9c-83 0 -187 -1 -187 75c0 87 179 303 259 422c11 17 22 27 22 33c0 4 -8 6 -29 6c-78 0 -179 -5 -255 -6zM332 917c49 0 77 -25 77 -60c0 -26 -18 -56 -61 -70l-5 -4c-22 -19 -52 -39 -82 -39c-41 0 -66 30 -66 61c0 22 12 45 40 59h-1
c0 3 79 48 98 53z" />
    <glyph glyph-name="Zcaron" unicode="&#x17d;" horiz-adv-x="553"
d="M53 520c-49 6 -73 38 -73 70s26 67 78 69c8 -2 18 -2 31 -2c51 0 137 10 217 10c103 0 198 -17 198 -98c0 -116 -128 -236 -220 -380c-13 -20 -30 -39 -30 -49c0 -6 5 -10 18 -10c3 0 7 1 11 1c84 5 147 6 208 7c42 -12 62 -41 62 -69c0 -30 -23 -60 -67 -70
c-81 -2 -162 -9 -243 -9c-83 0 -187 -1 -187 75c0 87 179 303 259 422c11 17 22 27 22 33c0 4 -8 6 -29 6c-78 0 -179 -5 -255 -6zM249 734c-40 3 -107 86 -107 129c0 30 24 55 57 55c25 0 43 -36 66 -64c21 18 48 59 80 59c35 0 58 -26 58 -55c0 -21 -11 -43 -38 -59
c-21 -22 -74 -65 -116 -65z" />
    <glyph glyph-name="Zdotaccent" unicode="&#x17b;" horiz-adv-x="553"
d="M53 520c-49 6 -73 38 -73 70s26 67 78 69c8 -2 18 -2 31 -2c51 0 137 10 217 10c103 0 198 -17 198 -98c0 -116 -128 -236 -220 -380c-13 -20 -30 -39 -30 -49c0 -6 5 -10 18 -10c3 0 7 1 11 1c84 5 147 6 208 7c42 -12 62 -41 62 -69c0 -30 -23 -60 -67 -70
c-81 -2 -162 -9 -243 -9c-83 0 -187 -1 -187 75c0 87 179 303 259 422c11 17 22 27 22 33c0 4 -8 6 -29 6c-78 0 -179 -5 -255 -6zM305 878c15 -17 24 -39 24 -61c0 -34 -28 -71 -74 -71c-57 0 -74 39 -74 79s32 75 71 75c17 0 35 -6 53 -22z" />
    <glyph glyph-name="ugrave" unicode="&#xf9;" horiz-adv-x="409"
d="M50 229c11 59 9 148 76 148c38 0 79 -38 79 -87c-5 -28 -19 -58 -19 -89c0 -10 7 -22 20 -22c48 0 61 171 129 171c28 0 74 -30 74 -76c0 -5 -1 -10 -3 -14c-39 -103 -105 -249 -217 -249c-99 0 -139 90 -139 159c0 19 3 39 4 59h-4zM173 567c0 26 12 38 35 38
c54 0 88 -64 88 -111c0 -35 -21 -52 -40 -52c-43 0 -84 59 -84 112c0 4 0 9 1 13z" />
    <glyph glyph-name="uacute" unicode="&#xfa;" horiz-adv-x="408"
d="M50 229h4c-1 -20 -4 -40 -4 -59c0 -69 40 -159 139 -159c112 0 178 146 217 249c2 4 3 9 3 14c0 46 -46 76 -74 76c-68 0 -81 -171 -129 -171c-13 0 -20 12 -20 22c0 31 14 61 19 89c0 49 -41 87 -79 87c-67 0 -65 -89 -76 -148zM351 599c49 0 77 -25 77 -60
c0 -26 -18 -56 -61 -70l-5 -4c-22 -19 -52 -39 -82 -39c-41 0 -66 30 -66 61c0 22 12 45 40 59h-1c0 3 79 48 98 53z" />
    <glyph glyph-name="ucircumflex" unicode="&#xfb;" horiz-adv-x="409"
d="M50 229h4c-1 -20 -4 -40 -4 -59c0 -69 40 -159 139 -159c112 0 178 146 217 249c2 4 3 9 3 14c0 46 -46 76 -74 76c-68 0 -81 -171 -129 -171c-13 0 -20 12 -20 22c0 31 14 61 19 89c0 49 -41 87 -79 87c-67 0 -65 -89 -76 -148zM287 620c40 -3 107 -86 107 -129
c0 -30 -24 -55 -57 -55c-25 0 -43 36 -66 64c-21 -18 -48 -59 -80 -59c-35 0 -58 26 -58 55c0 21 11 43 38 59c21 22 74 65 116 65z" />
    <glyph glyph-name="udieresis" unicode="&#xfc;" horiz-adv-x="411"
d="M50 229h4c-1 -20 -4 -40 -4 -59c0 -69 40 -159 139 -159c112 0 178 146 217 249c2 4 3 9 3 14c0 46 -46 76 -74 76c-68 0 -81 -171 -129 -171c-13 0 -20 12 -20 22c0 31 14 61 19 89c0 49 -41 87 -79 87c-67 0 -65 -89 -76 -148zM117 467c-15 17 -24 39 -24 61
c0 34 28 71 74 71c57 0 74 -39 74 -79s-32 -75 -71 -75c-17 0 -35 6 -53 22zM407 577c15 -17 24 -39 24 -61c0 -34 -28 -71 -74 -71c-57 0 -74 39 -74 79s32 75 71 75c17 0 35 -6 53 -22z" />
    <glyph glyph-name="uhungarumlaut" unicode="&#x171;" horiz-adv-x="412"
d="M50 229h4c-1 -20 -4 -40 -4 -59c0 -69 40 -159 139 -159c112 0 178 146 217 249c2 4 3 9 3 14c0 46 -46 76 -74 76c-68 0 -81 -171 -129 -171c-13 0 -20 12 -20 22c0 31 14 61 19 89c0 49 -41 87 -79 87c-67 0 -65 -89 -76 -148zM237 630c54 0 75 -19 75 -56
c0 -51 -113 -145 -141 -145c-35 0 -54 18 -54 56c0 45 57 126 120 145zM427 630c54 0 75 -19 75 -56c0 -51 -113 -145 -141 -145c-35 0 -54 18 -54 56c0 45 57 126 120 145z" />
    <glyph glyph-name="umacron" unicode="&#x16b;" horiz-adv-x="410"
d="M50 229h4c-1 -20 -4 -40 -4 -59c0 -69 40 -159 139 -159c112 0 178 146 217 249c2 4 3 9 3 14c0 46 -46 76 -74 76c-68 0 -81 -171 -129 -171c-13 0 -20 12 -20 22c0 31 14 61 19 89c0 49 -41 87 -79 87c-67 0 -65 -89 -76 -148zM156 446c-49 6 -63 29 -63 60
c0 34 16 57 68 59c70 -2 148 0 217 -3c42 -12 52 -31 52 -59c0 -31 -13 -50 -57 -60c-69 3 -148 0 -217 3z" />
    <glyph glyph-name="uogonek" unicode="&#x173;" horiz-adv-x="409"
d="M62 -105c0 50 29 93 63 131c-53 28 -75 92 -75 144c0 19 3 39 4 59h-4c11 59 9 148 76 148c38 0 79 -38 79 -87c-5 -28 -19 -58 -19 -89c0 -10 7 -22 20 -22c48 0 61 171 129 171c28 0 74 -30 74 -76c0 -5 -1 -10 -3 -14c-36 -95 -95 -227 -192 -247l-22 -35
c-12 -18 -18 -33 -17 -44c0 -49 107 -34 107 -86c0 -31 -13 -50 -57 -60c-83 0 -163 10 -163 107z" />
    <glyph glyph-name="uring" unicode="&#x16f;" horiz-adv-x="405"
d="M50 229h4c-1 -20 -4 -40 -4 -59c0 -69 40 -159 139 -159c112 0 178 146 217 249c2 4 3 9 3 14c0 46 -46 76 -74 76c-68 0 -81 -171 -129 -171c-13 0 -20 12 -20 22c0 31 14 61 19 89c0 49 -41 87 -79 87c-67 0 -65 -89 -76 -148zM276 668c60 -20 139 -55 139 -134
c0 -63 -71 -121 -134 -121c-81 0 -134 51 -134 110c0 39 21 102 58 131c20 16 48 14 71 14zM306 527c0 13 -20 37 -35 37c-11 0 -19 -14 -19 -27c0 -17 14 -29 30 -29c12 0 24 7 24 19z" />
    <glyph glyph-name="zacute" unicode="&#x17a;" horiz-adv-x="431"
d="M391 290c0 89 -115 102 -213 102c-111 0 -158 -3 -158 -61c0 -60 39 -69 88 -69c18 0 36 1 51 1c19 0 32 -2 32 -12c0 -12 -55 -70 -130 -131c-16 -13 -24 -31 -24 -48c0 -30 22 -58 64 -62c61 -7 166 -14 229 -14c61 0 71 32 71 64c0 77 -131 47 -131 67c0 1 1 2 1 3
c20 50 120 80 120 160zM312 633c49 0 77 -25 77 -60c0 -26 -18 -56 -61 -70l-5 -4c-22 -19 -52 -39 -82 -39c-41 0 -66 30 -66 61c0 22 12 45 40 59h-1c0 3 79 48 98 53z" />
    <glyph glyph-name="zcaron" unicode="&#x17e;" horiz-adv-x="431"
d="M391 290c0 89 -115 102 -213 102c-111 0 -158 -3 -158 -61c0 -60 39 -69 88 -69c18 0 36 1 51 1c19 0 32 -2 32 -12c0 -12 -55 -70 -130 -131c-16 -13 -24 -31 -24 -48c0 -30 22 -58 64 -62c61 -7 166 -14 229 -14c61 0 71 32 71 64c0 77 -131 47 -131 67c0 1 1 2 1 3
c20 50 120 80 120 160zM222 454c-40 3 -107 86 -107 129c0 30 24 55 57 55c25 0 43 -36 66 -64c21 18 48 59 80 59c35 0 58 -26 58 -55c0 -21 -11 -43 -38 -59c-21 -22 -74 -65 -116 -65z" />
    <glyph glyph-name="zdotaccent" unicode="&#x17c;" horiz-adv-x="431"
d="M391 290c0 89 -115 102 -213 102c-111 0 -158 -3 -158 -61c0 -60 39 -69 88 -69c18 0 36 1 51 1c19 0 32 -2 32 -12c0 -12 -55 -70 -130 -131c-16 -13 -24 -31 -24 -48c0 -30 22 -58 64 -62c61 -7 166 -14 229 -14c61 0 71 32 71 64c0 77 -131 47 -131 67c0 1 1 2 1 3
c20 50 120 80 120 160zM285 598c15 -17 24 -39 24 -61c0 -34 -28 -71 -74 -71c-57 0 -74 39 -74 79s32 75 71 75c17 0 35 -6 53 -22z" />
    <glyph glyph-name="Dcroat" unicode="&#x110;" horiz-adv-x="618"
d="M73 232c-49 6 -73 39 -73 70c0 32 26 69 78 69h32v38c0 60 5 119 38 174c3 6 5 11 5 16c0 29 -49 54 -49 87c0 19 29 40 53 40s61 -25 85 -46c151 -136 346 -273 346 -482c0 -142 -103 -170 -218 -200c-5 -2 -10 -2 -14 -2c-32 0 -61 39 -61 68c0 42 72 62 111 94
c37 30 55 62 55 99c0 120 -130 214 -222 261c2 -18 2 -35 2 -53c0 -32 -2 -63 -5 -94h36c42 -12 62 -41 62 -69c0 -31 -23 -60 -67 -70h-38c0 -54 20 -116 24 -159c0 -37 -19 -60 -45 -60c-74 0 -93 122 -97 219h-38z" />
    <glyph glyph-name="at.cap" horiz-adv-x="778"
d="M257 376c0 51 43 138 97 138c17 0 34 -8 52 -28c11 29 39 39 68 39c78 0 51 -78 72 -127c8 -19 14 -28 22 -28c14 0 27 12 27 58c0 154 -114 186 -200 186c-140 0 -209 -110 -209 -270c0 -111 109 -189 206 -189c41 0 81 7 133 19c53 0 85 -28 85 -66
c0 -24 -14 -49 -45 -67c-63 -15 -121 -25 -180 -25c-180 0 -335 144 -335 329c0 204 114 409 353 409c168 0 325 -99 325 -296c0 -115 -40 -217 -168 -217c-34 0 -73 19 -91 38c-15 -14 -45 -32 -73 -32c-99 0 -139 65 -139 129z" />
    <glyph glyph-name="parenleft.cap" horiz-adv-x="468"
d="M338 730c55 0 85 -30 85 -67c0 -30 -22 -61 -67 -71c-109 -24 -156 -166 -156 -257c0 -131 100 -216 229 -291c27 -20 39 -44 39 -66c0 -35 -28 -65 -67 -65c-12 0 -29 3 -43 11c-150 84 -298 204 -298 412c0 146 74 300 196 373c19 11 73 19 82 21z" />
    <glyph glyph-name="parenright.cap" horiz-adv-x="420"
d="M97 601c-35 17 -50 43 -50 69c0 34 27 66 70 66c183 0 243 -231 243 -383c0 -172 -44 -279 -152 -390c-28 -29 -111 -44 -137 -44c-44 0 -71 32 -71 66c0 25 17 56 55 70c121 42 166 130 166 301c0 117 -26 226 -124 245z" />
    <glyph glyph-name="bracketleft.cap" horiz-adv-x="440"
d="M328 748c42 -12 62 -41 62 -69c0 -31 -23 -60 -67 -70c-40 1 -50 9 -89 14v-4c4 -146 10 -273 10 -409c0 -50 -1 -101 -3 -155c49 5 70 24 120 24c51 0 79 -33 79 -67c0 -30 -22 -61 -67 -71c-54 -5 -89 -27 -149 -27c-32 0 -63 6 -89 25c-31 22 -38 83 -38 140
c0 111 1 204 1 300c0 77 -1 156 -4 246c-7 26 -14 52 -14 79c8 42 34 65 74 65c5 0 11 0 17 -1h2c54 0 93 -17 155 -20z" />
    <glyph glyph-name="bracketright.cap" horiz-adv-x="440"
d="M112 -59c-42 12 -62 41 -62 69c0 31 23 60 67 70c40 -1 50 -9 89 -14v4c-4 146 -10 273 -10 409c0 50 1 101 3 155c-49 -5 -70 -24 -120 -24c-51 0 -79 33 -79 67c0 30 22 61 67 71c54 5 89 27 149 27c32 0 62 -6 89 -25c31 -22 38 -83 38 -140c0 -111 -2 -205 -2 -301
c0 -76 1 -155 5 -245c7 -26 14 -52 14 -79c-8 -42 -35 -65 -74 -65c-6 0 -11 0 -17 1h-2c-54 0 -93 17 -155 20z" />
    <glyph glyph-name="braceleft.cap" horiz-adv-x="432"
d="M255 765c44 0 141 -28 141 -86c0 -31 -23 -60 -67 -70c-13 0 -44 14 -66 14c-13 0 -23 -5 -23 -21c0 -67 48 -114 48 -192c0 -29 -16 -52 -27 -71c28 -38 45 -47 45 -116c0 -14 -4 -51 -4 -87c0 -35 4 -69 18 -75c38 -15 92 -21 92 -78c0 -34 -27 -67 -74 -67
c-123 0 -171 91 -171 209c0 13 3 36 3 59c0 40 -9 82 -56 82h-2c-47 6 -72 37 -72 69c0 26 18 54 56 69c16 1 47 1 47 31c0 45 -45 99 -45 179c0 79 77 151 157 151z" />
    <glyph glyph-name="braceright.cap" horiz-adv-x="432"
d="M177 -84c-44 0 -141 28 -141 86c0 31 23 60 67 70c13 0 44 -14 66 -14c13 0 23 5 23 21c0 67 -48 114 -48 192c0 29 16 52 27 71c-28 38 -45 47 -45 116c0 14 4 51 4 87c0 35 -4 69 -18 75c-38 15 -92 21 -92 78c0 34 27 67 74 67c123 0 171 -91 171 -209
c0 -13 -3 -36 -3 -60c0 -39 9 -81 56 -81h2c47 -6 72 -37 72 -69c0 -26 -18 -54 -56 -69c-16 -1 -47 -1 -47 -31c0 -45 45 -99 45 -179c0 -79 -77 -151 -157 -151z" />
    <glyph glyph-name="exclamdown.cap" horiz-adv-x="275"
d="M245 616c-5 -51 -49 -100 -87 -100c-32 0 -85 70 -85 103c8 42 56 80 102 80c50 0 70 -35 70 -83zM209 348l-31 -269c-11 -52 -37 -89 -92 -89c-36 0 -56 31 -56 74c0 142 35 205 45 297c4 35 14 89 62 89c54 0 72 -56 72 -102z" />
    <glyph glyph-name="questiondown.cap" horiz-adv-x="355"
d="M152 158c0 -42 203 -21 203 -123c0 -38 -29 -67 -71 -67c-95 0 -284 56 -284 161c0 106 111 94 111 176c0 19 -3 45 -11 71c6 51 39 75 72 75c29 0 67 -24 67 -75v-8c3 -30 5 -48 5 -66c0 -9 0 -17 -1 -26c-7 -80 -89 -94 -91 -118zM280 620c-9 -50 -56 -97 -94 -97
c-31 0 -77 67 -77 103c0 43 67 80 106 80c43 0 65 -30 65 -70v-10v-6z" />
    <glyph glyph-name="guillemotleft.cap" horiz-adv-x="491"
d="M40 298c0 56 47 124 74 178c13 36 41 53 68 53c34 0 67 -27 67 -78c0 -40 -47 -112 -65 -152c24 -30 48 -59 69 -93c13 -11 23 -34 23 -54c0 -35 -28 -65 -68 -65c-55 0 -71 44 -95 78c-33 45 -73 81 -73 133zM292 468c10 45 41 67 71 67c37 0 67 -30 67 -85
c-10 -50 -25 -94 -52 -140c27 -43 60 -83 73 -134c-2 -50 -33 -78 -67 -78c-31 0 -50 18 -79 69c-16 28 -71 88 -71 141c0 58 47 103 58 160z" />
    <glyph glyph-name="guillemotright.cap" horiz-adv-x="491"
d="M451 324c0 -56 -47 -124 -74 -178c-13 -36 -41 -53 -68 -53c-34 0 -67 27 -67 78c0 40 47 112 65 152c-24 30 -48 59 -69 93c-13 11 -23 34 -23 54c0 35 28 65 68 65c55 0 71 -44 95 -78c33 -46 73 -81 73 -133zM199 154c-10 -45 -41 -67 -71 -67c-37 0 -67 30 -67 85
c10 50 25 94 52 140c-27 43 -60 83 -73 134c2 50 33 78 67 78c31 0 50 -18 79 -69c16 -28 71 -88 71 -141c0 -58 -47 -103 -58 -160z" />
    <glyph glyph-name="guilsinglleft.cap" horiz-adv-x="333"
d="M156 519l8 12c1 0 1 1 1 1c17 21 38 31 58 31c37 0 66 -31 66 -84c-15 -44 -43 -79 -70 -118l-21 -30c36 -47 81 -108 91 -126c3 -11 4 -21 4 -30c0 -42 -28 -69 -64 -69c-19 0 -41 8 -60 28c-35 67 -129 146 -129 196c0 52 87 137 112 179z" />
    <glyph glyph-name="guilsinglright.cap" horiz-adv-x="354"
d="M99 443c-8 15 -11 30 -11 43c0 39 27 66 63 66c66 0 86 -74 112 -124c17 -33 51 -76 51 -117c0 -63 -156 -176 -158 -176l3 3c-18 -16 -37 -23 -54 -23c-36 0 -65 28 -65 66c0 29 16 56 48 78l8 6c19 18 49 37 64 59c-1 0 -1 0 -1 1c-19 37 -39 73 -55 111
c-1 3 -3 5 -5 7z" />
    <glyph glyph-name="hyphen.cap" horiz-adv-x="780"
d="M209 471c160 -11 313 -51 470 -73c15 -2 71 -39 71 -66c0 -39 -35 -56 -61 -56c-7 0 -13 0 -20 2c-65 14 -126 24 -194 26c-98 2 -193 28 -291 28c-26 0 -51 -5 -77 -5c-38 0 -77 43 -77 74c0 43 41 74 92 74c29 0 59 -2 87 -4z" />
    <glyph glyph-name="endash.cap" horiz-adv-x="622"
d="M104 291c-50 6 -74 38 -74 70c0 33 26 66 77 69c26 6 53 4 78 6c47 4 94 7 140 7c49 0 91 -16 142 -16c21 0 42 1 63 1c42 -12 62 -41 62 -69c0 -31 -23 -60 -67 -70c-24 0 -47 -1 -70 -1c-48 0 -90 15 -135 15c-72 0 -144 -9 -216 -12z" />
    <glyph glyph-name="emdash.cap" horiz-adv-x="1030"
d="M103 289c-49 6 -73 39 -73 70c0 34 26 67 78 69c277 0 554 2 830 2c42 -12 62 -41 62 -69c0 -31 -23 -60 -67 -70c-277 0 -553 -2 -830 -2z" />
    <glyph glyph-name="periodcentered.cap" horiz-adv-x="202"
d="M15 310c5 51 49 100 87 100c32 0 85 -70 85 -103c-8 -42 -56 -80 -102 -80c-50 0 -70 35 -70 83z" />
    <glyph glyph-name="D" unicode="D" horiz-adv-x="644"
d="M215 518c2 -18 2 -35 2 -53c0 -77 -12 -151 -12 -224c0 -41 3 -82 16 -122c5 -18 6 -34 8 -46c0 -37 -19 -60 -45 -60c-126 0 -98 351 -98 396c0 60 5 119 38 174c3 6 5 11 5 16c0 29 -49 54 -49 87c0 19 29 40 53 40s61 -25 85 -46c151 -136 346 -273 346 -482
c0 -142 -103 -170 -218 -200c-5 -2 -10 -2 -14 -2c-32 0 -61 39 -61 68c0 42 72 62 111 94c37 30 55 62 55 99c0 120 -130 214 -222 261z" />
    <glyph glyph-name="nbspace" unicode="&#xa0;" horiz-adv-x="0"
 />
    <glyph glyph-name="CR" unicode="&#xd;" horiz-adv-x="0"
 />
    <glyph glyph-name=".null" horiz-adv-x="0"
 />
    <glyph glyph-name=".null" horiz-adv-x="0"
 />
    </font>
</defs>
</svg>
