<?xml version="1.0" encoding="utf-8"?>
<!-- Generator: Adobe Illustrator 19.0.0, SVG Export Plug-In . SVG Version: 6.00 Build 0)  -->
<svg version="1.1" id="Layer_1" xmlns="http://www.w3.org/2000/svg" xmlns:xlink="http://www.w3.org/1999/xlink" x="0px" y="0px"
	 viewBox="0 0 49.8 39.8" style="enable-background:new 0 0 49.8 39.8;" xml:space="preserve">
<style type="text/css">
	.st0{fill:#3B404F;}
</style>
<path id="XMLID_357_" class="st0" d="M10,13.9h32c0,0-0.8,5-3.8,8s-5,4.4-5,4.4v1.8H19.6v-2.2c0,0-4.3-1.7-6.9-4.8S10,13.9,10,13.9z
	"/>
<path id="XMLID_266_" class="st0" d="M40.7,32.3H11.3c-0.8,0-1.5-0.7-1.5-1.5v0c0-0.8,0.7-1.5,1.5-1.5h29.5c0.8,0,1.5,0.7,1.5,1.5v0
	C42.2,31.7,41.6,32.3,40.7,32.3z"/>
<path id="XMLID_270_" class="st0" d="M18.6,13c-1.7-1.7-3.7-3.4-5.4-4.9c0.3-1.3,0-2.7-1-3.8c-1.6-1.6-4.1-1.6-5.7,0s-1.6,4.1,0,5.7
	c1,1,2.3,1.3,3.5,1.1c0.5,0.6,1.1,1.3,1.6,1.9H18.6z"/>
</svg>
