<?xml version="1.0" encoding="utf-8"?>
<!-- Generator: Adobe Illustrator 19.0.0, SVG Export Plug-In . SVG Version: 6.00 Build 0)  -->
<svg version="1.1" id="Layer_1" xmlns="http://www.w3.org/2000/svg" xmlns:xlink="http://www.w3.org/1999/xlink" x="0px" y="0px"
	 viewBox="0 0 49.4 41.8" style="enable-background:new 0 0 49.4 41.8;" xml:space="preserve">
<style type="text/css">
	.st0{fill:#3B404F;}
</style>
<path id="XMLID_408_" class="st0" d="M37.9,12.9L38,9.6H24.2l0,3.6c0,0-3.4,4.1-3.4,5.9s0,19.2,0,19.2h20.9c0,0,0-16.6,0-18.8
	S37.9,12.9,37.9,12.9z M26.4,12c-0.4,0-0.7-0.3-0.7-0.7c0-0.4,0.3-0.7,0.7-0.7c0.4,0,0.7,0.3,0.7,0.7C27.1,11.7,26.8,12,26.4,12z
	 M36.1,12c-0.4,0-0.7-0.3-0.7-0.7c0-0.4,0.3-0.7,0.7-0.7s0.7,0.3,0.7,0.7C36.8,11.7,36.5,12,36.1,12z"/>
<path id="XMLID_458_" class="st0" d="M19.5,19.7c0-2.7,3.8-6.9,3.8-6.9V8.6l1.4-0.1V4.3H8.4l0,4.2c0,0-4,4.9-4,7s0,22.7,0,22.7h15.1
	C19.5,34.6,19.5,22,19.5,19.7z M22.4,5.6c0.4,0,0.8,0.4,0.8,0.8s-0.4,0.8-0.8,0.8s-0.8-0.4-0.8-0.8S22,5.6,22.4,5.6z M10.9,7.2
	c-0.4,0-0.8-0.4-0.8-0.8s0.4-0.8,0.8-0.8s0.8,0.4,0.8,0.8S11.3,7.2,10.9,7.2z"/>
</svg>
