<?xml version="1.0" encoding="utf-8"?>
<!-- Generator: Adobe Illustrator 19.0.0, SVG Export Plug-In . SVG Version: 6.00 Build 0)  -->
<svg version="1.1" id="Layer_1" xmlns="http://www.w3.org/2000/svg" xmlns:xlink="http://www.w3.org/1999/xlink" x="0px" y="0px"
	 viewBox="-295.4 404.6 36.4 32.8" style="enable-background:new -295.4 404.6 36.4 32.8;" xml:space="preserve">
<style type="text/css">
	.st0{fill:#3C404F;}
</style>
<path id="XMLID_711_" class="st0" d="M-260.8,409.4c0-2.1-1.7-3.8-3.8-3.8c-1.4,0-2.7,0.8-3.3,2h-3.7c-0.8-0.8-2.6-2.1-5.4-2
	c-2.7,0.2-4.2,1.3-4.9,2h-4c-0.6-1.2-1.9-2-3.3-2c-2.1,0-3.8,1.7-3.8,3.8c0,1.4,0.8,2.7,2,3.3v3.4c-0.7,0.8-1.6,2.2-1.7,4.6
	c-0.1,2.5,0.9,4.2,1.7,5.1v3.8c-1.2,0.6-2,1.9-2,3.3c0,2.1,1.7,3.8,3.8,3.8c1.4,0,2.6-0.8,3.2-1.9h4.2c0.7,0.7,2.2,1.7,4.8,1.8
	c2.7,0.1,4.4-1.1,5.3-1.8h3.9c0.7,1.1,1.9,1.9,3.2,1.9c2.1,0,3.8-1.7,3.8-3.8c0-1.3-0.7-2.5-1.7-3.1v-4c0.8-0.9,1.8-2.6,1.7-5.1
	c-0.1-2.3-1-3.8-1.7-4.6v-3.6C-261.5,411.9-260.8,410.7-260.8,409.4z M-265.3,431.9h-3h-17.4h-2.4v-2.5V413v-2.4h2.4h17.5h2.9V431.9
	z"/>
</svg>
