<?xml version="1.0" encoding="utf-8"?>
<!-- Generator: Adobe Illustrator 19.0.0, SVG Export Plug-In . SVG Version: 6.00 Build 0)  -->
<svg version="1.1" id="Layer_1" xmlns="http://www.w3.org/2000/svg" xmlns:xlink="http://www.w3.org/1999/xlink" x="0px" y="0px"
	 viewBox="0 0 68.2 66.2" style="enable-background:new 0 0 68.2 66.2;" xml:space="preserve">
<style type="text/css">
	.st0{fill:#3B404F;}
</style>
<polygon id="XMLID_406_" class="st0" points="54,47.4 54,22.3 34.2,32.2 34.2,57.5 "/>
<polygon id="XMLID_405_" class="st0" points="14.4,21.9 34.1,12 54,22.3 53,22.8 34.2,13.2 15.5,22.6 "/>
<polygon id="XMLID_407_" class="st0" points="23.2,17.7 31.5,21.9 35.5,19.6 27.5,15.6 "/>
<path id="XMLID_421_" class="st0" d="M14.4,21.9v25.7l19.8,9.9V32.2L14.4,21.9z M22.7,40.6l1.3,2.6l-0.7-0.3l0,4.9L22,47.1l0-4.9
	l-0.7-0.3L22.7,40.6z M18.6,38.5l1.3,2.6l-0.7-0.3l0,4.9L17.9,45l0-4.9l-0.7-0.3L18.6,38.5z M15.9,46.4l0-1.3l9.5,4.8l0,1.3
	L15.9,46.4z"/>
<polygon id="XMLID_437_" class="st0" points="11.8,38.5 11.8,27.2 7.6,33.2 "/>
<polygon id="XMLID_440_" class="st0" points="56.9,38.5 56.9,27.2 61,33.2 "/>
</svg>
