<?xml version="1.0" encoding="utf-8"?>
<!-- Generator: Adobe Illustrator 19.0.0, SVG Export Plug-In . SVG Version: 6.00 Build 0)  -->
<svg version="1.1" id="Layer_1" xmlns="http://www.w3.org/2000/svg" xmlns:xlink="http://www.w3.org/1999/xlink" x="0px" y="0px"
	 viewBox="-263 387.7 68.2 66.2" style="enable-background:new -263 387.7 68.2 66.2;" xml:space="preserve">
<style type="text/css">
	.st0{fill:#9E7A55;}
</style>
<polygon id="XMLID_406_" class="st0" points="-209,435.1 -209,410 -228.8,419.9 -228.8,445.2 "/>
<polygon id="XMLID_405_" class="st0" points="-248.6,409.6 -228.9,399.7 -209,410 -210,410.5 -228.8,400.9 -247.5,410.3 "/>
<polygon id="XMLID_407_" class="st0" points="-239.8,405.4 -231.5,409.6 -227.5,407.3 -235.5,403.3 "/>
<path id="XMLID_421_" class="st0" d="M-248.6,409.6v25.7l19.8,9.9v-25.3L-248.6,409.6z M-240.3,428.3l1.3,2.6l-0.7-0.3v4.9l-1.3-0.7
	v-4.9l-0.7-0.3L-240.3,428.3z M-244.4,426.2l1.3,2.6l-0.7-0.3v4.9l-1.3-0.7v-4.9l-0.7-0.3L-244.4,426.2z M-247.1,434.1v-1.3l9.5,4.8
	v1.3L-247.1,434.1z"/>
<polygon id="XMLID_437_" class="st0" points="-251.2,426.2 -251.2,414.9 -255.4,420.9 "/>
<polygon id="XMLID_440_" class="st0" points="-206.1,426.2 -206.1,414.9 -202,420.9 "/>
</svg>
