<?xml version="1.0" encoding="utf-8"?>
<!-- Generator: Adobe Illustrator 19.0.0, SVG Export Plug-In . SVG Version: 6.00 Build 0)  -->
<svg version="1.1" id="Layer_1" xmlns="http://www.w3.org/2000/svg" xmlns:xlink="http://www.w3.org/1999/xlink" x="0px" y="0px"
	 viewBox="0 0 40.2 44.5" style="enable-background:new 0 0 40.2 44.5;" xml:space="preserve">
<style type="text/css">
	.st0{fill:#3B404F;}
</style>
<path id="XMLID_333_" class="st0" d="M19.9,14.1c-2,0-7.1-0.1-9.7-1.3c-1.3-0.6-2.4-1.7-2.9-3.1C6.8,8.4,6.9,6.8,7.5,5.5
	C8.2,4,9.6,2.8,11.2,2.3c1.3-0.4,2.7-0.2,3.8,0.5l0,0c3.9,2.6,6.4,10,6.5,10.3l0.3,1l-1,0C20.7,14.1,20.4,14.1,19.9,14.1z M12.5,3.7
	c-0.3,0-0.7,0.1-0.9,0.1C10.5,4.1,9.4,5,8.9,6.1c-0.5,1-0.5,2.1-0.1,3.1c0.4,1,1.1,1.8,2.1,2.2c2.2,1,6.7,1.1,8.8,1.2
	c-0.8-2.1-2.8-6.7-5.5-8.5C13.6,3.8,13,3.7,12.5,3.7z"/>
<path id="XMLID_337_" class="st0" d="M20.7,14.1C20.7,14.1,20.7,14.1,20.7,14.1l-1.1,0l0.3-1c0.1-0.3,2.6-7.7,6.5-10.3l0,0
	c1.1-0.7,2.4-0.9,3.8-0.5c1.6,0.5,3,1.6,3.7,3.2c0.6,1.4,0.7,3,0.1,4.4c-0.5,1.4-1.5,2.4-2.9,3C28.2,14.1,21.2,14.1,20.7,14.1z
	 M27.3,4.1c-2.7,1.8-4.7,6.4-5.5,8.4c2.1-0.1,6.7-0.3,8.8-1.1c0.9-0.4,1.6-1.1,2-2.1c0.4-1,0.4-2.2-0.1-3.2C32,5,31,4.1,29.8,3.8
	C29.2,3.6,28.2,3.5,27.3,4.1L27.3,4.1z"/>
<rect id="XMLID_331_" x="4.5" y="14.7" class="st0" width="15.4" height="6.4"/>
<rect id="XMLID_334_" x="21.6" y="14.7" class="st0" width="15.4" height="6.4"/>
<rect id="XMLID_335_" x="21.6" y="22.6" class="st0" width="13.8" height="19.9"/>
<rect id="XMLID_336_" x="5.9" y="22.6" class="st0" width="13.8" height="19.9"/>
</svg>
