<?xml version="1.0" encoding="utf-8"?>
<!-- Generator: Adobe Illustrator 19.0.0, SVG Export Plug-In . SVG Version: 6.00 Build 0)  -->
<svg version="1.1" id="Layer_1" xmlns="http://www.w3.org/2000/svg" xmlns:xlink="http://www.w3.org/1999/xlink" x="0px" y="0px"
	 viewBox="-277 398.4 40.2 44.5" style="enable-background:new -277 398.4 40.2 44.5;" xml:space="preserve">
<style type="text/css">
	.st0{fill:#9D7A55;}
</style>
<g>
	<path class="st0" d="M-255.2,412.5c2.2,0,7-0.2,9.3-1.2c1.4-0.6,2.4-1.6,2.9-3c0.6-1.4,0.5-3-0.1-4.4c-0.7-1.6-2.1-2.7-3.7-3.2
		c-1.4-0.4-2.7-0.2-3.8,0.5c-2.7,1.8-4.7,5.8-5.7,8.2c-1-2.5-3-6.5-5.7-8.2c-1.1-0.7-2.5-0.9-3.8-0.5c-1.6,0.5-3,1.7-3.7,3.2
		c-0.6,1.3-0.7,2.9-0.2,4.2c0.5,1.4,1.6,2.5,2.9,3.1c2.5,1.1,7.2,1.3,9.4,1.3l0,0h0.3c0.4,0,0.7,0,0.8,0c0,0,0.1,0,0.1,0
		L-255.2,412.5L-255.2,412.5z M-249.7,402.5c0.9-0.6,1.9-0.5,2.5-0.3c1.2,0.3,2.2,1.2,2.7,2.3c0.5,1,0.5,2.2,0.1,3.2
		c-0.4,1-1.1,1.7-2,2.1c-2.1,0.8-6.7,1-8.8,1.1C-254.4,408.9-252.4,404.3-249.7,402.5z M-268.2,407.6c-0.4-1-0.4-2.1,0.1-3.1
		c0.5-1.1,1.6-2,2.7-2.3c0.2,0,0.6-0.1,0.9-0.1c0.5,0,1.1,0.1,1.7,0.4c2.7,1.8,4.7,6.4,5.5,8.5c-2.1-0.1-6.6-0.2-8.8-1.2
		C-267.1,409.4-267.8,408.6-268.2,407.6z"/>
	<rect x="-272.5" y="413.1" class="st0" width="15.4" height="6.4"/>
	<rect x="-255.4" y="413.1" class="st0" width="15.4" height="6.4"/>
	<rect x="-255.4" y="421" class="st0" width="13.8" height="19.9"/>
	<rect x="-271.1" y="421" class="st0" width="13.8" height="19.9"/>
</g>
</svg>
