<?xml version="1.0" encoding="utf-8"?>
<!-- Generator: Adobe Illustrator 19.0.0, SVG Export Plug-In . SVG Version: 6.00 Build 0)  -->
<svg version="1.1" id="Layer_1" xmlns="http://www.w3.org/2000/svg" xmlns:xlink="http://www.w3.org/1999/xlink" x="0px" y="0px"
	 viewBox="0 0 38.5 32.5" style="enable-background:new 0 0 38.5 32.5;" xml:space="preserve">
<style type="text/css">
	.st0{fill:#3B404F;}
</style>
<g id="XMLID_439_">
	<path id="XMLID_476_" class="st0" d="M21.4,15.3c-0.8,0-1.3,1-1.3,2.2c0,1.2,0.5,2.2,1.3,2.2c0.9,0,1.2-0.9,1.2-2.2
		C22.7,16.3,22.3,15.3,21.4,15.3z"/>
	<path id="XMLID_477_" class="st0" d="M16.4,13.5c0-1.2-0.3-2.2-1.2-2.2c-0.8,0-1.2,1-1.2,2.2c0,1.2,0.4,2.2,1.2,2.2
		C16,15.7,16.4,14.8,16.4,13.5z"/>
	<path id="XMLID_480_" class="st0" d="M30.5,14.6c0.6-1.3,0.2-2.9-1-3.8c-0.7-0.5-1.2-1.3-1.3-2.2C28,7.1,26.9,6,25.4,5.8
		c-0.9-0.1-1.7-0.6-2.2-1.3v0c-0.9-1.2-2.5-1.6-3.8-1c-0.8,0.4-1.7,0.4-2.5,0c-1.3-0.6-2.9-0.2-3.8,1v0c-0.5,0.7-1.3,1.2-2.2,1.3
		C9.4,6,8.2,7.1,8.1,8.6C8,9.5,7.5,10.3,6.8,10.8c-1.2,0.9-1.6,2.5-1,3.8c0.4,0.8,0.4,1.7,0,2.5c-0.6,1.3-0.2,2.9,1,3.8
		c0.7,0.5,1.2,1.3,1.3,2.2c0.2,1.5,1.3,2.6,2.8,2.8c0.9,0.1,1.7,0.6,2.2,1.3c0.9,1.2,2.5,1.6,3.8,1c0.8-0.4,1.7-0.4,2.5,0
		c1.3,0.6,2.9,0.2,3.8-1c0.5-0.7,1.3-1.2,2.2-1.3c1.5-0.2,2.6-1.3,2.8-2.8c0.1-0.9,0.6-1.7,1.3-2.2c1.2-0.9,1.6-2.5,1-3.8
		C30.1,16.3,30.1,15.4,30.5,14.6z M12.8,13.6c0-1.9,1.1-3,2.3-3c1.4,0,2.2,1,2.2,2.9c0,2-1.1,3-2.3,3C13.9,16.5,12.8,15.5,12.8,13.6
		z M15.8,20.5c0,0-0.3,0.1-0.4-0.2c-0.1-0.2,0-0.5,0-0.5l5.3-9.3c0,0,0.1-0.2,0.4-0.2c0.3,0,0.5,0.2,0.5,0.2 M21.4,20.5
		c-1.2,0-2.2-1-2.3-2.9c0-1.9,1.1-3,2.3-3c1.4,0,2.2,1,2.2,2.9C23.7,19.5,22.6,20.5,21.4,20.5z"/>
</g>
</svg>
