<?xml version="1.0" encoding="utf-8"?>
<!-- Generator: Adobe Illustrator 19.0.0, SVG Export Plug-In . SVG Version: 6.00 Build 0)  -->
<svg version="1.1" id="Layer_1" xmlns="http://www.w3.org/2000/svg" xmlns:xlink="http://www.w3.org/1999/xlink" x="0px" y="0px"
	 viewBox="0 0 43.8 38.8" style="enable-background:new 0 0 43.8 38.8;" xml:space="preserve">
<path id="XMLID_504_" d="M38.9,10.2h-2.8c-0.7,0-1.3,0.5-1.4,1.2l-0.3,1.9H11.9l-1-5.8c-0.1-0.7-0.7-1.1-1.4-1.1H5.1
	C4.4,6.3,3.8,7,3.8,7.7s0.6,1.4,1.4,1.4h3.2l3.1,17.6c0.1,0.7,0.7,1.1,1.4,1.1h20.9c0.7,0,1.3-0.5,1.4-1.2L37.3,13h1.6
	c0.8,0,1.4-0.6,1.4-1.4S39.6,10.2,38.9,10.2z M19.1,25.1H14l-0.6-3.4h5.7V25.1z M19.1,20.1h-6l-0.7-4h6.7V20.1z M25.2,25.1h-4.5
	v-3.4h4.5V25.1z M25.2,20.1h-4.5v-4h4.5V20.1z M32.5,25.1h-5.7v-3.4h6.3L32.5,25.1z M33.3,20.1h-6.5v-4H34L33.3,20.1z"/>
<circle id="XMLID_510_" cx="15.3" cy="32.3" r="2.7"/>
<circle id="XMLID_511_" cx="29.5" cy="32.3" r="2.7"/>
</svg>
