<?xml version="1.0" encoding="utf-8"?>
<!-- Generator: Adobe Illustrator 19.0.0, SVG Export Plug-In . SVG Version: 6.00 Build 0)  -->
<svg version="1.1" id="Layer_1" xmlns="http://www.w3.org/2000/svg" xmlns:xlink="http://www.w3.org/1999/xlink" x="0px" y="0px"
	 viewBox="-275 402.1 43.8 38.8" style="enable-background:new -275 402.1 43.8 38.8;" xml:space="preserve">
<style type="text/css">
	.st0{fill:#D09A3A;}
</style>
<g>
	<path class="st0" d="M-236.1,412.3h-2.8c-0.7,0-1.3,0.5-1.4,1.2l-0.3,1.9h-22.5l-1-5.8c-0.1-0.7-0.7-1.1-1.4-1.1h-4.4
		c-0.7-0.1-1.3,0.6-1.3,1.3c0,0.7,0.6,1.4,1.4,1.4h3.2l3.1,17.6c0.1,0.7,0.7,1.1,1.4,1.1h20.9c0.7,0,1.3-0.5,1.4-1.2l2.1-13.6h1.6
		c0.8,0,1.4-0.6,1.4-1.4S-235.4,412.3-236.1,412.3z M-255.9,427.2h-5.1l-0.6-3.4h5.7V427.2z M-255.9,422.2h-6l-0.7-4h6.7V422.2z
		 M-249.8,427.2h-4.5v-3.4h4.5V427.2z M-249.8,422.2h-4.5v-4h4.5V422.2z M-242.5,427.2h-5.7v-3.4h6.3L-242.5,427.2z M-241.7,422.2
		h-6.5v-4h7.2L-241.7,422.2z"/>
	<circle class="st0" cx="-259.7" cy="434.4" r="2.7"/>
	<circle class="st0" cx="-245.5" cy="434.4" r="2.7"/>
</g>
</svg>
