<?xml version="1.0" encoding="utf-8"?>
<!-- Generator: Adobe Illustrator 19.0.0, SVG Export Plug-In . SVG Version: 6.00 Build 0)  -->
<svg version="1.1" id="Layer_1" xmlns="http://www.w3.org/2000/svg" xmlns:xlink="http://www.w3.org/1999/xlink" x="0px" y="0px"
	 viewBox="0 0 52.4 80.3" style="enable-background:new 0 0 52.4 80.3;" xml:space="preserve">
<style type="text/css">
	.st0{fill:#B62829;}
</style>
<g id="XMLID_676_">
	<path id="XMLID_705_" class="st0" d="M27.1,47.7C16.2,47.7,7.4,38.8,7.4,28S16.2,8.3,27.1,8.3S46.8,17.1,46.8,28S38,47.7,27.1,47.7
		z M27.1,9.3C16.8,9.3,8.4,17.7,8.4,28s8.4,18.7,18.7,18.7S45.8,38.3,45.8,28S37.4,9.3,27.1,9.3z"/>
	<path id="XMLID_699_" class="st0" d="M27.1,11.2c-9.2,0-16.7,7.5-16.7,16.7s7.5,16.7,16.7,16.7S43.8,37.2,43.8,28
		S36.3,11.2,27.1,11.2z M25.1,35.1c-0.4,0.4-1.1,1.2-2.4,2.3c-1.9,1.6-3.3-0.2-3.3-0.2l4.3-3.8c0.2-0.2,0.6-0.2,0.7,0.1l0.7,1
		C25.3,34.6,25.3,34.9,25.1,35.1z M28.7,37.6c-0.2,2-2.9,2-2.9,2v-7.3c0-0.1-0.1-0.2-0.2-0.2h-2.6c0,0-0.1-0.7,0.5-1.6
		c0.1-0.1,0.2-0.2,0.3-0.3c0.3-0.4,0.8-0.6,1.4-0.6h0.6c0.1,0,0.2-0.1,0.2-0.2c0-0.3,0.2-1.1,1-1.5c0.4-0.2,0.7-0.3,1-0.4
		c0.3-0.1,0.5,0.1,0.5,0.4l0,1.1c0,0.1,0.1,0.2,0.2,0.2l2.4,0c0.1,0,0.3,0.1,0.3,0.2l0.2,1.4c0,0.2-0.1,0.3-0.3,0.3l-2.3,0.1
		c-0.1,0-0.2,0.1-0.2,0.3C28.6,32.5,28.8,35.9,28.7,37.6z M34,38.2l-4.6-3.5c-0.2-0.1-0.2-0.3-0.1-0.5l0.6-0.9
		c0.1-0.2,0.3-0.2,0.5-0.2c0.9,0.3,3.7,1.7,4,3C34.5,37.5,34,38.2,34,38.2z M35.4,30.8c-1-0.3-6.8-4.1-7.9-4.8
		c-0.1-0.1-0.2-0.1-0.3,0c-0.6,0.6-3.3,3.2-5.1,4.8c-2.1,1.8-4.3,1.8-5,1.4c-0.6-0.4-0.8-0.7-0.8-0.7s2.7-1.6,5.1-3.3
		c1.9-1.4,4-3.7,4.7-4.4c0.1-0.1,0.3-0.2,0.5-0.1c0.2,0.1,0.5,0.2,0.8-0.1c0.2-0.2,0.2-0.6,0.1-0.8c0-0.2-0.2-0.3-0.4-0.3l-2,0.3
		c-0.1,0-0.2,0.1-0.2,0.2c0,0.1-0.1,0.3-0.2,0.6c-0.2,0.6-1.1,1-1.1,1l0-1.2c0-0.2-0.1-0.3-0.3-0.3c-0.7,0.1-2.4,0.2-3.6,0.3
		c-1.5,0.1-2-1.2-2-1.2l4.8-0.9c0.1,0,0.2-0.2,0.2-0.3l-0.4-1.5c-0.1-0.3,0.1-0.6,0.4-0.7l1.2-0.2c0.3-0.1,0.6,0.2,0.6,0.5l0.1,1.2
		c0,0.2,0.2,0.4,0.4,0.3l4.2-0.9c0,0-0.3-1.7,0.3-2.7c0.6-1,3.6-1,3.3-0.5c-0.2,0.4-0.5,1.5-0.6,2.2c-0.1,0.3,0.1,0.5,0.4,0.6
		c0.5,0.1,1.2,0.4,1.3,1.2c0.1,1.4-0.1,1.6-0.8,1.6c-0.7,0-2.5,0-2.5,0s-0.1,0.6-0.7,1.4c-0.4,0.5-0.7,0.8-0.9,1
		c-0.1,0.1-0.1,0.2,0,0.2c1.2,0.5,6.6,3.1,6.9,3.4C36.2,28.4,36.4,31.1,35.4,30.8z"/>
	<path id="XMLID_698_" class="st0" d="M27,71.7c0-0.3,0.1-4.2,0.1-5.4c0-0.2-0.1-0.3-0.3-0.4l0,0c-0.1,0-0.2,0-0.3,0.1
		c-0.1,0.1-0.2,0.2-0.3,0.3c0,0-1.6,2.4-2.3,2.8c-0.2,0.1-0.4,0.1-0.5-0.1c0-0.6,0-1.8,0-2.3c0-0.6,0.1-1-0.6-0.8
		c-0.5,0.2-0.9,0.8-1,1.1c0,0,0,0.1,0,0c0.2-0.2,0.6-0.6,0.6-0.3v2.6c0,0.3,0.3,0.6,0.6,0.6h0.2c0.7,0,2.6-2.5,2.6-2.5
		c0,0,0.1,0,0.1,0.1c0,0.6-0.1,2.6-0.1,3.8c0,1.3,1.5,0.8,1.5,0.8S27,72,27,71.7z"/>
	<path id="XMLID_697_" class="st0" d="M13.1,60.7c0-0.3,0.1-4.2,0.1-5.4c0-0.2-0.1-0.3-0.3-0.4l0,0c-0.1,0-0.2,0-0.3,0.1
		c-0.1,0.1-0.2,0.2-0.3,0.3c0,0-1.6,2.4-2.3,2.8c-0.2,0.1-0.4,0.1-0.5-0.1c0-0.6,0-1.8,0-2.3c0-0.6,0.1-1-0.6-0.8
		c-0.5,0.2-0.9,0.8-1,1.1c0,0,0,0.1,0,0c0.2-0.2,0.6-0.6,0.6-0.3v2.6c0,0.3,0.3,0.6,0.6,0.6h0.2c0.7,0,2.6-2.5,2.6-2.5
		c0,0,0.1,0,0.1,0.1c0,0.6-0.1,2.6-0.1,3.8c0,1.3,1.5,0.8,1.5,0.8S13.1,61,13.1,60.7z"/>
	<g id="XMLID_694_">
		<path id="XMLID_696_" class="st0" d="M25.4,53.6c0.8-0.3,1.1-1.1,1.1-1.1s-0.5,0.6-1.6,0.8c-0.7,0.1-1.1-0.2-1.2-0.7
			c-0.1-0.4-0.3-0.6-0.5-0.6c-0.4,0-0.8,0.6-0.4,1.2C23.2,53.9,24.4,54,25.4,53.6z"/>
		<path id="XMLID_695_" class="st0" d="M26.4,60.5c0-0.3,0-4.2,0.1-5.4c0-0.2-0.2-0.3-0.3-0.3l0,0c-0.1,0-0.3,0.1-0.4,0.2
			c0,0,0,0-0.1,0.1v0l0,0c0,0.1-0.1,0.1-0.1,0.2c-0.2,0.7-1.5,3.7-2,4.5c-0.1,0.2-0.2,0.3-0.3,0.4c-0.2,0.1-0.4,0-0.4-0.2
			c0-1,0-4,0-4.5c0-0.6,0.1-1.1-0.7-0.9c-0.6,0.2-1,1-1.1,1.3c0,0,0,0,0,0c0.2-0.2,0.7-0.7,0.7-0.4v4.9c0,0.3,0.3,0.6,0.6,0.6h0.2
			c0.3,0,0.7-0.3,0.9-0.6c0.3-0.4,1.4-2.6,1.9-3.6c0,0.9-0.1,2.3-0.1,3.2c0,1.3,1.5,0.8,1.5,0.8S26.4,60.9,26.4,60.5z"/>
	</g>
	<path id="XMLID_693_" class="st0" d="M33,60.5c0-0.3,0-6,0-6h-0.2c-0.6,0-0.8,0.7-0.8,1.5c0,0.2,0,0.8,0,1.4
		c-0.3,0.1-0.7,0.2-1.2,0.2c-0.6,0.1-1,0-1.3,0c0-1,0-1.8,0-2.1c0-0.6,0.1-1.1-0.7-0.9c-0.6,0.2-1,1-1.1,1.3c0,0,0,0.1,0,0
		c0.2-0.2,0.7-0.6,0.7-0.4v4.9c0,0.3,0,0.6,0.5,0.6s0.5-0.6,0.5-0.6s0-1.2,0-2.5c0.3,0.1,0.8,0.1,1.4,0.1c0.6-0.1,0.9-0.1,1.1-0.2
		c0,0.8,0,1.7,0,2.2c0,1.3,1.4,0.8,1.4,0.8S33,60.9,33,60.5z"/>
	<path id="XMLID_690_" class="st0" d="M19.2,60.2c0-1.2,0-5.1,0-5.4s-1,0.1-1,0.1s-1.5-0.8-2.8,1c-1.3,1.8-1.4,4.9-0.1,5.4
		s2.5-2.3,2.7-2.6c0.1-0.2,0.2-0.4,0.2,0.4s-0.1,2,0.6,2.1c0.7,0.1,0.9-0.4,0.9-0.4S19.2,60.9,19.2,60.2z M18.2,57
		c-0.1,1.6-1.3,3.5-2.1,3.6c-0.8,0-1.1-2.2-0.5-3.8c0.4-1,0.9-1.4,1.2-1.6c0.2-0.1,0.5-0.2,0.7-0.1C18.1,55.4,18.2,56.1,18.2,57z"/>
	<path id="XMLID_687_" class="st0" d="M39.2,60.2c0-1.2,0-5.1,0-5.4s-1,0.1-1,0.1s-1.5-0.8-2.8,1c-1.3,1.8-1.4,4.9-0.1,5.4
		s2.5-2.3,2.7-2.6c0.1-0.2,0.2-0.4,0.2,0.4s-0.1,2,0.6,2.1c0.7,0.1,0.9-0.4,0.9-0.4S39.2,60.9,39.2,60.2z M38.1,57
		c-0.1,1.6-1.3,3.5-2.1,3.6c-0.8,0-1.1-2.2-0.5-3.8c0.4-1,0.9-1.4,1.2-1.6c0.2-0.1,0.5-0.2,0.7-0.1C38.1,55.4,38.2,56.1,38.1,57z"/>
	<path id="XMLID_684_" class="st0" d="M43.4,71.2c0-1.2,0-5.1,0-5.4c0-0.3-1,0.1-1,0.1s-1.5-0.8-2.8,1c-1.3,1.8-1.4,4.9-0.1,5.4
		c1.3,0.5,2.5-2.3,2.7-2.6c0.1-0.2,0.2-0.4,0.2,0.4c0,0.9-0.1,2,0.6,2.1c0.7,0.1,0.9-0.4,0.9-0.4S43.4,71.9,43.4,71.2z M42.4,67.9
		c-0.1,1.6-1.3,3.5-2.1,3.6c-0.8,0-1.1-2.2-0.5-3.8c0.4-1,0.9-1.4,1.2-1.6c0.2-0.1,0.5-0.2,0.7-0.1C42.3,66.3,42.5,67,42.4,67.9z"/>
	<path id="XMLID_683_" class="st0" d="M14.3,71.6c0-0.4,0-4.2,0-5.1c0-0.9-1.4-1.2-2.4,0.6C11.4,68,11,69,10.7,69.8v-3.2
		c0-0.6,0.1-1.1-0.7-0.9c-0.7,0.2-1.1,1.4-1.1,1.4s0.8-0.8,0.8-0.4v4.9c0,0.3,0.1,0.6,0.5,0.6c0.3,0,1.2-3.8,2-5.1
		c0.7-1.1,1.3-0.6,1.3,0c0,0.5,0,3.9,0,4.4c0,0.5,0.2,0.7,0.8,0.7s0.7-0.4,0.7-0.4S14.3,72,14.3,71.6z"/>
	<path id="XMLID_682_" class="st0" d="M37.1,71.6c0-0.4,0-4.2,0-5.1c0-0.9-1.4-1.2-2.4,0.6c-0.4,0.6-0.6,1.3-0.9,1.9
		c0-1.1,0-2.1,0-2.5c0-0.9-1.4-1.2-2.4,0.6c-0.4,0.7-0.8,1.4-1,2.1c0,0.1-0.2,0.1-0.2,0v-2.6c0-0.6,0.1-1.1-0.7-0.9
		s-1.1,1.4-1.1,1.4s0.8-0.8,0.8-0.4v4.9c0,0.3,0.1,0.6,0.5,0.6c0,0,0.4,0,0.5-1.3c0.1-0.8,0.7-2.5,1.5-3.7c0.7-1.1,1.3-0.6,1.3,0
		c0,0.5,0,3.8,0,4.3c0,0.5,0,0.7,0.4,0.7c0.3,0,0.5-0.3,0.5-0.7l0-1.2c0-0.3,0-0.6,0.1-0.9c0.3-0.8,0.6-1.6,1.1-2.3
		c0.7-1.1,1.3-0.6,1.3,0c0,0.5,0,3.8,0,4.3c0,0.5,0.2,0.7,0.8,0.7s0.7-0.4,0.7-0.4S37.1,71.9,37.1,71.6z"/>
	<path id="XMLID_679_" class="st0" d="M19.3,65.5c-1.4-0.1-2.6,0.7-3.1,2.1c-0.2,0.6-0.8,2.9,0.2,4.3c0.7,1,2.9,1.1,4.1-1.4
		C21.5,68.4,21.4,65.7,19.3,65.5z M20.2,69c-0.1,1.6-1,2.9-1.9,2.9c-0.9,0-1.5-1.3-1.5-2.9c0-1.9,0.8-3,1.7-3
		C19.4,66,20.4,67,20.2,69z"/>
	<path id="XMLID_678_" class="st0" d="M29.9,64.6c0,0,0.5-1.1,1.5-1.1s3.4,0,4.3,0s1-0.3,1-0.3s0.1,1.2-1.3,1.2s-4.3,0-4.8,0
		C30.2,64.3,29.9,64.6,29.9,64.6z"/>
	<path id="XMLID_677_" class="st0" d="M45.3,60.4v-5.3c0-0.2-0.1-0.3-0.3-0.3c-0.5,0-1.6,0-2.5,0.2c-0.8,0.3-1.5,1-1.5,1.8
		c0,1.8,2.4,1.5,2.4,1.5S42.7,60,42,60.2c-0.8,0.2-1-0.5-1-0.5s-0.5,1,0,1.4c0.3,0.2,0.9,0.1,1.6-0.6c0.9-0.9,1.3-2.1,1.3-2.1
		l0.1-0.3c0,0-1.9,0-1.9-1.4c0.1-1.6,2.4-1.4,2.4-1.4s0,4.1,0,5.3c0,1.2,1.4,0.4,1.4,0.4S45.3,60.8,45.3,60.4z"/>
</g>
</svg>
