<?xml version="1.0" encoding="utf-8"?>
<!-- Generator: Adobe Illustrator 19.0.0, SVG Export Plug-In . SVG Version: 6.00 Build 0)  -->
<svg version="1.1" id="Layer_1" xmlns="http://www.w3.org/2000/svg" xmlns:xlink="http://www.w3.org/1999/xlink" x="0px" y="0px"
	 viewBox="0 0 43.8 38.8" style="enable-background:new 0 0 43.8 38.8;" xml:space="preserve">
<style type="text/css">
	.st0{fill:none;stroke:#000000;stroke-width:1.75;stroke-miterlimit:10;}
</style>
<path id="XMLID_417_" d="M18.9,9.7L20,10c0.3,0.1,0.5,0.3,0.6,0.7l0.5,4c0,0.3-0.1,0.6-0.4,0.8l-1.9,1c0,0-1.1,0.4-0.4,3.2
	c0.2,0.9,0.8,1.9,1.4,2.8c0.8,1.2,1.7,2.2,2.1,2.7c0.9,1,2.1,0.5,2.7,0c0.3-0.3,0.7-0.5,0.9-0.7c0.3-0.2,0.6-0.2,0.9,0l3.3,2.5
	c0.2,0.2,0.3,0.4,0.3,0.7l-0.2,1.5c0,0.2-0.1,0.4-0.3,0.5c-1,0.8-4.2,2.4-8-0.7c-4.7-3.9-7-9.2-7.2-13.4c-0.2-3.6,3-5.5,4-6
	C18.5,9.6,18.7,9.6,18.9,9.7z"/>
<circle id="XMLID_418_" class="st0" cx="23" cy="20.7" r="14.6"/>
</svg>
