<?xml version="1.0" standalone="no"?>
<!DOCTYPE svg PUBLIC "-//W3C//DTD SVG 1.1//EN" "http://www.w3.org/Graphics/SVG/1.1/DTD/svg11.dtd" >
<svg xmlns="http://www.w3.org/2000/svg" xmlns:xlink="http://www.w3.org/1999/xlink" version="1.1">
<metadata>
Created by FontForge 20161116 at Sat Mar 16 16:57:55 1929
 By Jimmy Wärting
Copyright ParaGraph 1993.
</metadata>
<defs>
<font id="EpsilonCTT" horiz-adv-x="456" >
  <font-face
    font-family="EpsilonCTT"
    font-weight="400"
    font-stretch="normal"
    units-per-em="1000"
    panose-1="0 0 0 0 0 0 0 0 0 0"
    ascent="800"
    descent="-200"
    x-height="366"
    cap-height="628"
    bbox="-150 -440 773 979"
    underline-thickness="20"
    underline-position="-143"
    unicode-range="U+0020-2122"
  />
<missing-glyph horiz-adv-x="800"
d="M50 0v800h700v-800h-700zM700 50v700h-600v-700h600z" />
    <glyph glyph-name=".notdef" horiz-adv-x="800"
d="M50 0v800h700v-800h-700zM700 50v700h-600v-700h600z" />
    <glyph glyph-name=".null" horiz-adv-x="0"
 />
    <glyph glyph-name="nonmarkingreturn" horiz-adv-x="463"
 />
    <glyph glyph-name="space" unicode=" " horiz-adv-x="463"
 />
    <glyph glyph-name="exclam" unicode="!" horiz-adv-x="325"
d="M208 674v-198q0 -70 -3 -112.5t-16 -131.5q-5 -44 -50 -44q-17 0 -23.5 8.5t-6.5 24.5q0 11 1 16q7 46 18 175l11 110q6 64 13 128q10 64 31 64q15 0 20.5 -8t5.5 -22q-1 -6 -1 -10zM228 68q0 -22 -29 -46t-63 -24q-24 0 -32 7t-8 21q0 15 37.5 44.5t58.5 29.5
q36 0 36 -32z" />
    <glyph glyph-name="quotedbl" unicode="&#x22;" horiz-adv-x="386"
d="M292 747q0 -35 -1 -70t-2 -69v-30q0 -56 -1 -67q-5 -52 -31 -52q-14 0 -26.5 23t-12.5 43q0 16 -2 83.5t-3 120.5q0 21 9.5 39.5t31.5 18.5q13 0 25.5 -13.5t12.5 -26.5zM179 742l-4 -82v-50q0 -86 -9.5 -117t-27.5 -31q-17 0 -22.5 15.5t-5.5 42.5q0 24 -2.5 94
t-2.5 135q0 6 11.5 18.5t28.5 12.5q15 0 24.5 -12.5t9.5 -25.5z" />
    <glyph glyph-name="numbersign" unicode="#" horiz-adv-x="777"
d="M726 274q-2 -7 -4 -10q-15 -22 -46 -22q-1 0 -46 -2t-92 -2v-152q0 -27 -11.5 -40.5t-26.5 -13.5q-42 0 -42 88q0 19 0.5 55.5t1.5 60.5h-148l-20 -140q-11 -56 -40 -56q-17 0 -25.5 23.5t-8.5 46.5q0 35 4 65q1 10 10 57h-123q-37 0 -37 31q0 19 9 28t41 9q16 2 29.5 2
h21.5h75l18 129q-24 0 -65 -3.5t-45 -3.5q-26 0 -44.5 9t-18.5 30q0 29 102 41q42 4 84 9q15 110 20 149q14 102 44 102q20 0 27.5 -12t7.5 -37q0 -12 -6 -90t-6 -99q12 0 50.5 -1t57.5 -1q1 4 16 84.5t50 80.5q15 0 21.5 -12t6.5 -33q0 -18 -7 -60t-7 -56q22 0 53 3t45 3
q15 0 26.5 -18t7.5 -36q-3 -17 -18.5 -25.5t-35.5 -8.5q-6 -1 -17 -1q-15 0 -38.5 2.5t-28.5 2.5q-6 -27 -8.5 -68t-3.5 -78h144q22 0 34 -6.5t12 -23.5zM463 306q0 22 4 71t4 72q-37 0 -62 -1t-60 -6l-19 -140q29 0 73 2t60 2z" />
    <glyph glyph-name="dollar" unicode="$" horiz-adv-x="508"
d="M313 -76l-4 -124v-13q0 -31 -4 -40q-7 -17 -32 -17q-20 0 -27 13.5t-7 54.5q0 52 1 72.5t8 85.5q-72 40 -120 85q-59 55 -59 99q0 11 3 16.5t14 5.5q14 0 73 -47q49 -40 99 -79q-20 62 -39 124q-18 83 -23 116q-10 71 -10 176q0 80 23 145.5t65 85.5q0 15 4 56t4 75
q0 24 32 24t32 -42q0 -28 -1 -46t-2 -35q0 -16 3 -39q53 -44 75.5 -111.5t22.5 -182.5q0 -35 -7 -69.5t-24 -37.5t-30 15.5t-13 37.5q0 4 3 46t3 76q0 59 -15 100q-19 53 -59 53q-21 0 -35.5 -48.5t-14.5 -136.5q0 -70 10 -128.5t40 -151.5q3 -11 56 -114q19 -37 19 -54
q0 -22 -8.5 -38t-23.5 -16q-10 0 -32 8z" />
    <glyph glyph-name="percent" unicode="%" horiz-adv-x="593"
d="M283 467q0 -61 -33 -101q-38 -46 -108 -46q-43 0 -72 41q-25 36 -25 76q0 31 35 70t72 54q21 9 36 9q16 0 24.5 -8.5t4.5 -20.5q5 3 10 3q18 0 37 -24t19 -53zM517 140q0 -40 -39 -89q-42 -53 -87 -53q-53 0 -75 41q-15 28 -15 76q0 39 46.5 95t88.5 72q9 3 18 3
q22 0 34.5 -18t12.5 -42q0 -7 -1 -11q12 -14 14.5 -26.5t2.5 -47.5zM491 610q-36 -57 -93 -150q-65 -104 -126 -237q-2 -6 -26 -54q-66 -135 -93 -195q-14 -32 -27 -64q-30 -66 -50 -62q-9 2 -14.5 10.5t-5.5 20.5q0 7 3 15q25 75 74.5 187t107.5 224t116 222
q66 113 107 113q15 0 21 -9.5t6 -20.5zM218 448q0 30 -22 55q-25 -3 -54 -25t-29 -47q0 -15 11 -27.5t28 -17.5q23 -5 44.5 18.5t21.5 43.5zM448 143q0 13 -6 26q-9 19 -10 27q-19 -13 -36 -36q-20 -28 -20 -51q0 -20 4 -26t16 -6q16 0 34 25t18 41z" />
    <glyph glyph-name="ampersand" unicode="&#x26;" horiz-adv-x="543"
d="M532 178q0 -9 -109 -71q-56 -32 -76 -47q16 -16 58 -54q66 -59 66 -73q-2 -17 -19 -17q-11 1 -16 1q-28 0 -88 56q-28 26 -61 61q-55 -37 -69 -47q-22 -16 -38 -26q-9 -5 -33 -22t-48 -17q-11 0 -15.5 4.5t-6.5 13.5q0 18 34 90q43 88 86 177q-27 52 -53 105
q-21 66 -21 147q0 64 51 155q60 106 129 106q55 0 82 -37q23 -31 23 -80q0 -66 -34.5 -173.5t-95.5 -233.5q7 -13 28 -42q2 -3 18 -28l80 48q67 36 105 36q23 0 23 -32zM342 603q0 17 -15 31t-34 14q-27 0 -65.5 -70.5t-38.5 -131.5q0 -83 53 -191q42 66 69 155
q31 100 31 193zM258 92l-24 36l-36 -64z" />
    <glyph glyph-name="quotesingle" unicode="'" horiz-adv-x="274"
d="M173 752l-4 -82v-50q0 -86 -9.5 -117t-27.5 -31q-17 0 -22.5 15.5t-5.5 42.5q0 24 -2.5 94t-2.5 135q0 6 11.5 18.5t28.5 12.5q15 0 24.5 -12.5t9.5 -25.5z" />
    <glyph glyph-name="parenleft" unicode="(" horiz-adv-x="318"
d="M278 714q0 -13 -48 -94q-30 -52 -45 -87q-20 -49 -25.5 -103t-5.5 -107q0 -34 15 -131t31 -141q4 -11 49 -102q15 -30 15 -40q0 -32 -33 -32q-18 0 -45.5 53t-56.5 134q-18 52 -30.5 135.5t-12.5 144.5q0 90 15 142q17 47 28 79q21 61 58.5 120t58.5 59q17 0 24.5 -7.5
t7.5 -22.5z" />
    <glyph glyph-name="parenright" unicode=")" horiz-adv-x="358"
d="M249 459q0 -84 -9 -152.5t-33.5 -159t-58.5 -172.5q-38 -92 -56 -92q-16 0 -23.5 8.5t-7.5 21.5q0 16 31 97q40 105 59 186q32 138 32 280q0 60 -28 117q-32 50 -63 101q0 28 31 28q26 0 71 -74q55 -90 55 -189z" />
    <glyph glyph-name="asterisk" unicode="*" horiz-adv-x="665"
d="M596 515q0 -16 -7.5 -22.5t-23.5 -6.5q-10 0 -37 4t-42 4q-27 0 -61 -4t-66 -13q24 -33 67 -102q50 -80 50 -92q0 -31 -30 -31q-17 0 -65 70q-42 62 -64 107q-19 -32 -58 -113q-46 -96 -47 -98q-14 -25 -25.5 -33.5t-26.5 -8.5q-7 0 -12 7t-5 17q0 9 45 107q35 76 71 152
q-76 -19 -122 -29.5t-62 -10.5q-30 0 -30 34q0 19 70 39q20 6 135 31q-37 71 -59.5 120t-22.5 61t10.5 18t20.5 6q23 0 69 -98q18 -40 37 -79q57 103 82 139q54 78 91 78q9 0 17 -8t8 -17q0 -6 -80 -114q-44 -60 -61 -93q38 8 87 15q17 2 46 6q34 0 56 -5q45 -10 45 -37z
" />
    <glyph glyph-name="plus" unicode="+" horiz-adv-x="697"
d="M518 288q-4 -1 -14 -1q-17 0 -42 3q-66 8 -82 8v-116q0 -45 -6 -62q-9 -25 -34 -25q-14 2 -24 26.5t-10 64.5q-1 9 -1 22v20v34.5t1 31.5q-34 0 -99 -8t-79 -8t-21.5 7.5t-7.5 17.5q0 15 77.5 35t135.5 20v47t2 43q0 34 9 54.5t26 18.5q19 0 27 -17.5t8 -47.5
q0 -19 -0.5 -39t-0.5 -42v-14q71 -3 121 -6.5t50 -28.5q0 -18 -10 -27t-26 -11z" />
    <glyph glyph-name="comma" unicode="," horiz-adv-x="454"
d="M284 92q0 -34 -33 -111q-26 -57 -39 -85q-20 -46 -35 -70q-22 -36 -35 -36q-15 0 -19.5 4.5t-4.5 19.5q0 10 20 70q51 153 56 174q5 32 11 64q8 29 36 29q23 0 33 -10t10 -49z" />
    <glyph glyph-name="hyphen" unicode="-" horiz-adv-x="697"
d="M559 216q0 -12 -16 -17.5t-31 -5.5h-107q-29 0 -79 -5t-106 -10q-17 -1 -26 -1q-14 0 -23 2t-10.5 11.5t-1.5 17.5q0 15 15 20q53 12 87 17q73 10 177 10q40 0 80.5 -9.5t40.5 -29.5z" />
    <glyph glyph-name="period" unicode="." horiz-adv-x="493"
d="M268 64q0 -20 -22 -40t-46 -20t-32 7t-8 21q0 15 26 39.5t46 24.5q36 0 36 -32z" />
    <glyph glyph-name="slash" unicode="/" horiz-adv-x="512"
d="M570 747q0 -10 -75 -101q-54 -66 -103 -140q-40 -57 -68 -116q-15 -30 -36 -64q-42 -66 -113 -186q-53 -90 -103.5 -174.5t-57.5 -85.5q-4 -1 -10 4t-6 9q0 8 34 79q30 62 86 169q65 123 112 205q9 16 85 156q34 63 87 142q41 61 69 91q41 44 75 44q15 0 19.5 -8t4.5 -24
z" />
    <glyph glyph-name="zero" unicode="0" horiz-adv-x="517"
d="M478 288q0 -112 -94 -195q-85 -75 -178 -75q-60 0 -103 53t-43 137q0 72 59 166q77 123 195 123q11 0 19.5 -6.5t8.5 -18.5q0 -16 -36 -31q-29 -11 -44 -17q-34 -13 -78 -85q-48 -79 -48 -139q0 -34 24.5 -76t57.5 -42q71 0 135 70q59 65 59 124q0 27 -31 46
q-69 43 -69 61q0 17 11 28t37 11q32 0 71 -35q47 -42 47 -99z" />
    <glyph glyph-name="one" unicode="1" horiz-adv-x="406"
d="M319 582q0 -13 -10 -73l-10 -66t-9.5 -69t-6.5 -54q-8 -74 -12 -146t-4 -140q0 -17 -9 -30.5t-29 -13.5q-17 0 -27.5 14.5t-10.5 33.5v84q0 56 1.5 95.5t5.5 86.5q5 37 6 53q6 48 16 106q-45 -42 -100.5 -77.5t-72.5 -35.5q-8 0 -21 13t-13 25q0 14 140 113q53 37 90 68
q46 39 48 39q8 0 18 -8t10 -18z" />
    <glyph glyph-name="two" unicode="2" horiz-adv-x="495"
d="M470 190q0 -18 -58 -50l-106 -58q-2 -1 -88 -58q-47 -31 -61 -31q-39 0 -39 29q0 14 8 31.5t18 36.5q47 101 91 204q53 124 53 138q0 36 -34 36q-23 2 -106.5 -72.5t-99.5 -74.5q-14 0 -19.5 11t-5.5 27q0 10 44 52q49 48 114 94q25 19 57 33q40 18 69 18q24 0 39 -18
q20 -23 20 -72q0 -75 -51 -186q-5 -11 -80 -153q34 16 87 43q94 48 114 48q16 0 25 -6.5t9 -21.5z" />
    <glyph glyph-name="three" unicode="3" horiz-adv-x="449"
d="M412 550q0 -11 -66 -110t-66 -108q0 -6 28 -13.5t43.5 -28.5t21 -37t5.5 -50q0 -89 -95.5 -243.5t-142.5 -154.5q-14 0 -23.5 13.5t-8.5 23.5q73 80 126 164q58 92 58 171q0 33 -5.5 48t-24.5 29q-12 9 -51 18.5t-39 25.5q0 24 46 93q25 38 51 76q-99 -46 -149.5 -69
t-63.5 -23q-8 1 -15 13.5t-7 29.5q0 21 76 60q18 9 80 36q49 21 118 45q23 8 60 20q16 0 30 -7.5t14 -21.5z" />
    <glyph glyph-name="four" unicode="4" horiz-adv-x="479"
d="M454 288q0 -40 -43 -56q-31 -9 -43 -12q0 -27 -1.5 -60.5t-2.5 -69.5q0 -57 -6 -72.5t-36 -15.5q-24 0 -33 11t-9 25q0 22 1 79t1 87q-75 -16 -95 -20q-69 -14 -89 -14q-30 0 -49 8q-27 12 -27 38q0 35 156 215q51 60 108 127q50 59 67 59q27 0 27 -41q0 -14 -3 -44
q-7 -70 -7 -106l-2 -128q12 4 28 8t30 4q15 0 21.5 -4t6.5 -18zM290 440q-43 -40 -91 -102q-32 -43 -63 -86q39 6 67 12t83 20q0 23 2 79.5t2 76.5z" />
    <glyph glyph-name="five" unicode="5" horiz-adv-x="492"
d="M566 535q0 -30 -66 -40q-46 -7 -156 -7h-14q-44 0 -65 6q-37 11 -37 40q0 17 51 22.5t147 5.5q65 0 102.5 -6.5t37.5 -20.5zM400 114q0 -30 -52 -85q-41 -44 -112 -99q-52 -40 -79 -58q-38 -25 -54 -25q-13 0 -20 13.5t-7 31.5q0 9 31 32q35 26 71 52q56 42 91 77
q43 43 43 65q0 35 -61 68q-36 19 -71 38q-50 29 -70 49q-34 35 -34 81q0 41 24 117q28 90 58 90q24 0 30 -11.5t6 -41.5q0 -3 -16 -86q-8 -41 -8 -64q0 -22 16.5 -42.5t69.5 -47.5q75 -39 97 -57q47 -39 47 -97z" />
    <glyph glyph-name="six" unicode="6" horiz-adv-x="539"
d="M440 162q0 -55 -51 -107q-68 -70 -189 -70q-62 0 -98 46t-36 121q0 58 23 124q20 57 65 139q35 64 99 134q75 82 114 82q10 0 18.5 -8.5t8.5 -15.5q0 -11 -93 -115q-56 -62 -85 -110q-41 -67 -54.5 -118t-13.5 -120q0 -29 13 -58t33 -34q-2 6 -3 17.5t-1 17.5v25
q0 66 58 115q51 43 100 43q35 0 63.5 -33.5t28.5 -74.5zM376 162q0 21 -9.5 33.5t-32.5 12.5q-36 0 -63 -42q-23 -36 -23 -66q0 -25 6 -42q49 8 85.5 41.5t36.5 62.5z" />
    <glyph glyph-name="seven" unicode="7" horiz-adv-x="472"
d="M422 479q0 -15 -35 -73q-56 -94 -96 -170q-33 -64 -74 -145q-44 -87 -67 -137q-31 -67 -53 -122q-6 -15 -15.5 -27.5t-20.5 -12.5q-9 0 -13.5 9t-4.5 22q0 20 46 137t98 228l104 228l-97 -25q-45 -10 -78.5 -17t-48.5 -7q-25 0 -38 16t-13 40q0 21 60.5 35t113.5 27.5
t119.5 28.5t76.5 15q17 0 26.5 -10.5t9.5 -39.5z" />
    <glyph glyph-name="eight" unicode="8" horiz-adv-x="430"
d="M334 138q0 -60 -48 -101t-106 -41q-53 0 -89.5 28t-36.5 78q0 65 46 141q0 1 66 93q-28 28 -51 73q-26 52 -26 96q0 77 46 143t97 66q52 0 52 -32q0 -12 -13.5 -20t-34.5 -12.5t-47.5 -50t-26.5 -85.5q0 -35 15 -63q9 -18 35 -47q14 36 59 109q54 87 75 87q16 0 23 -13
t7 -27q0 -22 -71 -122q-39 -56 -49 -74q36 -61 57 -118t21 -108zM256 136q0 32 -11.5 69.5t-34.5 70.5q-33 -40 -58.5 -86.5t-25.5 -69.5t15.5 -44.5t36.5 -21.5q28 0 53 29t25 53z" />
    <glyph glyph-name="nine" unicode="9" horiz-adv-x="471"
d="M39 346q0 59 37 105q56 69 175 69q95 0 133 -70q27 -50 27 -144q0 -58 -21.5 -119.5t-66.5 -143.5q-33 -59 -112 -158q-85 -106 -107 -106q-10 0 -18.5 8.5t-8.5 15.5t88 127q52 71 82 120q44 71 64 134.5t20 127.5q0 44 -13 84t-31 50q1 -2 2 -8.5t1 -12.5
q-1 -16 -1 -29q0 -66 -58 -115q-51 -43 -100 -43q-35 0 -63.5 33.5t-28.5 74.5zM105 350q0 -22 8.5 -33t31.5 -11q36 0 63 39q23 33 23 63q0 25 -6 42q-49 -8 -84.5 -39.5t-35.5 -60.5z" />
    <glyph glyph-name="colon" unicode=":" horiz-adv-x="383"
d="M236 80q0 -22 -29 -46t-63 -24q-24 0 -32 7t-8 21q0 15 37.5 44.5t58.5 29.5q36 0 36 -32zM256 280q0 -22 -29 -46t-63 -24q-24 0 -32 7t-8 21q0 15 37.5 44.5t58.5 29.5q36 0 36 -32z" />
    <glyph glyph-name="semicolon" unicode=";" horiz-adv-x="478"
d="M309 314q0 -22 -29 -46t-63 -24q-24 0 -32 7t-8 21q0 15 37.5 44.5t58.5 29.5q36 0 36 -32zM287 66q0 -27 -23 -85q-15 -39 -49 -113q-20 -46 -35 -70q-22 -36 -35 -36q-15 0 -19.5 4.5t-4.5 19.5q0 10 20 70q51 153 56 174q5 32 11 64q8 29 36 29q29 0 36 -13.5t7 -43.5
z" />
    <glyph glyph-name="less" unicode="&#x3c;" horiz-adv-x="530"
d="M62 232q-4 20 22 36l42 22q76 50 124 81q70 45 129.5 79t72.5 34q16 0 26 -5.5t10 -20.5q-1 -10 -21 -31q-13 -13 -25 -21q-87 -61 -136 -94q-90 -62 -124 -80q103 -48 153 -72q83 -39 143 -70q10 -5 17 -18.5t5 -19.5q-9 -22 -33 -22q-27 0 -157 59q-111 50 -222 109
q-9 5 -16.5 13.5t-9.5 20.5z" />
    <glyph glyph-name="equal" unicode="=" horiz-adv-x="659"
d="M578 356q0 -16 -13 -28t-30 -12q-13 0 -58 5t-73 5q-67 0 -179 -17q-38 -5 -102 -18q-9 0 -16.5 13t-7.5 23q0 20 108 45t195 25q68 0 122 -9.5t54 -31.5zM538 209q0 -18 -15.5 -24.5t-46.5 -6.5t-131 -13t-133 -13q-25 0 -39.5 6t-14.5 22q0 20 100.5 41t169.5 21
q50 0 80 -5.5t30 -27.5z" />
    <glyph glyph-name="greater" unicode="&#x3e;" horiz-adv-x="530"
d="M474 226q0 -11 -7.5 -19.5t-18.5 -14.5q-104 -55 -221 -108q-132 -60 -158 -60q-24 0 -33 22q-3 7 4 20t18 18q55 28 180 87q29 14 116 55q-39 20 -160 105q-82 57 -99.5 68.5t-31.5 27.5t-15 25q0 15 9.5 20.5t26.5 5.5q13 0 74 -35q55 -32 128 -78q48 -31 124 -81
q19 -11 39 -22q25 -17 25 -36z" />
    <glyph glyph-name="question" unicode="?" horiz-adv-x="499"
d="M410 274q2 -11 -3 -18q-9 -12 -58 -54q-57 -47 -82 -61.5t-41 -14.5q-21 0 -34.5 7t-13.5 23q0 21 16 96t33.5 158t26 134t8.5 74q0 12 -6.5 21.5t-16.5 9.5q-12 0 -41 -20.5t-61 -49.5q-49 -46 -67 -62q-31 -28 -38 -28q-26 0 -26 23q-1 13 39 57q35 38 73 73l52 46
q48 38 87 38q33 0 53 -19.5t20 -64.5q0 -85 -35 -233q-12 -48 -23.5 -110t-18.5 -89q22 14 41 29q13 10 36 30t31 26t11 6q1 0 3 -3t7 -3q11 0 19 -4.5t9 -16.5zM299 60q0 -19 -24.5 -41t-52.5 -22q-21 0 -29.5 6.5t-8.5 20.5q0 12 32 38.5t49 26.5q16 0 25 -8t9 -21z" />
    <glyph glyph-name="A" unicode="A" horiz-adv-x="487"
d="M460 46q-3 -20 -5 -23q-6 -9 -25 -9q-24 0 -42 28q-12 19 -28 64q-6 17 -9 24q-14 32 -15 35q-82 -25 -94 -28q-55 -13 -118 -13q-9 -50 -10 -60q-6 -42 -6 -74q0 -13 -12 -19.5t-30 -6.5q-16 0 -22.5 13.5t-6.5 36.5q0 17 42 177q46 175 89 306q20 63 33 97
q38 102 56 102q17 0 54 -154q22 -94 39 -148l72 -216q40 -119 38 -132zM310 253q-22 89 -43 165q-12 43 -27 92q-7 -25 -36 -112q-52 -158 -66 -212q56 7 100 27q11 5 72 40z" />
    <glyph glyph-name="B" unicode="B" horiz-adv-x="458"
d="M419 609q0 -42 -40 -111q-27 -46 -84 -120q-35 -44 -69 -87q12 3 22.5 5.5t28.5 2.5q36 0 69 -24q45 -33 45 -90q0 -45 -63 -121q-69 -83 -129 -83q-8 0 -15 5q-11 8 -11 25q0 19 13 33t40 17t62 42q39 43 39 84q0 34 -46 34q-40 0 -81 -22q-33 -20 -53 -32
q0 -26 10 -130t10 -119q0 -17 -9.5 -26.5t-23.5 -9.5q-16 0 -30 17t-14 39q0 17 -2 117t-2 250l6 169q-10 -2 -14 -2q-35 0 -35 28q0 12 40 58q49 57 104 92q75 48 148 48q34 0 62 -30q22 -24 22 -59zM352 595q0 11 -7.5 21t-19.5 10q-46 0 -89 -26t-80 -74q-3 -23 -3 -46
v-41.5t1 -36.5l-2 -102q32 36 73 89q57 72 86 118q41 64 41 88z" />
    <glyph glyph-name="C" unicode="C" horiz-adv-x="450"
d="M430 187q0 -30 -94 -96q-101 -71 -172 -71q-45 0 -69 56q-18 42 -18 89q0 81 13 148q21 110 77 210q49 88 112 127q40 25 72 25q13 0 15.5 -6.5t2.5 -24.5q0 -5 -81 -85q-45 -44 -64 -77q-34 -59 -52 -156q-14 -74 -14 -137q0 -36 3 -53q7 -43 30 -43q29 0 93 38t81 48
q9 6 25 11.5t26 5.5q14 2 14 -9z" />
    <glyph glyph-name="D" unicode="D" horiz-adv-x="493"
d="M458 353q0 -88 -75 -169q-53 -52 -77 -76q-72 -76 -93 -97q-32 -33 -49 -33q-19 0 -30.5 6t-11.5 22q0 23 -8 110t-8 120q0 66 -4 115q-11 136 -11 164q-14 3 -21.5 13.5t-5.5 25.5q0 21 22 38q-1 4 -1 12q0 20 13 36t32 16q14 0 21 -20q3 -12 7 -23q13 4 32 7q33 6 59 6
q82 0 145.5 -79.5t63.5 -193.5zM387 353q0 55 -37 125q-45 85 -104 85q-28 0 -43.5 -4t-36.5 -15q0 -47 9 -236.5t13 -223.5q69 65 138 131q61 68 61 138z" />
    <glyph glyph-name="E" unicode="E"
d="M427 144q0 -30 -115.5 -101t-173.5 -71q-15 0 -24.5 12.5t-9.5 29.5t10 26q0 30 -3.5 66t-12.5 114.5t-14 140t-8 109.5q-12 -4 -23 7t-11 27q0 15 10 25q6 6 28 17q0 35 8.5 55t24.5 20q13 0 21 -11.5t8 -37.5q9 3 140 62q45 20 59 20q10 1 16 1q15 0 24 -5.5t9 -21.5
q0 -30 -130 -88q-57 -26 -114 -51q0 -55 4 -95q8 -57 12 -94q42 20 106 45t76 25q11 0 18.5 -9.5t7.5 -19.5q0 -24 -82 -69q-52 -29 -117 -57q4 -25 6 -44q9 -68 9 -105q21 6 52 22q37 19 58 30q41 23 60 33q35 18 48 17q23 0 23 -24z" />
    <glyph glyph-name="F" unicode="F" horiz-adv-x="384"
d="M355 334q0 -21 -41 -45q-27 -16 -78 -35l-76 -32q0 -38 5.5 -87.5t12.5 -102.5q0 -20 -9 -29t-33 -9q-21 0 -33.5 96t-23 177.5t-17 164.5t-6.5 128q0 20 29 36q20 11 60 22q67 18 88 23q52 13 61 13q17 0 29.5 -5.5t12.5 -16.5q0 -18 -15 -28q-9 -6 -37 -16
q-50 -16 -78 -25q-51 -17 -78 -31q0 -25 7 -107q4 -46 12 -125q69 24 104 36q64 22 77 22q11 0 19 -7t8 -17z" />
    <glyph glyph-name="G" unicode="G" horiz-adv-x="470"
d="M412 250q0 -83 -79 -176q-84 -99 -169 -99q-50 0 -77 42q-32 50 -32 157q0 70 22 142q19 63 63 152q37 76 92.5 146.5t80.5 70.5q12 0 18 -11.5t6 -25.5q0 -5 -67 -103q-40 -59 -68 -111q-35 -66 -54.5 -136t-19.5 -126q0 -34 9 -66q14 -50 46 -50q40 0 75 31
q28 25 59 78q11 19 18.5 40.5t7.5 32.5q0 10 -10.5 15.5t-25.5 5.5q-16 0 -38 -26q-25 -30 -25 -65q0 -31 -34 -31q-17 0 -22.5 17.5t-5.5 40.5q0 32 35 76q42 53 93 53q37 0 66 -16q36 -20 36 -58z" />
    <glyph glyph-name="H" unicode="H" horiz-adv-x="526"
d="M476 50q0 -15 -12 -31t-31 -16q-30 0 -57 138q-10 53 -17 106q-68 0 -108.5 -7t-77.5 -14q0 -50 2.5 -103.5t5.5 -116.5q0 -19 -9.5 -32t-29.5 -13q-23 0 -33 34.5t-10 118.5q0 16 -1 51t-1 47q-37 0 -53 6q-27 10 -27 42q0 19 14 24t39 5q17 0 24 1q2 56 4.5 130t2.5 96
q0 56 12.5 101.5t37.5 45.5q15 0 20.5 -21.5t5.5 -57.5q0 -15 -0.5 -29.5t-0.5 -28.5v-129t1 -99q43 8 71 12q50 8 113 14q0 37 -5.5 110t-5.5 101q0 42 5.5 62t27.5 20q21 0 29.5 -15.5t8.5 -59.5q0 -34 4.5 -113.5t4.5 -92.5q0 -96 14 -169q16 -59 32 -117z" />
    <glyph glyph-name="I" unicode="I" horiz-adv-x="258"
d="M194 74q0 -27 -13 -44.5t-34 -17.5q-26 0 -36 109q-4 54 -8 109q-7 87 -12 166t-5 134v24q0 38 5.5 56t25.5 18q25 0 40 -151q7 -75 14 -149q0 -2 15 -139q8 -74 8 -115z" />
    <glyph glyph-name="J" unicode="J" horiz-adv-x="448"
d="M332 74q0 -43 -18 -67.5t-38 -24.5q-24 0 -56 27q-24 20 -69 72.5t-75 96.5q-36 53 -36 74q0 14 3 23.5t14 9.5q16 0 38 -23q49 -62 75 -94q22 -28 44 -50q27 -27 39 -27q9 0 9 43q0 26 -11 130t-11 158q0 27 -4 72t-8 100q0 29 5 43.5t22 14.5q26 0 37 -14
q16 -20 16 -72q0 -13 4 -92t4 -128q0 -65 4 -114q12 -147 12 -158z" />
    <glyph glyph-name="K" unicode="K" horiz-adv-x="454"
d="M403 624q0 -43 -23.5 -103.5t-61.5 -124.5q-41 -70 -93.5 -138.5t-62.5 -81.5l154 -60q31 -11 63 -22q37 -15 37 -32q0 -19 -3 -27q-6 -15 -25 -15q-37 0 -116 30l-120 48q0 -37 -7 -52q-12 -26 -44 -26q-18 0 -22 18t-4 57q-19 17 -19 47q0 13 8 27t19 25q0 50 1 188.5
t1 155.5q0 58 6.5 87t20.5 29q17 0 25.5 -13.5t8.5 -58.5q0 -59 0.5 -135t1.5 -169q36 39 64 81q23 33 51.5 86.5t46.5 96.5t18 60q0 31 12 50t30 19q33 0 33 -47z" />
    <glyph glyph-name="L" unicode="L" horiz-adv-x="424"
d="M432 168q0 -46 -132 -122q-125 -72 -173 -72q-10 0 -20.5 19t-10.5 31q5 60 9.5 127t4.5 119q0 90 -17 211t-17 147q0 18 5.5 30t21.5 12q40 0 79 -287q3 -25 3.5 -50.5t0.5 -48.5q0 -37 -5 -94t-5 -70v-12l2 -24q2 -8 16 -8q17 0 109 56t103 56q26 0 26 -20z" />
    <glyph glyph-name="M" unicode="M" horiz-adv-x="656"
d="M642 58q0 -21 -12.5 -29.5t-31.5 -8.5q-47 0 -96 120q-44 109 -44 178q0 13 -2 34t-2 36q-62 -146 -80 -177q-33 -57 -54 -57q-27 0 -73 158q-33 114 -52 163q-12 -19 -19.5 -158t-11 -205t-16 -83t-32.5 -17q-23 0 -28.5 25.5t-5.5 60.5q0 66 14 178q32 257 32 264
q0 34 10 63q14 39 38 39q28 0 41 -20q9 -14 19 -42l94 -292q29 48 59 120q24 58 45 124q18 54 23 65q14 29 35 29q28 0 34 -20t6 -70q0 -49 2 -100t7.5 -112t22.5 -113q11 -33 40 -95q6 -12 22 -30t16 -28z" />
    <glyph glyph-name="N" unicode="N" horiz-adv-x="551"
d="M498 50q0 -32 -28 -32q-18 0 -36.5 11.5t-35.5 30.5q-63 69 -145 168q-44 52 -85 102q4 -25 4 -49q0 -10 -1 -31.5t-1 -35.5l4 -178q0 -33 -5 -48.5t-27 -15.5q-24 0 -34 14.5t-10 35.5q0 55 -1 91q-5 178 -5 207q0 34 -9 105t-9 89q0 28 3 36q7 18 28 18q26 0 64 -70
q59 -110 71 -126q45 -61 91 -118t67 -76q0 7 -13 101q-7 51 -7 81v226q0 28 10 41t28 13q38 0 38 -80l12 -252q0 -42 16 -137t16 -121z" />
    <glyph glyph-name="O" unicode="O" horiz-adv-x="570"
d="M562 350q0 -93 -85 -202q-98 -126 -219 -126q-79 0 -147.5 83.5t-68.5 175.5q0 139 82 251q76 104 153 104q109 0 200 -93q86 -88 86 -180q-1 -9 -1 -13zM485 354q0 72 -66 141.5t-121 69.5q-81 0 -138 -113q-45 -89 -45 -151q0 -82 50 -147q46 -59 92 -59q68 0 148 88
t80 171z" />
    <glyph glyph-name="P" unicode="P" horiz-adv-x="461"
d="M418 493q0 -121 -83 -212q-37 -41 -143 -113q2 -29 7.5 -68.5t11.5 -77.5q0 -16 -12.5 -30.5t-29.5 -14.5q-26 0 -44 130q-12 92 -16 126t-19 126q-10 62 -10 93q-48 10 -48 35q0 10 13 31.5t27 31.5q-3 15 -3 30q0 19 6 30.5t21 13.5q16 2 23 -12q7 -20 11 -32
q60 43 75 51q49 25 111 25q50 0 78 -53q24 -46 24 -110zM346 488q0 40 -17.5 68t-46.5 28q-47 0 -83 -24q-9 -6 -57 -50q10 -74 21 -151t21 -117q98 62 123 100q39 59 39 146z" />
    <glyph glyph-name="Q" unicode="Q" horiz-adv-x="526"
d="M466 346q0 -81 -25 -144q-12 -30 -49 -90q7 -17 63 -112q17 -29 15 -42q0 -13 -13 -22.5t-22 -7.5q-21 2 -50 44q-25 36 -53 94q-30 -21 -53 -29q-42 -15 -107 -15q-71 0 -112 65q-34 54 -34 117q0 125 38 214.5t132 171.5q13 11 32 19q26 11 44 9q16 0 20 -5t4 -20
q-78 -63 -136 -149q-64 -95 -64 -222q0 -56 19 -90q23 -40 65 -40q77 0 116 36q-10 36 -27 87q-31 95 -31 113q0 15 12 25t26 10t42 -65q13 -30 44 -114q15 24 24.5 72t9.5 86t-30 83q-33 48 -66 97q0 16 11 23.5t24 7.5q29 0 76 -60q55 -70 55 -147z" />
    <glyph glyph-name="R" unicode="R" horiz-adv-x="510"
d="M488 61q0 -19 -8.5 -32t-25.5 -13q-20 0 -90 32q-43 20 -93.5 39t-88.5 29q0 -56 -6 -85q-11 -53 -43 -53q-16 0 -24.5 17.5t-8.5 43.5q0 15 3 35.5t4 31.5q-33 16 -33 42q0 30 36 39l-14 291q-11 4 -19.5 17.5t-8.5 28.5q-2 12 2 24t15 19q-1 19 -1 30q0 17 3.5 27
t12.5 13t13 3q9 0 18 -6t15 -16q38 29 54 37q46 22 108 22q66 0 88 -53q12 -29 12 -86q0 -67 -45 -155q-50 -98 -142 -192q43 -13 88 -30q56 -21 98 -40t58 -30q23 -16 23 -30zM338 530q0 72 -57 72q-39 0 -74 -22q-28 -18 -45 -44q5 -103 8.5 -189.5t3.5 -110.5
q76 86 111 141q53 84 53 153z" />
    <glyph glyph-name="S" unicode="S" horiz-adv-x="508"
d="M407 382q0 -35 -7 -69.5t-24 -37.5t-30 15.5t-13 37.5q0 4 3 46t3 76q0 60 -17 102q-22 55 -67 55q-20 0 -30 -48t-10 -141q0 -70 10 -128.5t40 -151.5q3 -11 56 -114q19 -37 19 -54q0 -22 -8.5 -38t-23.5 -16q-48 0 -156 75q-120 83 -120 149q0 11 3 16.5t14 5.5
q14 0 73 -47q49 -40 99 -79q-20 62 -39 124q-14 58 -27.5 125.5t-13.5 168.5q0 89 26.5 162.5t72.5 73.5q85 0 126 -79t41 -229z" />
    <glyph glyph-name="T" unicode="T" horiz-adv-x="449"
d="M433 619q0 -34 -73 -55q-10 -3 -122 -30q0 -53 13 -177q7 -67 7 -99q0 -42 7 -99t15 -119q0 -24 -6.5 -33t-27.5 -9q-32 0 -45 67q-3 15 -13.5 120.5t-15.5 162.5q-10 105 -10 162q-108 -31 -116 -33q-41 -11 -54 -11q-15 0 -22.5 6t-7.5 26q0 25 61 51q28 12 113 38
q49 16 142.5 38.5t109.5 22.5h12q15 0 24 -5.5t9 -23.5z" />
    <glyph glyph-name="U" unicode="U" horiz-adv-x="521"
d="M436 64q0 -20 -13 -35t-29 -15t-24.5 15t-13.5 41q-9 49 -13.5 84t-4.5 50q-35 -70 -82 -117q-58 -59 -116 -59q-44 0 -58 70q-10 51 -10 190q-18 270 -18 298q0 18 11.5 25t26.5 7q26 3 38 -91t12 -217q0 -96 5.5 -139t26.5 -43q35 0 74 56q29 42 66 125q4 28 14 182.5
t53 154.5q16 0 22.5 -9.5t6.5 -26.5q0 -8 -3 -35q-7 -62 -7 -91q0 -60 1.5 -106.5t4.5 -107.5q0 -49 9.5 -101t20.5 -105z" />
    <glyph glyph-name="V" unicode="V" horiz-adv-x="457"
d="M448 600q0 -20 -36 -130q-32 -97 -71 -203q-49 -133 -70 -178q-45 -99 -73 -99q-18 0 -32 18t-14 52q0 19 -20.5 99t-45.5 161q-15 49 -66 190q-16 44 -16 58q0 22 4.5 33t23.5 11q38 0 78 -118q27 -84 41 -126.5t30 -97t33 -112.5q14 32 33 81q6 14 70 182
q25 70 51.5 141.5t47.5 71.5q32 0 32 -34z" />
    <glyph glyph-name="W" unicode="W" horiz-adv-x="589"
d="M560 592q2 -18 -20 -184t-48 -282q-30 -130 -61 -130q-26 0 -73 103q-39 85 -69 136q-23 -94 -41 -149q-34 -103 -74 -103q-34 0 -66 151q-9 42 -26.5 141.5t-33.5 192.5t-16 123q3 7 4 11q11 26 18 26q15 0 23.5 -8.5t16.5 -39.5q12 -50 28 -128l32 -156q20 -98 30 -142
q31 101 44 141q23 70 44 70q25 0 59 -51q9 -14 95 -179q0 23 17 115q13 70 18.5 104.5t10.5 77.5q12 100 15 128.5t15.5 48.5t26.5 20q11 0 20 -11t11 -26z" />
    <glyph glyph-name="X" unicode="X" horiz-adv-x="393"
d="M364 76q0 -42 -62 -42q-40 0 -80 64q-29 47 -54 119q-15 -31 -42.5 -108.5t-30.5 -103t-4 -27.5q-6 -24 -27 -24q-22 0 -33 15.5t-11 52.5q0 24 39 130t71 166q-39 89 -73 176q-39 101 -39 128q0 12 8.5 25t21.5 13q20 0 74 -134q25 -63 51 -126q40 84 80 169
q55 107 81 107q18 0 23.5 -7.5t5.5 -25.5q0 -9 -35 -85l-118 -244q39 -95 55 -128q37 -76 61 -76q14 0 22 -4q16 -8 16 -30z" />
    <glyph glyph-name="Y" unicode="Y" horiz-adv-x="497"
d="M481 638q0 -15 -9.5 -62.5t-22.5 -103.5l-56 -246q-30 -127 -56 -206q-35 -104 -58 -104q-28 0 -28 20q0 25 23 114q19 74 39 148q9 37 18 73q21 86 30 135q-37 -57 -52 -78q-82 -116 -130 -116q-20 0 -65 87q-35 67 -72 163.5t-37 112.5t9.5 28.5t23.5 12.5q10 0 46 -76
q33 -71 66 -141q37 -77 49 -77q15 0 49 46q30 40 65 102q53 96 75 134q37 65 51 65q42 0 42 -31z" />
    <glyph glyph-name="Z" unicode="Z" horiz-adv-x="462"
d="M458 172q0 -15 -43 -58.5t-107 -95.5q-50 -39 -79 -58q-42 -27 -64 -27q-23 0 -37 7.5t-14 25.5q0 26 37 137q31 91 63 185t50 163.5t18 96.5q0 14 -6 24t-18 10q-11 0 -48.5 -25t-69.5 -53q-59 -51 -80 -69q-36 -31 -44 -31q-28 0 -28 26q0 13 49 63q45 46 87 81
q66 55 81 65q43 29 79 29t55 -23t19 -75q0 -57 -18 -126q-14 -53 -48 -148q-29 -81 -54 -156q-12 -35 -36 -114q50 33 90 66q64 54 87 72q38 31 49 31q30 0 30 -23z" />
    <glyph glyph-name="bracketleft" unicode="[" horiz-adv-x="401"
d="M378 -32q0 -14 -15.5 -24.5t-31.5 -10.5q-32 0 -70 0.5t-83 1.5q-17 0 -34.5 20.5t-17.5 42.5q0 64 -2 152t-3 161q0 56 2 165t2 145q0 37 25.5 51t109.5 14h21.5t21.5 1q30 0 43.5 -5.5t13.5 -24.5t-12 -25.5t-36 -6.5q-12 0 -43.5 1t-50.5 1q-12 0 -17 -13
q-1 -2 -3 -20q0 -16 -4.5 -134.5t-4.5 -148.5q0 -59 3 -148.5t8 -137.5q1 -7 14.5 -17t24.5 -10l89 2q27 0 38.5 -6.5t11.5 -25.5z" />
    <glyph glyph-name="backslash" unicode="\" horiz-adv-x="350"
d="M391 -111q0 -22 -9 -22l-13 2q-12 1 -96 171q-77 155 -131 280q-48 111 -112 278t-64 185q0 10 8.5 17.5t20.5 7.5q15 0 24 -12q4 -5 13 -23q18 -38 54 -127.5t72 -180.5q29 -74 70 -172q17 -43 67 -159q47 -111 66 -157q30 -74 30 -88z" />
    <glyph glyph-name="bracketright" unicode="]" horiz-adv-x="393"
d="M261 311l-5 -313q0 -23 -17 -43t-36 -20q-24 0 -87.5 -1t-65.5 -1q-17 0 -31.5 10t-14.5 25q0 32 50 32l88 -2q11 0 25 9t15 18q5 57 8 138.5t3 147.5q0 55 1.5 114t3.5 137q-1 18 -1 22q-2 16 -3 19q-5 14 -17 14q-30 0 -59.5 -1t-33.5 -1q-27 0 -38 6t-11 26
q0 18 13 24t44 6q10 0 21 -0.5t23 -0.5q85 0 110 -13.5t25 -51.5q0 -35 -5 -139t-5 -161z" />
    <glyph glyph-name="asciicircum" unicode="^"
d="M375 534q1 -7 1 -21q0 -21 -6 -30q-9 -13 -31 -13q-47 0 -47 44q0 17 -10.5 70t-19.5 98q-22 -39 -86 -117q-70 -85 -86 -85q-34 -3 -34 28q0 21 35 63q21 26 39 51q49 69 60 86q34 50 51 80t25 39q13 15 27 15q31 0 60 -161q11 -62 22 -147z" />
    <glyph glyph-name="underscore" unicode="_" horiz-adv-x="497"
d="M428 -58q29 0 39 -8t10 -21q0 -18 -21.5 -23t-66.5 -5q-74 0 -106 -1q-158 -5 -162 -5h-21q-21 0 -34 5t-13 19q0 15 7.5 25.5t22.5 10.5l160 2h27h21h17h14h12q18 0 38 0.5t42 0.5h14z" />
    <glyph glyph-name="grave" unicode="`" horiz-adv-x="487"
d="M350 734q0 -12 -6.5 -15t-21.5 -3q-9 0 -25 8q-3 1 -55 32q-80 47 -106 67q-53 42 -53 80q0 18 8 23.5t25 5.5q25 0 79 -42q13 -10 100 -85q26 -21 38 -36q17 -20 17 -35z" />
    <glyph glyph-name="a" unicode="a" horiz-adv-x="473"
d="M397 25q0 -19 -12.5 -33.5t-25.5 -14.5q-26 0 -48 63q-14 41 -26 105q-32 -49 -82 -94q-60 -53 -98 -53q-28 0 -48 24t-20 54q0 73 86 212q90 146 150 146q13 0 21.5 -6t8.5 -20q0 -16 -32 -48q-54 -54 -68 -72q-33 -41 -64.5 -107t-31.5 -85q0 -12 2.5 -16t13.5 -4
q24 0 85.5 64.5t61.5 79.5q0 17 14.5 26t25.5 9q9 0 20 -8.5t14 -24t10.5 -47.5t13.5 -52.5t20 -63.5q9 -27 9 -34z" />
    <glyph glyph-name="b" unicode="b" horiz-adv-x="462"
d="M416 282q0 -90 -71 -194q-65 -96 -101 -96q-19 0 -26.5 12t-7.5 32q0 18 48 68q32 34 38 42q24 35 39 70.5t15 56.5v14q0 13 -4.5 21t-19.5 8q-35 0 -91 -85q-67 -101 -67 -219q0 -18 -9.5 -28t-32.5 -10q-29 0 -33.5 31t-4.5 55q0 32 3.5 139t5 175t1.5 122
q0 27 -0.5 54.5t-0.5 54.5q0 61 5.5 94t23.5 33q22 0 31 -14t9 -48l-2 -200l-6 -228q30 54 89 105t92 51q47 0 65 -38q12 -26 12 -78z" />
    <glyph glyph-name="c" unicode="c" horiz-adv-x="398"
d="M396 176q0 -24 -80 -93q-91 -78 -158 -78q-46 0 -78 28q-27 24 -27 61q0 98 92 198q83 90 133 90q13 0 20.5 -5t7.5 -19q0 -19 -25.5 -39t-51.5 -40q-31 -26 -63 -76.5t-32 -82.5q0 -16 13.5 -28.5t33.5 -12.5q25 0 99 59t95 59t21 -21z" />
    <glyph glyph-name="d" unicode="d" horiz-adv-x="516"
d="M444 76q0 -24 -7 -44t-23 -17q-26 3 -35.5 33t-9.5 76v27t1 25q-8 -6 -39 -41q-14 -16 -29 -29q-71 -64 -81 -71q-45 -34 -79 -34q-27 0 -48.5 26t-21.5 66q0 34 12.5 75.5t43.5 87.5q36 54 93.5 97t86.5 43q22 0 39 -4.5t17 -21.5q0 -22 -11 -31t-27 -9q-26 0 -67 -30
q-46 -34 -77 -80q-20 -30 -27 -58.5t-7 -55.5q0 -20 18 -20q20 0 61.5 34t82.5 68q12 9 33.5 26t26.5 19q0 46 -1 139.5t-1 165.5v115q3 66 28 63q18 -2 24 -7.5t6 -22.5l2 -166q0 -99 4 -182q12 -249 12 -262z" />
    <glyph glyph-name="e" unicode="e" horiz-adv-x="442"
d="M484 109q0 -18 -91 -93q-98 -81 -143 -81q-47 0 -73 23.5t-26 72.5q0 26 18 73q10 26 27 60q-35 -16 -69 -16q-32 0 -51 18t-19 41q0 34 77 121q87 98 154 98q20 0 20 -24q0 -11 -61 -58q-38 -29 -51 -42q-9 -9 -22 -31t-13 -29q0 -4 2 -6t4 -3q19 0 78.5 26.5t61.5 26.5
q6 -1 13 -8t7 -15q0 -24 -10 -48q-5 -11 -25.5 -46t-40.5 -70q-20 -38 -20 -61q0 -11 9.5 -18.5t21.5 -7.5q37 0 89 37q52 41 104 83q29 0 29 -23z" />
    <glyph glyph-name="f" unicode="f" horiz-adv-x="451"
d="M464 533v-20q0 -18 -2.5 -29t-10.5 -12q-9 -2 -21.5 25t-21.5 55l-42 146q-29 87 -79 156q0 -13 -5 -98t-5 -137q0 -49 -1.5 -111.5t-1.5 -63.5v-14v-12q0 -18 -0.5 -35.5t-0.5 -34.5v-10l136 -4q14 0 25 -5.5t11 -16.5q0 -24 -63 -40t-113 -16q0 -47 3.5 -94.5
t8.5 -99.5q0 -30 -3 -39q-7 -20 -31 -20q-20 0 -37 83.5t-17 165.5q-37 1 -74 3q-49 6 -49 32q0 32 44 42q26 6 83 6l10 295q0 72 6 177t6 139q2 18 9.5 25.5t32.5 7.5q55 0 129 -159t74 -287z" />
    <glyph glyph-name="g" unicode="g" horiz-adv-x="420"
d="M386 196q-2 -15 -83 -155q-50 -86 -59 -104q1 -4 24 -118q18 -88 18 -135q0 -44 -24 -75t-65 -31q-46 0 -73.5 36t-27.5 85q0 53 29 128q22 52 44 103q-31 88 -41 127q-26 100 -26 198q0 80 64 143q55 54 100 54q21 0 21 -23q0 -21 -31 -39q-45 -27 -52 -34
q-19 -21 -24.5 -45t-5.5 -58v-16q0 -56 10.5 -108t31.5 -105l94 154q12 22 25 34q17 16 33 16q20 0 20 -17q0 -5 -2 -15zM220 -320q0 25 -9.5 79.5t-10.5 62.5q-10 -23 -19.5 -65t-9.5 -52l6 -30q8 -30 18 -30q6 0 15.5 13t9.5 22z" />
    <glyph glyph-name="h" unicode="h" horiz-adv-x="470"
d="M428 38q-4 -18 -4 -19q-5 -13 -26 -13q-22 0 -36 23q-4 6 -32 91q-15 46 -32 75q-21 37 -40 37q-25 0 -53 -45t-45 -109q-6 -26 -18.5 -39t-25.5 -13q-19 0 -23.5 15.5t-4.5 72.5v228q0 81 1 155t3 161q0 14 8.5 27.5t17.5 13.5q17 0 25.5 -9.5t8.5 -41.5q0 -43 2 -88
q7 -158 7 -160v-82.5t1 -72.5q25 33 37 45q30 30 69 30q22 2 53 -36q28 -35 56 -93q25 -50 39.5 -93t11.5 -60z" />
    <glyph glyph-name="i" unicode="i" horiz-adv-x="293"
d="M160 616q0 -17 -34.5 -52.5t-47.5 -35.5q-14 0 -17 9t-3 29q0 16 30 48t45 32q27 0 27 -30zM178 59q0 -22 -5 -37.5t-20 -15.5q-36 0 -45 80q-4 36 -4 87v47q0 34 -6 95t-6 73q1 8 1 10q2 11 7.5 20.5t15.5 9.5q24 0 37 -62t13 -131q0 -37 6 -97t6 -79z" />
    <glyph glyph-name="j" unicode="j" horiz-adv-x="405"
d="M241 356l-3 -248q0 -100 3.5 -202t6 -171t2.5 -105v-12q0 -36 -7 -47t-21 -11q-17 0 -76 85q-50 72 -102 164t-52 105q0 11 10.5 18.5t23.5 7.5t94 -135q47 -78 68 -109q0 25 -5 156t-5 212q0 30 -1 92t-1 90q0 85 7 127.5t29 42.5q18 0 23.5 -10.5t5.5 -29.5v-20z
M238 610q0 -17 -33.5 -52.5t-45.5 -35.5q-14 0 -17.5 10t-3.5 28q0 17 28.5 48.5t43.5 31.5q28 0 28 -30z" />
    <glyph glyph-name="k" unicode="k" horiz-adv-x="476"
d="M406 402q0 -35 -123 -167q-52 -56 -104 -111q135 -30 138 -31q75 -21 75 -43t-17 -34.5t-42 -12.5q-9 0 -51 10q-134 32 -150 35q-15 -32 -29 -50q-19 -24 -35 -24q-32 0 -32 32q0 12 2 23q8 44 10 67q9 66 13 102q9 71 9 120q0 67 1 155t3 189q0 27 11 38.5t25 11.5
q13 0 19.5 -11.5t6.5 -28.5l4 -336q0 -49 -2 -85t-10 -83q100 109 131 142q109 116 121 116q17 0 21.5 -4.5t4.5 -19.5z" />
    <glyph glyph-name="l" unicode="l" horiz-adv-x="281"
d="M184 28q-2 -17 -14.5 -31.5t-27.5 -14.5q-24 0 -34 166q-3 55 -5 165t-3.5 191t-3.5 186q0 19 9 32.5t29 13.5q32 0 32 -344q0 -39 9 -183t9 -171v-10z" />
    <glyph glyph-name="m" unicode="m" horiz-adv-x="627"
d="M566 36q0 -14 -9 -25t-25 -11q-22 0 -46 32q-18 25 -42 74l-32 66q-31 -74 -54 -120t-42 -46q-23 0 -58 84t-44 84q-13 0 -30 -98t-46 -98q-18 0 -28 16t-10 66q0 25 -3.5 63.5t-14.5 118.5q-7 44 -11.5 77.5t-4.5 50.5q0 38 34 38q27 0 43 -86q6 -34 15 -98q10 22 16 31
q16 25 40 25q25 0 48 -30q8 -11 58 -114q27 73 57 110q24 30 46 30q15 0 39 -35q16 -23 44 -79l40 -76t20 -50z" />
    <glyph glyph-name="n" unicode="n" horiz-adv-x="488"
d="M440 58q0 -21 -10 -31.5t-26 -10.5q-23 0 -43 38q-15 33 -23 52q-17 37 -26 53q-15 28 -36 61q-24 -39 -43 -71q-28 -48 -45 -85q-12 -26 -23 -39q-16 -19 -35 -19q-23 0 -31 27.5t-8 74.5v30.5t1 31.5q0 36 -12 139q-5 45 -4 59q0 11 11 18.5t21 7.5q27 0 44 -82
q14 -66 14 -126q28 50 51 82q38 52 61 52q19 0 42 -30q3 -4 70 -122q17 -30 34 -59q16 -31 16 -51z" />
    <glyph glyph-name="o" unicode="o" horiz-adv-x="437"
d="M382 264q0 -113 -53 -186.5t-143 -73.5q-59 0 -97 53q-33 46 -33 101q0 66 47 129q59 79 157 79q41 0 83 -39q39 -36 39 -63zM306 250q0 24 -18.5 38t-45.5 14q-33 0 -68 -39q-42 -46 -42 -109q0 -20 18.5 -51t39.5 -31q63 0 94 70q22 49 22 108z" />
    <glyph glyph-name="p" unicode="p" horiz-adv-x="412"
d="M382 294q0 -101 -77 -211q-68 -97 -102 -97q-6 0 -16.5 17.5t-10.5 28.5q54 60 94 120q44 66 44 122q0 20 -16 41q-10 13 -18 13q-23 0 -62 -36q-44 -41 -60 -90q-4 -11 -6 -35t-2 -54q0 -69 8.5 -155.5t14 -141.5t5.5 -66q0 -25 -7.5 -42.5t-19.5 -17.5q-21 0 -32 19.5
t-15 64.5l-18 190l-26 304q-1 10 -2 21t-1 13q0 19 7 29.5t26 10.5q21 0 31 -20q7 -14 9 -38q18 33 74 74q61 44 98 44q48 0 67 -38q13 -26 13 -70z" />
    <glyph glyph-name="q" unicode="q" horiz-adv-x="526"
d="M572 -24q0 -12 -18 -46l-18 -34q-30 -59 -51 -98q-35 -65 -50 -95t-20 -37q-15 -22 -31 -22q-33 -3 -45.5 89.5t-12.5 240.5v145q-38 -46 -96 -89q-67 -50 -104 -50q-69 0 -69 98q0 86 123 209q117 117 180 117q20 0 33 -6q23 -10 23 -34q0 -15 -11 -19.5t-31 -4.5h-16
q-34 0 -128 -99q-98 -104 -98 -153v-13q0 -20 16 -20q19 0 70 44q47 40 84 85q13 16 35 57q13 24 31 24q24 0 34 -15q7 -11 7 -31q-1 -13 -1 -17q-3 -64 -5.5 -129t-2.5 -93q0 -50 3 -115t3 -77q17 26 60 100q63 110 82 110q24 0 24 -22z" />
    <glyph glyph-name="r" unicode="r" horiz-adv-x="354"
d="M334 352q0 -20 -29 -34t-55 -26q-19 -14 -38 -39t-30 -51q-7 -15 -9.5 -33.5t-2.5 -45.5q0 -12 1 -36t1 -35q0 -21 -10.5 -36.5t-25.5 -15.5q-40 0 -40 58v87v23q0 35 -3 63.5t-25 100.5q-10 32 -10 40q0 12 9 21t21 9q34 0 54 -57q5 -16 16 -59q20 33 59 67q44 39 71 39
q46 0 46 -40z" />
    <glyph glyph-name="s" unicode="s" horiz-adv-x="386"
d="M338 262q1 -13 0 -18q-4 -12 -16 -12q-24 0 -72 58t-56 58q-10 0 -10 -12q0 -7 2.5 -20t13.5 -64.5t26 -100.5t30 -97q9 -33 9 -59q0 -23 -5.5 -38t-16.5 -15q-28 -3 -116.5 71t-88.5 106q0 7 8 18t18 11q8 0 41 -30q25 -23 33 -29l51 -43q-20 75 -40 154
q-27 109 -27 130q0 51 5 69q13 47 59 47q27 0 89.5 -73.5t62.5 -110.5z" />
    <glyph glyph-name="t" unicode="t" horiz-adv-x="371"
d="M346 354q0 -13 -15 -23t-39 -13.5t-46 -5.5t-44 -2l-3 -128q0 -21 0.5 -50t2.5 -65q0 -27 -6 -44q-9 -25 -27 -25q-31 0 -38 138q-3 56 -3 132v40q-18 -2 -62.5 -5t-69.5 -3q-30 0 -30 28q0 21 43.5 33t120.5 19q0 30 -1 82t-1 118q0 23 4.5 36t19.5 13q17 0 28.5 -15.5
t11.5 -35.5q0 -18 5 -109q2 -36 2 -81l105 -4q20 0 31 -9t11 -21z" />
    <glyph glyph-name="u" unicode="u" horiz-adv-x="476"
d="M428 30q-5 -34 -38 -34q-25 0 -40.5 20t-23.5 50t-10 40t-2 38q-35 -46 -73 -80q-60 -53 -107 -53q-44 0 -59 98q-9 58 -9 161q0 47 9.5 71.5t36.5 24.5q19 0 24.5 -19t5.5 -63q0 -77 5 -128.5t19 -51.5q16 0 43.5 26.5t52.5 61.5q12 17 44 72q20 35 30 35q26 0 35 -18.5
t13 -62.5q0 -27 0.5 -52.5t9.5 -63.5q4 -19 19.5 -40t14.5 -32z" />
    <glyph glyph-name="v" unicode="v" horiz-adv-x="371"
d="M342 340q0 -11 -17 -55q-13 -34 -35 -85q-11 -25 -49 -124q-48 -124 -69 -124q-20 0 -50 84q-9 26 -50 156q-13 40 -25.5 80.5t-12.5 65.5q0 12 8 20.5t22 7.5q18 0 29 -15.5t25 -56.5l62 -174q12 27 29 71t23 61q21 55 36 81q21 37 42 37q32 0 32 -30z" />
    <glyph glyph-name="w" unicode="w" horiz-adv-x="562"
d="M530 294q0 -37 -42 -155q-48 -136 -88 -136q-28 0 -63 48q-38 52 -75 105q-40 -51 -71 -89q-34 -42 -60 -42q-31 0 -55 105t-24 210q0 57 38 57q36 0 36 -73q9 -106 12 -120q7 -37 22 -56q51 76 63 93q17 24 37 24q22 0 51 -37q25 -32 84 -131q7 12 17 44q3 8 28 97
q10 35 16 48q16 35 47 35q11 0 19 -8t8 -19z" />
    <glyph glyph-name="x" unicode="x" horiz-adv-x="478"
d="M429 48q0 -23 -8.5 -30.5t-41.5 -7.5q-28 0 -66 17t-59 38q-19 -30 -55 -62q-41 -37 -62 -37q-19 0 -27.5 12t-6.5 30q0 12 24 37q71 74 72 75q-56 56 -90 94q-68 76 -68 102q0 12 7 21t16 9q24 0 80 -59q44 -49 89 -98q49 94 75 144q48 92 68 92q13 0 17.5 -10t4.5 -27
q0 -32 -43 -123q-23 -48 -66 -127q20 -22 53 -38t55 -16q13 0 22.5 -11.5t9.5 -24.5z" />
    <glyph glyph-name="y" unicode="y" horiz-adv-x="442"
d="M404 -230q0 -17 -6 -30.5t-20 -13.5q-26 0 -56 109t-30 221q-6 68 -6 144q-49 -75 -91 -119.5t-66 -44.5q-36 0 -66.5 107t-30.5 201q0 25 6.5 39t23.5 14q32 0 32 -53q0 -56 20 -133t38 -77q12 0 62.5 75t67.5 117q5 25 11 50q7 14 25 14q21 0 29 -15t8 -40
q0 -8 -0.5 -16t-0.5 -15q0 -39 2 -119.5t2 -94.5q0 -65 15 -150t31 -170z" />
    <glyph glyph-name="z" unicode="z" horiz-adv-x="431"
d="M414 74q0 -26 -30 -46q-10 -7 -36 -20q-67 -34 -124 -56.5t-76 -22.5q-13 0 -21.5 10t-6.5 23q0 21 42 129q32 83 42 112t30 81q14 37 14 46t-1.5 13.5t-14.5 4.5q-10 0 -102 -66t-104 -66q-24 0 -24 28q0 21 108 103q112 85 152 85q24 0 41 -15t17 -37q0 -60 -44 -189
q-29 -82 -58 -163q32 12 107 43q50 21 61 21h11q17 0 17 -18z" />
    <glyph glyph-name="braceleft" unicode="{" horiz-adv-x="382"
d="M350 -15q0 -15 -10.5 -29t-24.5 -14h-25.5t-28.5 -1q-34 0 -57 2t-31.5 13.5t-13 23.5t-5.5 28.5t-1 20.5v20l7 153q0 5 1 25t1 31q0 13 -1.5 21t-28.5 40q-12 14 -12 31q0 23 18.5 37t22 31t5.5 58.5t2 73.5v45q0 60 12.5 83t36 33t57.5 10q66 0 61 -31q-1 -11 -12 -18
t-24 -7q-27 0 -35 -1.5t-15.5 -12t-7.5 -35.5v-15.5t1 -14.5q0 -24 1 -59t1 -40q0 -33 -2 -57t-8.5 -37.5t-23 -26t-20.5 -16.5q24 -17 25 -18q7 -6 10 -13t4 -27t1 -24q0 -12 -1 -36t-1 -34q0 -29 -1 -47q-4 -74 -4 -75q0 -17 2 -28.5t5 -18.5q9 -13 38 -14.5t52 -1.5
q30 0 30 -28z" />
    <glyph glyph-name="bar" unicode="|" horiz-adv-x="258"
d="M131 -185q-24 0 -27.5 25t-3.5 49q0 101 1 186.5t3 204.5t2 137q0 105 1.5 191t6.5 132q0 27 32 27q15 0 23.5 -12.5t8.5 -32.5l-7 -205q0 -65 -1 -99q-4 -137 -4 -159v-24v-31v-33v-32v-30v-27v-24v-21v-19v-16v-14v-12q0 -19 -0.5 -37.5t-0.5 -35.5v-23q0 -31 -6 -48
t-28 -17z" />
    <glyph glyph-name="braceright" unicode="}" horiz-adv-x="344"
d="M257 346q0 -22 -17 -38q-21 -20 -23 -29.5t-3 -26.5t-1 -28l1 -175v-20v-13q0 -22 -5 -31q-6 -15 -13 -25q-11 -15 -33.5 -17t-56.5 -2q-15 0 -28.5 0.5t-25.5 0.5q-14 0 -24.5 13.5t-10.5 29.5q0 14 8 21t22 7h13q33 0 51.5 2.5t25.5 13.5t7 47v70t1 74q0 26 0.5 52.5
t6.5 42.5q3 7 15.5 16.5t19.5 14.5q-5 5 -25 20q-13 9 -16.5 17t-6 23.5t-2.5 39.5q0 23 3 71t3 67q0 24 -1.5 37t-6.5 20q-12 16 -19 19t-30 3q-31 0 -36 25q-3 18 11 24.5t50 6.5q33 0 57 -10t38 -35q6 -11 8.5 -30.5t2.5 -50.5q0 -19 -2 -70.5t-2 -55.5q0 -34 3.5 -52.5
t22 -32.5t18.5 -36z" />
    <glyph glyph-name="asciitilde" unicode="~" horiz-adv-x="487"
d="M487 714q0 -21 -25 -53q-5 -6 -33 -37q-25 -30 -43 -45t-33 -15q-18 0 -39 21q-16 18 -25 27q-19 19 -38 39q-20 18 -39 18q-11 0 -26.5 -13.5t-31.5 -32.5t-31.5 -36.5t-29.5 -17.5q-13 0 -20 14q-3 6 -3 13q0 9 13.5 33t33.5 49q26 33 49 50q29 22 52 22q22 0 43 -13
q16 -10 36 -31l35 -35q18 -17 25 -17q15 0 51 44t46 44q15 0 24 -5.5t9 -22.5z" />
    <glyph glyph-name="c128" horiz-adv-x="406"
d="M390 242q0 -63 -67 -171q-73 -117 -134 -117q-8 0 -15 5q-11 8 -11 25q0 29 10 40.5t28 11.5q29 0 77 74.5t48 128.5q0 19 -20 30.5t-45 11.5q-39 0 -62 -7t-65 -32q0 -29 3 -90q8 -162 8 -166q0 -18 -9 -31t-22 -13q-16 0 -30 17t-14 39q0 17 -2 117t-2 250l4 185
q-46 -16 -94.5 -28t-83.5 -12q-21 0 -31.5 7t-10.5 28q0 12 24 22q9 4 46.5 14t75.5 20.5t72 24.5q0 35 8.5 55t24.5 20q13 0 21 -11.5t8 -37.5q9 3 140 62q45 20 59 20q10 1 16 1q15 0 24 -5.5t9 -21.5q0 -30 -130 -88q-57 -26 -114 -51q-2 -11 -2 -29q0 -11 1 -37.5
t1 -40.5v-132l58 22q23 7 65 7q38 0 79 -26q54 -34 54 -91z" />
    <glyph glyph-name="c129" horiz-adv-x="316"
d="M390 676q0 -30 -130 -88q-57 -26 -114 -51q0 -40 7 -102q18 -160 18 -220q0 -51 4.5 -127.5t4.5 -79.5q0 -17 -7.5 -26.5t-26.5 -9.5q-15 0 -24 10t-9 26v48q0 54 -1.5 85t-7 77.5t-12 132.5t-12.5 167q-12 -4 -24 6t-14 26q-3 15 9 26q8 7 29 18q0 35 8.5 55t24.5 20
q13 0 21 -11.5t8 -37.5q9 3 140 62q45 20 59 20q10 1 16 1q15 0 24 -5.5t9 -21.5zM395 895q0 -23 -53 -63q-22 -16 -72 -52q-28 -20 -62 -41q-45 -28 -55 -28h-11q-14 0 -14 15q0 13 36 48q22 21 58 51l80 70q36 29 60 29q17 0 25 -5.5t8 -23.5z" />
    <glyph glyph-name="quotesinglbase" unicode="&#x201a;" horiz-adv-x="372"
d="M232 92q0 -34 -33 -111q-26 -57 -39 -85q-20 -46 -35 -70q-22 -36 -35 -36q-15 0 -19.5 4.5t-4.5 19.5q0 10 20 70q51 153 56 174q5 32 11 64q8 29 36 29q23 0 33 -10t10 -49z" />
    <glyph glyph-name="florin" unicode="&#x192;" horiz-adv-x="354"
d="M354 432q4 -22 -75 -60q-70 -33 -126 -45q11 -34 15.5 -83t4.5 -104v-12q0 -20 -0.5 -39t-0.5 -37q0 -21 -10.5 -36.5t-25.5 -15.5q-40 0 -40 58v87v23q0 35 -3 63.5t-25 100.5q-10 32 -10 40q0 12 9 21t21 9q65 0 126 20l116 46q17 0 20 -9q2 -16 4 -27zM377 694
q0 -23 -53 -63q-22 -16 -72 -52q-28 -20 -62 -41q-45 -28 -55 -28h-11q-14 0 -14 15q0 13 36 48q22 21 58 51l80 70q36 29 60 29q17 0 25 -5.5t8 -23.5z" />
    <glyph glyph-name="quotedblbase" unicode="&#x201e;" horiz-adv-x="533"
d="M255 92q0 -34 -33 -111q-26 -57 -39 -85q-20 -46 -35 -70q-22 -36 -35 -36q-15 0 -19.5 4.5t-4.5 19.5q0 10 20 70q51 153 56 174q5 32 11 64q8 29 36 29q23 0 33 -10t10 -49zM419 84q0 -34 -33 -111q-26 -57 -39 -85q-20 -46 -35 -70q-22 -36 -35 -36q-15 0 -19.5 4.5
t-4.5 19.5q0 10 20 70q51 153 56 174q5 32 11 64q8 29 36 29q23 0 33 -10t10 -49z" />
    <glyph glyph-name="ellipsis" unicode="&#x2026;" horiz-adv-x="763"
d="M284 80q0 -22 -29 -46t-63 -24q-24 0 -32 7t-8 21q0 15 37.5 44.5t58.5 29.5q36 0 36 -32zM468 76q0 -22 -29 -46t-63 -24q-24 0 -32 7t-8 21q0 15 37.5 44.5t58.5 29.5q36 0 36 -32zM644 80q0 -22 -29 -46t-63 -24q-24 0 -32 7t-8 21q0 15 37.5 44.5t58.5 29.5
q36 0 36 -32z" />
    <glyph glyph-name="dagger" unicode="&#x2020;" horiz-adv-x="371"
d="M346 354q0 -13 -15 -23t-39 -13.5t-46 -5.5t-44 -2l-8 -248q0 -21 0.5 -49.5t2.5 -65.5q0 -27 -6 -44q-9 -25 -27 -25q-21 0 -29 91.5t-8 216.5v65.5t1 56.5q-18 -2 -62.5 -5t-69.5 -3q-30 0 -30 28q0 21 43.5 33t120.5 19q0 30 -1 82t-1 118q0 23 4.5 36t19.5 13
q17 0 28.5 -15.5t11.5 -35.5q0 -18 5 -109q2 -36 2 -81l105 -4q20 0 31 -9t11 -21z" />
    <glyph glyph-name="daggerdbl" unicode="&#x2021;" horiz-adv-x="371"
d="M192 151l2 -89q0 -21 0.5 -49.5t2.5 -65.5q0 -27 -6 -44q-9 -25 -27 -25q-20 0 -30.5 79.5t-10.5 188.5q-33 -3 -72 -5.5t-58 -2.5q-30 0 -30 28q0 19 44.5 31t115.5 19l2 113q-18 -2 -62.5 -5t-69.5 -3q-30 0 -30 28q0 21 43.5 33t120.5 19v83t1 96q0 23 4.5 36t19.5 13
q17 0 28.5 -15.5t11.5 -35.5q0 -32 2 -87t2 -82l105 -4q20 0 31 -9t11 -21q0 -13 -15 -23t-39 -13.5t-46 -5.5t-44 -2q0 -7 -3 -46t-3 -66q33 0 59 1t49 2q20 0 31 -9t11 -21q0 -13 -15 -23t-34.5 -13t-58.5 -4t-43 -1z" />
    <glyph glyph-name="circumflex" unicode="&#x2c6;"
d="M385 464l4 -34q0 -14 -8.5 -22t-31.5 -8q-47 0 -47 44q0 17 -10.5 70t-19.5 98q-22 -39 -86 -117q-70 -85 -86 -85q-34 -3 -34 28q0 21 35 63q21 26 39 51q49 69 60 86q34 50 51 80t25 39q13 15 27 15q31 0 60 -161q11 -62 22 -147z" />
    <glyph glyph-name="Scaron" unicode="&#x160;" horiz-adv-x="679"
d="M608 297q0 20 -8 31.5t-31 11.5q-33 0 -79 -20.5t-91 -40.5q11 -41 24 -83.5t36 -87.5q71 68 91 90q58 64 58 99zM372 342q43 19 108 44q78 30 97 30q36 0 69 -24q44 -32 44 -89q0 -34 -64 -117.5t-137 -152.5q-34 -32 -60 -36q-14 -1 -34.5 33.5t-34.5 75.5
q-19 55 -28 81q-16 46 -22 66q-15 48 -33 116t-37 141q-38 -128 -64 -217.5t-46 -168.5q-7 -25 -13 -50q-9 -38 -9 -84q0 -13 -12 -19.5t-30 -6.5q-16 0 -22.5 13.5t-6.5 36.5q0 17 42 177q46 175 89 306q22 69 50 141q23 58 39 58q11 0 18.5 -18t16.5 -54q21 -80 38 -140
q29 -102 42 -142z" />
    <glyph glyph-name="guilsinglleft" unicode="&#x2039;" horiz-adv-x="381"
d="M311 446q0 -13 -22.5 -41.5t-43.5 -54.5q-55 -73 -91 -114q27 -28 41 -43q26 -28 47 -53l36 -42q18 -25 18 -49q0 -49 -34 -49q-11 0 -21 8t-13.5 26t-27.5 45l-38 42q-10 13 -73 80q-21 22 -21 28q-3 9 16 36q14 20 74 90q52 66 66 81q38 42 57 42q30 0 30 -32z" />
    <glyph glyph-name="OE" unicode="&#x152;" horiz-adv-x="660"
d="M611 297q0 20 -8 31.5t-31 11.5q-31 0 -67.5 -21t-72.5 -43q5 -56 9.5 -99t17.5 -78q61 58 92 94q60 69 60 104zM363 252q-31 -13 -116 -38q-53 -16 -74 -24q0 -47 4 -106t4 -78t-9.5 -32t-29.5 -13q-23 0 -33 34.5t-10 118.5l-2 62q-37 0 -53 6q-27 10 -27 42
q0 19 14 24t39 5q17 0 24 1q2 68 4.5 155.5t2.5 106.5q0 56 12.5 101.5t37.5 45.5q15 0 20.5 -21.5t5.5 -57.5q0 -15 -0.5 -29.5t-0.5 -28.5q0 -103 1 -152t3 -98q46 7 88.5 18t92.5 30q0 37 -5.5 110t-5.5 101q0 42 5.5 62t27.5 20q21 0 29.5 -15.5t8.5 -59.5
q0 -38 2.5 -115.5t2.5 -81.5q27 21 80 46t74 25q36 0 69 -24q44 -32 44 -89q0 -39 -79 -142q-84 -109 -148 -139q-9 -18 -31 -21q-13 -1 -25 16t-16 39q-11 47 -21 97.5t-10 98.5z" />
    <glyph glyph-name="c141" horiz-adv-x="454"
d="M416 62q0 -19 -3 -27q-6 -15 -25 -15q-37 0 -116 30l-120 48q0 -37 -7 -52q-12 -26 -44 -26q-18 0 -22 18t-4 57q-19 17 -19 47q0 13 8 27t19 25q0 50 1 188.5t1 155.5q0 58 6.5 87t20.5 29q17 0 25.5 -13.5t8.5 -58.5q0 -59 0.5 -135t1.5 -169q36 39 64 81
q23 33 51.5 86.5t46.5 96.5t18 60q0 31 12 50t30 19q33 0 33 -47q0 -43 -23.5 -103.5t-61.5 -124.5q-41 -70 -93.5 -138.5t-62.5 -81.5l154 -60q31 -11 63 -22q37 -15 37 -32zM449 904q0 -23 -53 -63q-22 -16 -72 -52q-28 -20 -62 -41q-45 -28 -55 -28h-11q-14 0 -14 15
q0 13 36 48q22 21 58 51l80 70q36 29 60 29q17 0 25 -5.5t8 -23.5z" />
    <glyph glyph-name="c142" horiz-adv-x="435"
d="M390 242q0 -16 1 -55.5t1 -43.5q0 -67 -8 -109.5t-30 -42.5q-13 0 -24.5 10t-11.5 29q0 9 3 85t3 116q0 31 -17 40.5t-46 9.5q-39 0 -62 -7t-65 -32q0 -28 3 -75q8 -126 8 -133q0 -18 -9 -31t-22 -13q-16 0 -29 17t-15.5 41.5t-3.5 57.5t-1 78v88t1 93l4 185
q-46 -16 -94.5 -28t-83.5 -12q-21 0 -31.5 7t-10.5 28q0 12 24 22q9 4 46.5 14t75.5 20.5t72 24.5q0 35 8.5 55t24.5 20q13 0 21 -11.5t8 -37.5q9 3 140 62q45 20 59 20q10 1 16 1q15 0 24 -5.5t9 -21.5q0 -30 -130 -88q-57 -26 -114 -51q-2 -11 -2 -29q0 -11 1 -37.5
t1 -40.5v-132l58 22q23 7 65 7q38 0 79 -26q54 -34 54 -91z" />
    <glyph glyph-name="c143" horiz-adv-x="503"
d="M311 -224q0 -24 -7 -39t-21 -15q-16 0 -28 13t-12 29l9 239q-42 -11 -84.5 -21t-58.5 -10q-15 0 -24.5 12.5t-9.5 29.5t10 26q0 37 -1 59q-5 112 -5 127v302q0 32 7 58.5t23 26.5q18 0 28 -16.5t10 -36.5v-260q0 -58 2.5 -119.5t5.5 -132.5q33 9 58 14q40 9 53 12
q24 6 50.5 14t50.5 15q-5 32 -8 63t-3 70q0 76 -2.5 183t-2.5 117v24q0 38 5.5 56t25.5 18q17 0 25.5 -11t8.5 -28q0 -24 4 -114t4 -147q0 -51 2.5 -118t2.5 -84q0 -8 4 -25.5t4 -21.5q0 -20 -24 -28t-46 -15t-52 -15z" />
    <glyph glyph-name="c144" horiz-adv-x="417"
d="M118 456q5 -19 7 -31t2 -23q5 -41 6 -61q6 -65 6 -80q28 37 46 48t54 11q25 2 60.5 -39.5t50 -96t27 -113.5t19 -123t11 -109t4.5 -90q0 -21 1 -42.5t2 -42.5q0 -33 -5.5 -50t-21.5 -17q-29 0 -44 6.5t-30 27.5q-35 49 -70 97q-26 37 -50 79q-17 28 -33 55q-9 17 -9 25
q0 13 4.5 17.5t17.5 4.5q15 0 52 -44q4 -5 121 -160q-5 33 -11.5 89t-10.5 103q0 63 -6.5 114.5t-22.5 117.5q-10 43 -28 73t-38 30q-23 0 -39 -52q-12 -40 -23 -120q-3 -26 -16.5 -39t-27.5 -13q-19 0 -23 37t-5 51l-31 279l-9 75q-42 -7 -63 -12q-68 -15 -71 -15
q-32 -3 -32 26q0 16 48.5 36t110.5 32q-2 29 -5 70.5t-3 66.5q0 13 13 26t23 13q28 0 33 -48q1 -6 2.5 -45.5t6.5 -74.5q32 7 69.5 12.5t53.5 5.5q19 0 31.5 -7.5t12.5 -17.5q0 -14 -15 -26t-33 -15q-38 -8 -55 -12q-43 -9 -64 -9z" />
    <glyph glyph-name="quoteleft" unicode="&#x2018;" horiz-adv-x="293"
d="M233 458q0 -18 -3.5 -23t-20.5 -5q-12 0 -34 36q-18 30 -36 70q-26 58 -38 85q-34 79 -34 111t5 42q9 17 38 17q31 0 39 -43q4 -25 9 -52t42 -134q33 -96 33 -104z" />
    <glyph glyph-name="quoteright" unicode="&#x2019;" horiz-adv-x="331"
d="M263 737q0 -34 -33 -111q-26 -57 -39 -85q-20 -45 -35 -70q-22 -36 -35 -36q-15 0 -19.5 4.5t-4.5 19.5q0 10 20 70q51 153 56 174q5 32 11 64q8 29 36 29q23 0 33 -10t10 -49z" />
    <glyph glyph-name="quotedblleft" unicode="&#x201c;" horiz-adv-x="414"
d="M373 473q0 -18 -3.5 -23t-20.5 -5q-12 0 -34 36q-18 30 -36 70q-26 58 -38 85q-34 79 -34 111t5 42q9 17 38 17q31 0 39 -43q4 -25 9 -52t42 -134q33 -96 33 -104zM209 465q0 -18 -3.5 -23t-20.5 -5q-12 0 -34 36q-18 30 -36 70q-26 58 -38 85q-34 79 -34 111t5 42
q9 17 38 17q31 0 39 -43q4 -25 9 -52t42 -134q33 -96 33 -104z" />
    <glyph glyph-name="quotedblright" unicode="&#x201d;" horiz-adv-x="422"
d="M197 742q0 -34 -33 -111q-26 -57 -39 -85q-24 -55 -35 -74q-22 -40 -35 -40q-15 0 -19.5 8t-4.5 24q0 10 20 70q51 153 56 174q5 32 11 64q8 29 36 29q23 0 33 -10t10 -49zM361 734q0 -34 -33 -111q-26 -57 -39 -85q-20 -45 -35 -70q-22 -36 -35 -36q-15 0 -19.5 4.5
t-4.5 19.5q0 10 20 70q51 153 56 174q5 32 11 64q8 29 36 29q23 0 33 -10t10 -49z" />
    <glyph glyph-name="bullet" unicode="&#x2022;" horiz-adv-x="539"
d="M208 350q25 31 65 31q30 0 53 -19q31 -25 31 -64q0 -30 -19 -53q-25 -31 -66 -31q-29 0 -52 18q-31 25 -31 65q0 30 19 53z" />
    <glyph glyph-name="endash" unicode="&#x2013;" horiz-adv-x="697"
d="M608 282q0 -17 -27 -23q-14 -3 -25 -3q-18 0 -60.5 1t-61.5 1q-20 0 -134 -17t-156 -17q-20 -1 -29 -1q-18 0 -27 4t-10 12.5t-1 12.5v6q0 17 16 21q86 21 191 33.5t189 12.5q45 0 90 -10.5t45 -32.5z" />
    <glyph glyph-name="emdash" unicode="&#x2014;" horiz-adv-x="794"
d="M698 252q0 -17 -27 -23q-14 -3 -25 -3q-18 0 -60.5 1t-61.5 1l-380 -4q-20 -1 -29 -1q-18 0 -27 4t-10 12.5t-1 12.5v6q0 17 16 21q31 8 179 12t291 4q45 0 90 -10.5t45 -32.5z" />
    <glyph glyph-name="tilde" unicode="&#x2dc;" horiz-adv-x="487"
d="M452 734q0 -21 -25 -53q-5 -6 -33 -37q-25 -30 -43 -45t-33 -15q-18 0 -39 21q-16 18 -25 27q-19 19 -38 39q-20 18 -39 18q-11 0 -26.5 -13.5t-31.5 -32.5t-31.5 -36.5t-29.5 -17.5q-13 0 -20 14q-3 6 -3 13q0 9 13.5 33t33.5 49q26 33 49 50q29 22 52 22q22 0 43 -13
q16 -10 36 -31l35 -35q18 -17 25 -17q15 0 51 44t46 44q15 0 24 -5.5t9 -22.5z" />
    <glyph glyph-name="trademark" unicode="&#x2122;" horiz-adv-x="718"
d="M636 438q0 -12 -8.5 -22.5t-23.5 -10.5q-23 0 -45 39q-6 11 -24 48q-5 10 -16 38.5t-21 55.5q-15 -49 -39 -100q-31 -67 -50 -67q-20 0 -49 60q-25 52 -40 104l-30 -120q-22 -73 -42 -73q-15 0 -25 13t-10 30q0 16 21.5 85.5t40.5 117.5t20 49q15 30 31 30q11 0 23 -26
q2 -5 15 -38q22 -69 45 -138l49 138q14 36 19 45q10 19 21 19q21 0 49 -70q20 -53 41 -105q19 -38 38 -75q10 -21 10 -27zM248 695q3 -21 -36 -31q-10 -3 -52 -11q8 -25 11.5 -63t3.5 -81q0 -19 -0.5 -37t-0.5 -36q0 -19 -9.5 -32.5t-23.5 -13.5q-15 0 -25.5 13t-10.5 38
q0 53 -5.5 110.5t-8.5 93.5q-25 -4 -49 -8q-7 0 -15 1t-15.5 11.5t-7.5 16.5q0 22 26.5 38t72.5 16q26 0 63 6t46 6q14 0 23 -10t13 -27z" />
    <glyph glyph-name="scaron" unicode="&#x161;" horiz-adv-x="599"
d="M275 106q-12 24 -31 77q-23 64 -31 86l-90 -195q-23 -50 -28 -56q-13 -16 -28 -16q-18 0 -27 8t-9 28q0 22 36 91q26 49 37.5 70.5t43.5 94.5q46 106 69 106q17 0 52 -80q9 -19 61 -149q33 -81 42 -81q31 0 88 52q61 56 61 93q0 20 -14 28t-50 8q-19 0 -57 -33t-48 -33
q-14 0 -20 3q-12 6 -12 24q-2 18 51 61t82 43q74 0 107 -26t33 -75q0 -61 -96 -149q-90 -83 -131 -83q-34 0 -56 32q-10 14 -35 71z" />
    <glyph glyph-name="guilsinglright" unicode="&#x203a;" horiz-adv-x="383"
d="M334 259q0 -33 -19 -64q-3 -5 -88 -101q-36 -41 -58 -58q-27 -21 -49 -21q-30 0 -27 25q0 13 12 27q43 38 83 81q34 38 48 56q26 34 26 52q0 14 -32 47q-15 15 -34 32t-37.5 34t-36.5 34q-12 11 -23 22.5t-11 21.5q0 14 13.5 21t31.5 7q21 0 59 -36q32 -33 64 -65
q39 -36 50 -50q28 -35 28 -65z" />
    <glyph glyph-name="oe" unicode="&#x153;" horiz-adv-x="448"
d="M303 168h-152q6 -68 8 -85t2 -23q0 -23 -13.5 -38.5t-34.5 -15.5q-23 0 -31 27.5t-8 73.5v30.5t1 31.5q-19 2 -30.5 8.5t-11.5 20.5q0 16 10 24.5t28 11.5q-2 24 -7 70.5t-5 63.5q0 11 11 18.5t21 7.5q27 0 43 -53q13 -44 13 -101h149q-4 28 -13.5 84t-9.5 59
q0 17 4 24.5t21 7.5t31.5 -5t16.5 -17.5t14 -86t14 -93.5q7 -50 11.5 -82.5t4.5 -59.5v-20q57 30 100 62q58 43 58 65q0 20 -13 28t-49 8q-21 0 -48 -18q-14 -9 -22 -9q-14 0 -20 3q-11 6 -11 24q0 17 35.5 37.5t65.5 20.5q73 0 103.5 -23t30.5 -71q0 -40 -63 -95
q-48 -43 -122 -85q-64 -37 -78 -37q-17 0 -26 18t-9 68q0 23 -6.5 55.5t-12.5 65.5z" />
    <glyph glyph-name="c157" horiz-adv-x="424"
d="M350 338q0 -36 -66 -108q-37 -40 -74 -79q90 -57 136.5 -87t46.5 -42q0 -18 -5.5 -24.5t-27.5 -6.5q-21 0 -89 38t-105 68l-28 -34q0 -47 -5 -59.5t-24 -12.5q-33 0 -33 24l-6 82q0 55 -7 111.5t-15 118.5q0 24 10.5 37.5t22.5 13.5q14 0 25 -12t11 -28q0 -22 4 -56
q10 -84 10 -114q84 92 131 141q51 53 60 53q17 0 22.5 -4.5t5.5 -19.5zM393 611q0 -23 -53 -63q-22 -16 -72 -52q-28 -20 -62 -41q-45 -28 -55 -28h-11q-14 0 -14 15q0 13 36 48q22 21 58 51l80 70q36 29 60 29q17 0 25 -5.5t8 -23.5z" />
    <glyph glyph-name="c158" horiz-adv-x="417"
d="M118 456q5 -19 7 -31t2 -23q5 -41 6 -61q6 -65 6 -80q28 37 46 48t54 11q25 2 60.5 -39.5t48.5 -89.5q21 -78 30.5 -123.5t9.5 -81.5q0 -24 -30 -24q-20 0 -41 78q-7 28 -22 89q-10 43 -28 73t-38 30q-23 0 -39 -52q-12 -40 -23 -120q-3 -26 -16.5 -39t-27.5 -13
q-19 0 -23 37t-5 51l-31 279l-9 75q-42 -7 -63 -12q-68 -15 -71 -15q-32 -3 -32 26q0 16 48.5 36t110.5 32q-2 29 -5 70.5t-3 66.5q0 13 13 26t23 13q28 0 33 -48q1 -6 2.5 -45.5t6.5 -74.5q32 7 69.5 12.5t53.5 5.5q19 0 31.5 -7.5t12.5 -17.5q0 -14 -15 -26t-33 -15
q-38 -8 -55 -12q-43 -9 -64 -9z" />
    <glyph glyph-name="Ydieresis" unicode="&#x178;" horiz-adv-x="453"
d="M427 30q-5 -33 -37 -33q-24 0 -39.5 20t-22 44t-8.5 32q-6 23 -6 52q-35 -46 -73 -80q-60 -53 -107 -53q-44 0 -59 98q-8 52 -8 160q0 48 8.5 71.5t36.5 23.5q18 0 23.5 -19.5t5.5 -61.5q0 -69 5.5 -125t19.5 -56q17 0 46 28q25 24 51 60q13 19 34 90q15 53 39 53
q25 0 34 -18.5t13 -61.5v-72q2 -43 10 -80q4 -19 19.5 -40t14.5 -32zM317 9q0 -23 -18 -68q-5 -12 -40 -90q-14 -33 -29 -56q-19 -29 -29 -29t-15.5 4.5t-5.5 21.5q0 9 16 55q42 120 45.5 140.5t8.5 46.5q7 24 30 24q24 0 32 -14q5 -9 5 -35z" />
    <glyph glyph-name="nonbreakingspace" unicode="&#xa0;"
d="M260 625q-6 -13 -15 -23t-18 -10q-20 0 -20 28q0 24 26.5 97.5t45.5 73.5q9 0 19 -9q14 -13 14 -30q0 -24 -22 -70q-15 -29 -30 -57zM161 632q-6 -13 -15 -23t-18 -10q-20 0 -20 28q0 24 26.5 97.5t45.5 73.5q9 0 19 -9q14 -13 14 -30q0 -24 -22 -70q-15 -29 -30 -57z
" />
    <glyph glyph-name="exclamdown" unicode="&#xa1;" horiz-adv-x="497"
d="M481 638q0 -15 -9.5 -62.5t-22.5 -103.5l-56 -246q-30 -127 -56 -206q-35 -104 -58 -104q-28 0 -28 20q0 25 23 114q19 74 39 148q9 37 18 73q21 86 30 135q-37 -57 -52 -78q-82 -116 -130 -116q-20 0 -65 87q-35 67 -72 163.5t-37 112.5t9.5 28.5t23.5 12.5q10 0 46 -76
q33 -71 66 -141q37 -77 49 -77q15 0 49 46q30 40 65 102q53 96 75 134q37 65 51 65q42 0 42 -31zM137 684q0 15 121 81.5t141 66.5q16 1 25 -10t9 -28q0 -21 -14 -32q-5 -4 -30 -16q-35 -17 -116 -52q-93 -40 -106 -40q-16 0 -21 3q-9 6 -9 27z" />
    <glyph glyph-name="cent" unicode="&#xa2;" horiz-adv-x="414"
d="M405 -250q0 -17 -6 -31t-21 -14q-25 0 -56 110t-31 221q-6 66 -6 140q-36 -56 -68 -94q-57 -67 -88 -67q-36 0 -67 108.5t-31 200.5q0 26 6.5 40t24.5 14q33 0 33 -54q0 -56 19.5 -132.5t37.5 -76.5q13 0 62.5 74.5t66.5 116.5q5 29 9.5 47t27.5 18t32 -18q6 -12 6 -39
q-1 -21 -1 -30q0 -39 2 -119.5t2 -94.5q0 -65 15 -150t31 -170zM111 478q0 15 121 81.5t141 66.5q16 1 25 -10t9 -28q0 -21 -14 -32q-5 -4 -30 -16q-35 -17 -116 -52q-93 -40 -106 -40q-16 0 -21 3q-9 6 -9 27z" />
    <glyph glyph-name="sterling" unicode="&#xa3;" horiz-adv-x="448"
d="M332 74q0 -43 -18 -67.5t-38 -24.5q-24 0 -56 27q-24 20 -69 72.5t-75 96.5q-36 53 -36 74q0 14 3 23.5t14 9.5q16 0 38 -23q49 -62 75 -94q22 -28 44 -50q27 -27 39 -27q9 0 9 43q0 26 -11 130t-11 158q0 27 -4 72t-8 100q0 29 5 43.5t22 14.5q26 0 37 -14
q16 -20 16 -72q0 -13 4 -92t4 -128q0 -65 4 -114q12 -147 12 -158z" />
    <glyph glyph-name="yen" unicode="&#xa5;" horiz-adv-x="316"
d="M402 688q-6 -32 -140 -97q-85 -40 -116 -54q0 -40 7 -102q18 -160 18 -220q0 -51 4.5 -127.5t4.5 -79.5q0 -17 -7.5 -26.5t-26.5 -9.5q-15 0 -24 10t-9 26v48q0 54 -1.5 85t-7 77.5t-12 132.5t-12.5 167q-12 -4 -24 6t-14 26q-3 15 9 26q8 7 29 18q0 35 8.5 55t24.5 20
q13 0 21 -11.5t8 -37.5q66 23 122 51q72 36 72 55q0 26 -3 104t-3 92q0 11 9.5 18.5t22.5 7.5q18 0 26 -10q12 -14 12 -50q0 -34 1.5 -85t2.5 -81v-24q-2 -8 -2 -10z" />
    <glyph glyph-name="brokenbar" unicode="&#xa6;" horiz-adv-x="269"
d="M111 353q0 118 1.5 193.5t5.5 113t34 37.5q15 0 23.5 -12.5t8.5 -32.5q0 -90 -1.5 -157.5t-2.5 -148.5q0 -6 -7 -10.5t-28 -4.5q-13 0 -23.5 6t-10.5 16zM183 230q0 -57 -1.5 -130t-1.5 -89q0 -8 1 -26t1 -27q0 -27 -7 -39q-10 -16 -35 -16q-18 0 -24.5 45t-6.5 106v33
t1 31q3 7 4 29t1 62q0 6 10 18.5t19 13.5t20 1q19 0 19 -12z" />
    <glyph glyph-name="section" unicode="&#xa7;" horiz-adv-x="454"
d="M410 225q0 -74 -46 -114q-25 -21 -71 -36q-16 -5 -30.5 -9.5t-28.5 -4.5q-10 0 -22 3l50 -47q44 -40 66 -91q16 -36 16 -64q0 -70 -51 -102q-39 -25 -98 -25q-55 0 -88 46q-26 36 -26 69q0 10 5.5 21t17.5 11t30 -15q20 -21 32 -33q25 -24 44 -24q26 0 45.5 20.5
t19.5 49.5q0 16 -13.5 35.5t-56.5 69.5q-14 16 -88 79q-107 91 -107 176q0 102 69 149q44 30 95 30q17 0 28 -10.5t11 -22.5q0 -21 -23 -27q-1 0 -34 -4t-51.5 -34t-18.5 -75q0 -44 36 -81q42 -43 108 -43q47 0 79 27t32 65q0 75 -72 163q-23 28 -79 84q-34 32 -68 65
q-32 39 -32 94q0 36 25 61q33 34 100 34q32 0 88.5 -29.5t56.5 -57.5q0 -10 -5 -19.5t-12 -9.5q-22 0 -46 12q-57 29 -74 29q-23 0 -40.5 -8t-17.5 -27q0 -27 38 -65q87 -87 107 -110q56 -64 62 -72q38 -51 38 -133z" />
    <glyph glyph-name="dieresis" unicode="&#xa8;"
d="M427 144q0 -30 -115.5 -101t-173.5 -71q-15 0 -24.5 12.5t-9.5 29.5t10 26q0 30 -3.5 66t-12.5 114.5t-14 140t-8 109.5q-12 -4 -23 7t-11 27q0 15 10 25q6 6 28 17q0 35 8.5 55t24.5 20q13 0 21 -11.5t8 -37.5q9 3 140 62q45 20 59 20q10 1 16 1q15 0 24 -5.5t9 -21.5
q0 -30 -130 -88q-57 -26 -114 -51q0 -55 4 -95q8 -57 12 -94q42 20 106 45t76 25q11 0 18.5 -9.5t7.5 -19.5q0 -24 -82 -69q-52 -29 -117 -57q4 -25 6 -44q9 -68 9 -105q21 6 52 22q37 19 58 30q41 23 60 33q35 18 48 17q23 0 23 -24zM260 715q-6 -13 -15 -23t-18 -10
q-20 0 -20 28q0 24 26.5 97.5t45.5 73.5q9 0 19 -9q14 -13 14 -30q0 -24 -22 -70q-15 -29 -30 -57zM161 722q-6 -13 -15 -23t-18 -10q-20 0 -20 28q0 24 26.5 97.5t45.5 73.5q9 0 19 -9q14 -13 14 -30q0 -24 -22 -70q-15 -29 -30 -57z" />
    <glyph glyph-name="copyright" unicode="&#xa9;" horiz-adv-x="498"
d="M351 401q2 -8 2 -11q0 -18 -22 -24.5t-52 -6.5h-19.5t-18.5 1q-45 0 -72 28t-27 77q0 57 40 94q34 31 72 31q32 0 60.5 -11.5t22.5 -32.5q-5 -15 -25 -15q-7 0 -26.5 3.5t-27.5 3.5q-33 0 -43.5 -19t-10.5 -55q0 -18 14.5 -33.5t31.5 -15.5q14 0 30 1t28 1q17 0 29 -3
t14 -13zM469 541q10 -30 17.5 -64.5t7.5 -67.5q0 -40 -11.5 -77t-40 -73.5t-72 -53.5t-99.5 -17h-17h-14q-10 2 -15 2q-77 10 -141 115q-58 95 -58 173q0 51 22 108q19 49 40 71q25 28 63 43q29 11 81 19q20 3 37 3q68 0 120 -50q48 -46 80 -131zM422 496q-19 80 -60 124
q-44 47 -105 47q-15 0 -30 -3q-65 -11 -100 -60t-35 -128q-5 -48 49.5 -138.5t100.5 -97.5q20 -3 35 -3q42 0 72.5 19.5t53.5 53.5q32 47 32 103q0 34 -13 83z" />
    <glyph glyph-name="ordfeminine" unicode="&#xaa;" horiz-adv-x="404"
d="M401 187q0 -30 -94 -96q-101 -71 -172 -71q-45 0 -69 56q-18 42 -18 89q0 87 11 148q20 112 79 210q35 59 90 103q79 64 122 64q15 0 25.5 -8.5t10.5 -21.5q0 -15 -30 -34l-38 -24q-41 -29 -70 -57q-36 -34 -53 -63q-34 -59 -52 -156q-14 -74 -14 -137q0 -36 3 -53
q7 -43 30 -43q29 0 93 38t81 48q9 6 25 11.5t26 5.5q14 2 14 -9zM411 406q0 -28 -98 -82t-124 -54q-14 0 -27 13t-13 29t9.5 25.5t30.5 17t70 30.5q92 44 102.5 45t16 1h7.5q12 0 19 -5t7 -20z" />
    <glyph glyph-name="guillemotleft" unicode="&#xab;" horiz-adv-x="655"
d="M563 87q0 -6 -12 -21q-8 -10 -13 -10q-30 0 -125 77q-98 80 -98 110q0 35 75.5 145t107.5 110q15 0 24 -8t7 -25q-3 -29 -64.5 -112.5t-61.5 -103.5q0 -1 80 -75t80 -87zM330 451q0 -34 -46 -94.5t-94 -121.5q0 -17 40 -54q33 -30 92 -73q2 -2 2 -9q0 -9 -2.5 -15.5
t-9.5 -15.5t-13 -9q-8 3 -16 3q-28 0 -108 67q-85 72 -85 112l44 64q53 75 90 120q52 64 67 64q29 0 36 -13q3 -5 3 -25z" />
    <glyph glyph-name="logicalnot" unicode="&#xac;" horiz-adv-x="579"
d="M551 223v-25q0 -72 -11 -92t-36 -20q-26 0 -29 20.5t-3 51.5q0 20 -3.5 30t-16.5 10q-52 0 -100.5 -0.5t-94.5 -0.5h-24h-20h-17h-15h-12h-36t-32 1q-30 0 -40.5 11.5t-10.5 31.5q0 22 24 28t80 6q31 3 157 4.5t170 1.5q70 0 70 -58z" />
    <glyph glyph-name="minus" unicode="&#xad;" horiz-adv-x="555"
d="M483 253q0 -19 -23.5 -32.5t-50.5 -13.5q-50 0 -115.5 -1t-111.5 -1q-35 0 -53 5q-32 9 -32 33q0 26 25.5 33.5t66.5 7.5q45 0 100.5 0.5t121.5 1.5q30 0 51 -8t21 -25z" />
    <glyph glyph-name="registered" unicode="&#xae;" horiz-adv-x="517"
d="M468 566q11 -34 18 -65.5t7 -65.5q0 -40 -12 -78t-40 -74t-71.5 -53t-100.5 -17h-16h-14q-10 2 -15 2q-78 10 -142 115q-57 94 -57 173q0 51 22 108q19 50 40 71q26 29 58 41.5t85 20.5q20 3 37 3q68 0 121 -50q47 -45 80 -131zM421 521q-20 80 -61 124q-44 47 -104 47
q-15 0 -30 -3q-135 -23 -135 -188q-6 -49 49 -139t101 -97q20 -3 35 -3q43 0 72.5 19.5t52.5 53.5q33 46 33 104q0 33 -13 82zM393 360q4 -13 -1 -19t-14 -6h-5q-7 3 -9 4q-44 28 -54 36q-13 11 -27 29l-46 69l-2 -55q0 -11 3.5 -32l7.5 -45q0 -5 -9 -8.5t-23 -3.5
q-8 0 -24 18t-18 31q-16 101 -16 160q0 78 9 94t48 24q8 1 15.5 2.5t16.5 1.5q41 0 71 -30q28 -30 28 -61q0 -10 0.5 -19t1.5 -15q0 -15 -8 -25.5t-31 -17.5q6 -15 21 -33q22 -26 27 -34q15 -23 22 -34q12 -19 16 -31zM274 531q6 9 6 18t-6 21t-14.5 15t-34.5 3
q-1 -5 -1 -14q0 -6 2 -20t2 -25l32 -6q7 0 14 8z" />
    <glyph glyph-name="macron" unicode="&#xaf;" horiz-adv-x="258"
d="M194 74q0 -27 -13 -44.5t-34 -17.5q-26 0 -36 109q-4 54 -8 109q-7 87 -12 166t-5 134v24q0 38 5.5 56t25.5 18q25 0 40 -151q7 -75 14 -149q0 -2 15 -139q8 -74 8 -115zM190 707q-6 -13 -15 -23t-18 -10q-20 0 -20 28q0 24 26.5 97.5t45.5 73.5q9 0 19 -9q14 -13 14 -30
q0 -24 -22 -70q-15 -29 -30 -57zM91 714q-6 -13 -15 -23t-18 -10q-20 0 -20 28q0 24 26.5 97.5t45.5 73.5q9 0 19 -9q14 -13 14 -30q0 -24 -22 -70q-15 -29 -30 -57z" />
    <glyph glyph-name="degree" unicode="&#xb0;" horiz-adv-x="314"
d="M284 642q0 -43 -26 -88q-38 -66 -107 -66q-58 0 -99 27.5t-41 72.5q0 63 34 110t75 47q15 0 23 -4.5t8 -23.5q0 -10 -7 -18q-11 -10 -16 -15q-22 -21 -31 -34q-16 -24 -16 -50q0 -14 16.5 -29.5t36.5 -15.5q46 0 62 28q10 17 10 52q0 19 -15 49t-15 42q0 19 13 26.5
t34 7.5q22 0 41.5 -40t19.5 -78z" />
    <glyph glyph-name="plusminus" unicode="&#xb1;" horiz-adv-x="513"
d="M473 303q0 -20 -23 -31q-18 -8 -44 -11t-61.5 -5t-40.5 -2v-63q0 -46 -6 -64q-10 -29 -39 -29q-23 0 -30 24.5t-7 66.5q2 52 2 60q-11 0 -38 1t-29 1q-36 4 -50 15t-20 32q-4 14 3 22.5t27 8.5q11 -1 13 -1q41 0 59 4t41 4q0 8 2.5 30.5t2.5 31.5q0 36 5.5 54.5
t23.5 18.5q26 0 36.5 -12t10.5 -42v-12q0 -22 -0.5 -39.5t-0.5 -31.5q25 0 52.5 1t51.5 2q29 -3 44 -10t15 -24zM473 28q0 -40 -63 -40h-235h-12q-28 0 -44 5q-25 8 -32 29q-6 24 43 32q26 4 90 4q36 0 94 -3t98 -3q33 0 47 -4t14 -20z" />
    <glyph glyph-name="twosuperior" unicode="&#xb2;" horiz-adv-x="258"
d="M194 74q0 -27 -13 -44.5t-34 -17.5q-26 0 -36 109q-4 54 -8 109q-7 87 -12 166t-5 134v24q0 38 5.5 56t25.5 18q25 0 40 -151q7 -75 14 -149q0 -2 15 -139q8 -74 8 -115z" />
    <glyph glyph-name="threesuperior" unicode="&#xb3;" horiz-adv-x="293"
d="M160 616q0 -17 -34.5 -52.5t-47.5 -35.5q-14 0 -17 9t-3 29q0 16 30 48t45 32q27 0 27 -30zM178 59q0 -22 -5 -37.5t-20 -15.5q-36 0 -45 80q-4 36 -4 87v47q0 34 -6 95t-6 73q1 8 1 10q2 11 7.5 20.5t15.5 9.5q24 0 37 -62t13 -131q0 -37 6 -97t6 -79z" />
    <glyph glyph-name="acute" unicode="&#xb4;" horiz-adv-x="354"
d="M354 432q0 -21 -30 -41q-22 -14 -70 -33q-19 -7 -54 -18t-47 -13q11 -34 15.5 -83t4.5 -104v-12q0 -20 -0.5 -39t-0.5 -37q0 -21 -10.5 -36.5t-25.5 -15.5q-40 0 -40 58v87v23q0 35 -3 63.5t-25 100.5q-10 32 -10 40q0 12 9 21t21 9q50 0 114 17q74 20 74 43l4 136
q0 14 10 21t24 7q29 0 37 -95q3 -37 3 -79v-20z" />
    <glyph glyph-name="paragraph" unicode="&#xb6;" horiz-adv-x="385"
d="M345 670q0 -27 -3.5 -168.5t-3.5 -202.5v-36v-38v-38v-35v-32v-29v-25v-22v-19v-17v-15v-13q0 -21 -0.5 -42t-0.5 -42q0 -18 -8 -23.5t-24 -5.5q-17 0 -25 9q-12 13 -15 45.5t-3 72.5q0 34 5 157q2 49 2 83q0 39 5 241q2 81 2 137q0 52 6 73t23 21q24 0 32 -9t8 -27z
M244 666q0 -15 -8 -20.5t-24 -5.5q-5 0 -17 1t-18 1q-8 -1 -12 -1q-58 -12 -58 -51q0 -21 29 -43l50 -36q12 -10 15.5 -44t3.5 -96v-11q0 -18 -0.5 -36.5t-0.5 -36.5v-10q0 -69 2 -214t2 -175q0 -9 -13.5 -22t-26.5 -14q-12 0 -22 11t-10 22v378q0 110 -8 198
q0 24 -44.5 50.5t-44.5 71.5q0 54 34.5 86.5t80.5 32.5q55 0 72.5 -6.5t17.5 -29.5z" />
    <glyph glyph-name="periodcentered" unicode="&#xb7;" horiz-adv-x="328"
d="M209 256q-4 -17 -17.5 -28t-31.5 -11q-19 0 -33 11t-17 31q-4 23 10.5 41t37.5 18q21 0 36.5 -16.5t15.5 -36.5q0 -6 -1 -9z" />
    <glyph glyph-name="periodcentered" unicode="&#x2219;" horiz-adv-x="328"
d="M209 256q-4 -17 -17.5 -28t-31.5 -11q-19 0 -33 11t-17 31q-4 23 10.5 41t37.5 18q21 0 36.5 -16.5t15.5 -36.5q0 -6 -1 -9z" />
    <glyph glyph-name="cedilla" unicode="&#xb8;" horiz-adv-x="408"
d="M398 103q-2 -19 -71 -79q-77 -67 -122 -67q-92 0 -92 96q0 27 16 62q6 13 27 49q-11 -5 -22 -5q-7 0 -19.5 2.5t-19.5 2.5q-32 0 -48.5 17t-16.5 42q0 33 79 113q89 90 157 90q9 0 14.5 -7.5t3.5 -16.5q-1 -11 -65 -58q-40 -30 -53 -41.5t-26.5 -32t-13.5 -28.5
q0 -3 2 -5.5t3 -3.5q19 0 80.5 26.5t63.5 26.5q7 -1 13 -8t5 -15q0 -22 -13 -48q-6 -12 -27.5 -44t-40 -60t-18.5 -51q0 -11 8.5 -18.5t20.5 -7.5q21 0 60 28q43 32 87 64q13 0 20.5 -6.5t7.5 -16.5zM220 505q-8 -18 -14 -27q-11 -16 -19 -16t-14 13t-6 25q0 24 26.5 97.5
t45.5 73.5q9 0 19 -9q14 -13 14 -30q0 -24 -22 -70q-15 -29 -30 -57zM121 512q-6 -13 -15 -23t-18 -10q-20 0 -20 28q0 24 26.5 97.5t45.5 73.5q9 0 19 -9q14 -13 14 -30q0 -24 -22 -70q-15 -29 -30 -57z" />
    <glyph glyph-name="onesuperior" unicode="&#xb9;" horiz-adv-x="778"
d="M498 50q0 -32 -28 -32q-18 0 -36.5 11.5t-35.5 30.5q-63 69 -145 168q-44 52 -85 102q4 -25 4 -49q0 -10 -1 -31.5t-1 -35.5l4 -178q0 -33 -5 -48.5t-27 -15.5q-24 0 -34 14.5t-10 35.5q0 55 -1 91q-5 178 -5 207q0 34 -9 105t-9 89q0 28 3 36q7 18 28 18q26 0 64 -70
q59 -110 71 -126q45 -61 91 -118t67 -76q0 7 -13 101q-7 51 -7 81v226q0 28 10 41t28 13q38 0 38 -80l12 -252q0 -42 16 -137t16 -121zM746 596q0 -43 -26 -88q-38 -66 -107 -66q-58 0 -99 27.5t-41 72.5q0 63 34 110t75 47q15 0 23 -4.5t8 -23.5q0 -10 -7 -18
q-11 -10 -16 -15q-22 -21 -31 -34q-16 -24 -16 -50q0 -14 16.5 -29.5t36.5 -15.5q46 0 62 28q10 17 10 52q0 19 -15 49t-15 42q0 19 13 26.5t34 7.5q22 0 41.5 -40t19.5 -78zM773 381q0 -19 -23.5 -32.5t-50.5 -13.5q-16 0 -55 -3t-68 -3q-35 0 -53 5q-32 9 -32 33
q0 26 25.5 33.5t66.5 7.5q43 0 69 3t49 3q29 0 50.5 -8t21.5 -25z" />
    <glyph glyph-name="ordmasculine" unicode="&#xba;" horiz-adv-x="393"
d="M393 152q0 -22 -91 -89q-101 -74 -169 -74q-50 0 -81 30q-34 33 -34 95q0 101 87 197q80 89 144 89q13 0 20.5 -5t7.5 -19q0 -20 -34 -39q-29 -16 -41 -25q-48 -34 -75 -75q-33 -50 -33 -105q0 -32 21 -52q18 -17 41 -17q25 0 110 55t106 55t21 -21zM317 227
q0 -25 -77.5 -62t-107.5 -37q-12 0 -18 10t-6 24t11 24t29.5 13.5t98.5 39.5q33 15 45 15q17 0 21 -3.5t4 -23.5z" />
    <glyph glyph-name="guillemotright" unicode="&#xbb;" horiz-adv-x="655"
d="M563 241q0 -41 -84 -112q-80 -67 -109 -67q-12 -3 -16 -3q-6 0 -14 10q-11 16 -11 30q0 7 2 9q59 43 92 73q40 37 40 54q-55 66 -95 121q-45 61 -45 95v18q4 20 39 20q14 0 66 -64q37 -45 90 -120q22 -32 45 -64zM338 243q0 -30 -96.5 -108.5t-126.5 -78.5
q-6 0 -15.5 13.5t-9.5 17.5q0 12 80 86t80 76q0 18 -63 103t-63 117q0 29 31 29q32 0 107.5 -110t75.5 -145z" />
    <glyph glyph-name="onequarter" unicode="&#xbc;" horiz-adv-x="405"
d="M241 356l-3 -248q0 -100 3.5 -202t6 -171t2.5 -105v-12q0 -36 -7 -47t-21 -11q-17 0 -76 85q-50 72 -102 164t-52 105q0 11 10.5 18.5t23.5 7.5t94 -135q47 -78 68 -109q0 25 -5 156t-5 212q0 30 -1 92t-1 90q0 85 7 127.5t29 42.5q18 0 23.5 -10.5t5.5 -29.5v-20z
M238 610q0 -17 -33.5 -52.5t-45.5 -35.5q-14 0 -17.5 10t-3.5 28q0 17 28.5 48.5t43.5 31.5q28 0 28 -30z" />
    <glyph glyph-name="onehalf" unicode="&#xbd;" horiz-adv-x="508"
d="M407 382q0 -35 -7 -69.5t-24 -37.5t-30 15.5t-13 37.5q0 4 3 46t3 76q0 60 -17 102q-22 55 -67 55q-20 0 -30 -48t-10 -141q0 -70 10 -128.5t40 -151.5q3 -11 56 -114q19 -37 19 -54q0 -22 -8.5 -38t-23.5 -16q-48 0 -156 75q-120 83 -120 149q0 11 3 16.5t14 5.5
q14 0 73 -47q49 -40 99 -79q-20 62 -39 124q-14 58 -27.5 125.5t-13.5 168.5q0 89 26.5 162.5t72.5 73.5q85 0 126 -79t41 -229z" />
    <glyph glyph-name="threequarters" unicode="&#xbe;" horiz-adv-x="386"
d="M338 262q1 -13 0 -18q-4 -12 -16 -12q-24 0 -72 58t-56 58q-10 0 -10 -12q0 -7 2.5 -20t13.5 -64.5t26 -100.5t30 -97q9 -33 9 -59q0 -23 -5.5 -38t-16.5 -15q-28 -3 -116.5 71t-88.5 106q0 7 8 18t18 11q8 0 41 -30q25 -23 33 -29l51 -43q-20 75 -40 154
q-27 109 -27 130q0 51 5 69q13 47 59 47q27 0 89.5 -73.5t62.5 -110.5z" />
    <glyph glyph-name="questiondown" unicode="&#xbf;" horiz-adv-x="293"
d="M134 606q0 -17 -34.5 -52.5t-47.5 -35.5q-14 0 -17 9t-3 29q0 16 30 48t45 32q27 0 27 -30zM178 59q0 -22 -5 -37.5t-20 -15.5q-36 0 -45 80q-4 36 -4 87v47q0 34 -6 95t-6 73q1 8 1 10q2 11 7.5 20.5t15.5 9.5q24 0 37 -62t13 -131q0 -37 6 -97t6 -79zM228 592
q0 -17 -34.5 -52.5t-47.5 -35.5q-14 0 -17 9t-3 29q0 16 30 48t45 32q27 0 27 -30z" />
    <glyph glyph-name="Agrave" unicode="&#xc0;" horiz-adv-x="487"
d="M460 46q-3 -20 -5 -23q-6 -9 -25 -9q-24 0 -42 28q-12 19 -28 64q-6 17 -9 24q-14 32 -15 35q-82 -25 -94 -28q-55 -13 -118 -13q-9 -50 -10 -60q-6 -42 -6 -74q0 -13 -12 -19.5t-30 -6.5q-16 0 -22.5 13.5t-6.5 36.5q0 17 42 177q46 175 89 306q22 69 50 141
q23 58 39 58q11 0 18.5 -18t16.5 -54l58 -230l72 -216q40 -119 38 -132zM310 253q-22 89 -43 165q-12 43 -27 92q-7 -25 -36 -112q-52 -158 -66 -212q56 7 100 27q11 5 72 40z" />
    <glyph glyph-name="Agrave" unicode="&#x410;" horiz-adv-x="487"
d="M460 46q-3 -20 -5 -23q-6 -9 -25 -9q-24 0 -42 28q-12 19 -28 64q-6 17 -9 24q-14 32 -15 35q-82 -25 -94 -28q-55 -13 -118 -13q-9 -50 -10 -60q-6 -42 -6 -74q0 -13 -12 -19.5t-30 -6.5q-16 0 -22.5 13.5t-6.5 36.5q0 17 42 177q46 175 89 306q22 69 50 141
q23 58 39 58q11 0 18.5 -18t16.5 -54l58 -230l72 -216q40 -119 38 -132zM310 253q-22 89 -43 165q-12 43 -27 92q-7 -25 -36 -112q-52 -158 -66 -212q56 7 100 27q11 5 72 40z" />
    <glyph glyph-name="Aacute" unicode="&#xc1;" horiz-adv-x="406"
d="M390 242q0 -61 -70 -159q-75 -105 -137 -105q-8 0 -15 5q-11 8 -11 25q0 19 13 33t39.5 17t69.5 63q47 66 47 118q0 19 -20 30.5t-45 11.5q-39 0 -62 -7t-65 -32q0 -29 3 -90q8 -162 8 -166q0 -18 -9 -31t-22 -13q-16 0 -30 17t-14 39q0 17 -2 117t-2 250l4 185
q-12 -4 -25 6t-15 26q-2 15 9 26q8 7 29 18q0 35 8.5 55t24.5 20q13 0 21 -11.5t8 -37.5q9 3 140 62q45 20 59 20q10 1 16 1q15 0 24 -5.5t9 -21.5q0 -30 -130 -88q-57 -26 -114 -51q-2 -11 -2 -29q0 -11 1 -37.5t1 -40.5v-132l58 22q23 7 65 7q38 0 79 -26q54 -34 54 -91z
" />
    <glyph glyph-name="Aacute" unicode="&#x411;" horiz-adv-x="406"
d="M390 242q0 -61 -70 -159q-75 -105 -137 -105q-8 0 -15 5q-11 8 -11 25q0 19 13 33t39.5 17t69.5 63q47 66 47 118q0 19 -20 30.5t-45 11.5q-39 0 -62 -7t-65 -32q0 -29 3 -90q8 -162 8 -166q0 -18 -9 -31t-22 -13q-16 0 -30 17t-14 39q0 17 -2 117t-2 250l4 185
q-12 -4 -25 6t-15 26q-2 15 9 26q8 7 29 18q0 35 8.5 55t24.5 20q13 0 21 -11.5t8 -37.5q9 3 140 62q45 20 59 20q10 1 16 1q15 0 24 -5.5t9 -21.5q0 -30 -130 -88q-57 -26 -114 -51q-2 -11 -2 -29q0 -11 1 -37.5t1 -40.5v-132l58 22q23 7 65 7q38 0 79 -26q54 -34 54 -91z
" />
    <glyph glyph-name="Acircumflex" unicode="&#xc2;" horiz-adv-x="435"
d="M419 645q0 -42 -40 -111q-27 -46 -84 -120q-35 -44 -69 -87q12 3 22.5 5.5t28.5 2.5q36 0 69 -24q45 -33 45 -90q0 -45 -63 -121q-69 -83 -129 -83q-8 0 -15 5q-11 8 -11 25q0 19 13 33t40 17t62 42q39 43 39 84q0 34 -46 34q-40 0 -81 -22q-33 -20 -53 -32
q0 -26 10 -130t10 -119q0 -17 -9.5 -26.5t-23.5 -9.5q-16 0 -30 17t-14 39q0 17 -2 117t-2 250l6 169q-10 -2 -14 -2q-35 0 -35 28q0 12 40 58q49 57 104 92q75 48 148 48q34 0 62 -30q22 -24 22 -59zM352 631q0 11 -7.5 21t-19.5 10q-46 0 -89 -26t-80 -74q-3 -23 -3 -46
v-41.5t1 -36.5l-2 -102q32 36 73 89q57 72 86 118q41 64 41 88z" />
    <glyph glyph-name="Acircumflex" unicode="&#x412;" horiz-adv-x="435"
d="M419 645q0 -42 -40 -111q-27 -46 -84 -120q-35 -44 -69 -87q12 3 22.5 5.5t28.5 2.5q36 0 69 -24q45 -33 45 -90q0 -45 -63 -121q-69 -83 -129 -83q-8 0 -15 5q-11 8 -11 25q0 19 13 33t40 17t62 42q39 43 39 84q0 34 -46 34q-40 0 -81 -22q-33 -20 -53 -32
q0 -26 10 -130t10 -119q0 -17 -9.5 -26.5t-23.5 -9.5q-16 0 -30 17t-14 39q0 17 -2 117t-2 250l6 169q-10 -2 -14 -2q-35 0 -35 28q0 12 40 58q49 57 104 92q75 48 148 48q34 0 62 -30q22 -24 22 -59zM352 631q0 11 -7.5 21t-19.5 10q-46 0 -89 -26t-80 -74q-3 -23 -3 -46
v-41.5t1 -36.5l-2 -102q32 36 73 89q57 72 86 118q41 64 41 88z" />
    <glyph glyph-name="Atilde" unicode="&#xc3;" horiz-adv-x="316"
d="M390 676q0 -30 -130 -88q-57 -26 -114 -51q0 -40 7 -102q18 -160 18 -220q0 -51 4.5 -127.5t4.5 -79.5q0 -17 -7.5 -26.5t-26.5 -9.5q-15 0 -24 10t-9 26v48q0 54 -1.5 85t-7 77.5t-12 132.5t-12.5 167q-12 -4 -24 6t-14 26q-3 15 9 26q8 7 29 18q0 35 8.5 55t24.5 20
q13 0 21 -11.5t8 -37.5q9 3 140 62q45 20 59 20q10 1 16 1q15 0 24 -5.5t9 -21.5z" />
    <glyph glyph-name="Atilde" unicode="&#x413;" horiz-adv-x="316"
d="M390 676q0 -30 -130 -88q-57 -26 -114 -51q0 -40 7 -102q18 -160 18 -220q0 -51 4.5 -127.5t4.5 -79.5q0 -17 -7.5 -26.5t-26.5 -9.5q-15 0 -24 10t-9 26v48q0 54 -1.5 85t-7 77.5t-12 132.5t-12.5 167q-12 -4 -24 6t-14 26q-3 15 9 26q8 7 29 18q0 35 8.5 55t24.5 20
q13 0 21 -11.5t8 -37.5q9 3 140 62q45 20 59 20q10 1 16 1q15 0 24 -5.5t9 -21.5z" />
    <glyph glyph-name="Adieresis" unicode="&#xc4;" horiz-adv-x="539"
d="M563 31q0 -10 -6.5 -31t-7.5 -26q-11 -40 -19 -70q-12 -44 -32 -106.5t-33 -83.5t-24 -21q-12 0 -18 7t-6 19q0 14 32 145q23 94 24 99l6 43q-25 0 -49 -2t-57 -4q-31 0 -181 -15q-85 -9 -107 -11q1 -11 1.5 -24t0.5 -26l-2 -209q0 -26 -24 -26q-15 0 -23.5 41t-11.5 59
q-21 115 -21 169q0 7 -3 21t-3 21q0 19 19 24q3 1 25 4t32 3q10 46 26 109.5t47 173.5t54 181t51 143q23 58 39 58q11 0 18.5 -18t16.5 -54l58 -230q24 -77 60 -186t41 -132q24 -4 49 -8q28 -8 28 -37zM410 67l-15 39q-19 55 -28 81q-16 46 -22 66q-15 48 -33 116t-37 141
q-38 -128 -64 -217.5t-46 -168.5q-2 -7 -9.5 -38.5t-8.5 -40.5q59 9 126.5 15.5t136.5 6.5z" />
    <glyph glyph-name="Adieresis" unicode="&#x414;" horiz-adv-x="539"
d="M563 31q0 -10 -6.5 -31t-7.5 -26q-11 -40 -19 -70q-12 -44 -32 -106.5t-33 -83.5t-24 -21q-12 0 -18 7t-6 19q0 14 32 145q23 94 24 99l6 43q-25 0 -49 -2t-57 -4q-31 0 -181 -15q-85 -9 -107 -11q1 -11 1.5 -24t0.5 -26l-2 -209q0 -26 -24 -26q-15 0 -23.5 41t-11.5 59
q-21 115 -21 169q0 7 -3 21t-3 21q0 19 19 24q3 1 25 4t32 3q10 46 26 109.5t47 173.5t54 181t51 143q23 58 39 58q11 0 18.5 -18t16.5 -54l58 -230q24 -77 60 -186t41 -132q24 -4 49 -8q28 -8 28 -37zM410 67l-15 39q-19 55 -28 81q-16 46 -22 66q-15 48 -33 116t-37 141
q-38 -128 -64 -217.5t-46 -168.5q-2 -7 -9.5 -38.5t-8.5 -40.5q59 9 126.5 15.5t136.5 6.5z" />
    <glyph glyph-name="Aring" unicode="&#xc5;"
d="M427 144q0 -30 -115.5 -101t-173.5 -71q-15 0 -24.5 12.5t-9.5 29.5t10 26q0 30 -3.5 66t-12.5 114.5t-14 140t-8 109.5q-12 -4 -23 7t-11 27q0 15 10 25q6 6 28 17q0 35 8.5 55t24.5 20q13 0 21 -11.5t8 -37.5q9 3 140 62q45 20 59 20q10 1 16 1q15 0 24 -5.5t9 -21.5
q0 -30 -130 -88q-57 -26 -114 -51q0 -55 4 -95q8 -57 12 -94q42 20 106 45t76 25q11 0 18.5 -9.5t7.5 -19.5q0 -24 -82 -69q-52 -29 -117 -57q4 -25 6 -44q9 -68 9 -105q21 6 52 22q37 19 58 30q41 23 60 33q35 18 48 17q23 0 23 -24z" />
    <glyph glyph-name="Aring" unicode="&#x415;"
d="M427 144q0 -30 -115.5 -101t-173.5 -71q-15 0 -24.5 12.5t-9.5 29.5t10 26q0 30 -3.5 66t-12.5 114.5t-14 140t-8 109.5q-12 -4 -23 7t-11 27q0 15 10 25q6 6 28 17q0 35 8.5 55t24.5 20q13 0 21 -11.5t8 -37.5q9 3 140 62q45 20 59 20q10 1 16 1q15 0 24 -5.5t9 -21.5
q0 -30 -130 -88q-57 -26 -114 -51q0 -55 4 -95q8 -57 12 -94q42 20 106 45t76 25q11 0 18.5 -9.5t7.5 -19.5q0 -24 -82 -69q-52 -29 -117 -57q4 -25 6 -44q9 -68 9 -105q21 6 52 22q37 19 58 30q41 23 60 33q35 18 48 17q23 0 23 -24z" />
    <glyph glyph-name="AE" unicode="&#xc6;" horiz-adv-x="612"
d="M608 38q0 -14 -5 -20t-25 -6q-24 0 -65 35q-9 7 -47 43q-28 26 -58 61q-38 44 -50 70q-14 -12 -28 -23v-148q0 -54 -30 -54q-36 0 -36 63v139q-6 7 -13 13t-11 10q-12 -26 -47 -65q-26 -29 -57 -58q-57 -53 -63 -58q-34 -28 -53 -28q-20 0 -25 6t-5 20q0 11 37 48l60 58
q40 42 66 75q32 41 43 67q-16 19 -26 32q-34 44 -80 122q-37 63 -52 99q-18 44 -18 85q0 22 8 34.5t25 12.5t29.5 -19.5t12.5 -49.5q0 -21 16 -55q3 -6 34.5 -64.5t49.5 -86.5q32 -50 65 -76v262q0 46 9 59t31 13q18 0 26 -11q12 -16 12 -61v-262q31 25 64 75q20 31 52 89
q29 54 39 78t10 40q0 31 12 50t30 19q33 0 33 -47q0 -65 -70 -184q-39 -67 -68 -106q-28 -35 -38 -48q10 -24 44.5 -69t68.5 -81q39 -36 58 -54q35 -33 35 -44z" />
    <glyph glyph-name="AE" unicode="&#x416;" horiz-adv-x="612"
d="M608 38q0 -14 -5 -20t-25 -6q-24 0 -65 35q-9 7 -47 43q-28 26 -58 61q-38 44 -50 70q-14 -12 -28 -23v-148q0 -54 -30 -54q-36 0 -36 63v139q-6 7 -13 13t-11 10q-12 -26 -47 -65q-26 -29 -57 -58q-57 -53 -63 -58q-34 -28 -53 -28q-20 0 -25 6t-5 20q0 11 37 48l60 58
q40 42 66 75q32 41 43 67q-16 19 -26 32q-34 44 -80 122q-37 63 -52 99q-18 44 -18 85q0 22 8 34.5t25 12.5t29.5 -19.5t12.5 -49.5q0 -21 16 -55q3 -6 34.5 -64.5t49.5 -86.5q32 -50 65 -76v262q0 46 9 59t31 13q18 0 26 -11q12 -16 12 -61v-262q31 25 64 75q20 31 52 89
q29 54 39 78t10 40q0 31 12 50t30 19q33 0 33 -47q0 -65 -70 -184q-39 -67 -68 -106q-28 -35 -38 -48q10 -24 44.5 -69t68.5 -81q39 -36 58 -54q35 -33 35 -44z" />
    <glyph glyph-name="Ccedilla" unicode="&#xc7;" horiz-adv-x="440"
d="M421 244q0 -84 -68 -148q-47 -44 -110 -69q-36 -14 -67 -21.5t-61 -7.5q-31 0 -50 11.5t-19 26.5q0 11 10.5 18.5t33 9.5t45.5 4q38 5 82 20.5t82 55.5t43 83q1 7 1 20q0 52 -32.5 83.5t-83.5 31.5q-12 0 -25 -1t-25 -2q-22 0 -24 11q-4 16 5 28q36 30 72 66q55 55 59 88
q4 28 -11.5 46.5t-46.5 18.5q-17 0 -43 -8q-12 -4 -70 -51q-26 -21 -33 -21q-13 0 -21.5 7.5t-7.5 16.5q0 22 54 66q59 48 107 54q7 1 21 1q50 0 82 -24q41 -31 41 -93q0 -49 -33 -91q-25 -32 -70 -61q81 -7 125 -58q38 -44 38 -111z" />
    <glyph glyph-name="Ccedilla" unicode="&#x417;" horiz-adv-x="440"
d="M421 244q0 -84 -68 -148q-47 -44 -110 -69q-36 -14 -67 -21.5t-61 -7.5q-31 0 -50 11.5t-19 26.5q0 11 10.5 18.5t33 9.5t45.5 4q38 5 82 20.5t82 55.5t43 83q1 7 1 20q0 52 -32.5 83.5t-83.5 31.5q-12 0 -25 -1t-25 -2q-22 0 -24 11q-4 16 5 28q36 30 72 66q55 55 59 88
q4 28 -11.5 46.5t-46.5 18.5q-17 0 -43 -8q-12 -4 -70 -51q-26 -21 -33 -21q-13 0 -21.5 7.5t-7.5 16.5q0 22 54 66q59 48 107 54q7 1 21 1q50 0 82 -24q41 -31 41 -93q0 -49 -33 -91q-25 -32 -70 -61q81 -7 125 -58q38 -44 38 -111z" />
    <glyph glyph-name="Egrave" unicode="&#xc8;" horiz-adv-x="551"
d="M492 626q0 -25 -13 -175t-13 -193q0 -30 1 -77.5t3 -102.5q0 -80 -38 -80q-19 0 -28.5 12.5t-9.5 41.5q-3 40 -5.5 80.5t-2.5 75.5q0 38 4.5 104.5t9.5 139.5q-8 -13 -48 -90l-68 -128q-43 -83 -60 -112q-30 -56 -40 -75q-27 -49 -55 -49q-24 0 -30.5 14t-6.5 40v194
q0 73 0.5 161t1.5 191q0 22 9.5 36t34.5 14q17 0 24.5 -11.5t7.5 -52.5v-232q0 -47 -2.5 -107t-7.5 -91q46 75 131.5 245t100.5 217q7 20 28.5 31t43.5 11q28 0 28 -32z" />
    <glyph glyph-name="Egrave" unicode="&#x418;" horiz-adv-x="551"
d="M492 626q0 -25 -13 -175t-13 -193q0 -30 1 -77.5t3 -102.5q0 -80 -38 -80q-19 0 -28.5 12.5t-9.5 41.5q-3 40 -5.5 80.5t-2.5 75.5q0 38 4.5 104.5t9.5 139.5q-8 -13 -48 -90l-68 -128q-43 -83 -60 -112q-30 -56 -40 -75q-27 -49 -55 -49q-24 0 -30.5 14t-6.5 40v194
q0 73 0.5 161t1.5 191q0 22 9.5 36t34.5 14q17 0 24.5 -11.5t7.5 -52.5v-232q0 -47 -2.5 -107t-7.5 -91q46 75 131.5 245t100.5 217q7 20 28.5 31t43.5 11q28 0 28 -32z" />
    <glyph glyph-name="Eacute" unicode="&#xc9;" horiz-adv-x="551"
d="M492 626q0 -25 -13 -175t-13 -193q0 -30 1 -77.5t3 -102.5q0 -80 -38 -80q-19 0 -28.5 12.5t-9.5 41.5q-3 40 -5.5 80.5t-2.5 75.5q0 38 4.5 104.5t9.5 139.5q-8 -13 -48 -90l-68 -128q-43 -83 -60 -112q-30 -56 -40 -75q-27 -49 -55 -49q-24 0 -30.5 14t-6.5 40v194
q0 73 0.5 161t1.5 191q0 22 9.5 36t34.5 14q17 0 24.5 -11.5t7.5 -52.5v-232q0 -47 -2.5 -107t-7.5 -91q46 75 131.5 245t100.5 217q7 20 28.5 31t43.5 11q28 0 28 -32zM180 738q0 15 121 81.5t141 66.5q16 1 25 -10t9 -28q0 -21 -14 -32q-5 -4 -30 -16q-35 -17 -116 -52
q-93 -40 -106 -40q-14 0 -22 7t-8 23z" />
    <glyph glyph-name="Eacute" unicode="&#x419;" horiz-adv-x="551"
d="M492 626q0 -25 -13 -175t-13 -193q0 -30 1 -77.5t3 -102.5q0 -80 -38 -80q-19 0 -28.5 12.5t-9.5 41.5q-3 40 -5.5 80.5t-2.5 75.5q0 38 4.5 104.5t9.5 139.5q-8 -13 -48 -90l-68 -128q-43 -83 -60 -112q-30 -56 -40 -75q-27 -49 -55 -49q-24 0 -30.5 14t-6.5 40v194
q0 73 0.5 161t1.5 191q0 22 9.5 36t34.5 14q17 0 24.5 -11.5t7.5 -52.5v-232q0 -47 -2.5 -107t-7.5 -91q46 75 131.5 245t100.5 217q7 20 28.5 31t43.5 11q28 0 28 -32zM180 738q0 15 121 81.5t141 66.5q16 1 25 -10t9 -28q0 -21 -14 -32q-5 -4 -30 -16q-35 -17 -116 -52
q-93 -40 -106 -40q-14 0 -22 7t-8 23z" />
    <glyph glyph-name="Ecircumflex" unicode="&#xca;" horiz-adv-x="454"
d="M416 62q0 -19 -3 -27q-6 -15 -25 -15q-37 0 -116 30l-120 48q0 -37 -7 -52q-12 -26 -44 -26q-18 0 -22 18t-4 57q-19 17 -19 47q0 13 8 27t19 25q0 50 1 188.5t1 155.5q0 58 6.5 87t20.5 29q17 0 25.5 -13.5t8.5 -58.5q0 -59 0.5 -135t1.5 -169q36 39 64 81
q23 33 51.5 86.5t46.5 96.5t18 60q0 31 12 50t30 19q33 0 33 -47q0 -43 -23.5 -103.5t-61.5 -124.5q-41 -70 -93.5 -138.5t-62.5 -81.5l154 -60q31 -11 63 -22q37 -15 37 -32z" />
    <glyph glyph-name="Ecircumflex" unicode="&#x41a;" horiz-adv-x="454"
d="M416 62q0 -19 -3 -27q-6 -15 -25 -15q-37 0 -116 30l-120 48q0 -37 -7 -52q-12 -26 -44 -26q-18 0 -22 18t-4 57q-19 17 -19 47q0 13 8 27t19 25q0 50 1 188.5t1 155.5q0 58 6.5 87t20.5 29q17 0 25.5 -13.5t8.5 -58.5q0 -59 0.5 -135t1.5 -169q36 39 64 81
q23 33 51.5 86.5t46.5 96.5t18 60q0 31 12 50t30 19q33 0 33 -47q0 -43 -23.5 -103.5t-61.5 -124.5q-41 -70 -93.5 -138.5t-62.5 -81.5l154 -60q31 -11 63 -22q37 -15 37 -32z" />
    <glyph glyph-name="Edieresis" unicode="&#xcb;" horiz-adv-x="487"
d="M460 46q-3 -20 -5 -23q-6 -9 -25 -9q-24 0 -42 28q-12 19 -28 64q-19 55 -28 81q-16 46 -22 66q-15 48 -33 116t-37 141q-38 -128 -64 -217.5t-46 -168.5q-7 -25 -13 -50q-9 -38 -9 -84q0 -13 -12 -19.5t-30 -6.5q-16 0 -22.5 13.5t-6.5 36.5q0 17 42 177q46 175 89 306
q22 69 50 141q23 58 39 58q11 0 18.5 -18t16.5 -54l58 -230l72 -216q40 -119 38 -132z" />
    <glyph glyph-name="Edieresis" unicode="&#x41b;" horiz-adv-x="487"
d="M460 46q-3 -20 -5 -23q-6 -9 -25 -9q-24 0 -42 28q-12 19 -28 64q-19 55 -28 81q-16 46 -22 66q-15 48 -33 116t-37 141q-38 -128 -64 -217.5t-46 -168.5q-7 -25 -13 -50q-9 -38 -9 -84q0 -13 -12 -19.5t-30 -6.5q-16 0 -22.5 13.5t-6.5 36.5q0 17 42 177q46 175 89 306
q22 69 50 141q23 58 39 58q11 0 18.5 -18t16.5 -54l58 -230l72 -216q40 -119 38 -132z" />
    <glyph glyph-name="Igrave" unicode="&#xcc;" horiz-adv-x="656"
d="M642 58q0 -21 -12.5 -29.5t-31.5 -8.5q-47 0 -96 120q-44 109 -44 178q0 13 -2 34t-2 36q-62 -146 -80 -177q-33 -57 -54 -57q-27 0 -73 158q-33 114 -52 163q-12 -19 -19.5 -158t-11 -205t-16 -83t-32.5 -17q-23 0 -28.5 25.5t-5.5 60.5q0 66 14 178q32 257 32 264
q0 34 10 63q14 39 38 39q28 0 41 -20q9 -14 19 -42l94 -292q29 48 59 120q24 58 45 124q18 54 23 65q14 29 35 29q28 0 34 -20t6 -70q0 -49 2 -100t7.5 -112t22.5 -113q11 -33 40 -95q6 -12 22 -30t16 -28z" />
    <glyph glyph-name="Igrave" unicode="&#x41c;" horiz-adv-x="656"
d="M642 58q0 -21 -12.5 -29.5t-31.5 -8.5q-47 0 -96 120q-44 109 -44 178q0 13 -2 34t-2 36q-62 -146 -80 -177q-33 -57 -54 -57q-27 0 -73 158q-33 114 -52 163q-12 -19 -19.5 -158t-11 -205t-16 -83t-32.5 -17q-23 0 -28.5 25.5t-5.5 60.5q0 66 14 178q32 257 32 264
q0 34 10 63q14 39 38 39q28 0 41 -20q9 -14 19 -42l94 -292q29 48 59 120q24 58 45 124q18 54 23 65q14 29 35 29q28 0 34 -20t6 -70q0 -49 2 -100t7.5 -112t22.5 -113q11 -33 40 -95q6 -12 22 -30t16 -28z" />
    <glyph glyph-name="Iacute" unicode="&#xcd;" horiz-adv-x="526"
d="M476 50q0 -15 -12 -31t-31 -16q-30 0 -57 138q-10 53 -17 106q-68 0 -108.5 -7t-77.5 -14q0 -50 2.5 -103.5t5.5 -116.5q0 -19 -9.5 -32t-29.5 -13q-23 0 -33 34.5t-10 118.5q0 16 -1 51t-1 47q-37 0 -53 6q-27 10 -27 42q0 19 14 24t39 5q17 0 24 1q2 56 4.5 130t2.5 96
q0 56 12.5 101.5t37.5 45.5q15 0 20.5 -21.5t5.5 -57.5q0 -15 -0.5 -29.5t-0.5 -28.5v-129t1 -99q43 8 71 12q50 8 113 14q0 37 -5.5 110t-5.5 101q0 42 5.5 62t27.5 20q21 0 29.5 -15.5t8.5 -59.5q0 -34 4.5 -113.5t4.5 -92.5q0 -96 14 -169q16 -59 32 -117z" />
    <glyph glyph-name="Iacute" unicode="&#x41d;" horiz-adv-x="526"
d="M476 50q0 -15 -12 -31t-31 -16q-30 0 -57 138q-10 53 -17 106q-68 0 -108.5 -7t-77.5 -14q0 -50 2.5 -103.5t5.5 -116.5q0 -19 -9.5 -32t-29.5 -13q-23 0 -33 34.5t-10 118.5q0 16 -1 51t-1 47q-37 0 -53 6q-27 10 -27 42q0 19 14 24t39 5q17 0 24 1q2 56 4.5 130t2.5 96
q0 56 12.5 101.5t37.5 45.5q15 0 20.5 -21.5t5.5 -57.5q0 -15 -0.5 -29.5t-0.5 -28.5v-129t1 -99q43 8 71 12q50 8 113 14q0 37 -5.5 110t-5.5 101q0 42 5.5 62t27.5 20q21 0 29.5 -15.5t8.5 -59.5q0 -34 4.5 -113.5t4.5 -92.5q0 -96 14 -169q16 -59 32 -117z" />
    <glyph glyph-name="Icircumflex" unicode="&#xce;" horiz-adv-x="535"
d="M533 350q0 -93 -85 -202q-98 -126 -219 -126q-79 0 -147.5 83.5t-68.5 175.5q0 139 82 251q76 104 153 104q109 0 200 -93q86 -88 86 -180q-1 -9 -1 -13zM456 354q0 72 -66 141.5t-121 69.5q-81 0 -138 -113q-45 -89 -45 -151q0 -82 50 -147q46 -59 92 -59q68 0 148 88
t80 171z" />
    <glyph glyph-name="Icircumflex" unicode="&#x41e;" horiz-adv-x="535"
d="M533 350q0 -93 -85 -202q-98 -126 -219 -126q-79 0 -147.5 83.5t-68.5 175.5q0 139 82 251q76 104 153 104q109 0 200 -93q86 -88 86 -180q-1 -9 -1 -13zM456 354q0 72 -66 141.5t-121 69.5q-81 0 -138 -113q-45 -89 -45 -151q0 -82 50 -147q46 -59 92 -59q68 0 148 88
t80 171z" />
    <glyph glyph-name="Idieresis" unicode="&#xcf;" horiz-adv-x="526"
d="M493 649q0 -21 -16.5 -33t-61.5 -24q2 -9 4 -21.5t2 -28.5q0 -34 4.5 -113.5t4.5 -92.5q0 -96 14 -169q16 -59 32 -117q0 -15 -12 -31t-31 -16q-30 0 -53 163q-10 70 -20 169.5t-10 199.5l1 42l-53 -13l-122 -37v-130t1 -99l4 -292q0 -19 -9.5 -32t-29.5 -13
q-23 0 -33 34.5t-10 118.5q0 19 -2.5 86.5t-2.5 89.5q0 43 3 115t3 101q-37 -10 -48 -10q-15 0 -22.5 6t-7.5 26q0 17 26 34q21 13 61 27q6 34 16 54t26 20q27 0 27 -52q55 17 154.5 42t115.5 25h12q15 0 24 -5.5t9 -23.5z" />
    <glyph glyph-name="Idieresis" unicode="&#x41f;" horiz-adv-x="526"
d="M493 649q0 -21 -16.5 -33t-61.5 -24q2 -9 4 -21.5t2 -28.5q0 -34 4.5 -113.5t4.5 -92.5q0 -96 14 -169q16 -59 32 -117q0 -15 -12 -31t-31 -16q-30 0 -53 163q-10 70 -20 169.5t-10 199.5l1 42l-53 -13l-122 -37v-130t1 -99l4 -292q0 -19 -9.5 -32t-29.5 -13
q-23 0 -33 34.5t-10 118.5q0 19 -2.5 86.5t-2.5 89.5q0 43 3 115t3 101q-37 -10 -48 -10q-15 0 -22.5 6t-7.5 26q0 17 26 34q21 13 61 27q6 34 16 54t26 20q27 0 27 -52q55 17 154.5 42t115.5 25h12q15 0 24 -5.5t9 -23.5z" />
    <glyph glyph-name="Eth" unicode="&#xd0;" horiz-adv-x="421"
d="M418 493q0 -121 -83 -212q-37 -41 -143 -113q2 -29 7.5 -68.5t11.5 -77.5q0 -16 -12.5 -30.5t-29.5 -14.5q-26 0 -44 130q-12 92 -16 126t-19 126q-10 62 -10 93q-48 10 -48 35q0 10 13 31.5t27 31.5q-3 15 -3 30q0 19 6 30.5t21 13.5q16 2 23 -12q7 -20 11 -32
q60 43 75 51q49 25 111 25q50 0 78 -53q24 -46 24 -110zM346 488q0 40 -17.5 68t-46.5 28q-47 0 -83 -24q-9 -6 -57 -50q10 -74 21 -151t21 -117q98 62 123 100q39 59 39 146z" />
    <glyph glyph-name="Eth" unicode="&#x420;" horiz-adv-x="421"
d="M418 493q0 -121 -83 -212q-37 -41 -143 -113q2 -29 7.5 -68.5t11.5 -77.5q0 -16 -12.5 -30.5t-29.5 -14.5q-26 0 -44 130q-12 92 -16 126t-19 126q-10 62 -10 93q-48 10 -48 35q0 10 13 31.5t27 31.5q-3 15 -3 30q0 19 6 30.5t21 13.5q16 2 23 -12q7 -20 11 -32
q60 43 75 51q49 25 111 25q50 0 78 -53q24 -46 24 -110zM346 488q0 40 -17.5 68t-46.5 28q-47 0 -83 -24q-9 -6 -57 -50q10 -74 21 -151t21 -117q98 62 123 100q39 59 39 146z" />
    <glyph glyph-name="Ntilde" unicode="&#xd1;" horiz-adv-x="404"
d="M401 187q0 -30 -94 -96q-101 -71 -172 -71q-45 0 -69 56q-18 42 -18 89q0 81 13 148q21 110 77 210q49 88 112 127q40 25 72 25q13 0 15.5 -6.5t2.5 -24.5q0 -5 -81 -85q-45 -44 -64 -77q-34 -59 -52 -156q-14 -74 -14 -137q0 -36 3 -53q7 -43 30 -43q29 0 93 38t81 48
q9 6 25 11.5t26 5.5q14 2 14 -9z" />
    <glyph glyph-name="Ntilde" unicode="&#x421;" horiz-adv-x="404"
d="M401 187q0 -30 -94 -96q-101 -71 -172 -71q-45 0 -69 56q-18 42 -18 89q0 81 13 148q21 110 77 210q49 88 112 127q40 25 72 25q13 0 15.5 -6.5t2.5 -24.5q0 -5 -81 -85q-45 -44 -64 -77q-34 -59 -52 -156q-14 -74 -14 -137q0 -36 3 -53q7 -43 30 -43q29 0 93 38t81 48
q9 6 25 11.5t26 5.5q14 2 14 -9z" />
    <glyph glyph-name="Ograve" unicode="&#xd2;" horiz-adv-x="449"
d="M433 619q0 -34 -73 -55q-10 -3 -122 -30q0 -53 13 -177q7 -67 7 -99q0 -42 7 -99t15 -119q0 -24 -6.5 -33t-27.5 -9q-32 0 -45 67q-3 15 -13.5 120.5t-15.5 162.5q-10 105 -10 162q-108 -31 -116 -33q-41 -11 -54 -11q-15 0 -22.5 6t-7.5 26q0 25 61 51q28 12 113 38
q49 16 142.5 38.5t109.5 22.5h12q15 0 24 -5.5t9 -23.5z" />
    <glyph glyph-name="Ograve" unicode="&#x422;" horiz-adv-x="449"
d="M433 619q0 -34 -73 -55q-10 -3 -122 -30q0 -53 13 -177q7 -67 7 -99q0 -42 7 -99t15 -119q0 -24 -6.5 -33t-27.5 -9q-32 0 -45 67q-3 15 -13.5 120.5t-15.5 162.5q-10 105 -10 162q-108 -31 -116 -33q-41 -11 -54 -11q-15 0 -22.5 6t-7.5 26q0 25 61 51q28 12 113 38
q49 16 142.5 38.5t109.5 22.5h12q15 0 24 -5.5t9 -23.5z" />
    <glyph glyph-name="Oacute" unicode="&#xd3;" horiz-adv-x="497"
d="M461 638q0 -15 -9.5 -62.5t-22.5 -103.5l-56 -246q-30 -127 -56 -206q-35 -104 -58 -104q-28 0 -28 20q0 25 23 114q19 74 39 148q9 37 18 73q21 86 30 135q-37 -57 -52 -78q-82 -116 -130 -116q-20 0 -65 87q-35 67 -72 163.5t-37 112.5t9.5 28.5t23.5 12.5q10 0 46 -76
q33 -71 66 -141q37 -77 49 -77q15 0 49 46q30 40 65 102q53 96 75 134q37 65 51 65q42 0 42 -31z" />
    <glyph glyph-name="Oacute" unicode="&#x423;" horiz-adv-x="497"
d="M461 638q0 -15 -9.5 -62.5t-22.5 -103.5l-56 -246q-30 -127 -56 -206q-35 -104 -58 -104q-28 0 -28 20q0 25 23 114q19 74 39 148q9 37 18 73q21 86 30 135q-37 -57 -52 -78q-82 -116 -130 -116q-20 0 -65 87q-35 67 -72 163.5t-37 112.5t9.5 28.5t23.5 12.5q10 0 46 -76
q33 -71 66 -141q37 -77 49 -77q15 0 49 46q30 40 65 102q53 96 75 134q37 65 51 65q42 0 42 -31z" />
    <glyph glyph-name="Ocircumflex" unicode="&#xd4;" horiz-adv-x="593"
d="M595 348q0 -80 -65 -167q-75 -100 -181 -118q0 -56 -1 -64q-6 -45 -46 -45q-19 0 -27 26.5t-8 75.5q-115 31 -181.5 103.5t-66.5 159.5q0 122 83 208q71 74 165 91v64q0 40 9 58t35 18q17 0 24 -7t7 -23v-106q103 -14 180 -104q73 -85 73 -170zM518 352q0 63 -72 134
q-66 65 -104 65v-212q0 -32 5 -128q2 -38 2 -67q70 8 119.5 72.5t49.5 135.5zM267 134v110v313q-72 -22 -128 -105q-47 -70 -47 -113q0 -71 61 -134q53 -55 114 -71z" />
    <glyph glyph-name="Ocircumflex" unicode="&#x424;" horiz-adv-x="593"
d="M595 348q0 -80 -65 -167q-75 -100 -181 -118q0 -56 -1 -64q-6 -45 -46 -45q-19 0 -27 26.5t-8 75.5q-115 31 -181.5 103.5t-66.5 159.5q0 122 83 208q71 74 165 91v64q0 40 9 58t35 18q17 0 24 -7t7 -23v-106q103 -14 180 -104q73 -85 73 -170zM518 352q0 63 -72 134
q-66 65 -104 65v-212q0 -32 5 -128q2 -38 2 -67q70 8 119.5 72.5t49.5 135.5zM267 134v110v313q-72 -22 -128 -105q-47 -70 -47 -113q0 -71 61 -134q53 -55 114 -71z" />
    <glyph glyph-name="Otilde" unicode="&#xd5;" horiz-adv-x="393"
d="M380 76q0 -41 -61 -41q-40 0 -80 64q-29 46 -54 118q-16 -34 -43 -108.5t-30.5 -100.5t-4.5 -29q-5 -24 -26 -24q-22 0 -32.5 15t-10.5 52q0 24 39 130t71 166q-39 89 -73 176q-39 101 -39 128q0 11 9 24t20 13q19 0 74 -134q50 -122 51 -125l80 168q55 107 81 107
q17 0 22.5 -7.5t5.5 -24.5q0 -9 -35 -85l-118 -244q39 -97 55 -129q38 -76 62 -76q37 0 37 -33z" />
    <glyph glyph-name="Otilde" unicode="&#x425;" horiz-adv-x="393"
d="M380 76q0 -41 -61 -41q-40 0 -80 64q-29 46 -54 118q-16 -34 -43 -108.5t-30.5 -100.5t-4.5 -29q-5 -24 -26 -24q-22 0 -32.5 15t-10.5 52q0 24 39 130t71 166q-39 89 -73 176q-39 101 -39 128q0 11 9 24t20 13q19 0 74 -134q50 -122 51 -125l80 168q55 107 81 107
q17 0 22.5 -7.5t5.5 -24.5q0 -9 -35 -85l-118 -244q39 -97 55 -129q38 -76 62 -76q37 0 37 -33z" />
    <glyph glyph-name="Odieresis" unicode="&#xd6;" horiz-adv-x="544"
d="M524 -188q0 -24 -7 -39t-21 -15q-16 0 -28 13t-12 29l-1 264q-29 -15 -97 -32q-49 -13 -69 -18q-53 -14 -106.5 -28t-73.5 -14q-15 0 -24.5 12.5t-9.5 29.5t10 26q0 37 -1 59q-5 112 -5 127v302q0 32 7 58.5t23 26.5q18 0 28 -16.5t10 -36.5v-260q0 -58 2.5 -119.5
t5.5 -132.5q33 9 58 14q40 9 53 12q24 6 50.5 14t50.5 15q-5 32 -8 63t-3 70q0 76 -2.5 183t-2.5 117v24q0 38 5.5 56t25.5 18q17 0 25.5 -11t8.5 -28q0 -24 4 -114t4 -147q0 -39 7 -130q4 -52 4 -76q2 1 25 9q11 4 19 4q9 0 17 -4q15 -5 16 -6q9 -5 9 -13q1 -7 1 -12.5
v-10.5q0 -9 -0.5 -16.5t-0.5 -12.5z" />
    <glyph glyph-name="Odieresis" unicode="&#x426;" horiz-adv-x="544"
d="M524 -188q0 -24 -7 -39t-21 -15q-16 0 -28 13t-12 29l-1 264q-29 -15 -97 -32q-49 -13 -69 -18q-53 -14 -106.5 -28t-73.5 -14q-15 0 -24.5 12.5t-9.5 29.5t10 26q0 37 -1 59q-5 112 -5 127v302q0 32 7 58.5t23 26.5q18 0 28 -16.5t10 -36.5v-260q0 -58 2.5 -119.5
t5.5 -132.5q33 9 58 14q40 9 53 12q24 6 50.5 14t50.5 15q-5 32 -8 63t-3 70q0 76 -2.5 183t-2.5 117v24q0 38 5.5 56t25.5 18q17 0 25.5 -11t8.5 -28q0 -24 4 -114t4 -147q0 -39 7 -130q4 -52 4 -76q2 1 25 9q11 4 19 4q9 0 17 -4q15 -5 16 -6q9 -5 9 -13q1 -7 1 -12.5
v-10.5q0 -9 -0.5 -16.5t-0.5 -12.5z" />
    <glyph glyph-name="multiply" unicode="&#xd7;" horiz-adv-x="439"
d="M382 30q0 -15 -12 -31t-31 -16q-28 0 -41 150q-5 55 -9 111q-54 -47 -65 -54q-46 -30 -94 -30q-49 0 -78 144q-23 115 -23 246q0 45 9 59t37 14q17 0 22.5 -19t5.5 -53q0 -11 -0.5 -22.5t-0.5 -22.5q0 -80 19.5 -171t47.5 -91q24 0 59 25q10 7 61 50q0 40 -4 102t-4 102
q0 44 5.5 68t27.5 24t30 -12.5t8 -56.5q0 -28 4 -114t4 -110q0 -105 6 -171q8 -61 16 -121z" />
    <glyph glyph-name="multiply" unicode="&#x427;" horiz-adv-x="439"
d="M382 30q0 -15 -12 -31t-31 -16q-28 0 -41 150q-5 55 -9 111q-54 -47 -65 -54q-46 -30 -94 -30q-49 0 -78 144q-23 115 -23 246q0 45 9 59t37 14q17 0 22.5 -19t5.5 -53q0 -11 -0.5 -22.5t-0.5 -22.5q0 -80 19.5 -171t47.5 -91q24 0 59 25q10 7 61 50q0 40 -4 102t-4 102
q0 44 5.5 68t27.5 24t30 -12.5t8 -56.5q0 -28 4 -114t4 -110q0 -105 6 -171q8 -61 16 -121z" />
    <glyph glyph-name="Oslash" unicode="&#xd8;" horiz-adv-x="619"
d="M623 107q0 -21 -114 -48q-81 -18 -120 -27q-101 -23 -124 -28q-129 -30 -150 -30q-17 0 -28.5 7t-11.5 21q0 21 7 27q0 4 -3.5 84.5t-3.5 124.5q0 59 1 132t3 158q0 24 10.5 43.5t25.5 19.5q17 0 24.5 -14t7.5 -33v-242q0 -53 3.5 -116t7.5 -133l141 37q-5 26 -7 73
t-2 91q0 55 -3.5 156.5t-3.5 144.5q0 37 1 43q5 29 33 29q25 0 30.5 -14.5t5.5 -68.5q0 -83 6 -228.5t13 -209.5l139 32q-2 10 -3 36t-1 51v25t1 3h4q0 76 -2.5 183t-2.5 117v35q0 29 6 45t23 16q12 0 22 -8.5t10 -28.5q0 -24 4 -114t4 -147q0 -40 5 -103t5 -98
q16 5 26.5 -10t10.5 -33z" />
    <glyph glyph-name="Oslash" unicode="&#x428;" horiz-adv-x="619"
d="M623 107q0 -21 -114 -48q-81 -18 -120 -27q-101 -23 -124 -28q-129 -30 -150 -30q-17 0 -28.5 7t-11.5 21q0 21 7 27q0 4 -3.5 84.5t-3.5 124.5q0 59 1 132t3 158q0 24 10.5 43.5t25.5 19.5q17 0 24.5 -14t7.5 -33v-242q0 -53 3.5 -116t7.5 -133l141 37q-5 26 -7 73
t-2 91q0 55 -3.5 156.5t-3.5 144.5q0 37 1 43q5 29 33 29q25 0 30.5 -14.5t5.5 -68.5q0 -83 6 -228.5t13 -209.5l139 32q-2 10 -3 36t-1 51v25t1 3h4q0 76 -2.5 183t-2.5 117v35q0 29 6 45t23 16q12 0 22 -8.5t10 -28.5q0 -24 4 -114t4 -147q0 -40 5 -103t5 -98
q16 5 26.5 -10t10.5 -33z" />
    <glyph glyph-name="Ugrave" unicode="&#xd9;" horiz-adv-x="677"
d="M655 -171q0 -23 -6.5 -38t-20.5 -15q-15 0 -27 13t-12 28l-2 265q-63 -32 -252 -72q-174 -37 -226 -37q-14 0 -23.5 12.5t-9.5 28.5q0 17 10 26q0 37 -1 59q-5 111 -5 126l-4 305q0 25 8.5 43.5t24.5 18.5q17 0 25 -14.5t8 -33.5q0 -38 2 -124.5t2 -107.5q0 -54 6 -146
t6 -112q6 2 86 15q26 4 48 10q-5 26 -7 77.5t-2 97.5q0 55 -3.5 156.5t-3.5 144.5q0 40 6 56.5t29 16.5q25 0 31 -16t6 -68q0 -75 6 -230.5t12 -216.5l129 30q-4 23 -5 47.5t-1 60.5v18q0 76 -2.5 183t-2.5 117v35q0 30 6 46t24 16t25.5 -10t7.5 -28q0 -24 4 -114t4 -147
q0 -48 2 -82q7 -118 7 -126q17 5 21 7q18 7 26 7q5 0 14.5 -3.5t18 -7.5t8.5 -11q1 -7 1 -12.5v-10.5q0 -9 -0.5 -16.5t-0.5 -12.5z" />
    <glyph glyph-name="Ugrave" unicode="&#x429;" horiz-adv-x="677"
d="M655 -171q0 -23 -6.5 -38t-20.5 -15q-15 0 -27 13t-12 28l-2 265q-63 -32 -252 -72q-174 -37 -226 -37q-14 0 -23.5 12.5t-9.5 28.5q0 17 10 26q0 37 -1 59q-5 111 -5 126l-4 305q0 25 8.5 43.5t24.5 18.5q17 0 25 -14.5t8 -33.5q0 -38 2 -124.5t2 -107.5q0 -54 6 -146
t6 -112q6 2 86 15q26 4 48 10q-5 26 -7 77.5t-2 97.5q0 55 -3.5 156.5t-3.5 144.5q0 40 6 56.5t29 16.5q25 0 31 -16t6 -68q0 -75 6 -230.5t12 -216.5l129 30q-4 23 -5 47.5t-1 60.5v18q0 76 -2.5 183t-2.5 117v35q0 30 6 46t24 16t25.5 -10t7.5 -28q0 -24 4 -114t4 -147
q0 -48 2 -82q7 -118 7 -126q17 5 21 7q18 7 26 7q5 0 14.5 -3.5t18 -7.5t8.5 -11q1 -7 1 -12.5v-10.5q0 -9 -0.5 -16.5t-0.5 -12.5z" />
    <glyph glyph-name="Uacute" unicode="&#xda;" horiz-adv-x="441"
d="M430 309q0 -39 -79 -142q-84 -109 -148 -139q-9 -18 -31 -21q-15 -2 -28 15.5t-13 39.5q0 17 -2 117t-2 250v31v22v17v13q0 17 -0.5 34t-0.5 34v11q-49 -14 -81.5 -22t-42.5 -8q-14 0 -22 4t-8 17q0 15 6 23.5t16 13.5q74 30 91 36q56 20 77 20q33 0 33 -25q0 -15 -1 -52
t-1 -72v-137q74 33 124 33q36 0 69 -24q44 -32 44 -89zM348 303q0 20 -8 31.5t-31 11.5q-37 0 -54.5 -6t-59.5 -30l9 -198q55 53 88 91q56 65 56 100z" />
    <glyph glyph-name="Uacute" unicode="&#x42a;" horiz-adv-x="441"
d="M430 309q0 -39 -79 -142q-84 -109 -148 -139q-9 -18 -31 -21q-15 -2 -28 15.5t-13 39.5q0 17 -2 117t-2 250v31v22v17v13q0 17 -0.5 34t-0.5 34v11q-49 -14 -81.5 -22t-42.5 -8q-14 0 -22 4t-8 17q0 15 6 23.5t16 13.5q74 30 91 36q56 20 77 20q33 0 33 -25q0 -15 -1 -52
t-1 -72v-137q74 33 124 33q36 0 69 -24q44 -32 44 -89zM348 303q0 20 -8 31.5t-31 11.5q-37 0 -54.5 -6t-59.5 -30l9 -198q55 53 88 91q56 65 56 100z" />
    <glyph glyph-name="Ucircumflex" unicode="&#xdb;" horiz-adv-x="528"
d="M468 76q0 -31 -7 -50t-26 -19q-25 0 -33.5 48t-8.5 126v48t1 45q0 87 5.5 195t5.5 129v35q0 30 6 46t24 16q17 0 25 -11t8 -32v-336v-240zM366 309q0 -39 -79 -142q-84 -109 -148 -139q-9 -18 -31 -21q-15 -2 -28 15.5t-13 39.5q-4 93 -7 198t-3 203q0 44 3 84
q7 94 7 105q2 21 8 32t23 11q33 0 33 -25q0 -14 -1 -61t-1 -83v-137q74 33 124 33q36 0 69 -24q44 -32 44 -89zM284 303q0 20 -8 31.5t-31 11.5q-37 0 -54.5 -6t-59.5 -30l9 -198q55 53 88 91q56 65 56 100z" />
    <glyph glyph-name="Ucircumflex" unicode="&#x42b;" horiz-adv-x="528"
d="M468 76q0 -31 -7 -50t-26 -19q-25 0 -33.5 48t-8.5 126v48t1 45q0 87 5.5 195t5.5 129v35q0 30 6 46t24 16q17 0 25 -11t8 -32v-336v-240zM366 309q0 -39 -79 -142q-84 -109 -148 -139q-9 -18 -31 -21q-15 -2 -28 15.5t-13 39.5q-4 93 -7 198t-3 203q0 44 3 84
q7 94 7 105q2 21 8 32t23 11q33 0 33 -25q0 -14 -1 -61t-1 -83v-137q74 33 124 33q36 0 69 -24q44 -32 44 -89zM284 303q0 20 -8 31.5t-31 11.5q-37 0 -54.5 -6t-59.5 -30l9 -198q55 53 88 91q56 65 56 100z" />
    <glyph glyph-name="Udieresis" unicode="&#xdc;" horiz-adv-x="365"
d="M366 309q0 -39 -79 -142q-84 -109 -148 -139q-9 -18 -31 -21q-15 -2 -28 15.5t-13 39.5q-4 93 -7 198t-3 203q0 44 3 84q7 94 7 105q2 21 8 32t23 11q33 0 33 -25q0 -14 -1 -61t-1 -83v-137q74 33 124 33q36 0 69 -24q44 -32 44 -89zM284 303q0 20 -8 31.5t-31 11.5
q-37 0 -54.5 -6t-59.5 -30l9 -198q55 53 88 91q56 65 56 100z" />
    <glyph glyph-name="Udieresis" unicode="&#x42c;" horiz-adv-x="365"
d="M366 309q0 -39 -79 -142q-84 -109 -148 -139q-9 -18 -31 -21q-15 -2 -28 15.5t-13 39.5q-4 93 -7 198t-3 203q0 44 3 84q7 94 7 105q2 21 8 32t23 11q33 0 33 -25q0 -14 -1 -61t-1 -83v-137q74 33 124 33q36 0 69 -24q44 -32 44 -89zM284 303q0 20 -8 31.5t-31 11.5
q-37 0 -54.5 -6t-59.5 -30l9 -198q55 53 88 91q56 65 56 100z" />
    <glyph glyph-name="Yacute" unicode="&#xdd;" horiz-adv-x="450"
d="M413 525v-27.5t1 -30.5q0 -103 -18.5 -176t-53.5 -136q-38 -67 -104 -113q-83 -57 -139 -57q-13 0 -15.5 6.5t-2.5 24.5q45 30 95 65q56 39 88 85q40 57 61 160q17 82 17 161q0 32 -18.5 58t-44.5 26q-29 0 -69 -22q-36 -19 -61 -44q-9 -9 -29.5 -20t-31.5 -11
q-18 -2 -18 31q0 31 73 83q82 58 165 58q47 0 78 -44q27 -38 27 -77zM327 376q0 -28 -98 -82t-124 -54q-14 0 -27 13t-13 29t9.5 25.5t30.5 17t70 30.5q92 44 102.5 45t16 1h7.5q12 0 19 -5t7 -20z" />
    <glyph glyph-name="Yacute" unicode="&#x42d;" horiz-adv-x="450"
d="M413 525v-27.5t1 -30.5q0 -103 -18.5 -176t-53.5 -136q-38 -67 -104 -113q-83 -57 -139 -57q-13 0 -15.5 6.5t-2.5 24.5q45 30 95 65q56 39 88 85q40 57 61 160q17 82 17 161q0 32 -18.5 58t-44.5 26q-29 0 -69 -22q-36 -19 -61 -44q-9 -9 -29.5 -20t-31.5 -11
q-18 -2 -18 31q0 31 73 83q82 58 165 58q47 0 78 -44q27 -38 27 -77zM327 376q0 -28 -98 -82t-124 -54q-14 0 -27 13t-13 29t9.5 25.5t30.5 17t70 30.5q92 44 102.5 45t16 1h7.5q12 0 19 -5t7 -20z" />
    <glyph glyph-name="Thorn" unicode="&#xde;" horiz-adv-x="666"
d="M648 338q0 -113 -46 -206q-62 -126 -180 -126q-72 0 -122 86q-46 79 -46 175l-24 -8q-19 -6 -50 -17q-22 -8 -28 -10q0 -67 -2 -124.5t-4.5 -80t-10 -30.5t-26.5 -8h-9q-15 0 -20.5 50t-5.5 129v64.5t1 61.5v284q0 22 14 39t31 13q13 -3 17.5 -14t4.5 -30v-21
q0 -50 0.5 -113.5t1.5 -140.5q20 5 67 18q32 9 45 10q0 129 60 209q54 72 125 72q106 0 162 -98q45 -79 45 -184zM571 342q0 82 -28 141q-31 66 -81 66q-62 0 -97 -64q-38 -69 -38 -180q0 -87 36 -156.5t78 -69.5q61 0 98 89q32 77 32 174z" />
    <glyph glyph-name="Thorn" unicode="&#x42e;" horiz-adv-x="666"
d="M648 338q0 -113 -46 -206q-62 -126 -180 -126q-72 0 -122 86q-46 79 -46 175l-24 -8q-19 -6 -50 -17q-22 -8 -28 -10q0 -67 -2 -124.5t-4.5 -80t-10 -30.5t-26.5 -8h-9q-15 0 -20.5 50t-5.5 129v64.5t1 61.5v284q0 22 14 39t31 13q13 -3 17.5 -14t4.5 -30v-21
q0 -50 0.5 -113.5t1.5 -140.5q20 5 67 18q32 9 45 10q0 129 60 209q54 72 125 72q106 0 162 -98q45 -79 45 -184zM571 342q0 82 -28 141q-31 66 -81 66q-62 0 -97 -64q-38 -69 -38 -180q0 -87 36 -156.5t78 -69.5q61 0 98 89q32 77 32 174z" />
    <glyph glyph-name="germandbls" unicode="&#xdf;" horiz-adv-x="510"
d="M447 580q0 -14 -8 -23t-20 -13l-10 -225q36 -9 36 -35q0 -16 -8.5 -27t-24.5 -19v-186q0 -34 -7.5 -44t-26.5 -12q-16 -2 -23.5 14.5t-10 43t-3 39.5t-0.5 23q0 21 1 52t1 34q-25 -33 -70 -66q-41 -28 -81 -56q-46 -35 -75 -54q-47 -32 -56 -32q-15 0 -24.5 13.5
t-9.5 31.5q0 13 46 46q38 25 76 51q15 11 69 46q74 48 96 75q-116 0 -187 51q-66 47 -66 114q0 44 17 77q25 49 85.5 81t119.5 46q44 10 86 10q13 22 33 22q4 0 10 -2q19 -7 19 -16q-1 -9 -1 -17q11 -7 15 -18.5t2 -24.5zM353 554q-25 0 -75.5 -14t-85.5 -34
q-28 -16 -41 -33q-16 -21 -16 -51q0 -50 80 -73q11 -3 128 -22q0 36 3 98.5t7 128.5z" />
    <glyph glyph-name="germandbls" unicode="&#x42f;" horiz-adv-x="510"
d="M447 580q0 -14 -8 -23t-20 -13l-10 -225q36 -9 36 -35q0 -16 -8.5 -27t-24.5 -19v-186q0 -34 -7.5 -44t-26.5 -12q-16 -2 -23.5 14.5t-10 43t-3 39.5t-0.5 23q0 21 1 52t1 34q-25 -33 -70 -66q-41 -28 -81 -56q-46 -35 -75 -54q-47 -32 -56 -32q-15 0 -24.5 13.5
t-9.5 31.5q0 13 46 46q38 25 76 51q15 11 69 46q74 48 96 75q-116 0 -187 51q-66 47 -66 114q0 44 17 77q25 49 85.5 81t119.5 46q44 10 86 10q13 22 33 22q4 0 10 -2q19 -7 19 -16q-1 -9 -1 -17q11 -7 15 -18.5t2 -24.5zM353 554q-25 0 -75.5 -14t-85.5 -34
q-28 -16 -41 -33q-16 -21 -16 -51q0 -50 80 -73q11 -3 128 -22q0 36 3 98.5t7 128.5z" />
    <glyph glyph-name="agrave" unicode="&#xe0;" horiz-adv-x="438"
d="M392 25q0 -19 -12.5 -33.5t-25.5 -14.5q-26 0 -48 63q-14 41 -26 105q-32 -49 -82 -94q-60 -53 -98 -53q-28 0 -48 24t-20 54q0 73 86 212q90 146 150 146q13 0 21.5 -6t8.5 -20q0 -16 -32 -48q-54 -54 -68 -72q-33 -41 -64.5 -107t-31.5 -85q0 -12 2.5 -16t13.5 -4
q24 0 85.5 64.5t61.5 79.5q0 17 14.5 26t25.5 9q9 0 20 -8.5t14 -24t10.5 -47.5t13.5 -52.5t20 -63.5q9 -27 9 -34z" />
    <glyph glyph-name="agrave" unicode="&#x430;" horiz-adv-x="438"
d="M392 25q0 -19 -12.5 -33.5t-25.5 -14.5q-26 0 -48 63q-14 41 -26 105q-32 -49 -82 -94q-60 -53 -98 -53q-28 0 -48 24t-20 54q0 73 86 212q90 146 150 146q13 0 21.5 -6t8.5 -20q0 -16 -32 -48q-54 -54 -68 -72q-33 -41 -64.5 -107t-31.5 -85q0 -12 2.5 -16t13.5 -4
q24 0 85.5 64.5t61.5 79.5q0 17 14.5 26t25.5 9q9 0 20 -8.5t14 -24t10.5 -47.5t13.5 -52.5t20 -63.5q9 -27 9 -34z" />
    <glyph glyph-name="aacute" unicode="&#xe1;" horiz-adv-x="376"
d="M308 89q-36 -53 -72 -71.5t-92 -18.5q-41 0 -75 30q-28 25 -33 55t-5 58q0 102 60 172q56 66 130 66q14 0 21.5 -5t7.5 -19q0 -17 -36 -37q-51 -28 -62 -38q-29 -25 -41 -59t-12 -93q0 -21 17 -43t36 -22q35 0 58.5 18t46.5 56q18 30 25.5 68t7.5 77q0 51 -97 175
q-62 75 -83 100q-13 16 -25 32t-14 30q-5 37 54 69q37 22 122.5 55t96.5 33q25 0 31 -35q0 -13 -90 -50q-57 -24 -73.5 -32t-35.5 -19q-26 -15 -31 -18q11 -12 45 -56q30 -39 60 -77q72 -92 91.5 -138t19.5 -96t-12 -87t-41 -80z" />
    <glyph glyph-name="aacute" unicode="&#x431;" horiz-adv-x="376"
d="M308 89q-36 -53 -72 -71.5t-92 -18.5q-41 0 -75 30q-28 25 -33 55t-5 58q0 102 60 172q56 66 130 66q14 0 21.5 -5t7.5 -19q0 -17 -36 -37q-51 -28 -62 -38q-29 -25 -41 -59t-12 -93q0 -21 17 -43t36 -22q35 0 58.5 18t46.5 56q18 30 25.5 68t7.5 77q0 51 -97 175
q-62 75 -83 100q-13 16 -25 32t-14 30q-5 37 54 69q37 22 122.5 55t96.5 33q25 0 31 -35q0 -13 -90 -50q-57 -24 -73.5 -32t-35.5 -19q-26 -15 -31 -18q11 -12 45 -56q30 -39 60 -77q72 -92 91.5 -138t19.5 -96t-12 -87t-41 -80z" />
    <glyph glyph-name="acircumflex" unicode="&#xe2;" horiz-adv-x="442"
d="M426 144q0 -80 -112 -131q-81 -37 -130 -37q-15 0 -15 25q0 5 84 57t84 77q0 35 -11.5 44t-69.5 9h-62q-12 0 -21.5 7t-9.5 20q0 9 30.5 66t30.5 69q0 13 -5.5 16t-20.5 3q-17 0 -43 -16t-31 -19q4 -20 7.5 -51.5l6.5 -58.5q11 -98 13.5 -121.5t2.5 -44.5q0 -41 -6 -61.5
t-24 -20.5t-28 16t-10 66q0 25 -3.5 63.5t-14.5 118.5q-7 44 -11.5 77.5t-4.5 50.5q0 38 34 38q13 0 23 -19q75 45 115 45q41 0 65.5 -11.5t24.5 -26.5q0 -31 -28 -80.5t-54 -73.5h41q35 0 63 -3.5t45 -14.5q24 -16 34.5 -35t10.5 -43z" />
    <glyph glyph-name="acircumflex" unicode="&#x432;" horiz-adv-x="442"
d="M426 144q0 -80 -112 -131q-81 -37 -130 -37q-15 0 -15 25q0 5 84 57t84 77q0 35 -11.5 44t-69.5 9h-62q-12 0 -21.5 7t-9.5 20q0 9 30.5 66t30.5 69q0 13 -5.5 16t-20.5 3q-17 0 -43 -16t-31 -19q4 -20 7.5 -51.5l6.5 -58.5q11 -98 13.5 -121.5t2.5 -44.5q0 -41 -6 -61.5
t-24 -20.5t-28 16t-10 66q0 25 -3.5 63.5t-14.5 118.5q-7 44 -11.5 77.5t-4.5 50.5q0 38 34 38q13 0 23 -19q75 45 115 45q41 0 65.5 -11.5t24.5 -26.5q0 -31 -28 -80.5t-54 -73.5h41q35 0 63 -3.5t45 -14.5q24 -16 34.5 -35t10.5 -43z" />
    <glyph glyph-name="atilde" unicode="&#xe3;" horiz-adv-x="420"
d="M423 162q0 -28 -40.5 -64t-77.5 -70q-61 -52 -86 -52q-16 0 -30 9t-14 26v151q0 35 6.5 89.5t6.5 59.5q0 26 -20 26q-7 0 -58.5 -58.5t-60.5 -58.5q-31 0 -31 19q0 28 63 99q71 80 125 80q26 0 39.5 -10t13.5 -40q0 -26 -7 -149t-7 -156q32 24 96 78q49 42 60 42
q13 0 17.5 -2.5t4.5 -18.5z" />
    <glyph glyph-name="atilde" unicode="&#x433;" horiz-adv-x="420"
d="M423 162q0 -28 -40.5 -64t-77.5 -70q-61 -52 -86 -52q-16 0 -30 9t-14 26v151q0 35 6.5 89.5t6.5 59.5q0 26 -20 26q-7 0 -58.5 -58.5t-60.5 -58.5q-31 0 -31 19q0 28 63 99q71 80 125 80q26 0 39.5 -10t13.5 -40q0 -26 -7 -149t-7 -156q32 24 96 78q49 42 60 42
q13 0 17.5 -2.5t4.5 -18.5z" />
    <glyph glyph-name="adieresis" unicode="&#xe4;" horiz-adv-x="457"
d="M387 364q0 -15 -10 -19.5t-30 -4.5h-16q-34 0 -120 -99q-89 -103 -89 -153q2 -22 4 -27.5t15 -5.5q18 0 65 43t80 86q15 19 23 51q5 18 22 18q21 0 29 -9t8 -22q0 -4 -1 -12t-1 -10l24 -222q8 -73 12.5 -118t4.5 -90q0 -21 1 -42.5t2 -42.5q0 -33 -5.5 -50t-21.5 -17
q-29 0 -44 6.5t-30 27.5q-35 49 -70 97q-26 37 -50 79q-17 28 -33 55q-9 17 -9 25q0 13 4.5 17.5t17.5 4.5q15 0 52 -44q4 -5 121 -160q-5 33 -11.5 89t-10.5 103q0 48 -9 111t-9 78q-35 -46 -83 -83q-57 -44 -95 -44q-35 0 -54 22q-22 25 -22 76q0 87 112 209
q107 117 168 117q20 0 34 -6q25 -10 25 -34z" />
    <glyph glyph-name="adieresis" unicode="&#x434;" horiz-adv-x="457"
d="M387 364q0 -15 -10 -19.5t-30 -4.5h-16q-34 0 -120 -99q-89 -103 -89 -153q2 -22 4 -27.5t15 -5.5q18 0 65 43t80 86q15 19 23 51q5 18 22 18q21 0 29 -9t8 -22q0 -4 -1 -12t-1 -10l24 -222q8 -73 12.5 -118t4.5 -90q0 -21 1 -42.5t2 -42.5q0 -33 -5.5 -50t-21.5 -17
q-29 0 -44 6.5t-30 27.5q-35 49 -70 97q-26 37 -50 79q-17 28 -33 55q-9 17 -9 25q0 13 4.5 17.5t17.5 4.5q15 0 52 -44q4 -5 121 -160q-5 33 -11.5 89t-10.5 103q0 48 -9 111t-9 78q-35 -46 -83 -83q-57 -44 -95 -44q-35 0 -54 22q-22 25 -22 76q0 87 112 209
q107 117 168 117q20 0 34 -6q25 -10 25 -34z" />
    <glyph glyph-name="aring" unicode="&#xe5;" horiz-adv-x="408"
d="M398 103q-2 -19 -71 -79q-77 -67 -122 -67q-92 0 -92 96q0 27 16 62q6 13 27 49q-11 -5 -22 -5q-7 0 -19.5 2.5t-19.5 2.5q-32 0 -48.5 17t-16.5 42q0 33 79 113q89 90 157 90q9 0 14.5 -7.5t3.5 -16.5q-1 -11 -65 -58q-40 -30 -53 -41.5t-26.5 -32t-13.5 -28.5
q0 -3 2 -5.5t3 -3.5q19 0 80.5 26.5t63.5 26.5q7 -1 13 -8t5 -15q0 -22 -13 -48q-6 -12 -27.5 -44t-40 -60t-18.5 -51q0 -11 8.5 -18.5t20.5 -7.5q21 0 60 28q43 32 87 64q13 0 20.5 -6.5t7.5 -16.5z" />
    <glyph glyph-name="aring" unicode="&#x435;" horiz-adv-x="408"
d="M398 103q-2 -19 -71 -79q-77 -67 -122 -67q-92 0 -92 96q0 27 16 62q6 13 27 49q-11 -5 -22 -5q-7 0 -19.5 2.5t-19.5 2.5q-32 0 -48.5 17t-16.5 42q0 33 79 113q89 90 157 90q9 0 14.5 -7.5t3.5 -16.5q-1 -11 -65 -58q-40 -30 -53 -41.5t-26.5 -32t-13.5 -28.5
q0 -3 2 -5.5t3 -3.5q19 0 80.5 26.5t63.5 26.5q7 -1 13 -8t5 -15q0 -22 -13 -48q-6 -12 -27.5 -44t-40 -60t-18.5 -51q0 -11 8.5 -18.5t20.5 -7.5q21 0 60 28q43 32 87 64q13 0 20.5 -6.5t7.5 -16.5z" />
    <glyph glyph-name="ae" unicode="&#xe6;" horiz-adv-x="541"
d="M535 46q0 -18 -9 -25t-43 -7q-18 0 -102 56q-39 26 -77 52l8 -59q0 -36 -7 -53.5t-27 -17.5t-29 11q-13 16 -13 60q-1 4 -0.5 18.5t1.5 24.5q0 11 -1 16q-69 -66 -87 -82q-54 -48 -70 -48q-20 0 -28 10t-8 24q0 17 87 94q53 46 69 60q-54 42 -107 84q-79 65 -79 80
q0 11 8 19t17 8q32 0 65 -26q28 -24 43.5 -36.5t38.5 -33.5q29 -27 40 -37q-3 13 -13 63t-10 59q0 35 38 35q8 0 16.5 -5t10.5 -13q6 -16 11 -47q2 -15 11 -88l98 94q57 52 74 52q24 0 24 -32q0 -12 -60 -76q-55 -58 -92 -91q54 -39 89 -62q64 -43 81 -49q32 -10 32 -32z
" />
    <glyph glyph-name="ae" unicode="&#x436;" horiz-adv-x="541"
d="M535 46q0 -18 -9 -25t-43 -7q-18 0 -102 56q-39 26 -77 52l8 -59q0 -36 -7 -53.5t-27 -17.5t-29 11q-13 16 -13 60q-1 4 -0.5 18.5t1.5 24.5q0 11 -1 16q-69 -66 -87 -82q-54 -48 -70 -48q-20 0 -28 10t-8 24q0 17 87 94q53 46 69 60q-54 42 -107 84q-79 65 -79 80
q0 11 8 19t17 8q32 0 65 -26q28 -24 43.5 -36.5t38.5 -33.5q29 -27 40 -37q-3 13 -13 63t-10 59q0 35 38 35q8 0 16.5 -5t10.5 -13q6 -16 11 -47q2 -15 11 -88l98 94q57 52 74 52q24 0 24 -32q0 -12 -60 -76q-55 -58 -92 -91q54 -39 89 -62q64 -43 81 -49q32 -10 32 -32z
" />
    <glyph glyph-name="ccedilla" unicode="&#xe7;" horiz-adv-x="425"
d="M389 124q0 -63 -81 -108q-103 -58 -195 -58q-11 0 -21 6.5t-10 18.5t109 60t109 72q0 31 -30 42t-95 11h-62q-12 0 -21.5 7t-9.5 20q0 9 46.5 68.5t46.5 72.5t-5.5 16t-20.5 3q-12 0 -54 -20.5t-52 -20.5t-13.5 5.5t-3.5 15.5v10q0 24 58 48.5t91 24.5q42 0 60 -14
t18 -40q0 -35 -23 -75q-19 -33 -47 -59q43 0 89 -6t71 -22t35.5 -35t10.5 -43z" />
    <glyph glyph-name="ccedilla" unicode="&#x437;" horiz-adv-x="425"
d="M389 124q0 -63 -81 -108q-103 -58 -195 -58q-11 0 -21 6.5t-10 18.5t109 60t109 72q0 31 -30 42t-95 11h-62q-12 0 -21.5 7t-9.5 20q0 9 46.5 68.5t46.5 72.5t-5.5 16t-20.5 3q-12 0 -54 -20.5t-52 -20.5t-13.5 5.5t-3.5 15.5v10q0 24 58 48.5t91 24.5q42 0 60 -14
t18 -40q0 -35 -23 -75q-19 -33 -47 -59q43 0 89 -6t71 -22t35.5 -35t10.5 -43z" />
    <glyph glyph-name="egrave" unicode="&#xe8;" horiz-adv-x="453"
d="M427 30q-5 -33 -37 -33q-24 0 -39.5 20t-22 44t-8.5 32q-6 23 -6 52q-35 -46 -73 -80q-60 -53 -107 -53q-44 0 -59 98q-8 52 -8 160q0 48 8.5 71.5t36.5 23.5q18 0 23.5 -19.5t5.5 -61.5q0 -69 5.5 -125t19.5 -56q17 0 46 28q25 24 51 60q13 19 34 90q15 53 39 53
q25 0 34 -18.5t13 -61.5v-72q2 -43 10 -80q4 -19 19.5 -40t14.5 -32z" />
    <glyph glyph-name="egrave" unicode="&#x438;" horiz-adv-x="453"
d="M427 30q-5 -33 -37 -33q-24 0 -39.5 20t-22 44t-8.5 32q-6 23 -6 52q-35 -46 -73 -80q-60 -53 -107 -53q-44 0 -59 98q-8 52 -8 160q0 48 8.5 71.5t36.5 23.5q18 0 23.5 -19.5t5.5 -61.5q0 -69 5.5 -125t19.5 -56q17 0 46 28q25 24 51 60q13 19 34 90q15 53 39 53
q25 0 34 -18.5t13 -61.5v-72q2 -43 10 -80q4 -19 19.5 -40t14.5 -32z" />
    <glyph glyph-name="eacute" unicode="&#xe9;" horiz-adv-x="476"
d="M427 30q-5 -33 -37 -33q-24 0 -39.5 20t-22 44t-8.5 32q-6 23 -6 52q-35 -46 -73 -80q-60 -53 -107 -53q-44 0 -59 98q-8 52 -8 160q0 48 8.5 71.5t36.5 23.5q18 0 23.5 -19.5t5.5 -61.5q0 -69 5.5 -125t19.5 -56q17 0 46 28q25 24 51 60q14 20 26 98q9 61 37 61
q25 0 34 -18.5t13 -61.5q0 -29 6.5 -82t13.5 -86q4 -19 19.5 -40t14.5 -32zM111 478q0 15 121 81.5t141 66.5q16 1 25 -10t9 -28q0 -21 -14 -32q-5 -4 -30 -16q-35 -17 -116 -52q-93 -40 -106 -40q-16 0 -21 3q-9 6 -9 27z" />
    <glyph glyph-name="eacute" unicode="&#x439;" horiz-adv-x="476"
d="M427 30q-5 -33 -37 -33q-24 0 -39.5 20t-22 44t-8.5 32q-6 23 -6 52q-35 -46 -73 -80q-60 -53 -107 -53q-44 0 -59 98q-8 52 -8 160q0 48 8.5 71.5t36.5 23.5q18 0 23.5 -19.5t5.5 -61.5q0 -69 5.5 -125t19.5 -56q17 0 46 28q25 24 51 60q14 20 26 98q9 61 37 61
q25 0 34 -18.5t13 -61.5q0 -29 6.5 -82t13.5 -86q4 -19 19.5 -40t14.5 -32zM111 478q0 15 121 81.5t141 66.5q16 1 25 -10t9 -28q0 -21 -14 -32q-5 -4 -30 -16q-35 -17 -116 -52q-93 -40 -106 -40q-16 0 -21 3q-9 6 -9 27z" />
    <glyph glyph-name="ecircumflex" unicode="&#xea;" horiz-adv-x="424"
d="M350 338q0 -36 -66 -108q-37 -40 -74 -79q90 -57 136.5 -87t46.5 -42q0 -18 -5.5 -24.5t-27.5 -6.5q-21 0 -89 38t-105 68l-28 -34q0 -47 -5 -59.5t-24 -12.5q-33 0 -33 24l-6 82q0 55 -7 111.5t-15 118.5q0 24 10.5 37.5t22.5 13.5q14 0 25 -12t11 -28q0 -22 4 -56
q10 -84 10 -114q84 92 131 141q51 53 60 53q17 0 22.5 -4.5t5.5 -19.5z" />
    <glyph glyph-name="ecircumflex" unicode="&#x43a;" horiz-adv-x="424"
d="M350 338q0 -36 -66 -108q-37 -40 -74 -79q90 -57 136.5 -87t46.5 -42q0 -18 -5.5 -24.5t-27.5 -6.5q-21 0 -89 38t-105 68l-28 -34q0 -47 -5 -59.5t-24 -12.5q-33 0 -33 24l-6 82q0 55 -7 111.5t-15 118.5q0 24 10.5 37.5t22.5 13.5q14 0 25 -12t11 -28q0 -22 4 -56
q10 -84 10 -114q84 92 131 141q51 53 60 53q17 0 22.5 -4.5t5.5 -19.5z" />
    <glyph glyph-name="edieresis" unicode="&#xeb;" horiz-adv-x="412"
d="M389 44q0 -21 -10 -31.5t-26 -10.5q-15 0 -31 19q-20 23 -47 85q-12 24 -31 77q-23 64 -31 86l-90 -195q-23 -50 -28 -56q-13 -16 -28 -16q-18 0 -27 8t-9 28q0 22 36 91q26 49 37.5 70.5t43.5 94.5q46 106 69 106t54 -82l50 -136q7 -16 42 -76q26 -45 26 -62z" />
    <glyph glyph-name="edieresis" unicode="&#x43b;" horiz-adv-x="412"
d="M389 44q0 -21 -10 -31.5t-26 -10.5q-15 0 -31 19q-20 23 -47 85q-12 24 -31 77q-23 64 -31 86l-90 -195q-23 -50 -28 -56q-13 -16 -28 -16q-18 0 -27 8t-9 28q0 22 36 91q26 49 37.5 70.5t43.5 94.5q46 106 69 106t54 -82l50 -136q7 -16 42 -76q26 -45 26 -62z" />
    <glyph glyph-name="igrave" unicode="&#xec;" horiz-adv-x="587"
d="M548 42q0 -14 -9 -25t-25 -11q-22 0 -43 32q-12 19 -39 74q-5 10 -25 63q-26 68 -26 69q-26 -89 -61 -159q-30 -61 -50 -61q-27 0 -65 85q-29 66 -47 135q-22 -97 -37 -152q-28 -104 -53 -104q-16 0 -27 14.5t-11 33.5q0 21 26.5 106.5t51.5 145.5q11 29 22 59
q17 37 36 37q12 0 25 -31q8 -23 16.5 -45.5t33.5 -101.5q21 -67 29 -84q23 65 39.5 112.5t25.5 71t17 44.5q15 34 29 34q25 0 58 -86q24 -65 49 -130l40 -76t20 -50z" />
    <glyph glyph-name="igrave" unicode="&#x43c;" horiz-adv-x="587"
d="M548 42q0 -14 -9 -25t-25 -11q-22 0 -43 32q-12 19 -39 74q-5 10 -25 63q-26 68 -26 69q-26 -89 -61 -159q-30 -61 -50 -61q-27 0 -65 85q-29 66 -47 135q-22 -97 -37 -152q-28 -104 -53 -104q-16 0 -27 14.5t-11 33.5q0 21 26.5 106.5t51.5 145.5q11 29 22 59
q17 37 36 37q12 0 25 -31q8 -23 16.5 -45.5t33.5 -101.5q21 -67 29 -84q23 65 39.5 112.5t25.5 71t17 44.5q15 34 29 34q25 0 58 -86q24 -65 49 -130l40 -76t20 -50z" />
    <glyph glyph-name="iacute" unicode="&#xed;" horiz-adv-x="448"
d="M413 48q0 -21 -10 -31.5t-26 -10.5q-23 0 -39 41q-6 17 -17 53l-18 68h-152q6 -68 8 -85t2 -23q0 -23 -13.5 -38.5t-34.5 -15.5q-23 0 -31 27.5t-8 73.5v30.5t1 31.5q-19 2 -30.5 8.5t-11.5 20.5q0 16 10 24.5t28 11.5q-2 24 -7 70.5t-5 63.5q0 11 11 18.5t21 7.5
q27 0 43 -53q13 -44 13 -101h142l-2 28v41q0 41 6 63t28 22q27 0 38 -73q4 -24 10 -82q17 -3 26.5 -10t9.5 -18q0 -10 -7 -18t-20 -14q5 -23 20 -70.5t15 -60.5z" />
    <glyph glyph-name="iacute" unicode="&#x43d;" horiz-adv-x="448"
d="M413 48q0 -21 -10 -31.5t-26 -10.5q-23 0 -39 41q-6 17 -17 53l-18 68h-152q6 -68 8 -85t2 -23q0 -23 -13.5 -38.5t-34.5 -15.5q-23 0 -31 27.5t-8 73.5v30.5t1 31.5q-19 2 -30.5 8.5t-11.5 20.5q0 16 10 24.5t28 11.5q-2 24 -7 70.5t-5 63.5q0 11 11 18.5t21 7.5
q27 0 43 -53q13 -44 13 -101h142l-2 28v41q0 41 6 63t28 22q27 0 38 -73q4 -24 10 -82q17 -3 26.5 -10t9.5 -18q0 -10 -7 -18t-20 -14q5 -23 20 -70.5t15 -60.5z" />
    <glyph glyph-name="icircumflex" unicode="&#xee;" horiz-adv-x="356"
d="M331 256q0 -104 -30 -169q-38 -83 -116 -83q-64 0 -102 41t-38 109q0 78 27 140q39 90 123 90q57 0 96.5 -39.5t39.5 -88.5zM257 242q0 28 -17 50q-21 26 -55 26q-28 0 -52 -49t-24 -115q0 -28 23 -55t47 -27q50 0 68 69q10 38 10 101z" />
    <glyph glyph-name="icircumflex" unicode="&#x43e;" horiz-adv-x="356"
d="M331 256q0 -104 -30 -169q-38 -83 -116 -83q-64 0 -102 41t-38 109q0 78 27 140q39 90 123 90q57 0 96.5 -39.5t39.5 -88.5zM257 242q0 28 -17 50q-21 26 -55 26q-28 0 -52 -49t-24 -115q0 -28 23 -55t47 -27q50 0 68 69q10 38 10 101z" />
    <glyph glyph-name="idieresis" unicode="&#xef;" horiz-adv-x="459"
d="M426 61q0 -22 -10 -32.5t-27 -10.5q-23 0 -43 41q-6 13 -25 54q-14 29 -27 59q-17 35 -37 68q-38 -62 -58 -99t-35.5 -69.5t-25.5 -44.5q-17 -20 -36 -20q-24 0 -32 26.5t-8 74.5v35.5t1 35.5q0 40 -5.5 94t-11.5 113q0 10 11.5 18.5t21.5 8.5q33 0 50 -141q8 -67 8 -106
q27 50 55 100q42 69 65 69q30 0 73 -78q22 -41 44 -81q17 -31 35 -62q17 -33 17 -53z" />
    <glyph glyph-name="idieresis" unicode="&#x43f;" horiz-adv-x="459"
d="M426 61q0 -22 -10 -32.5t-27 -10.5q-23 0 -43 41q-6 13 -25 54q-14 29 -27 59q-17 35 -37 68q-38 -62 -58 -99t-35.5 -69.5t-25.5 -44.5q-17 -20 -36 -20q-24 0 -32 26.5t-8 74.5v35.5t1 35.5q0 40 -5.5 94t-11.5 113q0 10 11.5 18.5t21.5 8.5q33 0 50 -141q8 -67 8 -106
q27 50 55 100q42 69 65 69q30 0 73 -78q22 -41 44 -81q17 -31 35 -62q17 -33 17 -53z" />
    <glyph glyph-name="eth" unicode="&#xf0;" horiz-adv-x="395"
d="M366 294q0 -101 -77 -211q-68 -97 -102 -97q-6 0 -16.5 17.5t-10.5 28.5q54 60 94 120q44 66 44 122q0 20 -16 41q-10 13 -18 13q-23 0 -62 -36q-44 -41 -60 -90q-4 -11 -6 -35t-2 -54q0 -69 8.5 -155.5t14 -141.5t5.5 -66q0 -25 -7.5 -42.5t-19.5 -17.5q-21 0 -32 19.5
t-15 64.5l-18 190l-26 304q-1 10 -2 21t-1 13q0 19 7 29.5t26 10.5q21 0 31 -20q7 -14 9 -38q18 33 74 74q61 44 98 44q48 0 67 -38q13 -26 13 -70z" />
    <glyph glyph-name="eth" unicode="&#x440;" horiz-adv-x="395"
d="M366 294q0 -101 -77 -211q-68 -97 -102 -97q-6 0 -16.5 17.5t-10.5 28.5q54 60 94 120q44 66 44 122q0 20 -16 41q-10 13 -18 13q-23 0 -62 -36q-44 -41 -60 -90q-4 -11 -6 -35t-2 -54q0 -69 8.5 -155.5t14 -141.5t5.5 -66q0 -25 -7.5 -42.5t-19.5 -17.5q-21 0 -32 19.5
t-15 64.5l-18 190l-26 304q-1 10 -2 21t-1 13q0 19 7 29.5t26 10.5q21 0 31 -20q7 -14 9 -38q18 33 74 74q61 44 98 44q48 0 67 -38q13 -26 13 -70z" />
    <glyph glyph-name="ntilde" unicode="&#xf1;" horiz-adv-x="393"
d="M379 176q0 -24 -80 -93q-91 -78 -158 -78q-46 0 -78 28q-27 24 -27 61q0 98 92 198q83 90 133 90q13 0 20.5 -5t7.5 -19q0 -19 -25.5 -39t-51.5 -40q-31 -26 -63 -76.5t-32 -82.5q0 -16 13.5 -28.5t33.5 -12.5q25 0 99 59t95 59t21 -21z" />
    <glyph glyph-name="ntilde" unicode="&#x441;" horiz-adv-x="393"
d="M379 176q0 -24 -80 -93q-91 -78 -158 -78q-46 0 -78 28q-27 24 -27 61q0 98 92 198q83 90 133 90q13 0 20.5 -5t7.5 -19q0 -19 -25.5 -39t-51.5 -40q-31 -26 -63 -76.5t-32 -82.5q0 -16 13.5 -28.5t33.5 -12.5q25 0 99 59t95 59t21 -21z" />
    <glyph glyph-name="ograve" unicode="&#xf2;" horiz-adv-x="598"
d="M554 36q0 -14 -9 -25t-25 -11q-26 0 -57 58q-2 3 -31 64l-30 72q-31 -82 -55 -135t-43 -53q-23 0 -53 109t-39 109q-13 0 -35 -123t-51 -123q-18 0 -28 16t-10 66q0 25 -3.5 63.5t-14.5 118.5q-7 44 -11.5 77.5t-4.5 50.5q0 38 34 38q27 0 43 -86q6 -34 15 -98
q13 32 27 65q20 41 39 41q31 0 60 -68l44 -112q19 55 39 110q29 68 56 68q26 0 54 -88q18 -56 29 -78l40 -76t20 -50z" />
    <glyph glyph-name="ograve" unicode="&#x442;" horiz-adv-x="598"
d="M554 36q0 -14 -9 -25t-25 -11q-26 0 -57 58q-2 3 -31 64l-30 72q-31 -82 -55 -135t-43 -53q-23 0 -53 109t-39 109q-13 0 -35 -123t-51 -123q-18 0 -28 16t-10 66q0 25 -3.5 63.5t-14.5 118.5q-7 44 -11.5 77.5t-4.5 50.5q0 38 34 38q27 0 43 -86q6 -34 15 -98
q13 32 27 65q20 41 39 41q31 0 60 -68l44 -112q19 55 39 110q29 68 56 68q26 0 54 -88q18 -56 29 -78l40 -76t20 -50z" />
    <glyph glyph-name="oacute" unicode="&#xf3;" horiz-adv-x="414"
d="M405 -250q0 -17 -6 -31t-21 -14q-25 0 -56 110t-31 221q-6 66 -6 140q-36 -56 -68 -94q-57 -67 -88 -67q-36 0 -67 108.5t-31 200.5q0 26 6.5 40t24.5 14q33 0 33 -54q0 -56 19.5 -132.5t37.5 -76.5q13 0 62.5 74.5t66.5 116.5q5 29 9.5 47t27.5 18t32 -18q6 -12 6 -39
q-1 -21 -1 -30q0 -39 2 -119.5t2 -94.5q0 -65 15 -150t31 -170z" />
    <glyph glyph-name="oacute" unicode="&#x443;" horiz-adv-x="414"
d="M405 -250q0 -17 -6 -31t-21 -14q-25 0 -56 110t-31 221q-6 66 -6 140q-36 -56 -68 -94q-57 -67 -88 -67q-36 0 -67 108.5t-31 200.5q0 26 6.5 40t24.5 14q33 0 33 -54q0 -56 19.5 -132.5t37.5 -76.5q13 0 62.5 74.5t66.5 116.5q5 29 9.5 47t27.5 18t32 -18q6 -12 6 -39
q-1 -21 -1 -30q0 -39 2 -119.5t2 -94.5q0 -65 15 -150t31 -170z" />
    <glyph glyph-name="ocircumflex" unicode="&#xf4;" horiz-adv-x="642"
d="M623 272q0 -100 -86 -192q-73 -78 -112 -78q-22 0 -32 5.5t-10 23.5q65 60 113 120q53 66 53 121q0 20 -16 41q-10 13 -18 13q-15 0 -65 -47.5t-79 -86.5q0 -55 4 -107.5t8.5 -98t9.5 -93t14 -107.5q3 -17 8.5 -44t5.5 -42q0 -21 -10.5 -37.5t-27.5 -16.5q-21 0 -42 104
t-21 208q0 19 -3.5 87t-3.5 91q-42 -51 -101 -98q-72 -58 -109 -58q-69 0 -69 98q0 90 78 197t137 107q20 0 33 -6q23 -10 23 -34q0 -15 -11 -19.5t-31 -4.5h-16q-31 0 -84.5 -89t-53.5 -141v-13q0 -20 16 -20q17 0 84 60q58 52 96 95q0 53 4 126q11 200 11 222q0 41 8.5 57
t23.5 16q19 0 26 -10.5t7 -27.5q0 -11 -1 -19.5t-2 -15.5l-11 -276q18 34 71 74q59 44 95 44q48 0 70 -48q16 -35 16 -80z" />
    <glyph glyph-name="ocircumflex" unicode="&#x444;" horiz-adv-x="642"
d="M623 272q0 -100 -86 -192q-73 -78 -112 -78q-22 0 -32 5.5t-10 23.5q65 60 113 120q53 66 53 121q0 20 -16 41q-10 13 -18 13q-15 0 -65 -47.5t-79 -86.5q0 -55 4 -107.5t8.5 -98t9.5 -93t14 -107.5q3 -17 8.5 -44t5.5 -42q0 -21 -10.5 -37.5t-27.5 -16.5q-21 0 -42 104
t-21 208q0 19 -3.5 87t-3.5 91q-42 -51 -101 -98q-72 -58 -109 -58q-69 0 -69 98q0 90 78 197t137 107q20 0 33 -6q23 -10 23 -34q0 -15 -11 -19.5t-31 -4.5h-16q-31 0 -84.5 -89t-53.5 -141v-13q0 -20 16 -20q17 0 84 60q58 52 96 95q0 53 4 126q11 200 11 222q0 41 8.5 57
t23.5 16q19 0 26 -10.5t7 -27.5q0 -11 -1 -19.5t-2 -15.5l-11 -276q18 34 71 74q59 44 95 44q48 0 70 -48q16 -35 16 -80z" />
    <glyph glyph-name="otilde" unicode="&#xf5;" horiz-adv-x="443"
d="M393 48q0 -22 -8.5 -29.5t-40.5 -7.5q-28 0 -66 17t-59 38q-19 -30 -55 -62q-41 -37 -62 -37q-19 0 -27 11.5t-6 29.5q0 14 56 68q31 29 40 44q-56 56 -90 94q-68 76 -68 102q0 11 7 20t15 9q24 0 80 -59q44 -49 89 -98q49 94 75 144q48 92 68 92q13 0 17 -9t4 -27
q0 -32 -43 -123q-23 -48 -66 -127q22 -24 54 -39.5t55 -15.5q12 0 21.5 -11.5t9.5 -23.5z" />
    <glyph glyph-name="otilde" unicode="&#x445;" horiz-adv-x="443"
d="M393 48q0 -22 -8.5 -29.5t-40.5 -7.5q-28 0 -66 17t-59 38q-19 -30 -55 -62q-41 -37 -62 -37q-19 0 -27 11.5t-6 29.5q0 14 56 68q31 29 40 44q-56 56 -90 94q-68 76 -68 102q0 11 7 20t15 9q24 0 80 -59q44 -49 89 -98q49 94 75 144q48 92 68 92q13 0 17 -9t4 -27
q0 -32 -43 -123q-23 -48 -66 -127q22 -24 54 -39.5t55 -15.5q12 0 21.5 -11.5t9.5 -23.5z" />
    <glyph glyph-name="odieresis" unicode="&#xf6;" horiz-adv-x="603"
d="M552 88q0 -17 -8.5 -45t-9.5 -33q-11 -40 -19 -70q-12 -44 -34 -113.5t-41 -69.5q-12 0 -18 7t-6 19q0 14 7 59t17 89q4 24 10.5 55t13.5 50q-24 -16 -47 -32q-14 -8 -22 -8q-25 0 -40.5 20t-23.5 50t-10 40t-2 38q-35 -46 -73 -80q-60 -53 -107 -53q-44 0 -59 98
q-9 58 -9 161q0 47 9.5 71.5t36.5 24.5q19 0 24.5 -19t5.5 -63q0 -77 5 -128.5t19 -51.5q16 0 43.5 26.5t52.5 61.5q5 7 50 117q15 36 28 36q26 0 33 -19t7 -64q0 -81 7 -127.5t24 -46.5q13 0 50 21t45 21q19 0 30 -12t11 -30z" />
    <glyph glyph-name="odieresis" unicode="&#x446;" horiz-adv-x="603"
d="M552 88q0 -17 -8.5 -45t-9.5 -33q-11 -40 -19 -70q-12 -44 -34 -113.5t-41 -69.5q-12 0 -18 7t-6 19q0 14 7 59t17 89q4 24 10.5 55t13.5 50q-24 -16 -47 -32q-14 -8 -22 -8q-25 0 -40.5 20t-23.5 50t-10 40t-2 38q-35 -46 -73 -80q-60 -53 -107 -53q-44 0 -59 98
q-9 58 -9 161q0 47 9.5 71.5t36.5 24.5q19 0 24.5 -19t5.5 -63q0 -77 5 -128.5t19 -51.5q16 0 43.5 26.5t52.5 61.5q5 7 50 117q15 36 28 36q26 0 33 -19t7 -64q0 -81 7 -127.5t24 -46.5q13 0 50 21t45 21q19 0 30 -12t11 -30z" />
    <glyph glyph-name="divide" unicode="&#xf7;" horiz-adv-x="429"
d="M275 183q-32 -43 -66 -71q-53 -44 -100 -44q-44 0 -58 86q-7 43 -7 149q0 48 8.5 71.5t36.5 23.5q18 0 23.5 -25t5.5 -70q0 -66 4.5 -105t18.5 -39q17 0 46 28q25 24 51 60l26 36q3 6 11 20q0 8 -2 33.5t-2 29.5q0 26 6 39.5t25 13.5t30.5 -30t11.5 -71q0 -30 2.5 -70.5
t2.5 -51.5q0 -24 11.5 -88.5t11.5 -73.5q0 -32 -28 -32q-17 0 -29 8q-17 11 -22 30t-10.5 72.5t-7.5 70.5z" />
    <glyph glyph-name="divide" unicode="&#x447;" horiz-adv-x="429"
d="M275 183q-32 -43 -66 -71q-53 -44 -100 -44q-44 0 -58 86q-7 43 -7 149q0 48 8.5 71.5t36.5 23.5q18 0 23.5 -25t5.5 -70q0 -66 4.5 -105t18.5 -39q17 0 46 28q25 24 51 60l26 36q3 6 11 20q0 8 -2 33.5t-2 29.5q0 26 6 39.5t25 13.5t30.5 -30t11.5 -71q0 -30 2.5 -70.5
t2.5 -51.5q0 -24 11.5 -88.5t11.5 -73.5q0 -32 -28 -32q-17 0 -29 8q-17 11 -22 30t-10.5 72.5t-7.5 70.5z" />
    <glyph glyph-name="oslash" unicode="&#xf8;" horiz-adv-x="650"
d="M602 30q-5 -32 -36 -32q-25 0 -39.5 18.5t-22.5 49.5t-10 46t-2 38q-37 -77 -77 -110q-33 -27 -72 -27q-22 0 -37 24t-23 66q-45 -47 -54 -54q-45 -36 -91 -36q-43 0 -58 98q-8 53 -8 159q0 53 7.5 85t34.5 32q21 0 27 -47q3 -23 3 -56q0 -97 7 -139.5t19 -42.5
q16 0 50 34q30 30 57 67v67q0 41 1 48q5 31 37 31q20 0 27 -13t7 -52q0 -97 7 -139.5t19 -42.5t30 26q15 20 38 63q8 15 38 93q20 53 31 53q26 0 35 -20q6 -14 11 -59v-74q2 -45 10 -82q4 -19 19.5 -40t14.5 -32z" />
    <glyph glyph-name="oslash" unicode="&#x448;" horiz-adv-x="650"
d="M602 30q-5 -32 -36 -32q-25 0 -39.5 18.5t-22.5 49.5t-10 46t-2 38q-37 -77 -77 -110q-33 -27 -72 -27q-22 0 -37 24t-23 66q-45 -47 -54 -54q-45 -36 -91 -36q-43 0 -58 98q-8 53 -8 159q0 53 7.5 85t34.5 32q21 0 27 -47q3 -23 3 -56q0 -97 7 -139.5t19 -42.5
q16 0 50 34q30 30 57 67v67q0 41 1 48q5 31 37 31q20 0 27 -13t7 -52q0 -97 7 -139.5t19 -42.5t30 26q15 20 38 63q8 15 38 93q20 53 31 53q26 0 35 -20q6 -14 11 -59v-74q2 -45 10 -82q4 -19 19.5 -40t14.5 -32z" />
    <glyph glyph-name="ugrave" unicode="&#xf9;" horiz-adv-x="730"
d="M702 88q0 -17 -8.5 -45t-9.5 -33q-11 -40 -19 -70q-12 -44 -33 -111q-12 -38 -14 -42q-12 -29 -27 -29q-8 0 -13 4q-10 7 -10 21t7 59t17 89q5 33 10.5 60t12.5 46q-23 -20 -33 -27q-17 -13 -36 -13q-24 0 -38.5 19t-21.5 44.5t-9 47t-2 58.5q-48 -80 -59 -94
q-47 -60 -93 -60q-23 0 -40.5 37t-17.5 80q-31 -42 -55 -68q-46 -49 -92 -49q-34 0 -49.5 57t-15.5 199q0 51 8.5 78.5t36.5 27.5q13 0 19 -15.5t6 -76.5q0 -80 5 -137t19 -57q19 0 69 62q18 22 44 58l-2 60q0 46 5.5 62t31.5 16q19 0 26 -13.5t7 -50.5q0 -81 4 -137.5
t17 -56.5q11 0 31 34q6 11 40 73q11 20 27 67q25 74 47 74q29 0 38 -31q4 -13 7 -47q0 -85 8 -134t21 -49q12 0 49 27t45 27q18 0 29 -12t11 -29z" />
    <glyph glyph-name="ugrave" unicode="&#x449;" horiz-adv-x="730"
d="M702 88q0 -17 -8.5 -45t-9.5 -33q-11 -40 -19 -70q-12 -44 -33 -111q-12 -38 -14 -42q-12 -29 -27 -29q-8 0 -13 4q-10 7 -10 21t7 59t17 89q5 33 10.5 60t12.5 46q-23 -20 -33 -27q-17 -13 -36 -13q-24 0 -38.5 19t-21.5 44.5t-9 47t-2 58.5q-48 -80 -59 -94
q-47 -60 -93 -60q-23 0 -40.5 37t-17.5 80q-31 -42 -55 -68q-46 -49 -92 -49q-34 0 -49.5 57t-15.5 199q0 51 8.5 78.5t36.5 27.5q13 0 19 -15.5t6 -76.5q0 -80 5 -137t19 -57q19 0 69 62q18 22 44 58l-2 60q0 46 5.5 62t31.5 16q19 0 26 -13.5t7 -50.5q0 -81 4 -137.5
t17 -56.5q11 0 31 34q6 11 40 73q11 20 27 67q25 74 47 74q29 0 38 -31q4 -13 7 -47q0 -85 8 -134t21 -49q12 0 49 27t45 27q18 0 29 -12t11 -29z" />
    <glyph glyph-name="uacute" unicode="&#xfa;" horiz-adv-x="500"
d="M494 169q0 -56 -122 -139q-109 -74 -138 -74q-18 0 -28 16t-10 66q0 32 -8 79.5t-14.5 88.5t-11.5 79t-5 39q0 7 -11 7q-7 0 -67 -27t-69 -27q-12 0 -18.5 10.5t-6.5 22.5q0 18 74 57t103 39q21 0 38 -14t19 -25q7 -39 17 -93t12 -70q7 -50 11.5 -82.5t4.5 -59.5v-20
q57 30 100 62q58 43 58 65q0 20 -13 28t-49 8q-21 0 -48 -18q-14 -9 -22 -9q-14 0 -20 3q-11 6 -11 24q0 17 35.5 37.5t65.5 20.5q73 0 103.5 -23t30.5 -71z" />
    <glyph glyph-name="uacute" unicode="&#x44a;" horiz-adv-x="500"
d="M494 169q0 -56 -122 -139q-109 -74 -138 -74q-18 0 -28 16t-10 66q0 32 -8 79.5t-14.5 88.5t-11.5 79t-5 39q0 7 -11 7q-7 0 -67 -27t-69 -27q-12 0 -18.5 10.5t-6.5 22.5q0 18 74 57t103 39q21 0 38 -14t19 -25q7 -39 17 -93t12 -70q7 -50 11.5 -82.5t4.5 -59.5v-20
q57 30 100 62q58 43 58 65q0 20 -13 28t-49 8q-21 0 -48 -18q-14 -9 -22 -9q-14 0 -20 3q-11 6 -11 24q0 17 35.5 37.5t65.5 20.5q73 0 103.5 -23t30.5 -71z" />
    <glyph glyph-name="ucircumflex" unicode="&#xfb;" horiz-adv-x="529"
d="M498 60q0 -43 -6 -63t-25 -20q-18 0 -27 14q-12 19 -12 69q0 25 -3.5 63.5t-14.5 118.5q-7 44 -11.5 77.5t-4.5 50.5q0 39 35 39q10 0 21 -9q8 -6 9 -12l23 -162q11 -98 13.5 -121.5t2.5 -44.5zM390 169q0 -57 -122 -140q-109 -74 -139 -74q-18 0 -27 14q-12 19 -12 69
q0 32 -8 79.5t-16 95.5q-4 31 -11 72.5t-14 88.5q0 19 4 26t22 7q17 0 31.5 -5.5t17 -18t14.5 -86t14 -93.5q7 -50 11.5 -82.5t4.5 -59.5v-18q77 41 121 78q35 29 35 47q0 20 -13 27.5t-48 7.5q-21 0 -48 -18q-14 -9 -22 -9q-14 0 -20 3q-12 6 -12 25q0 18 35.5 38.5
t66.5 20.5q74 0 104.5 -23t30.5 -72z" />
    <glyph glyph-name="ucircumflex" unicode="&#x44b;" horiz-adv-x="529"
d="M498 60q0 -43 -6 -63t-25 -20q-18 0 -27 14q-12 19 -12 69q0 25 -3.5 63.5t-14.5 118.5q-7 44 -11.5 77.5t-4.5 50.5q0 39 35 39q10 0 21 -9q8 -6 9 -12l23 -162q11 -98 13.5 -121.5t2.5 -44.5zM390 169q0 -57 -122 -140q-109 -74 -139 -74q-18 0 -27 14q-12 19 -12 69
q0 32 -8 79.5t-16 95.5q-4 31 -11 72.5t-14 88.5q0 19 4 26t22 7q17 0 31.5 -5.5t17 -18t14.5 -86t14 -93.5q7 -50 11.5 -82.5t4.5 -59.5v-18q77 41 121 78q35 29 35 47q0 20 -13 27.5t-48 7.5q-21 0 -48 -18q-14 -9 -22 -9q-14 0 -20 3q-12 6 -12 25q0 18 35.5 38.5
t66.5 20.5q74 0 104.5 -23t30.5 -72z" />
    <glyph glyph-name="udieresis" unicode="&#xfc;" horiz-adv-x="419"
d="M401 169q0 -56 -122 -139q-109 -74 -138 -74q-18 0 -28 16t-10 66q0 32 -8 79.5t-16 95.5q-4 31 -11 72.5t-14 88.5q0 17 4 24.5t21 7.5t31.5 -5t16.5 -17.5t14 -86t14 -93.5q7 -50 11.5 -82.5t4.5 -59.5v-20q57 30 100 62q58 43 58 65q0 20 -13 28t-49 8q-21 0 -48 -18
q-14 -9 -22 -9q-14 0 -20 3q-11 6 -11 24q0 17 35.5 37.5t65.5 20.5q73 0 103.5 -23t30.5 -71z" />
    <glyph glyph-name="udieresis" unicode="&#x44c;" horiz-adv-x="419"
d="M401 169q0 -56 -122 -139q-109 -74 -138 -74q-18 0 -28 16t-10 66q0 32 -8 79.5t-16 95.5q-4 31 -11 72.5t-14 88.5q0 17 4 24.5t21 7.5t31.5 -5t16.5 -17.5t14 -86t14 -93.5q7 -50 11.5 -82.5t4.5 -59.5v-20q57 30 100 62q58 43 58 65q0 20 -13 28t-49 8q-21 0 -48 -18
q-14 -9 -22 -9q-14 0 -20 3q-11 6 -11 24q0 17 35.5 37.5t65.5 20.5q73 0 103.5 -23t30.5 -71z" />
    <glyph glyph-name="yacute" unicode="&#xfd;" horiz-adv-x="381"
d="M359 310q0 -97 -25 -151q-21 -45 -85 -107q-32 -31 -76 -56.5t-61 -25.5q-13 0 -21 5t-9 19q0 10 61 53q38 27 55 44q46 46 67 93t21 102q0 17 -17 30t-37 13q-24 0 -85 -36t-82 -36t-23 21q0 22 65 68q75 53 141 53q48 0 82 -28q29 -24 29 -61zM267 207q0 -24 -81 -57
q-75 -30 -106 -30q-12 0 -18.5 13t-6.5 28q0 14 11 22.5t30 12t59 15.5q76 23 87 23q17 0 21 -3.5t4 -23.5z" />
    <glyph glyph-name="yacute" unicode="&#x44d;" horiz-adv-x="381"
d="M359 310q0 -97 -25 -151q-21 -45 -85 -107q-32 -31 -76 -56.5t-61 -25.5q-13 0 -21 5t-9 19q0 10 61 53q38 27 55 44q46 46 67 93t21 102q0 17 -17 30t-37 13q-24 0 -85 -36t-82 -36t-23 21q0 22 65 68q75 53 141 53q48 0 82 -28q29 -24 29 -61zM267 207q0 -24 -81 -57
q-75 -30 -106 -30q-12 0 -18.5 13t-6.5 28q0 14 11 22.5t30 12t59 15.5q76 23 87 23q17 0 21 -3.5t4 -23.5z" />
    <glyph glyph-name="thorn" unicode="&#xfe;" horiz-adv-x="526"
d="M493 236q0 -121 -26 -170q-32 -61 -119 -61q-56 0 -98 51q-33 40 -49 99h-65q8 -58 11 -83t3 -48q0 -25 -39 -25q-25 0 -40 86q-8 53 -11 69q-18 2 -29.5 8.5t-11.5 20.5t10.5 23.5t26.5 12.5q-1 15 -7.5 68.5t-6.5 67.5q0 15 5.5 23.5t24.5 8.5q24 0 44 -84
q6 -28 15 -84h24.5t24.5 1q13 0 20 -1q0 59 38 108q46 60 120 60q51 0 89 -35q46 -43 46 -116zM426 236q0 30 -19 57q-23 32 -58 32q-31 0 -53 -30q-26 -36 -26 -101q0 -35 24.5 -79t48.5 -44q52 0 71 43q13 29 13 85q0 12 -0.5 21.5t-0.5 15.5z" />
    <glyph glyph-name="thorn" unicode="&#x44e;" horiz-adv-x="526"
d="M493 236q0 -121 -26 -170q-32 -61 -119 -61q-56 0 -98 51q-33 40 -49 99h-65q8 -58 11 -83t3 -48q0 -25 -39 -25q-25 0 -40 86q-8 53 -11 69q-18 2 -29.5 8.5t-11.5 20.5t10.5 23.5t26.5 12.5q-1 15 -7.5 68.5t-6.5 67.5q0 15 5.5 23.5t24.5 8.5q24 0 44 -84
q6 -28 15 -84h24.5t24.5 1q13 0 20 -1q0 59 38 108q46 60 120 60q51 0 89 -35q46 -43 46 -116zM426 236q0 30 -19 57q-23 32 -58 32q-31 0 -53 -30q-26 -36 -26 -101q0 -35 24.5 -79t48.5 -44q52 0 71 43q13 29 13 85q0 12 -0.5 21.5t-0.5 15.5z" />
    <glyph glyph-name="ydieresis" unicode="&#xff;" horiz-adv-x="439"
d="M393 22q3 -9 3 -16q0 -14 -10 -24t-21 -10q-16 0 -26 12t-20 38q-4 13 -24 61q-13 32 -13 46q-36 -47 -89 -89q-63 -50 -101 -50q-60 0 -60 40q0 10 19.5 20t45 16t55.5 31q15 12 55 51q-20 -6 -35 -8t-31 -2q-37 0 -60.5 25.5t-23.5 66.5q0 74 102 134q85 50 137 50
q20 0 34 -6q25 -10 25 -34q0 -15 -11 -19.5t-30 -4.5h-16q-25 0 -92 -37q-79 -44 -79 -83q0 -20 12.5 -24t41.5 -4q18 0 42.5 8t41.5 20q11 52 14 61q11 28 30 28q31 0 40 -25q4 -11 4 -38q0 -28 11.5 -109t28.5 -125z" />
    <glyph glyph-name="ydieresis" unicode="&#x44f;" horiz-adv-x="439"
d="M393 22q3 -9 3 -16q0 -14 -10 -24t-21 -10q-16 0 -26 12t-20 38q-4 13 -24 61q-13 32 -13 46q-36 -47 -89 -89q-63 -50 -101 -50q-60 0 -60 40q0 10 19.5 20t45 16t55.5 31q15 12 55 51q-20 -6 -35 -8t-31 -2q-37 0 -60.5 25.5t-23.5 66.5q0 74 102 134q85 50 137 50
q20 0 34 -6q25 -10 25 -34q0 -15 -11 -19.5t-30 -4.5h-16q-25 0 -92 -37q-79 -44 -79 -83q0 -20 12.5 -24t41.5 -4q18 0 42.5 8t41.5 20q11 52 14 61q11 28 30 28q31 0 40 -25q4 -11 4 -38q0 -28 11.5 -109t28.5 -125z" />
    <glyph glyph-name="dotlessi" unicode="&#x131;" horiz-adv-x="293"
d="M178 59q0 -22 -5 -37.5t-20 -15.5q-36 0 -45 80q-4 36 -4 87v47q0 34 -6 95t-6 73q1 8 1 10q2 11 7.5 20.5t15.5 9.5q24 0 37 -62t13 -131q0 -37 6 -97t6 -79z" />
    </font>
</defs>
</svg>
