<?xml version="1.0" encoding="utf-8"?>
<!-- Generator: Adobe Illustrator 19.0.0, SVG Export Plug-In . SVG Version: 6.00 Build 0)  -->
<svg version="1.1" id="Layer_1" xmlns="http://www.w3.org/2000/svg" xmlns:xlink="http://www.w3.org/1999/xlink" x="0px" y="0px"
	 viewBox="0 0 53.5 57" style="enable-background:new 0 0 53.5 57;" xml:space="preserve">
<path id="XMLID_529_" d="M17.4,25.7L17.4,25.7l0,5.3h9.8c-1.3,4.2-5.2,7.2-9.8,7.2c-5.6,0-10.2-4.6-10.2-10.2s4.6-10.2,10.2-10.2
	c2.5,0,4.9,0.9,6.6,2.5l4.3-4.3c-2.9-2.6-6.7-4.3-11-4.3C8.4,11.7,1.1,19,1.1,28c0,9,7.3,16.3,16.3,16.3c9,0,16.3-7.3,16.3-16.3
	c0-0.8-0.1-1.5-0.2-2.3H17.4z"/>
<polygon id="XMLID_530_" points="47.9,25.7 47.9,21.1 43.2,21.1 43.2,25.7 38.6,25.7 38.6,30.4 43.2,30.4 43.2,35 47.9,35
	47.9,30.4 52.5,30.4 52.5,25.7 "/>
</svg>
