<?xml version="1.0" encoding="utf-8"?>
<!-- Generator: Adobe Illustrator 19.0.0, SVG Export Plug-In . SVG Version: 6.00 Build 0)  -->
<svg version="1.1" id="Layer_1" xmlns="http://www.w3.org/2000/svg" xmlns:xlink="http://www.w3.org/1999/xlink" x="0px" y="0px"
	 viewBox="0 0 53.5 57" style="enable-background:new 0 0 53.5 57;" xml:space="preserve">
<g id="XMLID_199_">
	<path id="XMLID_203_" d="M47.4,18.9c0-6.7-5.5-12.2-12.3-12.2c-0.5,0-4-0.3-8.4-0.3c-4.4,0-8.1,0.2-8.6,0.3
		c-6.7,0-12.2,5.5-12.3,12.2c-0.1,0.5-0.3,3-0.3,8.4c0,5.6,0.2,8.8,0.3,9.3c0,6.7,5.5,12.2,12.3,12.2c0.3,0,3.1,0.1,8.3,0.1
		c5.2,0,8.3-0.1,8.6-0.1c6.8,0,12.3-5.5,12.3-12.3c0-0.5,0.3-4.3,0.3-9C47.7,22.9,47.4,19.4,47.4,18.9z M43.9,36.4l0,0.1
		c0,4.9-4,8.8-8.8,8.8l0,0c0,0-3.2,0.1-8.6,0.1c-5.4,0-8.2-0.1-8.2-0.1l0,0c-4.9,0-8.8-4-8.8-8.8l0-0.1c0,0-0.3-3.3-0.3-9.1
		c0-5.8,0.3-8.1,0.3-8.1l0-0.1V19c0-4.9,4-8.8,8.8-8.8l0.1,0c0,0,4-0.3,8.5-0.3c4.5,0,8.2,0.2,8.2,0.3l0.1,0c4.9,0,8.8,4,8.8,8.8
		l0,0.1c0,0,0.3,3.7,0.3,8.5C44.2,32.4,43.9,36.4,43.9,36.4z"/>
	<path id="XMLID_224_" d="M27,16.8c-6,0-10.9,4.9-10.9,10.9S21,38.6,27,38.6c6,0,10.9-4.9,10.9-10.9S33,16.8,27,16.8z M27,35.1
		c-4.1,0-7.4-3.3-7.4-7.4c0-4.1,3.3-7.4,7.4-7.4c4.1,0,7.4,3.3,7.4,7.4C34.4,31.7,31,35.1,27,35.1z"/>
	<circle id="XMLID_228_" cx="38" cy="16.5" r="2.6"/>
</g>
</svg>
