<?xml version="1.0" encoding="utf-8"?>
<!-- Generator: Adobe Illustrator 19.0.0, SVG Export Plug-In . SVG Version: 6.00 Build 0)  -->
<svg version="1.1" id="Layer_1" xmlns="http://www.w3.org/2000/svg" xmlns:xlink="http://www.w3.org/1999/xlink" x="0px" y="0px"
	 viewBox="0 0 53.5 57" style="enable-background:new 0 0 53.5 57;" xml:space="preserve">
<path id="XMLID_520_" d="M38.6,30.8c-1-1,0.8-2.9,0.8-2.9s2.4-3.1,2.9-3.9c0.5-0.8,1.3-1.8,1.9-3.4c0.5-1.6-1.2-1.4-1.2-1.4
	s-6.1,0-6.6,0.1c-0.5,0-0.7,0.6-1,1.2c-0.2,0.6-0.9,2.2-2.4,4.7c-1.5,2.5-2.6,3.3-3,3.3c-0.4,0-1-0.7-1-1.9c0-1.2,0.2-4.4,0.1-5.9
	s-0.5-1.9-1.8-2.1c-1.3-0.2-3.3-0.2-5.2-0.1c-1,0.1-1.7,0.5-2.1,0.8c-0.2,0.2-0.1,0.5,0.1,0.6c0.2,0.1,0.4,0.1,0.7,0.2
	c1,0.4,1.2,1.6,1.2,3.9c0.1,2.3-0.3,4.6-1.1,4.5c-0.9-0.1-1.4-1-2.9-3.3c-1-1.6-2-3.8-2.6-5c-0.2-0.6-0.8-0.9-1.4-0.9H8.8
	c-0.7,0-1.2,0.8-0.9,1.4c0,0,0,0,0,0c0.3,0.7,2.4,4.8,4.4,8.3c1.9,3.5,3.9,5.8,7,8.1c3.1,2.3,7.2,1.9,8.6,1.9s1.3-1.6,1.4-2.3
	c0-0.7,0.4-2.4,1.5-2.4c1.1,0,3.8,3.4,3.8,3.4c1.3,1.5,3.2,1.4,3.2,1.4s3.5-0.1,4.2-0.1c0.7,0,1.8,0,2.2-0.9c0.4-0.8-1-2.4-1.5-3.1
	C42.1,34.3,39.5,31.8,38.6,30.8z"/>
</svg>
