<?xml version="1.0" encoding="utf-8"?>
<!-- Generator: Adobe Illustrator 19.0.0, SVG Export Plug-In . SVG Version: 6.00 Build 0)  -->
<svg version="1.1" id="Layer_1" xmlns="http://www.w3.org/2000/svg" xmlns:xlink="http://www.w3.org/1999/xlink" x="0px" y="0px"
	 viewBox="0 0 17.7 17.7" style="enable-background:new 0 0 17.7 17.7;" xml:space="preserve">
<style type="text/css">
	.st0{fill:#D19A3A;}
</style>
<path id="XMLID_1395_" class="st0" d="M16.6,15.4l-3.3-3.3c0.9-1.2,1.5-2.7,1.5-4.3c0-3.9-3.1-7-7-7s-7,3.1-7,7s3.1,7,7,7
	c1.6,0,3.1-0.6,4.3-1.5l3.3,3.3c0.2,0.2,0.4,0.3,0.6,0.3c0.2,0,0.4-0.1,0.6-0.3C17,16.3,17,15.7,16.6,15.4z M2.6,7.8
	c0-2.9,2.4-5.2,5.2-5.2s5.2,2.4,5.2,5.2c0,1.4-0.6,2.7-1.5,3.6c0,0,0,0-0.1,0c0,0,0,0,0,0.1c-0.9,0.9-2.2,1.5-3.6,1.5
	C4.9,13.1,2.6,10.7,2.6,7.8z"/>
</svg>
