<?xml version="1.0" encoding="utf-8"?>
<!-- Generator: Adobe Illustrator 19.0.0, SVG Export Plug-In . SVG Version: 6.00 Build 0)  -->
<svg version="1.1" id="Layer_1" xmlns="http://www.w3.org/2000/svg" xmlns:xlink="http://www.w3.org/1999/xlink" x="0px" y="0px"
	 viewBox="0 0 39.8 30.3" style="enable-background:new 0 0 39.8 30.3;" xml:space="preserve">
<style type="text/css">
	.st0{fill:#6D6E71;}
</style>
<g id="XMLID_417_">
	<path id="XMLID_485_" class="st0" d="M35.3,19.8c-0.2,0.3-0.6,0.4-0.9,0.5c-0.3,0.1-0.7,0.2-1,0.3c-0.7,0.2-1.3,0.3-2,0.4
		c-0.7,0.1-1.4,0.2-2.1,0.2c-0.7,0-1.4,0-2.1,0c-0.7,0-1.4-0.1-2.1-0.2c-0.7-0.1-1.4-0.2-2-0.4c-0.7-0.2-1.3-0.4-2-0.6
		c-0.3-0.1-0.7-0.3-1-0.4c-0.3-0.1-0.6-0.3-0.9-0.5l-0.9-0.5L17.6,18c-0.6-0.4-1.1-0.8-1.6-1.3c-0.5-0.5-1-0.9-1.5-1.4
		c-0.5-0.5-1-1-1.4-1.5c-1.8-2.1-3.4-4.3-4.9-6.6l0,0v0v0l0-0.1l0.1,0.1c-0.5,0.1-1-0.1-1.3-0.5C6.6,6.3,6.5,5.8,6.4,5.4
		C6.2,4.5,6.1,3.5,6.2,2.6l0-0.1l0.1,0.1C7.1,3,8,3.6,8.5,4.4C9.1,5.2,9,6.4,8.3,7.2L8.2,7.1c0.3-0.3,0.5-0.8,0.6-1.3
		c0-0.5-0.1-0.9-0.3-1.3C7.9,3.7,7.1,3.1,6.2,2.6l0.1-0.1c0,0.9,0,1.9,0.2,2.8C6.6,5.8,6.7,6.3,7,6.6C7.3,7,7.8,7.1,8.2,7l0.1,0
		l0,0.1l0,0.1v0l0,0c1.5,2.3,3.2,4.4,5,6.4c0.5,0.5,0.9,1,1.4,1.5c0.5,0.5,1,0.9,1.5,1.4c0.5,0.4,1,0.9,1.6,1.2l0.8,0.6l0.9,0.5
		c0.3,0.2,0.6,0.3,0.9,0.4c0.3,0.1,0.6,0.3,0.9,0.4c0.6,0.2,1.3,0.4,1.9,0.6c0.6,0.2,1.3,0.3,2,0.4c0.7,0.1,1.3,0.2,2,0.2
		c0.7,0,1.3,0,2,0c0.7,0,1.3-0.1,2-0.2c0.7-0.1,1.3-0.2,2-0.4c0.3-0.1,0.6-0.2,1-0.3c0.3-0.1,0.6-0.2,1-0.2L35.3,19.8z"/>
	<path id="XMLID_482_" class="st0" d="M26.6,21.1L26.6,21.1c-0.1-0.1-1.6-1.8-1.4-3.4c0.1-1.6,1-2.9,1-2.9l0-0.1l0.1,0
		c0,0,2.1,1,2,3.2C28.3,20,26.7,21,26.6,21.1L26.6,21.1z M26.3,14.9c-0.2,0.3-0.8,1.4-0.9,2.8c-0.1,1.4,1.1,2.9,1.3,3.2
		c0.3-0.2,1.5-1.2,1.5-3C28.2,16,26.6,15.1,26.3,14.9z"/>
	<path id="XMLID_481_" class="st0" d="M26.7,21l-0.1,0c0,0,0.4-1.6,0.3-3.4c-0.1-1.8-0.7-2.8-0.7-2.8l0.1-0.1c0,0,0.5,1,0.7,2.8
		C27.2,19.4,26.7,21,26.7,21z"/>
	<path id="XMLID_478_" class="st0" d="M26.8,27.2L26.8,27.2c0-0.1-0.5-1.6,0.1-3.5c0.6-1.9,1.9-2.8,2-2.8l0.1,0l0,0.1
		c0,0,0.9,1.2,0.5,3.4C29.1,26.5,26.9,27.2,26.8,27.2L26.8,27.2z M28.9,21.1c-0.3,0.2-1.3,1.1-1.8,2.7c-0.5,1.6-0.2,2.9-0.1,3.2
		c0.4-0.1,2.1-0.9,2.4-2.8C29.7,22.4,29.1,21.3,28.9,21.1z"/>
	<path id="XMLID_477_" class="st0" d="M27,27.2l-0.1-0.1c0,0,1-1.6,1.4-3.1c0.4-1.5,0.6-3,0.6-3l0.1,0c0,0-0.2,1.5-0.6,3
		C27.9,25.6,27,27.1,27,27.2z"/>
	<path id="XMLID_474_" class="st0" d="M20.6,19.6L20.6,19.6c-0.1-0.1-0.8-0.9-0.5-2.6c0.3-1.7,2.1-3.1,2.1-3.2l0.1-0.1l0,0.1
		c0,0.1,1.1,1.8,0.5,3.4C22.1,19.2,20.7,19.6,20.6,19.6L20.6,19.6z M22.2,14c-0.3,0.3-1.8,1.6-2,3c-0.2,1.4,0.3,2.2,0.4,2.4
		c0.2-0.1,1.4-0.6,2-2.3C23.2,15.8,22.4,14.3,22.2,14z"/>
	<path id="XMLID_473_" class="st0" d="M20.6,19.6c0,0-0.2-1.6,0.1-3c0.3-1.5,1.5-2.6,1.5-2.7l0.1,0.1c0,0-1.1,1.2-1.5,2.6
		c-0.3,1.4-0.1,3-0.1,3L20.6,19.6z"/>
	<path id="XMLID_470_" class="st0" d="M19.2,25.5L19.2,25.5c0-0.1,0.5-1.5,0.7-2.2c0.3-1,0.7-1.9,1.2-2.3c0.7-0.7,1.5-0.8,1.5-0.8
		l0.1,0l0,0.1c0,0.1,1,2.5-0.2,3.9c-1.2,1.3-3.1,1.4-3.2,1.4L19.2,25.5z M22.6,20.3c-0.2,0-0.8,0.2-1.4,0.7
		c-0.5,0.4-0.9,1.3-1.2,2.2c-0.2,0.7-0.5,1.7-0.6,2c0.4,0,2-0.2,3-1.3C23.4,22.8,22.7,20.7,22.6,20.3z"/>
	<path id="XMLID_469_" class="st0" d="M19.3,25.5l-0.1-0.1c0,0,0.2-0.1,0.8-0.8c0.6-0.7,1-1.4,1.5-2.6l0.1-0.3
		c0.6-1.3,0.9-1.6,1-1.6l0.1,0.1l0-0.1l0,0.1c0,0-0.4,0.3-0.9,1.6l-0.1,0.3c-0.5,1.2-0.8,1.9-1.5,2.6C19.5,25.4,19.3,25.5,19.3,25.5
		z"/>
	<path id="XMLID_466_" class="st0" d="M13.8,20.8c-1,0-1.6-0.2-1.6-0.2l-0.1,0l0-0.1c0,0,0.8-1.5,2.4-2.1c1.6-0.6,3.2-0.6,3.2-0.6
		l0.1,0l0,0.1c0,0-0.4,2-2.2,2.6C15,20.7,14.4,20.8,13.8,20.8z M12.3,20.5c0.4,0.1,1.7,0.4,3.2-0.1c1.5-0.5,2-2,2.1-2.4
		c-0.4,0-1.7,0-3.1,0.5C13.3,19.1,12.5,20.2,12.3,20.5z"/>
	<path id="XMLID_465_" class="st0" d="M12.3,20.6l-0.1-0.1c0,0,1.3-0.5,3-1.3s2.5-1.2,2.5-1.2l0.1,0.1c0,0-0.8,0.4-2.5,1.2
		C13.6,20,12.3,20.6,12.3,20.6z"/>
	<path id="XMLID_462_" class="st0" d="M10.6,16.8c-1.4,0-2.1-0.5-2.2-0.6l-0.1-0.1l0.1-0.1c0,0,1.3-1.1,2.7-1.5
		c1.4-0.4,3,0.1,3.1,0.1l0.1,0l0,0.1c0,0-0.5,1.6-2.7,1.9C11.2,16.8,10.9,16.8,10.6,16.8z M8.6,16.2c0.3,0.2,1.2,0.7,3,0.4
		c1.8-0.3,2.4-1.4,2.5-1.7c-0.4-0.1-1.8-0.4-2.9-0.1C10,15.1,8.9,15.9,8.6,16.2z"/>
	<path id="XMLID_461_" class="st0" d="M8.5,16.3l0-0.1c0,0,0.4,0,1.1-0.1c0.4,0,0.9-0.2,1.4-0.4c0.6-0.2,1.2-0.5,1.9-0.6
		c1.1-0.2,1.2-0.3,1.2-0.3l0,0.1l0.1,0l0,0.1c0,0,0,0.1-1.3,0.3c-0.6,0.1-1.3,0.4-1.9,0.6c-0.6,0.2-1.1,0.4-1.5,0.4
		C8.9,16.2,8.5,16.3,8.5,16.3z"/>
	<path id="XMLID_458_" class="st0" d="M16,16.7L16,16.7c0-0.2-0.5-1.9,0.1-3.2c0.6-1.3,2.2-2.5,2.3-2.6l0.1-0.1l0,0.1
		c0,0.1,0.8,2.3-0.1,3.8C17.5,16.2,16.2,16.6,16,16.7L16,16.7z M18.4,11.1c-0.3,0.3-1.6,1.4-2.2,2.4c-0.5,1.1-0.2,2.6-0.1,3
		c0.3-0.1,1.4-0.6,2.2-1.9C19.1,13.3,18.6,11.5,18.4,11.1z"/>
	<path id="XMLID_457_" class="st0" d="M16.2,16.6L16,16.6c0,0,0.5-1.2,0.9-2.4c0.4-1.2,1.5-3.2,1.5-3.2l0.1,0.1c0,0-1.1,2-1.5,3.2
		C16.7,15.5,16.2,16.6,16.2,16.6z"/>
	<path id="XMLID_428_" class="st0" d="M12.8,13.2c-0.2,0-0.3,0-0.3,0l0,0l0,0c0-0.1-0.4-1.3,0.1-2.3c0.5-1,2.8-2.2,2.9-2.3l0.1,0
		l0,0.1c0,0.1,0.5,1.3-0.7,3.1C14.1,13,13.3,13.2,12.8,13.2z M12.6,13c0.2,0,1.1,0.2,2.2-1.4c1-1.5,0.8-2.6,0.7-2.9
		c-0.4,0.2-2.4,1.3-2.8,2.2C12.3,11.7,12.6,12.8,12.6,13z"/>
	<path id="XMLID_427_" class="st0" d="M12.6,13.1L12.5,13c0,0,0.7-1.4,1.6-2.4c0.8-0.9,1.4-2.1,1.4-2.1l0.1,0.1c0,0-0.6,1.2-1.5,2.2
		C13.4,11.7,12.6,13.1,12.6,13.1z"/>
	<path id="XMLID_424_" class="st0" d="M9,13c-0.2,0-0.3,0-0.5,0C6.3,12.8,6,11.5,6,11.5l0-0.1l0,0c0.1,0,1.8-0.9,2.9-0.9
		c0,0,0.1,0,0.1,0c1.2,0,2.4,1.2,2.4,1.2l0,0l0,0C11.5,11.8,10.8,13,9,13z M6.2,11.5c0.1,0.2,0.5,1.2,2.3,1.4
		c1.9,0.2,2.7-0.9,2.8-1.1c-0.2-0.2-1.3-1.1-2.3-1.2C8.1,10.6,6.5,11.3,6.2,11.5z"/>
	<path id="XMLID_423_" class="st0" d="M11.4,11.8c0,0-1.2-0.4-2.9-0.3c-1.2,0.1-2.4,0-2.4,0l0-0.1c0,0,1.2,0.1,2.4,0
		c1.8-0.1,3,0.3,3,0.3L11.4,11.8z"/>
	<path id="XMLID_420_" class="st0" d="M10.1,9.8c-0.1,0-0.2,0-0.2,0l0,0l0,0c0,0-0.4-1,0.2-2.2c0.6-1.1,2.1-1.8,2.2-1.8l0.1,0l0,0.1
		c0,0.1,0.2,1.9-0.5,3C11.4,9.7,10.5,9.8,10.1,9.8z M10,9.7c0.2,0,1.2,0,1.8-0.9c0.6-0.9,0.5-2.4,0.5-2.8c-0.3,0.2-1.5,0.8-2,1.7
		C9.7,8.6,9.9,9.5,10,9.7z"/>
	<path id="XMLID_419_" class="st0" d="M10,9.8L9.9,9.7c0,0,0.5-1.3,1.1-2.2c0.6-0.8,1.3-1.8,1.3-1.8l0.1,0.1c0,0-0.7,1-1.3,1.8
		C10.5,8.5,10,9.8,10,9.8z"/>

		<rect id="XMLID_418_" x="4.8" y="4.8" transform="matrix(0.4003 0.9164 -0.9164 0.4003 8.7864 -3.7391)" class="st0" width="5" height="0.1"/>
</g>
</svg>
