<?xml version="1.0" encoding="utf-8"?>
<!-- Generator: Adobe Illustrator 19.0.0, SVG Export Plug-In . SVG Version: 6.00 Build 0)  -->
<svg version="1.1" id="Layer_1" xmlns="http://www.w3.org/2000/svg" xmlns:xlink="http://www.w3.org/1999/xlink" x="0px" y="0px"
	 viewBox="-277 405.6 39.8 30.3" style="enable-background:new -277 405.6 39.8 30.3;" xml:space="preserve">
<style type="text/css">
	.st0{fill:#6D6E70;}
</style>
<path class="st0" d="M-240.6,425.3c-0.4-0.1-0.7,0.1-1,0.2c-0.3,0.1-0.6,0.2-1,0.3c-0.7,0.2-1.3,0.3-2,0.4c-0.7,0.1-1.3,0.2-2,0.2
	c-0.7,0-1.3,0.1-2,0c-0.1,0-0.1,0-0.2,0c0.5-0.5,1.2-1.4,1.2-2.8c0-2.1-2-3.2-2-3.2l-0.1,0l0,0.1c0,0-0.8,1.3-1,2.9
	c-0.1,1.2,0.7,2.4,1.1,3c-0.4,0-0.7-0.1-1.1-0.1c-0.7-0.1-1.3-0.2-2-0.4c-0.7-0.1-1.3-0.4-1.9-0.6c-0.1,0-0.2-0.1-0.3-0.1
	c0.5-0.2,1.3-0.8,1.8-2.2c0.6-1.6-0.5-3.3-0.5-3.4l0-0.1l-0.1,0.1c0,0,0,0,0,0l0,0l0,0c-0.1,0.1-1.9,1.5-2.1,3.2
	c-0.2,1,0,1.7,0.2,2.2c-0.3-0.1-0.6-0.2-0.8-0.4l-0.9-0.5l-0.8-0.6c-0.5-0.3-1-0.7-1.5-1.1c0.4-0.2,1.4-0.7,2.1-1.9
	c0.9-1.5,0.1-3.7,0.1-3.8l0-0.1l-0.1,0.1c-0.1,0.1-1.7,1.3-2.3,2.6c-0.5,0.9-0.3,2.1-0.2,2.7c-0.4-0.4-0.8-0.7-1.2-1.1
	c-0.5-0.5-1-1-1.4-1.5c-0.1-0.2-0.3-0.3-0.4-0.5c0.4,0,1.2-0.3,2-1.5c1.2-1.8,0.7-3.1,0.7-3.1l0-0.1l-0.1,0
	c-0.1,0.1-2.5,1.3-2.9,2.3c-0.3,0.6-0.3,1.3-0.2,1.8c-0.8-0.9-1.5-1.8-2.2-2.8c0.4,0,1.2-0.1,1.7-1c0.7-1.1,0.5-3,0.5-3l0-0.1
	l-0.1,0c-0.1,0-1.5,0.7-2.2,1.8c-0.4,0.7-0.4,1.3-0.3,1.7c-0.5-0.7-1-1.4-1.5-2.1l0-0.1c0.7-0.7,0.8-1.9,0.2-2.8
	c-0.6-0.8-1.4-1.4-2.2-1.9l-0.1-0.1l0,0.1c0,0.9,0,1.9,0.2,2.8c0.1,0.5,0.2,0.9,0.5,1.3c0.3,0.4,0.8,0.5,1.2,0.5l0,0v0v0l0,0
	c0.8,1.3,1.7,2.6,2.7,3.9c-0.5-0.3-1.1-0.7-1.8-0.7c0,0-0.1,0-0.1,0c-1.2,0-2.9,0.9-2.9,0.9l0,0l0,0.1c0,0.1,0.3,1.3,2.5,1.6
	c0.2,0,0.3,0,0.5,0c1.5,0,2.2-0.8,2.5-1.1c0.5,0.7,1.1,1.3,1.6,1.9c0.3,0.3,0.5,0.5,0.8,0.8c-0.6-0.1-1.7-0.3-2.7,0
	c-1.4,0.4-2.7,1.5-2.7,1.5l-0.1,0.1l0.1,0.1c0,0,0.7,0.6,2.2,0.6c0.3,0,0.6,0,1-0.1c1.7-0.3,2.4-1.3,2.6-1.7
	c0.1,0.1,0.2,0.2,0.3,0.3c0.5,0.5,1,0.9,1.5,1.4c0.5,0.4,0.9,0.8,1.4,1.1c-0.6,0-1.7,0.1-2.8,0.5c-1.6,0.6-2.4,2.1-2.4,2.1l0,0.1
	l0.1,0c0,0,0.7,0.2,1.6,0.2c0.5,0,1.2-0.1,1.8-0.3c1.5-0.5,2-1.9,2.2-2.4l0.6,0.4l0.9,0.5c0.3,0.2,0.6,0.3,0.9,0.5
	c0.3,0.1,0.6,0.3,1,0.4c0.3,0.1,0.6,0.2,0.9,0.3c-0.3,0.1-0.7,0.3-1,0.6c-0.5,0.5-1,1.3-1.2,2.3c-0.2,0.8-0.6,2.1-0.6,2.1l0,0.1
	l0.1,0c0,0,0,0,0,0l0,0c0,0,0,0,0.1,0c0.4,0,2.1-0.2,3.1-1.4c1-1.1,0.5-2.9,0.3-3.6c0.1,0,0.3,0.1,0.4,0.1c0.7,0.2,1.3,0.3,2,0.4
	c0.7,0.1,1.4,0.2,2.1,0.2c0.4,0,0.8,0,1.3,0c-0.4,0.4-1.2,1.3-1.6,2.5c-0.6,1.9-0.1,3.4-0.1,3.4l0,0.1l0.1,0c0,0,2.2-0.7,2.6-2.9
	c0.3-1.6-0.1-2.7-0.4-3.1c0.1,0,0.1,0,0.2,0c0.7,0,1.4-0.1,2.1-0.2c0.7-0.1,1.4-0.2,2-0.4c0.3-0.1,0.7-0.2,1-0.3
	c0.3-0.1,0.7-0.2,0.9-0.5L-240.6,425.3z M-261.1,417.3c-0.9,1.3-1.7,1.4-2.1,1.4c0,0,0,0-0.1-0.1c0.2-0.4,0.8-1.4,1.5-2.2
	c0.6-0.8,1.2-1.6,1.4-2C-260.2,414.9-260.1,415.9-261.1,417.3z M-263.1,416.6c0.4-0.8,2-1.8,2.6-2.1c-0.2,0.4-0.7,1.2-1.3,1.9
	c-0.6,0.8-1.2,1.8-1.5,2.2c0,0,0,0,0,0C-263.4,418.1-263.5,417.3-263.1,416.6z M-264.1,414.5c-0.5,0.9-1.4,0.9-1.7,0.9
	c0.1-0.3,0.6-1.3,1-2c0.4-0.6,0.9-1.3,1.1-1.6C-263.6,412.3-263.6,413.6-264.1,414.5z M-265.6,413.4c0.4-0.8,1.4-1.4,1.8-1.6
	c-0.2,0.3-0.7,1-1.1,1.5c-0.4,0.6-0.8,1.5-1,1.9C-266,414.9-266,414.2-265.6,413.4z M-267.5,410.2c0.3,0.4,0.4,0.9,0.3,1.3
	c0,0.4-0.2,0.8-0.5,1.2l-1.8-4.2C-268.7,408.9-268,409.5-267.5,410.2z M-268.8,412.3c-0.3-0.3-0.4-0.8-0.5-1.3
	c-0.2-0.8-0.2-1.6-0.2-2.4l1.8,4.1C-268.1,412.8-268.6,412.7-268.8,412.3z M-266.8,416.3c0.8,0,1.7,0.7,2.1,1
	c-0.5-0.1-1.4-0.3-2.7-0.2c-0.8,0.1-1.7,0-2.1,0C-269,416.8-267.7,416.3-266.8,416.3z M-267.3,418.6c-1.8-0.2-2.2-1.1-2.3-1.3
	c0.3,0,1.3,0.1,2.3,0c1.5-0.1,2.5,0.1,2.8,0.2c0,0,0,0,0,0C-264.7,417.8-265.5,418.8-267.3,418.6z M-264.7,420.5
	c1-0.3,2.2-0.1,2.7,0c-0.2,0-0.5,0.1-1,0.2c-0.7,0.1-1.3,0.4-1.9,0.6c-0.6,0.2-1.1,0.4-1.4,0.4c-0.4,0-0.7,0.1-0.9,0.1
	C-266.7,421.5-265.7,420.8-264.7,420.5z M-264.3,422.3c-1.6,0.2-2.5-0.1-2.9-0.3c0.2,0,0.5,0,0.9-0.1c0.4,0,0.9-0.2,1.5-0.4
	c0.6-0.2,1.2-0.4,1.9-0.6c0.6-0.1,1-0.2,1.1-0.2C-262,421-262.6,422-264.3,422.3z M-257.6,420.3c-0.7,1.2-1.7,1.7-2.1,1.8
	c0.1-0.4,0.5-1.3,0.8-2.2c0.3-1,1.1-2.6,1.4-3.1C-257.3,417.4-256.8,419.1-257.6,420.3z M-259.6,419.2c0.5-0.9,1.5-1.8,2-2.3
	c-0.3,0.6-1,2-1.3,2.9c-0.3,0.9-0.6,1.8-0.8,2.2C-259.9,421.5-260.1,420.2-259.6,419.2z M-261.2,424.3c1.1-0.4,2.3-0.5,2.8-0.5
	c-0.4,0.2-1.1,0.6-2.2,1.1c-1.3,0.6-2.4,1.1-2.8,1.2C-263.2,425.7-262.4,424.7-261.2,424.3z M-260.3,426.1c-1.4,0.5-2.7,0.2-3.1,0.1
	c0.4-0.2,1.5-0.6,2.8-1.3c1.3-0.6,2.1-1,2.4-1.2C-258.3,424.3-258.8,425.6-260.3,426.1z M-253.2,422.9c-0.6,1.4-1.5,2-1.9,2.2
	c0,0-0.1,0-0.1-0.1c0-0.5-0.1-1.6,0.2-2.8c0.3-1.2,1.1-2.3,1.4-2.5C-253.4,420.1-252.6,421.6-253.2,422.9z M-255.6,422.7
	c0.1-0.9,0.8-1.8,1.3-2.4c-0.3,0.5-0.7,1.1-0.8,1.8c-0.2,1.1-0.2,2.2-0.2,2.7c0,0,0,0,0,0C-255.5,424.6-255.8,423.9-255.6,422.7z
	 M-255.9,429c0.3-1,0.7-1.8,1.2-2.2c0.5-0.4,0.9-0.6,1.2-0.7c0,0,0,0,0,0c-0.2,0.2-0.4,0.6-0.8,1.4l-0.1,0.3
	c-0.5,1.2-0.8,1.9-1.5,2.6c-0.3,0.3-0.5,0.5-0.6,0.6C-256.3,430.6-256,429.6-255.9,429z M-253.5,429.7c-0.9,1-2.2,1.2-2.8,1.3
	c0.1-0.1,0.3-0.3,0.6-0.6c0.6-0.7,1-1.5,1.5-2.6l0.1-0.3c0.4-0.8,0.6-1.2,0.8-1.4c0,0,0,0,0.1,0
	C-253.1,426.7-252.5,428.6-253.5,429.7z M-247.7,423.6c0,1.5-0.9,2.4-1.3,2.8c0,0-0.1,0-0.1,0c0.1-0.5,0.3-1.8,0.2-3.1
	c-0.1-1.3-0.4-2.2-0.6-2.6C-248.9,421-247.6,421.9-247.7,423.6z M-250.5,423.4c0.1-1.3,0.7-2.4,0.9-2.7c0.1,0.3,0.5,1.2,0.6,2.6
	c0.1,1.3-0.1,2.6-0.2,3.1c0,0-0.1,0-0.1,0C-249.8,425.9-250.6,424.6-250.5,423.4z M-248.8,429.5c0.4-1.4,1.3-2.2,1.7-2.6
	c0,0,0,0,0.1,0c-0.1,0.5-0.3,1.6-0.6,2.8c-0.3,1.3-1,2.5-1.3,3C-249.1,432.2-249.3,431-248.8,429.5z M-246.5,430
	c-0.3,1.8-1.8,2.5-2.3,2.7c0.3-0.5,0.9-1.7,1.3-3c0.3-1.2,0.5-2.4,0.6-2.8c0,0,0,0,0,0C-246.7,427.3-246.2,428.3-246.5,430z"/>
</svg>
