<?xml version="1.0" encoding="utf-8"?>
<!-- Generator: Adobe Illustrator 19.0.0, SVG Export Plug-In . SVG Version: 6.00 Build 0)  -->
<svg version="1.1" id="Layer_1" xmlns="http://www.w3.org/2000/svg" xmlns:xlink="http://www.w3.org/1999/xlink" x="0px" y="0px"
	 viewBox="-282 407.4 30.5 27.5" style="enable-background:new -282 407.4 30.5 27.5;" xml:space="preserve">
<style type="text/css">
	.st0{fill:#808184;}
	.st1{fill:#F3838D;}
</style>
<g>
	<path class="st0" d="M-257.1,421c0,0-0.7-1.4-2.1-1.1c-1.6,0.4-2.1,2.2-2.3,3.3c-0.1-1.2-0.4-2.5-1-3c-0.6-0.6-1.1-0.8-1.3-0.8
		c0.1-0.1,0.2-0.2,0.2-0.4c0-0.4-0.4-0.6-1.3-0.6h-0.1c0.1-0.1,0.1-0.2,0.1-0.4c0-0.3-0.9-0.9-2.4-1.1c0.1-0.2,0.3-0.5,0.1-1.1
		c-0.1-0.3-0.5-0.5-1-0.5c-0.5,0.1-1,0.3-1,0.7c-0.1,0.4,0.1,0.7,0.2,0.8c-1.6,0.2-2.9,0.8-2.9,1.1c0,0.2,0.1,0.3,0.2,0.4
		c-0.8,0-1.2,0.2-1.2,0.6c0,0.2,0.2,0.4,0.3,0.4c-0.2,0.1-0.6,0.2-1,0.7c-0.4,0.4-0.7,0.8-0.8,1c-0.3-0.2-1.7-0.8-3,0.4
		c-0.5,0.5-0.8,1.1-0.7,1.9c0,1.1,0.7,2.4,1.5,3.1c0.9,0.7,1.4,0.9,1.7,0.9c0.1,0,0.2,0.1,0.2,0.2c0.2,0.4,0.7,1.2,2.1,1.9
		c0,0.2,0.4,1.5,4.5,1.5c4.3,0,4.6-1.8,4.7-2c0.6-0.4,1-0.9,1.3-1.4c0.1,0,0.4,0.1,0.8,0.1c0.6,0,1.3-0.1,1.8-0.5
		c0.4-0.3,0.6-0.8,0.6-1.5c0-0.7-0.1-1.2-0.1-1.7c-0.1-1.3-0.2-2,0.7-2.5c0.7-0.4,1.3-0.3,1.3-0.3l0.2,0.1L-257.1,421z
		 M-269.2,416.1c0.1-0.3,0.5-0.5,0.9-0.6c0.3,0,0.7,0,0.9,0.4c0.2,0.6-0.1,0.9-0.1,1c-0.2,0-0.4,0-0.7,0c-0.2,0-0.5,0-0.7,0
		C-269,416.9-269.3,416.7-269.2,416.1z M-271.9,418c0-0.2,1.7-1,3.7-1c2,0,3.1,0.8,3.1,1c0,0.2,0,0.3-0.2,0.4h-6.3c0,0,0,0-0.1,0
		C-271.7,418.4-271.9,418.3-271.9,418z M-273,419c0-0.3,0.5-0.5,1.4-0.5h6.7c1.1,0,1.1,0.3,1.1,0.4c0,0.2-0.2,0.3-0.2,0.4l-8.6,0.1
		C-272.7,419.4-273,419.3-273,419z M-268.3,430.8c-3.5,0-4.2-1-4.3-1.3c1,0.4,2.4,0.8,4.4,0.8c2,0,3.4-0.5,4.4-1.1
		C-264.1,429.8-265.2,430.8-268.3,430.8z M-268.2,430.1c-4.9,0-6.3-2-6.6-2.6c-0.1-0.1-0.2-0.2-0.3-0.3c-0.3-0.1-0.8-0.3-1.7-0.9
		c-0.8-0.6-1.4-1.9-1.5-2.9c0-0.7,0.2-1.3,0.7-1.8c0.6-0.5,1.1-0.6,1.6-0.6c0.7,0,1.2,0.3,1.3,0.3l0.1,0l0-0.1c0,0,0.4-0.6,0.8-1
		c0.6-0.6,1.1-0.7,1.1-0.7l8.6-0.1c0,0,0.6,0.1,1.4,0.8c0.7,0.7,1,2.7,1,4.3C-261.7,429.8-267.1,430.1-268.2,430.1z M-258.6,421.3
		c-1,0.6-0.9,1.3-0.8,2.7c0.1,0.5,0.1,1,0.1,1.7c0,0.6-0.2,1-0.5,1.4c-0.7,0.6-2.1,0.5-2.4,0.4c0.7-1.2,0.7-2.4,0.7-2.8
		c0-0.1,0-0.3,0-0.4h0c0,0,0-3.6,2.3-4.1c1.1-0.3,1.7,0.5,1.9,0.9C-257.6,420.9-258.1,420.9-258.6,421.3z"/>
	<path class="st0" d="M-275,421.8c-0.4-0.2-1.5-0.5-2.1,0.6c-0.4,0.7-0.3,1.8,0.3,2.6c0.4,0.7,1.1,1.1,1.5,1.3c0,0,0.1,0,0.1,0
		c0,0,0.1,0,0.1,0c0.1,0,0.1-0.1,0.1-0.3c-0.1-0.5-0.1-1.4-0.1-2.3c0.1-0.8,0.2-1.3,0.3-1.6C-274.8,422-274.9,421.9-275,421.8z
		 M-275.2,423.8c-0.1,0.9,0,1.8,0.1,2.3v0c0,0.1,0,0.1,0,0.1c0,0,0,0-0.1,0c-0.4-0.2-1-0.6-1.5-1.2c-0.5-0.7-0.6-1.8-0.3-2.5
		c0.3-0.6,0.8-0.7,1.2-0.7c0.3,0,0.6,0.1,0.7,0.2c0.1,0,0.1,0.1,0.1,0.2C-275.1,422.5-275.2,423-275.2,423.8z"/>
	<path class="st0" d="M-266.2,423.3c-0.6-0.1-1.3,0.2-1.8,0.9c-0.6,0.8-0.7,2-0.8,2.7c-0.1-0.4-0.3-0.8-0.5-1.1
		c0.2-0.2,0.4-0.7,0.1-1.2c-0.4-0.6-1.4-0.4-1.4-0.4l-0.1,0l0,0c0,0,0,0,0,0l0,0l0,0c0,0.3-0.2,1.5,0.6,1.8c0.4,0.1,0.6,0,0.7,0
		c0.5,0.9,0.7,1.9,0.7,1.9l0.2,0c0,0-0.2-2.2,0.7-3.5c0.4-0.6,1-0.9,1.5-0.8c0.3,0.1,0.6,0.3,0.6,0.7c0.1,0.4-0.1,0.8-0.3,0.9
		c-0.1,0-0.1,0-0.2,0c0,0,0-0.3,0-0.4c0-0.2,0-0.4,0-0.4c0,0-0.1-0.1-0.2,0c-0.2,0-0.3,0.1-0.3,0.3c-0.1,0.2,0,0.4,0.2,0.6
		c0.2,0.2,0.4,0.3,0.6,0.2c0.3-0.1,0.6-0.5,0.5-1.1C-265.4,423.8-265.8,423.4-266.2,423.3z M-270.1,425.8c-0.4-0.1-0.5-0.8-0.4-1.3
		c0.1,0.2,0.4,0.5,0.8,1.1c0,0.1,0.1,0.1,0.1,0.2C-269.7,425.8-269.8,425.9-270.1,425.8z M-269.5,425.5c-0.4-0.5-0.7-0.9-0.8-1.1
		c0.3,0,0.7,0,0.9,0.4c0.2,0.3,0.1,0.7,0,0.8C-269.5,425.5-269.5,425.5-269.5,425.5z"/>
</g>
<path id="XMLID_469_" class="st1" d="M-253.1,414.6c0,0-1-1.2-2.6-1.7c-0.8-0.3-1.4-0.3-1.9-0.2c0.3-0.3,0.7-0.7,1-1.1
	c0.5-0.8,0.2-2.4,0.2-2.5l0-0.2l-0.2,0.1c0,0-1.2,0.8-1.7,1.7c-0.2,0.5-0.3,1.1-0.3,1.6c-0.2-0.3-0.5-0.7-0.9-0.9
	c-1-0.6-2.3-0.9-2.3-0.9l-0.3-0.1l0.1,0.3c0,0.1,0.9,1.6,1.9,2.1c0.1,0.1,0.2,0.1,0.3,0.2c-0.4,0-0.9,0-1.3,0.1
	c-1.2,0.3-2.2,1.2-2.2,1.2l-0.2,0.2l0.2,0.1c0.1,0,0.9,0.2,1.8,0.2c0.5,0,0.9-0.1,1.3-0.2c0.5-0.2,0.9-0.6,1.3-0.8
	c-0.2,0.5-0.5,1.3-0.3,2.2c0.2,1.5,0.8,2.4,0.9,2.5l0.1,0.2l0.1-0.2c0-0.1,1-1.5,0.7-3.1c-0.1-0.7-0.3-1.2-0.5-1.5
	c0.4,0.3,0.9,0.5,1.5,0.7c1.2,0.4,2.9,0.4,3,0.4h0.3L-253.1,414.6z M-258,410.7c0.3-0.6,1.1-1.2,1.4-1.4c0,0.5,0.1,1.6-0.2,2.2
	c-0.3,0.5-1.1,1.1-1.4,1.4C-258.2,412.4-258.3,411.4-258,410.7z M-261.4,410.7c0.4,0.1,1.3,0.4,1.9,0.8c0.7,0.4,1,1.1,1.1,1.4
	c-0.1,0-0.2,0-0.3,0c-0.3-0.1-0.6-0.2-1.1-0.4C-260.4,412-261.1,411.1-261.4,410.7z M-260,414.2c-0.7,0.4-2.1,0.1-2.7,0
	c0.3-0.3,1.1-0.8,1.9-1c0.7-0.2,1.6-0.1,2.1-0.1c0.1,0,0.1,0,0.2,0C-258.8,413.4-259.4,413.8-260,414.2z M-258,417.9
	c-0.2-0.3-0.6-1.1-0.7-2.2c-0.2-1.1,0.3-2.1,0.5-2.5c0.2,0.2,0.6,0.8,0.8,1.9C-257.2,416.4-257.8,417.5-258,417.9z M-256.1,414.1
	c-0.9-0.3-1.6-0.8-1.9-1.1c0.3-0.2,1.1-0.4,2.3,0c1.1,0.4,1.9,1.1,2.3,1.5C-254,414.5-255.2,414.4-256.1,414.1z"/>
</svg>
