<?xml version="1.0" encoding="utf-8"?>
<!-- Generator: Adobe Illustrator 19.0.0, SVG Export Plug-In . SVG Version: 6.00 Build 0)  -->
<svg version="1.1" id="Layer_1" xmlns="http://www.w3.org/2000/svg" xmlns:xlink="http://www.w3.org/1999/xlink" x="0px" y="0px"
	 viewBox="0 0 30.5 27.5" style="enable-background:new 0 0 30.5 27.5;" xml:space="preserve">
<style type="text/css">
	.st0{fill:#808285;}
	.st1{fill:#F3848E;}
</style>
<g id="XMLID_417_">
	<path id="XMLID_528_" class="st0" d="M12.8,23.9c-5,0-6.4-2.1-6.7-2.7C6.1,21,6,21,5.9,21c-0.3-0.1-0.9-0.3-1.7-0.9
		c-0.8-0.6-1.5-1.9-1.5-3.1c0-0.8,0.2-1.4,0.7-1.9c1.3-1.2,2.7-0.5,3-0.4c0.1-0.2,0.4-0.6,0.8-1C7.9,13.1,8.4,13,8.4,13l8.6-0.1
		c0,0,0.7,0.1,1.5,0.9c0.8,0.8,1.1,2.9,1.1,4.4C19.6,19.2,19.3,23.9,12.8,23.9z M5.1,14.5c-0.5,0-1.1,0.2-1.6,0.6
		c-0.5,0.4-0.7,1-0.7,1.8c0,1.1,0.7,2.3,1.5,2.9c0.8,0.6,1.4,0.9,1.7,0.9c0.1,0,0.2,0.1,0.3,0.3c0.3,0.6,1.6,2.6,6.6,2.6
		c1.1,0,6.6-0.3,6.6-5.5c0-1.6-0.3-3.6-1-4.3c-0.7-0.7-1.4-0.8-1.4-0.8l-8.6,0.1c0,0-0.5,0.1-1.1,0.7c-0.4,0.4-0.8,1-0.8,1l0,0.1
		l-0.1,0C6.4,14.9,5.9,14.5,5.1,14.5z"/>
	<path id="XMLID_527_" class="st0" d="M12.8,24.6c-4.4,0-4.5-1.5-4.5-1.6l0.2,0c0,0,0.1,1.4,4.4,1.4c3.4,0,4.5-1.2,4.5-1.9l0.1,0
		C17.5,22.7,17.2,24.6,12.8,24.6z"/>
	<path id="XMLID_526_" class="st0" d="M19.6,21.2c-0.5,0-0.8-0.1-0.9-0.1l0-0.1c0,0,1.7,0.3,2.5-0.4c0.4-0.3,0.5-0.8,0.5-1.4
		c0-0.7-0.1-1.2-0.1-1.7c-0.1-1.3-0.2-2.1,0.8-2.7c0.6-0.3,1-0.3,1.3-0.3c-0.2-0.3-0.8-1.1-1.9-0.9c-2.3,0.5-2.3,4.1-2.3,4.1l-0.2,0
		c0,0,0-3.7,2.4-4.3c1.4-0.3,2.1,1.1,2.1,1.1l0.1,0.2l-0.2-0.1c0,0-0.6-0.2-1.3,0.3c-0.9,0.6-0.8,1.2-0.7,2.5c0.1,0.5,0.1,1,0.1,1.7
		c0,0.6-0.2,1.1-0.6,1.5C20.9,21.1,20.2,21.2,19.6,21.2z"/>
	<path id="XMLID_525_" class="st0" d="M8.4,13.2c0,0-0.5-0.1-0.5-0.5c0-0.4,0.5-0.6,1.5-0.6h6.7c0.9,0,1.3,0.2,1.3,0.6
		c0,0.3-0.3,0.5-0.3,0.5L17,13c0,0,0.2-0.2,0.2-0.4c0-0.1,0-0.4-1.1-0.4H9.5c-0.9,0-1.4,0.2-1.4,0.5c0,0.3,0.4,0.4,0.4,0.4L8.4,13.2
		z"/>
	<path id="XMLID_485_" class="st0" d="M15.5,12.2v-0.2c0.4,0,0.4-0.1,0.4-0.4c0-0.2-1.1-1-3.1-1c-2,0-3.7,0.8-3.7,1
		c0,0.3,0.3,0.4,0.3,0.4l0,0.1C9.2,12.1,9,12,9,11.6c0-0.4,1.9-1.2,3.8-1.2c2,0,3.3,0.8,3.3,1.2C16.1,12,16,12.2,15.5,12.2z"/>
	<path id="XMLID_458_" class="st0" d="M12.1,10.7c0,0-0.5-0.3-0.4-1c0.1-0.4,0.6-0.7,1-0.7c0.5-0.1,0.9,0.1,1,0.5
		c0.3,0.8-0.2,1.2-0.2,1.2l-0.1-0.1c0,0,0.4-0.4,0.1-1c-0.1-0.3-0.5-0.4-0.9-0.4c-0.4,0-0.8,0.3-0.9,0.6c-0.1,0.6,0.3,0.8,0.3,0.8
		L12.1,10.7z"/>
	<path id="XMLID_429_" class="st0" d="M5.9,20c0,0-0.1,0-0.1,0c-0.4-0.2-1.1-0.6-1.5-1.3c-0.5-0.8-0.6-1.9-0.3-2.6
		C4.6,15,5.6,15.3,6,15.4c0.2,0.1,0.2,0.2,0.2,0.4c-0.1,0.3-0.2,0.8-0.3,1.6c-0.1,0.9,0,1.8,0.1,2.3l0,0C6.1,19.8,6,19.9,5.9,20
		C5.9,20,5.9,20,5.9,20z M5.2,15.4c-0.4,0-0.8,0.2-1.2,0.7c-0.3,0.6-0.2,1.7,0.3,2.5c0.4,0.6,1.1,1,1.5,1.2c0,0,0.1,0,0.1,0
		c0,0,0,0,0-0.1v0c-0.1-0.5-0.2-1.5-0.1-2.3c0.1-0.8,0.2-1.3,0.3-1.6c0-0.1,0-0.2-0.1-0.2C5.8,15.5,5.5,15.4,5.2,15.4z"/>
	<path id="XMLID_425_" class="st0" d="M12.3,21.5c0,0-0.3-1-0.7-1.9c-0.1,0.1-0.4,0.2-0.7,0c-0.8-0.2-0.6-1.5-0.6-1.8l0,0l0,0
		c0,0,0,0,0,0l0,0l0.1,0c0,0,1-0.2,1.4,0.4c0.3,0.5,0.1,1-0.1,1.2c0.2,0.4,0.4,0.8,0.5,1.1c0-0.8,0.2-1.9,0.8-2.7
		c0.5-0.7,1.2-1.1,1.8-0.9c0.4,0.1,0.8,0.4,0.8,0.9c0.1,0.6-0.2,1-0.5,1.1c-0.2,0.1-0.5,0-0.6-0.2c-0.2-0.2-0.2-0.4-0.2-0.6
		c0-0.1,0.2-0.2,0.3-0.3c0.1,0,0.1,0,0.2,0c0.1,0.1,0.1,0.2,0,0.4c0,0.1,0,0.3,0,0.4c0.1,0,0.1,0,0.2,0c0.2-0.1,0.4-0.4,0.3-0.9
		c-0.1-0.3-0.3-0.6-0.6-0.7c-0.5-0.1-1.1,0.2-1.5,0.8c-0.9,1.3-0.7,3.5-0.7,3.5L12.3,21.5z M10.5,18.1c0,0.5,0,1.1,0.4,1.3
		c0.3,0.1,0.5,0,0.5,0c0-0.1-0.1-0.1-0.1-0.2C10.9,18.6,10.6,18.3,10.5,18.1z M10.7,18c0.1,0.2,0.4,0.5,0.8,1.1c0,0,0.1,0.1,0.1,0.1
		c0.1-0.2,0.3-0.5,0-0.8C11.4,18,11,18,10.7,18z"/>
	<path id="XMLID_418_" class="st1" d="M28,8.2c0,0-1-1.2-2.6-1.7c-0.8-0.3-1.4-0.3-1.9-0.2c0.3-0.3,0.7-0.7,1-1.1
		c0.5-0.8,0.2-2.4,0.2-2.5l0-0.2l-0.2,0.1c0,0-1.2,0.8-1.7,1.7c-0.2,0.5-0.3,1.1-0.3,1.6c-0.2-0.3-0.5-0.7-0.9-0.9
		c-1-0.6-2.3-0.9-2.3-0.9l-0.3-0.1l0.1,0.3c0,0.1,0.9,1.6,1.9,2.1c0.1,0.1,0.2,0.1,0.3,0.2c-0.4,0-0.9,0-1.3,0.1
		C19,6.8,18,7.7,18,7.8l-0.2,0.2L18,8c0.1,0,0.9,0.2,1.8,0.2c0.5,0,0.9-0.1,1.3-0.2c0.5-0.2,0.9-0.6,1.3-0.8
		c-0.2,0.5-0.5,1.3-0.3,2.2c0.2,1.5,0.8,2.4,0.9,2.5l0.1,0.2l0.1-0.2c0-0.1,1-1.5,0.7-3.1c-0.1-0.7-0.3-1.2-0.5-1.5
		c0.4,0.3,0.9,0.5,1.5,0.7c1.2,0.4,2.9,0.4,3,0.4h0.3L28,8.2z M23.1,4.3c0.3-0.6,1.1-1.2,1.4-1.4c0,0.5,0.1,1.6-0.2,2.2
		c-0.3,0.5-1.1,1.1-1.4,1.4C22.9,6,22.8,5,23.1,4.3z M19.7,4.3c0.4,0.1,1.3,0.4,1.9,0.8c0.7,0.4,1,1.1,1.1,1.4c-0.1,0-0.2,0-0.3,0
		c-0.3-0.1-0.6-0.2-1.1-0.4C20.6,5.7,20,4.7,19.7,4.3z M21.1,7.8c-0.7,0.4-2.1,0.1-2.7,0c0.3-0.3,1.1-0.8,1.9-1
		c0.7-0.2,1.6-0.1,2.1-0.1c0.1,0,0.1,0,0.2,0C22.3,7,21.7,7.4,21.1,7.8z M23.1,11.5c-0.2-0.3-0.6-1.1-0.7-2.2
		c-0.2-1.1,0.3-2.1,0.5-2.5c0.2,0.2,0.6,0.8,0.8,1.9C23.8,10,23.3,11.1,23.1,11.5z M25,7.8c-0.9-0.3-1.6-0.8-1.9-1.1
		c0.3-0.2,1.1-0.4,2.3,0c1.1,0.4,1.9,1.1,2.3,1.5C27.1,8.1,25.9,8,25,7.8z"/>
</g>
</svg>
