<?xml version="1.0" encoding="utf-8"?>
<!-- Generator: Adobe Illustrator 19.0.0, SVG Export Plug-In . SVG Version: 6.00 Build 0)  -->
<svg version="1.1" id="Layer_1" xmlns="http://www.w3.org/2000/svg" xmlns:xlink="http://www.w3.org/1999/xlink" x="0px" y="0px"
	 viewBox="-277 402.9 39.8 36" style="enable-background:new -277 402.9 39.8 36;" xml:space="preserve">
<style type="text/css">
	.st0{fill:#58595B;}
	.st1{fill:#F3838D;}
</style>
<g id="XMLID_423_">
	<path id="XMLID_424_" class="st0" d="M-267.2,421.9c-1.5,0-1.9,0.5-1.9,0.6c0,0.1,0,0.1,0,0.2c0,0,0,0,0.1,0c0,0,0.1,0,0.1,0
		c0,0,0.4-0.4,1.6-0.4v4.2c0,0.1,0.1,0.1,0.1,0.1s0.1-0.1,0.1-0.1v-4.2c1.3,0,1.7,0.3,1.7,0.3c0.1,0,0.1,0,0.2,0c0-0.1,0-0.1,0-0.2
		C-265.2,422.2-265.7,421.9-267.2,421.9z"/>
	<path id="XMLID_428_" class="st0" d="M-261.1,422.1h-2.6c-0.1,0-0.1,0.1-0.1,0.1c0,0,0,0.2-0.2,1.2c0,0.2-0.1,0.4-0.1,0.6
		c0,0,0,0,0,0c0,0,0,0,0,0c0,0.9,0.1,1.7,0.1,1.8c0,0.1,0.1,0.1,0.1,0.1h2.6c0.1,0,0.1-0.1,0.1-0.1s-0.1-0.1-0.1-0.1h-2.5
		c0-0.2-0.1-0.9-0.1-1.5h1.7c0.1,0,0.1-0.1,0.1-0.1s-0.1-0.1-0.1-0.1h-1.7c0-0.2,0-0.3,0.1-0.4c0.1-0.6,0.2-0.9,0.2-1.1h2.5
		c0.1,0,0.1-0.1,0.1-0.1S-261,422.1-261.1,422.1z"/>
	<path id="XMLID_1514_" class="st0" d="M-257.5,422c-0.1,0-0.1,0-0.2,0.1l-1.7,3.7c0,0.1,0,0.1,0.1,0.2c0.1,0,0.1,0,0.2-0.1l0.6-1.4
		h1.7l0.4,1.4c0,0.1,0.1,0.1,0.1,0.1c0,0,0,0,0,0c0.1,0,0.1-0.1,0.1-0.2l-1.2-3.8C-257.4,422.1-257.4,422-257.5,422z M-258.4,424.4
		l0.9-1.9l0.6,1.9H-258.4z"/>
	<path id="XMLID_1517_" class="st0" d="M-239.8,411.2c0,0-0.9-0.6-2.3-1.3c-1.2-0.6-3.1-1.3-3.7-1.5l5.8-2.8l-0.2,0
		c0,0-3.7-0.5-13.2,1.1c-4.1,0.7-7,1.6-8.5,2.7c-1.2,0.9-1.2,1.7-1.2,2c0,0.3,0,1.6,0,3c0,1.4,0,3,0.1,4c0,1.4,1.1,2,1.7,2.3
		c-0.3,0-0.7,0-1,0c-1.4,0-2.7-0.1-3.8,0c-3,0.1-6.3,0.7-8.2,4.8c-3.1,6.5,4.1,11.9,4.1,12l0.2,0.1l-0.1-0.2c0-0.1-2.1-6.1,1.4-8.7
		c2.1-1.6,5.8-1.1,8.8-0.8c1,0.1,1.9,0.2,2.7,0.3c2.6,0.1,4.9-0.6,6.2-1.8c0.7-0.7,1.1-1.6,1.1-2.6v-4.5v-1.6c0,0,0-0.1,0-0.1v-0.2
		c0-2.3-3.8-2.9-7-3.1c0.6-0.3,2.7-1.5,6.5-2.3c4.4-1,10.5-0.4,10.5-0.4l0.3,0L-239.8,411.2z M-250,419.1v4.5c0,1-0.4,1.8-1.1,2.5
		c-1.2,1.2-3.5,1.9-6.1,1.8c-0.8,0-1.7-0.1-2.7-0.3c-3-0.3-6.8-0.8-8.9,0.8c-3.2,2.4-1.9,7.5-1.6,8.6c-1.1-0.9-6.7-5.8-3.9-11.6
		c1.9-4,5.2-4.6,8.1-4.7c0.3,0,0.6,0,1,0c0.9,0,1.9,0,2.9,0c2.9,0.1,6.1,0.1,8.3-0.3c1.6-0.3,3-1,3.7-1.8c0.2-0.2,0.3-0.4,0.3-0.5
		V419.1z M-250,417.2v0.2v0.1c0,0.2-0.1,0.6-0.5,1.1c-0.5,0.6-1.8,1.4-3.6,1.8c-1.8,0.3-4.4,0.4-6.8,0.3c-0.1,0-2-0.5-2-2.3
		c0-1,0-2.6-0.1-4c0-0.9,0-1.8,0-2.3c0.3,0.7,1.2,1.8,3.9,2c0.2,0,0.5,0,0.7,0C-255.1,414.3-250,414.7-250,417.2z M-250.5,411.6
		c-4.5,1-6.7,2.4-6.7,2.4l0,0c-0.4,0-0.8-0.1-1.2-0.1c-0.3,0-0.5,0-0.7,0c-3.8-0.3-3.9-2.4-3.9-2.4l0,0c0,0,0-0.1,0-0.1
		c0-1.9,3.2-3.4,9.6-4.5c8.1-1.4,11.9-1.2,12.9-1.1l-5.7,2.8l0.2,0.1c0,0,2.4,0.9,3.8,1.5c1,0.4,1.7,0.9,2.1,1.1
		C-241.4,411.1-246.6,410.7-250.5,411.6z"/>
	<path id="XMLID_1520_" class="st0" d="M-251.2,407.3c0,0-0.3,0-1,0.1c0,0-0.1,0-0.1,0c0,0,0,0,0,0c0,0,0,0,0,0
		c-0.7,0.1-1,0.3-1.1,0.3c-0.1,0-0.1,0.1,0,0.2c0,0,0.1,0.1,0.1,0.1c0,0,0,0,0.1,0c0,0,0.3-0.2,0.8-0.3v3.4c-0.1,0-0.1,0-0.2,0
		l-0.7,0.2c-0.1,0-0.1,0.1-0.1,0.2c0,0.1,0.1,0.1,0.1,0.1c0,0,0,0,0,0l0.7-0.2c0.6-0.2,1.3-0.2,1.3-0.2c0.1,0,0.1-0.1,0.1-0.1
		s-0.1-0.1-0.1-0.1c0,0-0.4,0-0.9,0.1v-3.3c0,0,0,0,0,0c0.7-0.1,1-0.1,1-0.1c0.1,0,0.1-0.1,0.1-0.1
		C-251,407.4-251.1,407.3-251.2,407.3z"/>
</g>
<path id="XMLID_434_" class="st1" d="M-257.7,419.7C-257.7,419.7-257.7,419.7-257.7,419.7c-0.1,0-0.7-0.5-1.8-1.5
	c-0.5-0.5-0.7-1.1-0.5-1.7c0.2-0.5,0.7-0.8,1.2-0.8c0.7,0,1.1,0.6,1.3,1c0.2-0.3,0.7-0.7,1.4-0.7c0.4,0,0.8,0.2,0.9,0.7
	c0.3,0.6,0.1,1.3-0.3,1.8C-256.3,419.3-257.6,419.7-257.7,419.7C-257.6,419.7-257.7,419.7-257.7,419.7z M-258.8,415.9
	c-0.4,0-0.8,0.3-0.9,0.7c-0.2,0.5,0,1,0.4,1.5c0.9,0.8,1.5,1.3,1.6,1.4c0.3-0.1,1.3-0.5,2-1.3c0.5-0.5,0.5-1.2,0.3-1.5
	c-0.1-0.3-0.4-0.5-0.7-0.5c-0.9,0-1.3,0.8-1.3,0.8c0,0-0.1,0.1-0.1,0.1c0,0-0.1,0-0.1-0.1C-257.6,416.9-257.9,415.9-258.8,415.9z"/>
</svg>
