<?xml version="1.0" encoding="utf-8"?>
<!-- Generator: Adobe Illustrator 19.0.0, SVG Export Plug-In . SVG Version: 6.00 Build 0)  -->
<svg version="1.1" id="Layer_1" xmlns="http://www.w3.org/2000/svg" xmlns:xlink="http://www.w3.org/1999/xlink" x="0px" y="0px"
	 viewBox="0 0 39.8 36" style="enable-background:new 0 0 39.8 36;" xml:space="preserve">
<style type="text/css">
	.st0{fill:#58595B;}
	.st1{fill:#F3848E;}
</style>
<g id="XMLID_417_">
	<g id="XMLID_421_">
		<path id="XMLID_428_" class="st0" d="M38.3,7.7c0,0-0.9-0.6-2.3-1.3c-1.2-0.6-3.1-1.3-3.7-1.5l5.8-2.8l-0.2,0
			c0,0-3.7-0.5-13.2,1.1c-4.1,0.7-7,1.6-8.5,2.7C15,6.7,15,7.5,15,7.8c0,0.3,0,1.6,0,3c0,1.4,0,3,0.1,4c0,1.4,1.1,2,1.7,2.3
			c-0.3,0-0.7,0-1,0c-1.4,0-2.7-0.1-3.8,0c-3,0.1-6.3,0.7-8.2,4.8c-3.1,6.5,4.1,11.9,4.1,12L8,34L8,33.7c0-0.1-2.1-6.1,1.4-8.7
			c2.1-1.6,5.8-1.1,8.8-0.8c1,0.1,1.9,0.2,2.7,0.3c2.6,0.1,4.9-0.6,6.2-1.8c0.7-0.7,1.1-1.6,1.1-2.6v-4.5V14c0,0,0-0.1,0-0.1v-0.2
			c0-2.3-3.8-2.9-7-3.1c0.6-0.3,2.7-1.5,6.5-2.3c4.4-1,10.5-0.4,10.5-0.4l0.3,0L38.3,7.7z M28.1,20.1c0,1-0.4,1.8-1.1,2.5
			c-1.2,1.2-3.5,1.9-6.1,1.8c-0.8,0-1.7-0.1-2.7-0.3c-3-0.3-6.8-0.8-8.9,0.8c-3.2,2.4-1.9,7.5-1.6,8.6c-1.1-0.9-6.7-5.8-3.9-11.6
			c1.9-4,5.2-4.6,8.1-4.7c0.3,0,0.6,0,1,0c0.9,0,1.9,0,2.9,0c2.9,0.1,6.1,0.1,8.3-0.3c1.6-0.3,3-1,3.7-1.8c0.2-0.2,0.3-0.4,0.3-0.5
			v1V20.1z M28.1,13.7v0.2V14c0,0.2-0.1,0.6-0.5,1.1c-0.5,0.6-1.8,1.4-3.6,1.8c-1.8,0.3-4.4,0.4-6.8,0.3c-0.1,0-2-0.5-2-2.3
			c0-1,0-2.6-0.1-4c0-0.9,0-1.8,0-2.3c0.3,0.7,1.2,1.8,3.9,2c0.2,0,0.5,0,0.7,0C23.1,10.8,28.1,11.1,28.1,13.7z M27.7,8.1
			c-4.5,1-6.7,2.4-6.7,2.4l0,0c-0.4,0-0.8-0.1-1.2-0.1c-0.3,0-0.5,0-0.7,0C15.2,10.1,15.1,8,15.1,8l0,0c0,0,0-0.1,0-0.1
			c0-1.9,3.2-3.4,9.6-4.5c8.1-1.4,11.9-1.2,12.9-1.1L31.9,5L32.1,5c0,0,2.4,0.9,3.8,1.5c1,0.4,1.7,0.9,2.1,1.1
			C36.7,7.6,31.6,7.2,27.7,8.1z"/>
		<path id="XMLID_427_" class="st0" d="M11,18.4c-1.5,0-1.9,0.5-1.9,0.6c0,0.1,0,0.1,0,0.2c0,0,0,0,0.1,0c0,0,0.1,0,0.1,0
			c0,0,0.4-0.4,1.6-0.4v4.2c0,0.1,0.1,0.1,0.1,0.1s0.1-0.1,0.1-0.1v-4.2c1.3,0,1.7,0.3,1.7,0.3c0.1,0,0.1,0,0.2,0c0-0.1,0-0.1,0-0.2
			C12.9,18.7,12.5,18.4,11,18.4z"/>
		<path id="XMLID_426_" class="st0" d="M17,18.6h-2.6c-0.1,0-0.1,0.1-0.1,0.1c0,0,0,0.2-0.2,1.2c0,0.2-0.1,0.4-0.1,0.6c0,0,0,0,0,0
			c0,0,0,0,0,0c0,0.9,0.1,1.7,0.1,1.8c0,0.1,0.1,0.1,0.1,0.1h2.6c0.1,0,0.1-0.1,0.1-0.1s-0.1-0.1-0.1-0.1h-2.5
			c0-0.2-0.1-0.9-0.1-1.5H16c0.1,0,0.1-0.1,0.1-0.1s-0.1-0.1-0.1-0.1h-1.7c0-0.2,0-0.3,0.1-0.4c0.1-0.6,0.2-0.9,0.2-1.1H17
			c0.1,0,0.1-0.1,0.1-0.1S17.1,18.6,17,18.6z"/>
		<path id="XMLID_423_" class="st0" d="M20.6,18.5c-0.1,0-0.1,0-0.2,0.1l-1.7,3.7c0,0.1,0,0.1,0.1,0.2c0.1,0,0.1,0,0.2-0.1l0.6-1.4
			h1.7l0.4,1.4c0,0.1,0.1,0.1,0.1,0.1c0,0,0,0,0,0c0.1,0,0.1-0.1,0.1-0.2l-1.2-3.8C20.8,18.6,20.7,18.5,20.6,18.5z M19.7,20.8
			l0.9-1.9l0.6,1.9H19.7z"/>
		<path id="XMLID_422_" class="st0" d="M27,3.8c0,0-0.3,0-1,0.1c0,0-0.1,0-0.1,0c0,0,0,0,0,0c0,0,0,0,0,0c-0.7,0.1-1,0.3-1.1,0.3
			c-0.1,0-0.1,0.1,0,0.2c0,0,0.1,0.1,0.1,0.1c0,0,0,0,0.1,0c0,0,0.3-0.2,0.8-0.3v3.4c-0.1,0-0.1,0-0.2,0l-0.7,0.2
			c-0.1,0-0.1,0.1-0.1,0.2c0,0.1,0.1,0.1,0.1,0.1c0,0,0,0,0,0l0.7-0.2c0.6-0.2,1.3-0.2,1.3-0.2c0.1,0,0.1-0.1,0.1-0.1
			s-0.1-0.1-0.1-0.1c0,0-0.4,0-0.9,0.1V4.1c0,0,0,0,0,0C26.7,4,27,4,27,4C27,4,27.1,4,27.1,3.9C27.1,3.8,27,3.8,27,3.8z"/>
	</g>
	<path id="XMLID_418_" class="st1" d="M20.5,16.2C20.4,16.2,20.4,16.2,20.5,16.2c-0.1,0-0.7-0.5-1.8-1.5c-0.5-0.5-0.7-1.1-0.5-1.7
		c0.2-0.5,0.7-0.8,1.2-0.8c0.7,0,1.1,0.6,1.3,1c0.2-0.3,0.7-0.7,1.4-0.7c0.4,0,0.8,0.2,0.9,0.7c0.3,0.6,0.1,1.3-0.3,1.8
		C21.8,15.8,20.5,16.2,20.5,16.2C20.5,16.2,20.5,16.2,20.5,16.2z M19.4,12.4c-0.4,0-0.8,0.3-0.9,0.7c-0.2,0.5,0,1,0.4,1.5
		c0.9,0.8,1.5,1.3,1.6,1.4c0.3-0.1,1.3-0.5,2-1.3c0.5-0.5,0.5-1.2,0.3-1.5c-0.1-0.3-0.4-0.5-0.7-0.5c-0.9,0-1.3,0.8-1.3,0.8
		c0,0-0.1,0.1-0.1,0.1c0,0-0.1,0-0.1-0.1C20.5,13.4,20.2,12.4,19.4,12.4z"/>
</g>
</svg>
