<?xml version="1.0" encoding="utf-8"?>
<!-- Generator: Adobe Illustrator 19.0.0, SVG Export Plug-In . SVG Version: 6.00 Build 0)  -->
<svg version="1.1" id="Layer_1" xmlns="http://www.w3.org/2000/svg" xmlns:xlink="http://www.w3.org/1999/xlink" x="0px" y="0px"
	 viewBox="0 0 66.2 49.2" style="enable-background:new 0 0 66.2 49.2;" xml:space="preserve">
<style type="text/css">
	.st0{fill:#20201D;}
</style>
<path id="XMLID_272_" class="st0" d="M62.5,29.8c0,0-0.9,6.5-7,5.2c-6.1-1.2-10.2-9.2-15.3-9.2c-5.2,0-6.6,2.8-6.6,2.8
	s-1.4-2.8-6.6-2.8c-5.2,0-9.2,8-15.3,9.2c-6.1,1.2-7-5.2-7-5.2S4.3,40.1,18.1,40.1c11.2,0,15.5-3.6,15.5-3.6s4.3,3.6,15.5,3.6
	C62.8,40.1,62.5,29.8,62.5,29.8z"/>
<circle id="XMLID_238_" class="st0" cx="18" cy="10.7" r="3.5"/>
<circle id="XMLID_269_" class="st0" cx="50.6" cy="10.7" r="3.5"/>
</svg>
