<?xml version="1.0" encoding="utf-8"?>
<!-- Generator: Adobe Illustrator 19.0.0, SVG Export Plug-In . SVG Version: 6.00 Build 0)  -->
<svg version="1.1" id="Layer_1" xmlns="http://www.w3.org/2000/svg" xmlns:xlink="http://www.w3.org/1999/xlink" x="0px" y="0px"
	 viewBox="0 0 36.5 88.5" style="enable-background:new 0 0 36.5 88.5;" xml:space="preserve">
<style type="text/css">
	.st0{fill:#D19A3A;}
</style>
<path id="XMLID_1545_" class="st0" d="M13.1,44.7l19.1-35c1.4-2.6,0.4-5.8-2.1-7.2c-2.6-1.4-5.8-0.4-7.2,2.1L2.3,42.1c0,0,0,0,0,0
	c-0.1,0.2-0.2,0.4-0.2,0.6C2,42.9,1.9,43,1.9,43.1c0,0.1,0,0.2,0,0.2c-0.1,0.3-0.1,0.5-0.1,0.8c0,0.2,0,0.3,0,0.5c0,0.2,0,0.3,0,0.5
	c0,0.3,0.1,0.5,0.1,0.8c0,0.1,0,0.2,0,0.2c0,0.1,0.1,0.3,0.2,0.4c0.1,0.2,0.1,0.4,0.2,0.6c0,0,0,0,0,0l20.5,37.5
	c1.4,2.6,4.7,3.5,7.2,2.1c2.6-1.4,3.5-4.7,2.1-7.2L13.1,44.7z"/>
</svg>
